<svg id="svg" version="1.1" xmlns="http://www.w3.org/2000/svg" xmlns:xlink="http://www.w3.org/1999/xlink" width="400" height="400" viewBox="0, 0, 400,400"><g id="svgg"><path id="path0" d="M100.800 43.132 C 100.800 43.301,101.025 43.670,101.300 43.951 C 101.704 44.364,101.455 44.449,100.000 44.394 C 97.112 44.285,96.900 44.348,96.636 45.401 C 96.401 46.333,96.952 48.674,98.187 52.000 C 98.473 52.770,99.213 55.020,99.831 57.000 C 100.449 58.980,101.074 60.870,101.219 61.200 C 101.558 61.969,102.670 65.257,103.418 67.700 C 103.738 68.745,104.262 70.455,104.582 71.500 C 105.464 74.384,106.477 77.320,106.853 78.086 C 107.038 78.464,107.362 79.454,107.572 80.286 C 107.967 81.851,108.894 84.760,109.773 87.200 C 110.941 90.438,111.677 92.691,112.032 94.114 C 112.240 94.946,112.574 95.936,112.775 96.314 C 113.207 97.124,113.861 99.121,116.182 106.700 C 117.048 109.529,118.044 112.434,118.657 113.914 C 119.280 115.422,119.358 116.655,118.848 116.970 C 118.654 117.090,96.244 117.196,69.048 117.206 L 19.600 117.225 19.600 119.850 C 19.600 122.138,19.703 122.502,20.400 122.684 C 21.151 122.881,21.399 123.972,21.310 126.684 C 21.301 126.951,21.408 127.154,21.547 127.137 C 22.358 127.035,22.800 127.274,22.800 127.813 C 22.800 128.149,23.070 128.529,23.400 128.655 C 23.730 128.782,24.014 129.361,24.032 129.943 C 24.049 130.524,24.154 130.775,24.265 130.500 C 24.712 129.391,25.600 130.005,25.600 131.424 C 25.600 132.207,25.753 132.753,25.940 132.637 C 26.127 132.522,26.517 132.871,26.807 133.414 C 27.098 133.956,27.575 134.400,27.868 134.400 C 28.160 134.400,28.423 134.760,28.450 135.200 C 28.548 136.766,28.606 136.935,29.100 137.100 C 29.423 137.208,29.525 137.007,29.388 136.533 C 29.117 135.599,29.818 137.036,30.164 138.125 C 30.291 138.524,30.576 138.739,30.797 138.602 C 31.019 138.465,31.200 138.632,31.200 138.973 C 31.200 139.314,31.560 139.818,32.000 140.093 C 32.440 140.368,32.800 140.807,32.800 141.069 C 32.800 141.332,33.160 141.660,33.600 141.800 C 34.040 141.940,34.400 142.258,34.400 142.507 C 34.400 142.829,34.262 142.822,33.920 142.480 C 33.021 141.581,32.657 141.996,33.530 142.926 C 34.009 143.435,34.400 144.059,34.400 144.313 C 34.400 144.567,34.670 144.671,35.000 144.545 C 35.388 144.396,35.600 144.554,35.600 144.995 C 35.600 145.369,35.960 145.769,36.400 145.884 C 36.843 146.000,37.200 146.430,37.200 146.847 C 37.200 147.272,37.480 147.600,37.843 147.600 C 38.250 147.600,38.401 147.820,38.255 148.200 C 38.129 148.530,38.199 148.800,38.413 148.800 C 38.626 148.800,38.800 149.160,38.800 149.600 C 38.800 150.040,39.049 150.400,39.353 150.400 C 39.658 150.400,40.001 150.760,40.116 151.200 C 40.231 151.640,40.612 152.000,40.963 152.000 C 41.313 152.000,41.600 152.261,41.600 152.580 C 41.600 152.899,41.915 153.344,42.300 153.568 C 42.950 153.947,42.946 153.977,42.233 153.988 C 41.430 154.001,41.723 154.599,42.533 154.601 C 42.790 154.602,43.008 154.962,43.019 155.401 C 43.029 155.840,43.269 156.150,43.553 156.089 C 43.837 156.027,44.160 156.326,44.271 156.752 C 44.383 157.178,44.817 157.616,45.237 157.726 C 45.898 157.898,46.238 158.894,46.047 160.100 C 46.021 160.265,46.199 160.400,46.443 160.400 C 46.686 160.400,46.782 160.130,46.655 159.800 C 46.529 159.470,46.599 159.200,46.813 159.200 C 47.164 159.200,47.364 160.146,47.303 161.527 C 47.290 161.825,47.530 161.959,47.853 161.835 C 48.213 161.697,48.566 161.984,48.803 162.608 C 49.010 163.153,49.465 163.600,49.814 163.600 C 50.162 163.600,50.346 163.764,50.222 163.964 C 49.845 164.575,50.430 165.563,51.033 165.332 C 51.345 165.212,51.600 165.299,51.600 165.524 C 51.600 165.749,51.375 166.024,51.100 166.135 C 50.810 166.252,50.904 166.350,51.324 166.368 C 51.722 166.386,51.940 166.574,51.808 166.787 C 51.677 167.000,51.936 167.403,52.384 167.683 C 52.833 167.963,53.200 168.419,53.200 168.696 C 53.200 168.973,53.470 169.200,53.800 169.200 C 54.341 169.200,54.578 169.675,54.447 170.500 C 54.421 170.665,54.771 170.800,55.224 170.800 C 55.680 170.800,55.935 170.981,55.796 171.207 C 55.658 171.430,55.377 171.509,55.172 171.383 C 54.968 171.256,54.800 171.324,54.800 171.534 C 54.800 171.743,55.070 172.018,55.400 172.145 C 55.730 172.271,56.000 172.651,56.000 172.987 C 56.000 173.324,56.204 173.600,56.454 173.600 C 57.024 173.600,59.016 175.683,58.879 176.134 C 58.823 176.318,59.142 176.564,59.589 176.681 C 60.035 176.798,60.400 177.063,60.400 177.270 C 60.400 177.478,60.201 177.524,59.959 177.374 C 59.716 177.224,59.806 177.543,60.160 178.083 C 60.514 178.622,60.667 179.199,60.501 179.365 C 60.336 179.531,60.380 179.630,60.600 179.586 C 61.488 179.407,62.000 179.631,62.000 180.200 C 62.000 180.530,62.179 180.800,62.399 180.800 C 62.618 180.800,63.054 181.385,63.366 182.100 C 63.679 182.815,63.949 183.164,63.967 182.876 C 63.985 182.588,64.172 182.459,64.383 182.589 C 64.593 182.719,64.676 183.057,64.568 183.339 C 64.460 183.621,64.828 184.345,65.386 184.947 C 65.944 185.549,66.400 186.212,66.400 186.421 C 66.400 186.629,66.670 186.800,67.000 186.800 C 67.330 186.800,67.623 187.070,67.650 187.400 C 67.677 187.730,67.745 188.180,67.800 188.400 C 67.855 188.620,67.922 188.991,67.950 189.224 C 67.978 189.457,68.183 189.534,68.407 189.396 C 68.630 189.258,68.709 188.977,68.583 188.772 C 68.456 188.568,68.543 188.400,68.776 188.400 C 69.134 188.400,69.410 189.867,69.247 190.900 C 69.221 191.065,69.560 191.200,70.000 191.200 C 70.452 191.200,70.800 191.467,70.800 191.813 C 70.800 192.149,71.070 192.529,71.400 192.655 C 71.730 192.782,72.014 193.361,72.032 193.943 C 72.049 194.524,72.154 194.775,72.265 194.500 C 72.712 193.391,73.600 194.005,73.600 195.424 C 73.600 196.207,73.753 196.753,73.940 196.637 C 74.127 196.522,74.517 196.871,74.807 197.414 C 75.098 197.956,75.575 198.400,75.868 198.400 C 76.160 198.400,76.422 198.760,76.450 199.200 C 76.548 200.766,76.606 200.935,77.100 201.100 C 77.423 201.208,77.525 201.007,77.388 200.533 C 77.117 199.599,77.818 201.036,78.164 202.125 C 78.291 202.524,78.576 202.739,78.797 202.602 C 79.019 202.465,79.200 202.632,79.200 202.973 C 79.200 203.314,79.560 203.818,80.000 204.093 C 80.440 204.368,80.800 204.807,80.800 205.069 C 80.800 205.332,81.160 205.660,81.600 205.800 C 82.040 205.940,82.400 206.258,82.400 206.507 C 82.400 206.829,82.262 206.822,81.920 206.480 C 81.021 205.581,80.657 205.996,81.530 206.926 C 82.009 207.435,82.400 208.059,82.400 208.313 C 82.400 208.567,82.670 208.671,83.000 208.545 C 83.388 208.396,83.600 208.554,83.600 208.995 C 83.600 209.369,83.960 209.769,84.400 209.884 C 84.843 210.000,85.200 210.430,85.200 210.847 C 85.200 211.272,85.480 211.600,85.843 211.600 C 86.250 211.600,86.401 211.820,86.255 212.200 C 86.129 212.530,86.199 212.800,86.413 212.800 C 86.626 212.800,86.800 213.160,86.800 213.600 C 86.800 214.044,87.067 214.400,87.400 214.400 C 87.730 214.400,88.000 214.687,88.000 215.037 C 88.000 215.388,88.360 215.769,88.800 215.884 C 89.240 215.999,89.600 216.333,89.600 216.627 C 89.600 216.920,89.915 217.344,90.300 217.568 C 90.950 217.947,90.946 217.977,90.233 217.988 C 89.430 218.001,89.723 218.599,90.533 218.601 C 90.790 218.602,91.008 218.962,91.019 219.401 C 91.029 219.840,91.269 220.150,91.553 220.089 C 91.837 220.027,92.160 220.326,92.271 220.752 C 92.383 221.178,92.817 221.616,93.237 221.726 C 93.898 221.898,94.238 222.894,94.047 224.100 C 94.021 224.265,94.199 224.400,94.443 224.400 C 94.686 224.400,94.782 224.130,94.655 223.800 C 94.529 223.470,94.599 223.200,94.813 223.200 C 95.164 223.200,95.364 224.146,95.303 225.527 C 95.290 225.825,95.530 225.959,95.853 225.835 C 96.213 225.697,96.566 225.984,96.803 226.608 C 97.010 227.153,97.465 227.600,97.814 227.600 C 98.162 227.600,98.346 227.764,98.222 227.964 C 97.845 228.575,98.430 229.563,99.033 229.332 C 99.345 229.212,99.600 229.299,99.600 229.524 C 99.600 229.749,99.375 230.024,99.100 230.135 C 98.810 230.252,98.904 230.350,99.324 230.368 C 99.722 230.386,99.940 230.574,99.808 230.787 C 99.677 231.000,99.936 231.403,100.384 231.683 C 100.833 231.963,101.200 232.419,101.200 232.696 C 101.200 232.973,101.470 233.200,101.800 233.200 C 102.341 233.200,102.578 233.675,102.447 234.500 C 102.421 234.665,102.771 234.800,103.224 234.800 C 103.680 234.800,103.935 234.981,103.796 235.207 C 103.658 235.430,103.377 235.509,103.172 235.383 C 102.968 235.256,102.800 235.324,102.800 235.534 C 102.800 235.743,103.070 236.018,103.400 236.145 C 103.730 236.271,104.000 236.651,104.000 236.987 C 104.000 237.324,104.204 237.600,104.454 237.600 C 105.024 237.600,107.016 239.683,106.879 240.134 C 106.823 240.318,107.142 240.564,107.589 240.681 C 108.035 240.798,108.400 241.063,108.400 241.270 C 108.400 241.478,108.201 241.524,107.959 241.374 C 107.716 241.224,107.806 241.543,108.160 242.083 C 108.514 242.622,108.667 243.199,108.501 243.365 C 108.336 243.531,108.380 243.630,108.600 243.586 C 109.488 243.407,110.000 243.631,110.000 244.200 C 110.000 244.530,110.179 244.800,110.399 244.800 C 110.618 244.800,111.054 245.385,111.366 246.100 C 111.679 246.815,111.949 247.164,111.967 246.876 C 111.985 246.588,112.172 246.459,112.383 246.589 C 112.593 246.719,112.676 247.057,112.568 247.339 C 112.460 247.621,112.828 248.345,113.386 248.947 C 113.944 249.549,114.400 250.212,114.400 250.421 C 114.400 250.629,114.670 250.800,115.000 250.800 C 115.330 250.800,115.623 251.070,115.650 251.400 C 115.678 251.730,115.745 252.180,115.800 252.400 C 115.855 252.620,115.922 252.991,115.950 253.224 C 115.978 253.457,116.183 253.534,116.407 253.396 C 116.630 253.258,116.709 252.977,116.583 252.772 C 116.456 252.568,116.543 252.400,116.776 252.400 C 117.134 252.400,117.410 253.867,117.247 254.900 C 117.221 255.065,117.560 255.200,118.000 255.200 C 118.452 255.200,118.800 255.467,118.800 255.813 C 118.800 256.149,119.070 256.529,119.400 256.655 C 119.730 256.782,120.014 257.361,120.032 257.943 C 120.049 258.524,120.154 258.775,120.265 258.500 C 120.712 257.391,121.600 258.005,121.600 259.424 C 121.600 260.207,121.753 260.753,121.940 260.637 C 122.127 260.522,122.517 260.871,122.807 261.414 C 123.098 261.956,123.575 262.400,123.868 262.400 C 124.160 262.400,124.422 262.760,124.450 263.200 C 124.548 264.766,124.606 264.935,125.100 265.100 C 125.423 265.208,125.525 265.007,125.388 264.533 C 125.117 263.599,125.818 265.036,126.164 266.125 C 126.291 266.524,126.576 266.739,126.797 266.602 C 127.019 266.465,127.200 266.632,127.200 266.973 C 127.200 267.314,127.560 267.818,128.000 268.093 C 128.440 268.368,128.800 268.807,128.800 269.069 C 128.800 269.332,129.160 269.660,129.600 269.800 C 130.040 269.940,130.400 270.258,130.400 270.507 C 130.400 270.829,130.262 270.822,129.920 270.480 C 129.021 269.581,128.657 269.996,129.530 270.926 C 130.009 271.435,130.400 272.059,130.400 272.313 C 130.400 272.567,130.646 272.680,130.947 272.565 C 131.272 272.440,131.582 272.689,131.710 273.177 C 131.828 273.630,132.212 274.000,132.563 274.000 C 132.933 274.000,133.200 274.335,133.200 274.800 C 133.200 275.268,133.467 275.600,133.843 275.600 C 134.250 275.600,134.401 275.820,134.255 276.200 C 134.129 276.530,134.199 276.800,134.413 276.800 C 134.626 276.800,134.800 277.160,134.800 277.600 C 134.800 278.040,135.049 278.400,135.353 278.400 C 135.658 278.400,136.001 278.760,136.116 279.200 C 136.231 279.640,136.612 280.000,136.963 280.000 C 137.313 280.000,137.600 280.261,137.600 280.580 C 137.600 280.899,137.915 281.344,138.300 281.568 C 138.950 281.947,138.946 281.977,138.233 281.988 C 137.430 282.001,137.723 282.599,138.533 282.601 C 138.790 282.602,139.008 282.962,139.019 283.401 C 139.029 283.840,139.269 284.150,139.553 284.089 C 139.837 284.027,140.160 284.326,140.271 284.752 C 140.383 285.178,140.817 285.616,141.237 285.726 C 141.898 285.898,142.238 286.894,142.047 288.100 C 142.021 288.265,142.199 288.400,142.443 288.400 C 142.686 288.400,142.782 288.130,142.655 287.800 C 142.529 287.470,142.599 287.200,142.813 287.200 C 143.164 287.200,143.364 288.146,143.303 289.527 C 143.290 289.825,143.530 289.959,143.853 289.835 C 144.213 289.697,144.566 289.984,144.803 290.608 C 145.010 291.153,145.465 291.600,145.814 291.600 C 146.162 291.600,146.346 291.764,146.222 291.964 C 145.845 292.575,146.430 293.563,147.033 293.332 C 147.345 293.212,147.600 293.299,147.600 293.524 C 147.600 293.749,147.375 294.024,147.100 294.135 C 146.810 294.252,146.904 294.350,147.324 294.368 C 147.722 294.386,147.940 294.574,147.808 294.787 C 147.677 295.000,147.936 295.403,148.384 295.683 C 148.833 295.963,149.200 296.419,149.200 296.696 C 149.200 296.973,149.470 297.200,149.800 297.200 C 150.341 297.200,150.578 297.675,150.447 298.500 C 150.421 298.665,150.771 298.800,151.224 298.800 C 151.680 298.800,151.935 298.981,151.796 299.207 C 151.658 299.430,151.377 299.509,151.172 299.383 C 150.968 299.256,150.800 299.324,150.800 299.534 C 150.800 299.743,151.070 300.018,151.400 300.145 C 151.730 300.271,152.000 300.651,152.000 300.987 C 152.000 301.324,152.204 301.600,152.454 301.600 C 153.024 301.600,155.016 303.683,154.879 304.134 C 154.823 304.318,155.142 304.564,155.589 304.681 C 156.035 304.798,156.400 305.063,156.400 305.270 C 156.400 305.478,156.201 305.524,155.959 305.374 C 155.716 305.224,155.806 305.543,156.160 306.083 C 156.514 306.622,156.667 307.199,156.501 307.365 C 156.336 307.531,156.380 307.630,156.600 307.586 C 157.488 307.407,158.000 307.631,158.000 308.200 C 158.000 308.530,158.179 308.800,158.399 308.800 C 158.618 308.800,159.054 309.385,159.366 310.100 C 159.679 310.815,159.949 311.164,159.967 310.876 C 159.985 310.588,160.172 310.459,160.383 310.589 C 160.593 310.719,160.676 311.057,160.568 311.339 C 160.460 311.621,160.828 312.345,161.386 312.947 C 161.944 313.549,162.400 314.212,162.400 314.421 C 162.400 314.629,162.670 314.800,163.000 314.800 C 163.330 314.800,163.623 315.070,163.650 315.400 C 163.678 315.730,163.745 316.180,163.800 316.400 C 163.855 316.620,163.923 316.991,163.950 317.224 C 163.978 317.457,164.183 317.534,164.407 317.396 C 164.630 317.258,164.709 316.977,164.583 316.772 C 164.456 316.568,164.543 316.400,164.776 316.400 C 165.134 316.400,165.410 317.867,165.247 318.900 C 165.221 319.065,165.560 319.200,166.000 319.200 C 166.452 319.200,166.800 319.467,166.800 319.813 C 166.800 320.149,167.070 320.529,167.400 320.655 C 167.730 320.782,168.014 321.361,168.032 321.943 C 168.049 322.524,168.154 322.775,168.265 322.500 C 168.712 321.391,169.600 322.005,169.600 323.424 C 169.600 324.207,169.753 324.753,169.940 324.637 C 170.127 324.522,170.517 324.871,170.807 325.414 C 171.098 325.956,171.575 326.400,171.868 326.400 C 172.160 326.400,172.423 326.760,172.450 327.200 C 172.548 328.766,172.606 328.935,173.100 329.100 C 173.423 329.208,173.525 329.007,173.388 328.533 C 173.117 327.599,173.818 329.036,174.164 330.125 C 174.291 330.524,174.576 330.739,174.797 330.602 C 175.019 330.465,175.200 330.632,175.200 330.973 C 175.200 331.314,175.560 331.818,176.000 332.093 C 176.440 332.368,176.800 332.807,176.800 333.069 C 176.800 333.332,177.160 333.660,177.600 333.800 C 178.040 333.940,178.400 334.258,178.400 334.507 C 178.400 334.829,178.262 334.822,177.920 334.480 C 177.021 333.581,176.657 333.996,177.530 334.926 C 178.009 335.435,178.400 336.059,178.400 336.313 C 178.400 336.567,178.670 336.671,179.000 336.545 C 179.388 336.396,179.600 336.554,179.600 336.995 C 179.600 337.369,179.960 337.769,180.400 337.884 C 180.843 338.000,181.200 338.430,181.200 338.847 C 181.200 339.272,181.480 339.600,181.843 339.600 C 182.250 339.600,182.401 339.820,182.255 340.200 C 182.129 340.530,182.199 340.800,182.413 340.800 C 182.626 340.800,182.800 341.160,182.800 341.600 C 182.800 342.044,183.067 342.400,183.400 342.400 C 183.730 342.400,184.000 342.687,184.000 343.037 C 184.000 343.388,184.360 343.769,184.800 343.884 C 185.240 343.999,185.600 344.333,185.600 344.627 C 185.600 344.920,185.915 345.344,186.300 345.568 C 186.950 345.947,186.946 345.977,186.233 345.988 C 185.430 346.001,185.723 346.599,186.533 346.601 C 186.790 346.602,187.008 346.962,187.019 347.401 C 187.029 347.840,187.269 348.150,187.553 348.089 C 187.837 348.027,188.160 348.326,188.271 348.752 C 188.383 349.178,188.817 349.616,189.237 349.726 C 189.657 349.835,190.000 350.212,190.000 350.563 C 190.000 350.913,190.270 351.200,190.600 351.200 C 190.930 351.200,191.200 351.474,191.200 351.810 C 191.200 352.145,191.631 352.584,192.158 352.784 C 192.685 352.984,193.180 353.340,193.258 353.573 C 193.336 353.807,194.163 354.028,195.095 354.064 C 196.378 354.115,196.691 354.249,196.385 354.619 C 195.886 355.220,196.369 355.416,198.698 355.558 C 200.217 355.650,200.440 355.547,200.806 354.585 C 201.126 353.741,201.419 353.549,202.163 353.691 C 203.034 353.857,203.197 353.610,204.175 350.636 C 204.760 348.856,205.477 346.770,205.768 346.000 C 206.060 345.230,207.062 342.170,207.996 339.200 C 208.929 336.230,209.918 333.259,210.193 332.598 C 210.468 331.938,210.828 330.768,210.993 329.998 C 211.158 329.229,211.442 328.413,211.625 328.184 C 211.808 327.956,212.137 327.056,212.356 326.184 C 212.784 324.481,213.750 321.460,214.588 319.200 C 214.873 318.430,215.613 316.180,216.231 314.200 C 216.849 312.220,217.487 310.330,217.648 310.000 C 217.937 309.407,218.675 307.193,219.814 303.500 C 220.136 302.455,220.664 300.745,220.986 299.700 C 222.231 295.664,222.873 293.774,223.225 293.114 C 223.426 292.736,223.762 291.746,223.972 290.914 C 224.411 289.178,225.423 286.043,226.204 284.000 C 226.499 283.230,227.199 281.160,227.761 279.400 C 229.667 273.425,230.068 272.202,230.580 270.800 C 230.861 270.030,231.500 268.050,232.000 266.400 C 232.500 264.750,233.139 262.770,233.420 262.000 C 234.288 259.622,235.227 256.674,235.644 255.016 C 235.863 254.144,236.203 253.237,236.400 253.000 C 236.597 252.763,236.937 251.856,237.156 250.984 C 237.584 249.284,238.547 246.267,239.387 244.000 C 239.673 243.230,240.940 239.360,242.203 235.400 C 243.466 231.440,244.732 227.570,245.016 226.800 C 245.655 225.064,246.707 221.857,247.245 220.000 C 247.468 219.230,247.910 218.033,248.226 217.340 C 248.542 216.646,248.800 215.797,248.800 215.453 C 248.800 215.109,249.054 214.236,249.364 213.514 C 249.674 212.791,251.673 206.800,253.805 200.200 C 255.938 193.600,257.910 187.659,258.188 186.998 C 258.466 186.338,258.828 185.168,258.993 184.398 C 259.158 183.629,259.442 182.813,259.625 182.584 C 259.808 182.356,260.137 181.456,260.356 180.584 C 260.764 178.961,261.677 176.087,262.573 173.600 C 263.741 170.362,264.477 168.109,264.832 166.686 C 265.040 165.854,265.362 164.864,265.547 164.486 C 265.923 163.720,266.936 160.784,267.818 157.900 C 270.034 150.661,270.736 148.540,271.443 146.940 C 271.749 146.246,272.000 145.382,272.000 145.020 C 272.000 144.657,272.265 143.848,272.589 143.222 C 272.912 142.596,273.346 141.390,273.553 140.542 C 273.760 139.694,274.147 138.370,274.412 137.600 C 274.678 136.830,275.208 135.300,275.590 134.200 C 278.166 126.789,280.800 118.343,280.800 117.496 C 280.800 116.943,281.069 115.976,281.398 115.346 C 281.726 114.716,281.997 113.840,282.000 113.400 C 282.003 112.960,282.257 112.117,282.565 111.527 C 282.873 110.937,283.256 109.857,283.416 109.129 C 283.576 108.400,283.930 107.262,284.203 106.602 C 284.476 105.941,285.103 104.050,285.597 102.400 C 286.090 100.750,286.731 98.860,287.022 98.200 C 287.312 97.540,287.673 96.370,287.826 95.600 C 287.978 94.830,288.349 93.845,288.651 93.411 C 288.953 92.977,289.200 92.203,289.200 91.691 C 289.200 91.179,289.465 90.248,289.789 89.622 C 290.112 88.996,290.552 87.790,290.766 86.942 C 291.279 84.908,292.349 81.710,293.043 80.140 C 293.349 79.446,293.601 78.546,293.602 78.140 C 293.604 77.733,293.857 76.917,294.165 76.327 C 294.473 75.737,294.843 74.657,294.988 73.927 C 295.133 73.197,295.486 72.060,295.772 71.400 C 296.582 69.533,297.630 66.351,297.976 64.707 C 298.149 63.886,298.479 62.986,298.709 62.707 C 298.940 62.428,299.255 61.480,299.409 60.600 C 299.563 59.720,299.940 58.601,300.245 58.114 C 300.550 57.627,300.806 56.817,300.814 56.314 C 300.821 55.811,301.175 54.680,301.600 53.800 C 302.025 52.920,302.385 51.840,302.401 51.400 C 302.416 50.960,302.686 50.150,303.000 49.600 C 303.616 48.523,303.719 45.621,303.200 44.000 C 303.001 43.379,302.865 43.256,302.840 43.675 C 302.791 44.496,300.124 44.992,297.531 44.661 C 296.579 44.540,290.895 44.432,284.900 44.420 C 277.914 44.407,274.000 44.256,274.000 44.000 C 274.000 43.745,277.653 43.589,284.100 43.570 C 289.655 43.554,295.010 43.395,296.000 43.217 C 296.990 43.040,253.475 42.878,199.300 42.859 C 145.125 42.840,100.800 42.963,100.800 43.132 M201.367 44.643 C 201.715 44.776,202.000 45.089,202.000 45.338 C 202.000 45.586,217.952 61.748,237.449 81.254 C 258.167 101.980,272.785 116.901,272.625 117.159 C 272.266 117.740,128.566 117.792,128.207 117.211 C 128.075 116.997,143.966 100.821,163.520 81.264 C 183.075 61.707,199.186 45.412,199.324 45.053 C 199.586 44.372,200.292 44.230,201.367 44.643 M119.477 118.246 C 120.062 118.403,120.436 118.901,120.599 119.741 C 120.733 120.433,121.087 121.630,121.384 122.400 C 121.682 123.170,122.681 126.230,123.604 129.200 C 124.527 132.170,125.409 134.870,125.564 135.200 C 125.718 135.530,126.355 137.420,126.977 139.400 C 127.600 141.380,128.424 143.900,128.807 145.000 C 130.300 149.280,130.483 149.850,130.856 151.384 C 131.068 152.256,131.403 153.163,131.600 153.400 C 131.797 153.637,132.137 154.544,132.356 155.416 C 132.774 157.075,133.713 160.027,134.580 162.400 C 135.784 165.696,137.687 171.522,138.043 173.000 C 138.255 173.880,138.692 175.167,139.014 175.860 C 139.336 176.554,139.600 177.421,139.600 177.787 C 139.600 178.153,139.806 178.837,140.058 179.308 C 140.309 179.778,140.750 180.981,141.037 181.982 C 141.872 184.896,142.830 187.745,143.225 188.486 C 143.426 188.864,143.762 189.854,143.972 190.686 C 144.388 192.332,145.366 195.383,146.188 197.600 C 146.473 198.370,147.213 200.620,147.831 202.600 C 148.449 204.580,149.079 206.470,149.230 206.800 C 149.382 207.130,150.268 209.830,151.199 212.800 C 152.130 215.770,153.118 218.741,153.393 219.402 C 153.668 220.062,154.024 221.200,154.184 221.929 C 154.344 222.657,154.727 223.737,155.035 224.327 C 155.343 224.917,155.596 225.709,155.598 226.086 C 155.599 226.464,155.857 227.364,156.170 228.086 C 156.737 229.391,157.533 231.751,158.569 235.200 C 158.866 236.190,159.311 237.540,159.557 238.200 C 160.295 240.181,164.086 251.709,164.425 253.000 C 164.597 253.660,165.286 255.730,165.956 257.600 C 166.625 259.470,167.180 261.270,167.189 261.600 C 167.198 261.930,167.480 262.728,167.817 263.374 C 168.154 264.019,168.587 265.189,168.779 265.974 C 168.972 266.758,169.347 268.030,169.612 268.800 C 170.903 272.543,171.535 274.427,172.361 277.000 C 172.855 278.540,173.491 280.430,173.775 281.200 C 174.059 281.970,174.700 283.950,175.200 285.600 C 175.700 287.250,176.339 289.230,176.620 290.000 C 176.901 290.770,177.389 292.210,177.703 293.200 C 178.819 296.713,180.507 301.820,181.008 303.200 C 181.288 303.970,183.263 310.000,185.397 316.600 C 187.531 323.200,189.506 329.141,189.785 329.802 C 190.065 330.462,190.428 331.632,190.593 332.402 C 190.758 333.171,191.042 333.987,191.225 334.216 C 191.408 334.444,191.732 335.344,191.944 336.216 C 192.319 337.758,192.536 338.433,193.996 342.600 C 195.809 347.774,197.259 352.813,197.071 353.282 C 196.952 353.579,196.849 353.458,196.830 353.000 C 196.804 352.375,196.494 352.185,195.416 352.130 C 194.272 352.071,193.589 351.592,191.431 349.330 C 187.851 345.578,187.600 345.273,187.600 344.681 C 187.600 344.395,186.880 343.412,186.000 342.496 C 185.120 341.580,184.400 340.638,184.400 340.403 C 184.400 340.167,184.130 339.871,183.800 339.745 C 183.470 339.618,183.200 339.234,183.200 338.891 C 183.200 338.279,182.699 337.631,180.900 335.914 C 180.405 335.442,180.000 334.837,180.000 334.571 C 180.000 334.304,179.730 333.982,179.400 333.855 C 179.070 333.729,178.800 333.350,178.800 333.013 C 178.800 332.676,178.091 331.636,177.224 330.700 C 174.552 327.818,174.400 327.618,174.400 326.987 C 174.400 326.651,174.130 326.271,173.800 326.145 C 173.470 326.018,173.200 325.684,173.200 325.403 C 173.200 325.122,172.750 324.597,172.200 324.237 C 171.650 323.876,171.200 323.335,171.200 323.034 C 171.200 322.732,170.930 322.382,170.600 322.255 C 170.270 322.129,170.000 321.749,170.000 321.413 C 170.000 320.841,169.540 320.228,167.581 318.186 C 167.151 317.738,166.800 317.153,166.800 316.886 C 166.800 316.619,166.530 316.400,166.200 316.400 C 165.867 316.400,165.600 316.044,165.600 315.600 C 165.600 314.911,164.821 313.917,161.806 310.766 C 161.473 310.418,161.200 309.827,161.200 309.454 C 161.200 309.080,160.930 308.671,160.600 308.545 C 160.270 308.418,160.000 308.129,160.000 307.903 C 160.000 307.677,159.595 307.076,159.100 306.568 C 157.181 304.599,156.800 304.117,156.800 303.653 C 156.800 303.389,156.185 302.558,155.433 301.807 C 154.682 301.055,153.949 300.071,153.806 299.620 C 153.663 299.169,153.288 298.800,152.973 298.800 C 152.658 298.800,152.400 298.478,152.400 298.084 C 152.400 297.690,151.725 296.613,150.900 295.689 C 148.627 293.145,148.000 292.287,148.000 291.719 C 148.000 291.433,147.814 291.200,147.587 291.200 C 147.361 291.200,147.055 290.885,146.908 290.500 C 146.760 290.115,146.046 289.187,145.320 288.439 C 144.594 287.690,144.000 286.811,144.000 286.485 C 144.000 286.158,143.595 285.500,143.100 285.021 C 141.403 283.379,139.600 281.123,139.600 280.642 C 139.600 280.378,138.917 279.450,138.081 278.580 C 137.246 277.711,136.441 276.685,136.294 276.300 C 136.146 275.915,135.839 275.600,135.613 275.600 C 135.386 275.600,135.200 275.300,135.200 274.934 C 135.200 274.282,134.718 273.649,132.900 271.914 C 132.405 271.442,132.000 270.837,132.000 270.571 C 132.000 270.304,131.730 269.982,131.400 269.855 C 131.070 269.729,130.800 269.350,130.800 269.013 C 130.800 268.676,130.091 267.636,129.224 266.700 C 126.552 263.818,126.400 263.618,126.400 262.987 C 126.400 262.651,126.130 262.271,125.800 262.145 C 125.470 262.018,125.200 261.684,125.200 261.403 C 125.200 261.122,124.750 260.597,124.200 260.237 C 123.650 259.876,123.200 259.335,123.200 259.034 C 123.200 258.732,122.930 258.382,122.600 258.255 C 122.270 258.129,122.000 257.749,122.000 257.413 C 122.000 256.841,121.540 256.228,119.581 254.186 C 119.151 253.738,118.800 253.153,118.800 252.886 C 118.800 252.619,118.530 252.400,118.200 252.400 C 117.867 252.400,117.600 252.044,117.600 251.600 C 117.600 250.911,116.821 249.917,113.806 246.766 C 113.473 246.418,113.200 245.827,113.200 245.454 C 113.200 245.080,112.930 244.671,112.600 244.545 C 112.270 244.418,112.000 244.129,112.000 243.903 C 112.000 243.677,111.595 243.076,111.100 242.568 C 109.181 240.599,108.800 240.117,108.800 239.653 C 108.800 239.389,108.185 238.558,107.433 237.807 C 106.682 237.055,105.949 236.071,105.806 235.620 C 105.663 235.169,105.288 234.800,104.973 234.800 C 104.658 234.800,104.400 234.478,104.400 234.084 C 104.400 233.690,103.725 232.613,102.900 231.689 C 100.627 229.145,100.000 228.287,100.000 227.719 C 100.000 227.433,99.814 227.200,99.587 227.200 C 99.361 227.200,99.055 226.885,98.908 226.500 C 98.760 226.115,98.046 225.187,97.320 224.439 C 96.594 223.690,96.000 222.811,96.000 222.485 C 96.000 222.158,95.595 221.500,95.100 221.021 C 93.403 219.379,91.600 217.123,91.600 216.642 C 91.600 216.378,90.880 215.412,90.000 214.496 C 89.120 213.580,88.400 212.638,88.400 212.403 C 88.400 212.167,88.130 211.871,87.800 211.745 C 87.470 211.618,87.200 211.234,87.200 210.891 C 87.200 210.279,86.699 209.631,84.900 207.914 C 84.405 207.442,84.000 206.837,84.000 206.571 C 84.000 206.304,83.730 205.982,83.400 205.855 C 83.070 205.729,82.800 205.350,82.800 205.013 C 82.800 204.676,82.091 203.636,81.224 202.700 C 78.552 199.818,78.400 199.618,78.400 198.987 C 78.400 198.651,78.130 198.271,77.800 198.145 C 77.470 198.018,77.200 197.684,77.200 197.403 C 77.200 197.122,76.750 196.597,76.200 196.237 C 75.650 195.876,75.200 195.335,75.200 195.034 C 75.200 194.732,74.930 194.382,74.600 194.255 C 74.270 194.129,74.000 193.749,74.000 193.413 C 74.000 192.841,73.540 192.228,71.581 190.186 C 71.151 189.738,70.800 189.153,70.800 188.886 C 70.800 188.619,70.530 188.400,70.200 188.400 C 69.867 188.400,69.600 188.044,69.600 187.600 C 69.600 186.911,68.821 185.917,65.806 182.766 C 65.473 182.418,65.200 181.827,65.200 181.454 C 65.200 181.080,64.930 180.671,64.600 180.545 C 64.270 180.418,64.000 180.129,64.000 179.903 C 64.000 179.677,63.595 179.076,63.100 178.568 C 61.181 176.599,60.800 176.117,60.800 175.653 C 60.800 175.389,60.185 174.558,59.433 173.807 C 58.682 173.055,57.949 172.071,57.806 171.620 C 57.663 171.169,57.288 170.800,56.973 170.800 C 56.658 170.800,56.400 170.478,56.400 170.084 C 56.400 169.690,55.725 168.613,54.900 167.689 C 52.627 165.145,52.000 164.287,52.000 163.719 C 52.000 163.433,51.814 163.200,51.587 163.200 C 51.361 163.200,51.055 162.885,50.908 162.500 C 50.760 162.115,50.046 161.187,49.320 160.439 C 48.594 159.690,48.000 158.811,48.000 158.485 C 48.000 158.158,47.595 157.500,47.100 157.021 C 45.403 155.379,43.600 153.123,43.600 152.642 C 43.600 152.378,42.880 151.412,42.000 150.496 C 41.120 149.580,40.400 148.638,40.400 148.403 C 40.400 148.167,40.130 147.871,39.800 147.745 C 39.470 147.618,39.200 147.234,39.200 146.891 C 39.200 146.279,38.699 145.631,36.900 143.914 C 36.405 143.442,36.000 142.837,36.000 142.571 C 36.000 142.304,35.730 141.982,35.400 141.855 C 35.070 141.729,34.800 141.350,34.800 141.013 C 34.800 140.676,34.091 139.636,33.224 138.700 C 30.552 135.818,30.400 135.618,30.400 134.987 C 30.400 134.651,30.130 134.271,29.800 134.145 C 29.470 134.018,29.200 133.684,29.200 133.403 C 29.200 133.122,28.750 132.597,28.200 132.237 C 27.650 131.876,27.200 131.335,27.200 131.034 C 27.200 130.732,26.930 130.382,26.600 130.255 C 26.270 130.129,26.000 129.659,26.000 129.213 C 26.000 128.766,25.816 128.400,25.591 128.400 C 25.367 128.400,24.978 127.950,24.727 127.400 C 24.477 126.850,24.030 126.400,23.736 126.400 C 23.404 126.400,23.200 125.930,23.200 125.163 C 23.200 124.262,22.983 123.868,22.400 123.716 C 21.441 123.465,21.175 118.638,22.100 118.265 C 22.808 117.979,118.413 117.961,119.477 118.246 " stroke="none" fill="#74a4e4" fill-rule="evenodd"></path><path id="path1" d="M305.500 44.665 C 306.246 44.966,306.104 45.742,305.200 46.307 C 304.721 46.606,304.396 47.247,304.391 47.903 C 304.386 48.507,304.026 49.785,303.591 50.744 C 303.156 51.703,302.799 52.783,302.798 53.144 C 302.796 53.505,302.533 54.303,302.212 54.917 C 301.892 55.531,301.506 56.701,301.355 57.517 C 301.203 58.333,300.857 59.360,300.585 59.800 C 300.312 60.240,299.973 61.267,299.830 62.083 C 299.687 62.899,299.308 64.069,298.988 64.683 C 298.667 65.297,298.404 66.165,298.402 66.611 C 298.401 67.057,298.156 67.777,297.857 68.211 C 297.558 68.645,297.183 69.711,297.024 70.580 C 296.864 71.448,296.479 72.523,296.167 72.969 C 295.855 73.414,295.594 74.233,295.586 74.789 C 295.579 75.345,295.225 76.520,294.800 77.400 C 294.375 78.280,294.021 79.309,294.014 79.686 C 294.006 80.064,293.743 80.964,293.430 81.686 C 292.761 83.226,291.707 86.402,291.192 88.426 C 290.992 89.211,290.554 90.381,290.217 91.026 C 289.880 91.672,289.604 92.590,289.602 93.068 C 289.601 93.545,289.352 94.445,289.049 95.068 C 288.307 96.592,287.209 99.862,286.824 101.693 C 286.651 102.514,286.329 103.414,286.107 103.693 C 285.886 103.972,285.575 104.914,285.418 105.786 C 285.260 106.659,284.877 107.865,284.566 108.466 C 284.255 109.068,284.000 109.849,284.000 110.202 C 284.000 110.555,283.657 111.599,283.238 112.522 C 282.818 113.445,282.414 114.920,282.339 115.800 L 282.203 117.400 331.301 117.502 L 380.400 117.603 380.395 115.502 C 380.388 112.839,380.057 111.600,379.353 111.600 C 379.049 111.600,378.800 111.240,378.800 110.800 C 378.800 110.356,378.533 110.000,378.200 110.000 C 377.867 110.000,377.600 109.644,377.600 109.200 C 377.600 108.760,377.465 108.421,377.300 108.447 C 376.416 108.587,376.000 108.316,376.000 107.600 C 376.000 107.160,375.865 106.821,375.700 106.847 C 374.875 106.978,374.400 106.741,374.400 106.200 C 374.400 105.870,374.151 105.600,373.847 105.600 C 373.542 105.600,373.198 105.235,373.081 104.789 C 372.964 104.342,372.718 104.004,372.534 104.036 C 371.624 104.196,371.176 103.933,371.282 103.300 C 371.363 102.823,371.177 102.637,370.700 102.718 C 370.291 102.786,370.000 102.584,370.000 102.232 C 370.000 101.520,368.656 100.701,368.166 101.114 C 367.979 101.271,368.054 101.101,368.333 100.736 C 368.641 100.331,368.688 99.978,368.454 99.833 C 368.242 99.702,367.977 99.821,367.866 100.098 C 367.709 100.487,367.656 100.482,367.632 100.076 C 367.614 99.788,367.429 99.658,367.221 99.787 C 367.011 99.917,366.915 99.640,367.006 99.168 C 367.134 98.505,367.009 98.357,366.448 98.503 C 366.012 98.617,365.530 98.380,365.233 97.904 C 364.845 97.282,364.845 97.180,365.232 97.420 C 365.547 97.615,365.621 97.558,365.438 97.262 C 365.281 97.008,364.623 96.800,363.976 96.800 C 363.329 96.800,362.800 96.600,362.800 96.356 C 362.800 95.767,361.121 94.016,360.547 94.007 C 360.297 94.003,359.998 93.635,359.881 93.189 C 359.764 92.742,359.433 92.427,359.144 92.489 C 358.855 92.550,358.557 92.195,358.482 91.700 C 358.406 91.205,358.106 90.800,357.815 90.800 C 357.524 90.800,357.182 90.530,357.055 90.200 C 356.929 89.870,356.549 89.600,356.213 89.600 C 355.867 89.600,355.600 89.252,355.600 88.800 C 355.600 88.267,355.333 88.000,354.800 88.000 C 354.360 88.000,354.000 87.742,354.000 87.427 C 354.000 87.112,353.627 86.736,353.171 86.591 C 352.673 86.433,352.428 86.103,352.559 85.764 C 352.700 85.396,352.501 85.200,351.987 85.200 C 351.554 85.200,351.200 84.950,351.200 84.643 C 351.200 84.337,350.751 83.974,350.202 83.836 C 349.654 83.699,349.249 83.364,349.302 83.093 C 349.356 82.822,349.175 82.645,348.900 82.700 C 348.607 82.759,348.400 82.387,348.400 81.800 C 348.400 81.250,348.265 80.821,348.100 80.847 C 347.279 80.977,346.874 80.724,346.674 79.960 C 346.553 79.498,346.282 79.226,346.072 79.355 C 345.613 79.639,344.695 78.638,345.070 78.263 C 345.215 78.118,345.077 78.000,344.763 78.000 C 344.449 78.000,343.968 77.640,343.693 77.200 C 343.410 76.748,342.760 76.400,342.197 76.400 C 341.307 76.400,341.007 76.025,341.153 75.100 C 341.179 74.935,341.065 74.821,340.900 74.847 C 340.075 74.978,339.600 74.741,339.600 74.200 C 339.600 73.867,339.244 73.600,338.800 73.600 C 338.348 73.600,338.000 73.333,338.000 72.987 C 338.000 72.651,337.748 72.278,337.439 72.160 C 337.131 72.041,336.783 71.579,336.666 71.132 C 336.542 70.655,336.267 70.435,336.000 70.600 C 335.732 70.766,335.456 70.537,335.326 70.040 C 335.198 69.550,334.783 69.200,334.330 69.200 C 333.902 69.200,333.660 69.026,333.792 68.813 C 333.923 68.600,333.664 68.197,333.216 67.917 C 332.767 67.637,332.400 67.170,332.400 66.880 C 332.400 66.590,332.220 66.464,332.000 66.600 C 331.780 66.736,331.600 66.646,331.600 66.400 C 331.600 66.154,331.420 66.064,331.200 66.200 C 330.980 66.336,330.800 66.098,330.800 65.670 C 330.800 65.226,330.452 64.802,329.989 64.681 C 329.542 64.564,329.227 64.237,329.289 63.953 C 329.391 63.477,329.233 63.394,327.957 63.250 C 327.714 63.223,327.617 62.932,327.743 62.605 C 327.868 62.277,327.843 62.029,327.686 62.052 C 326.863 62.175,326.400 61.935,326.400 61.387 C 326.400 61.050,325.995 60.611,325.500 60.412 C 325.005 60.213,324.757 60.039,324.949 60.025 C 325.141 60.011,325.084 59.743,324.823 59.428 C 324.562 59.113,323.984 58.926,323.539 59.012 C 322.832 59.148,322.797 59.084,323.264 58.509 C 323.720 57.949,323.710 57.884,323.198 58.075 C 322.461 58.350,321.672 57.584,321.921 56.836 C 322.031 56.506,321.925 56.399,321.652 56.568 C 321.403 56.722,321.200 56.657,321.200 56.424 C 321.200 56.191,320.750 56.000,320.200 56.000 C 319.599 56.000,319.200 55.772,319.200 55.427 C 319.200 55.112,318.849 54.743,318.420 54.606 C 317.949 54.457,317.729 54.130,317.863 53.780 C 318.014 53.386,317.814 53.200,317.243 53.200 C 316.667 53.200,316.400 52.947,316.400 52.400 C 316.400 51.867,316.133 51.600,315.600 51.600 C 315.156 51.600,314.800 51.333,314.800 51.000 C 314.800 50.670,314.530 50.400,314.200 50.400 C 313.867 50.400,313.600 50.044,313.600 49.600 C 313.600 49.067,313.333 48.800,312.800 48.800 C 312.259 48.800,312.000 48.533,312.000 47.976 C 312.000 47.490,311.824 47.262,311.569 47.419 C 311.333 47.565,310.786 47.306,310.354 46.843 C 309.922 46.379,309.169 46.000,308.681 46.000 C 308.192 46.000,307.568 45.640,307.293 45.200 C 307.018 44.760,306.390 44.414,305.897 44.432 C 305.403 44.449,305.225 44.554,305.500 44.665 M85.093 51.200 C 84.716 51.640,84.575 52.000,84.780 52.000 C 84.985 52.000,85.259 51.828,85.389 51.617 C 85.519 51.407,85.935 51.351,86.313 51.492 C 86.913 51.717,86.931 51.665,86.451 51.075 C 85.782 50.253,85.914 50.241,85.093 51.200 M83.452 53.008 C 83.317 53.362,83.024 53.539,82.803 53.402 C 82.210 53.035,82.313 53.570,82.960 54.217 C 83.439 54.696,83.556 54.628,83.779 53.741 C 84.073 52.571,83.829 52.025,83.452 53.008 M81.762 54.738 C 81.919 54.992,81.857 55.200,81.624 55.200 C 81.391 55.200,81.200 55.380,81.200 55.600 C 81.200 56.212,81.885 56.076,82.140 55.413 C 82.264 55.090,82.165 54.702,81.921 54.551 C 81.652 54.385,81.589 54.459,81.762 54.738 M79.600 56.800 C 79.600 57.240,79.799 57.600,80.043 57.600 C 80.286 57.600,80.386 57.342,80.265 57.026 C 80.144 56.710,80.260 56.364,80.522 56.257 C 80.785 56.151,80.685 56.049,80.300 56.032 C 79.856 56.012,79.600 56.293,79.600 56.800 M64.855 70.600 C 63.978 71.564,63.771 72.000,64.190 72.000 C 64.526 72.000,64.800 71.724,64.800 71.387 C 64.800 71.050,65.115 70.645,65.500 70.487 C 65.885 70.329,66.245 69.975,66.300 69.700 C 66.451 68.944,66.243 69.074,64.855 70.600 M60.751 73.961 C 61.054 74.153,61.180 74.509,61.030 74.751 C 60.859 75.027,60.989 75.102,61.379 74.953 C 62.178 74.646,62.172 74.152,61.367 73.843 C 60.450 73.491,60.111 73.556,60.751 73.961 M59.208 75.390 C 58.930 75.726,58.854 76.000,59.040 76.000 C 59.226 76.000,58.978 76.280,58.489 76.623 C 58.000 76.965,57.600 77.407,57.600 77.604 C 57.600 77.801,58.073 77.524,58.650 76.988 C 59.228 76.453,59.842 76.102,60.015 76.209 C 60.361 76.423,60.290 75.357,59.935 75.002 C 59.814 74.880,59.486 75.055,59.208 75.390 M44.003 89.989 C 43.567 90.265,43.526 90.486,43.850 90.810 C 44.174 91.134,44.351 91.031,44.509 90.426 C 44.628 89.972,44.697 89.603,44.663 89.606 C 44.628 89.609,44.332 89.782,44.003 89.989 M42.428 91.174 C 42.114 91.373,41.816 91.811,41.767 92.147 C 41.695 92.632,41.821 92.669,42.372 92.325 C 42.869 92.014,43.427 90.734,43.033 90.806 C 43.015 90.809,42.743 90.975,42.428 91.174 M39.054 94.602 C 38.915 94.965,39.056 95.200,39.413 95.200 C 40.060 95.200,40.207 94.575,39.642 94.226 C 39.445 94.104,39.181 94.274,39.054 94.602 M35.715 97.667 C 35.745 98.070,35.963 98.400,36.199 98.400 C 36.435 98.400,36.629 98.070,36.629 97.667 C 36.629 97.263,36.411 96.933,36.144 96.933 C 35.878 96.933,35.685 97.263,35.715 97.667 M373.214 133.574 C 372.559 134.798,372.730 135.026,373.600 134.092 C 374.485 133.142,374.595 132.800,374.014 132.800 C 373.802 132.800,373.442 133.148,373.214 133.574 M364.601 145.134 C 364.711 145.245,364.500 145.669,364.130 146.077 C 363.628 146.632,363.576 146.918,363.926 147.213 C 364.183 147.429,364.311 147.491,364.211 147.351 C 363.939 146.970,364.789 145.546,365.153 145.771 C 365.326 145.878,365.467 145.733,365.467 145.449 C 365.467 145.165,365.227 144.933,364.933 144.933 C 364.640 144.933,364.490 145.024,364.601 145.134 M360.205 151.100 C 360.278 151.485,360.355 151.890,360.376 152.000 C 360.426 152.277,361.186 151.070,361.194 150.700 C 361.197 150.535,360.946 150.400,360.635 150.400 C 360.313 150.400,360.128 150.701,360.205 151.100 M355.600 156.825 C 355.600 157.280,356.675 157.327,356.949 156.883 C 357.056 156.709,356.797 156.540,356.372 156.508 C 355.948 156.476,355.600 156.619,355.600 156.825 M351.900 161.876 C 351.515 161.976,351.203 162.360,351.206 162.729 C 351.211 163.266,351.282 163.290,351.561 162.849 C 351.753 162.546,352.111 162.421,352.355 162.572 C 352.609 162.729,352.800 162.579,352.800 162.224 C 352.800 161.881,352.755 161.621,352.700 161.646 C 352.645 161.672,352.285 161.775,351.900 161.876 M347.000 168.400 C 346.864 168.620,347.134 168.800,347.600 168.800 C 348.066 168.800,348.336 168.620,348.200 168.400 C 348.064 168.180,347.794 168.000,347.600 168.000 C 347.406 168.000,347.136 168.180,347.000 168.400 M342.400 173.853 C 342.400 174.091,343.585 175.319,343.631 175.129 C 343.894 174.023,343.804 173.755,343.153 173.706 C 342.739 173.675,342.400 173.741,342.400 173.853 M337.432 181.513 L 336.664 182.600 337.732 181.630 C 338.854 180.611,338.993 180.392,338.500 180.413 C 338.335 180.419,337.854 180.914,337.432 181.513 M334.000 185.800 C 333.592 186.291,333.620 186.400,334.151 186.400 C 334.508 186.400,334.800 186.130,334.800 185.800 C 334.800 185.470,334.732 185.200,334.649 185.200 C 334.566 185.200,334.274 185.470,334.000 185.800 M325.214 197.574 C 324.559 198.798,324.730 199.026,325.600 198.092 C 326.485 197.142,326.595 196.800,326.014 196.800 C 325.802 196.800,325.442 197.148,325.214 197.574 M316.601 209.134 C 316.711 209.245,316.500 209.669,316.130 210.077 C 315.628 210.632,315.576 210.918,315.926 211.213 C 316.183 211.429,316.311 211.491,316.211 211.351 C 315.939 210.970,316.789 209.546,317.153 209.771 C 317.326 209.878,317.467 209.733,317.467 209.449 C 317.467 209.165,317.227 208.933,316.933 208.933 C 316.640 208.933,316.490 209.024,316.601 209.134 M312.205 215.100 C 312.278 215.485,312.355 215.890,312.376 216.000 C 312.426 216.277,313.186 215.070,313.194 214.700 C 313.197 214.535,312.946 214.400,312.635 214.400 C 312.313 214.400,312.128 214.701,312.205 215.100 M307.600 220.825 C 307.600 221.280,308.675 221.327,308.949 220.883 C 309.056 220.709,308.797 220.540,308.372 220.508 C 307.948 220.476,307.600 220.619,307.600 220.825 M303.900 225.876 C 303.515 225.976,303.203 226.360,303.206 226.729 C 303.211 227.266,303.282 227.290,303.561 226.849 C 303.753 226.546,304.111 226.421,304.355 226.572 C 304.609 226.729,304.800 226.579,304.800 226.224 C 304.800 225.881,304.755 225.621,304.700 225.646 C 304.645 225.672,304.285 225.775,303.900 225.876 M299.000 232.400 C 298.864 232.620,299.134 232.800,299.600 232.800 C 300.066 232.800,300.336 232.620,300.200 232.400 C 300.064 232.180,299.794 232.000,299.600 232.000 C 299.406 232.000,299.136 232.180,299.000 232.400 M294.400 237.853 C 294.400 238.091,295.585 239.319,295.631 239.129 C 295.894 238.023,295.804 237.755,295.153 237.706 C 294.739 237.675,294.400 237.741,294.400 237.853 M289.432 245.513 L 288.664 246.600 289.732 245.630 C 290.854 244.611,290.993 244.392,290.500 244.413 C 290.335 244.419,289.854 244.914,289.432 245.513 M286.000 249.800 C 285.592 250.291,285.620 250.400,286.151 250.400 C 286.508 250.400,286.800 250.130,286.800 249.800 C 286.800 249.470,286.732 249.200,286.649 249.200 C 286.566 249.200,286.274 249.470,286.000 249.800 M277.214 261.574 C 276.559 262.798,276.730 263.026,277.600 262.092 C 278.485 261.142,278.595 260.800,278.014 260.800 C 277.802 260.800,277.442 261.148,277.214 261.574 M268.601 273.134 C 268.711 273.245,268.500 273.669,268.130 274.077 C 267.628 274.632,267.576 274.918,267.926 275.213 C 268.183 275.429,268.311 275.491,268.211 275.351 C 267.939 274.970,268.789 273.546,269.153 273.771 C 269.326 273.878,269.467 273.733,269.467 273.449 C 269.467 273.165,269.227 272.933,268.933 272.933 C 268.640 272.933,268.490 273.024,268.601 273.134 M264.205 279.100 C 264.278 279.485,264.355 279.890,264.376 280.000 C 264.426 280.277,265.186 279.070,265.194 278.700 C 265.197 278.535,264.946 278.400,264.635 278.400 C 264.313 278.400,264.128 278.701,264.205 279.100 M259.600 284.825 C 259.600 285.280,260.675 285.327,260.949 284.883 C 261.056 284.709,260.797 284.540,260.372 284.508 C 259.948 284.476,259.600 284.619,259.600 284.825 M255.900 289.876 C 255.515 289.976,255.203 290.360,255.206 290.729 C 255.211 291.266,255.282 291.290,255.561 290.849 C 255.753 290.546,256.111 290.421,256.355 290.572 C 256.609 290.729,256.800 290.579,256.800 290.224 C 256.800 289.881,256.755 289.621,256.700 289.646 C 256.645 289.672,256.285 289.775,255.900 289.876 M251.000 296.400 C 250.864 296.620,251.134 296.800,251.600 296.800 C 252.066 296.800,252.336 296.620,252.200 296.400 C 252.064 296.180,251.794 296.000,251.600 296.000 C 251.406 296.000,251.136 296.180,251.000 296.400 M246.400 301.853 C 246.400 302.091,247.585 303.319,247.631 303.129 C 247.894 302.023,247.804 301.755,247.153 301.706 C 246.739 301.675,246.400 301.741,246.400 301.853 M241.432 309.513 L 240.664 310.600 241.732 309.630 C 242.854 308.611,242.993 308.392,242.500 308.413 C 242.335 308.419,241.854 308.914,241.432 309.513 M238.000 313.800 C 237.592 314.291,237.620 314.400,238.151 314.400 C 238.508 314.400,238.800 314.130,238.800 313.800 C 238.800 313.470,238.732 313.200,238.649 313.200 C 238.566 313.200,238.274 313.470,238.000 313.800 M229.214 325.574 C 228.559 326.798,228.730 327.026,229.600 326.092 C 230.485 325.142,230.595 324.800,230.014 324.800 C 229.802 324.800,229.442 325.148,229.214 325.574 M220.601 337.134 C 220.711 337.245,220.500 337.669,220.130 338.077 C 219.628 338.632,219.576 338.918,219.926 339.213 C 220.183 339.429,220.311 339.491,220.211 339.351 C 219.939 338.970,220.789 337.546,221.153 337.771 C 221.326 337.878,221.467 337.733,221.467 337.449 C 221.467 337.165,221.227 336.933,220.933 336.933 C 220.640 336.933,220.490 337.024,220.601 337.134 M216.205 343.100 C 216.278 343.485,216.355 343.890,216.376 344.000 C 216.426 344.277,217.186 343.070,217.194 342.700 C 217.197 342.535,216.946 342.400,216.635 342.400 C 216.313 342.400,216.128 342.701,216.205 343.100 " stroke="none" fill="#b2d3fc" fill-rule="evenodd"></path><path id="path2" d="M22.100 118.265 C 21.175 118.638,21.441 123.465,22.400 123.716 C 22.983 123.868,23.200 124.262,23.200 125.163 C 23.200 125.930,23.404 126.400,23.736 126.400 C 24.030 126.400,24.477 126.850,24.727 127.400 C 24.978 127.950,25.367 128.400,25.591 128.400 C 25.816 128.400,26.000 128.766,26.000 129.213 C 26.000 129.659,26.270 130.129,26.600 130.255 C 26.930 130.382,27.200 130.732,27.200 131.034 C 27.200 131.335,27.650 131.876,28.200 132.237 C 28.750 132.597,29.200 133.122,29.200 133.403 C 29.200 133.684,29.470 134.018,29.800 134.145 C 30.130 134.271,30.400 134.651,30.400 134.987 C 30.400 135.618,30.552 135.818,33.224 138.700 C 34.091 139.636,34.800 140.676,34.800 141.013 C 34.800 141.350,35.070 141.729,35.400 141.855 C 35.730 141.982,36.000 142.304,36.000 142.571 C 36.000 142.837,36.405 143.442,36.900 143.914 C 38.699 145.631,39.200 146.279,39.200 146.891 C 39.200 147.234,39.470 147.618,39.800 147.745 C 40.130 147.871,40.400 148.167,40.400 148.403 C 40.400 148.638,41.120 149.580,42.000 150.496 C 42.880 151.412,43.600 152.378,43.600 152.642 C 43.600 153.123,45.403 155.379,47.100 157.021 C 47.595 157.500,48.000 158.158,48.000 158.485 C 48.000 158.811,48.594 159.690,49.320 160.439 C 50.046 161.187,50.760 162.115,50.908 162.500 C 51.055 162.885,51.361 163.200,51.587 163.200 C 51.814 163.200,52.000 163.433,52.000 163.719 C 52.000 164.287,52.627 165.145,54.900 167.689 C 55.725 168.613,56.400 169.690,56.400 170.084 C 56.400 170.478,56.658 170.800,56.973 170.800 C 57.288 170.800,57.663 171.169,57.806 171.620 C 57.949 172.071,58.682 173.055,59.433 173.807 C 60.185 174.558,60.800 175.389,60.800 175.653 C 60.800 176.117,61.181 176.599,63.100 178.568 C 63.595 179.076,64.000 179.677,64.000 179.903 C 64.000 180.129,64.270 180.418,64.600 180.545 C 64.930 180.671,65.200 181.080,65.200 181.454 C 65.200 181.827,65.473 182.418,65.806 182.766 C 68.821 185.917,69.600 186.911,69.600 187.600 C 69.600 188.044,69.867 188.400,70.200 188.400 C 70.530 188.400,70.800 188.619,70.800 188.886 C 70.800 189.153,71.151 189.738,71.581 190.186 C 73.540 192.228,74.000 192.841,74.000 193.413 C 74.000 193.749,74.270 194.129,74.600 194.255 C 74.930 194.382,75.200 194.732,75.200 195.034 C 75.200 195.335,75.650 195.876,76.200 196.237 C 76.750 196.597,77.200 197.122,77.200 197.403 C 77.200 197.684,77.470 198.018,77.800 198.145 C 78.130 198.271,78.400 198.651,78.400 198.987 C 78.400 199.618,78.552 199.818,81.224 202.700 C 82.091 203.636,82.800 204.676,82.800 205.013 C 82.800 205.350,83.070 205.729,83.400 205.855 C 83.730 205.982,84.000 206.304,84.000 206.571 C 84.000 206.837,84.405 207.442,84.900 207.914 C 86.699 209.631,87.200 210.279,87.200 210.891 C 87.200 211.234,87.470 211.618,87.800 211.745 C 88.130 211.871,88.400 212.167,88.400 212.403 C 88.400 212.638,89.120 213.580,90.000 214.496 C 90.880 215.412,91.600 216.378,91.600 216.642 C 91.600 217.123,93.403 219.379,95.100 221.021 C 95.595 221.500,96.000 222.158,96.000 222.485 C 96.000 222.811,96.594 223.690,97.320 224.439 C 98.046 225.187,98.760 226.115,98.908 226.500 C 99.055 226.885,99.361 227.200,99.587 227.200 C 99.814 227.200,100.000 227.433,100.000 227.719 C 100.000 228.287,100.627 229.145,102.900 231.689 C 103.725 232.613,104.400 233.690,104.400 234.084 C 104.400 234.478,104.658 234.800,104.973 234.800 C 105.288 234.800,105.663 235.169,105.806 235.620 C 105.949 236.071,106.682 237.055,107.433 237.807 C 108.185 238.558,108.800 239.389,108.800 239.653 C 108.800 240.117,109.181 240.599,111.100 242.568 C 111.595 243.076,112.000 243.677,112.000 243.903 C 112.000 244.129,112.270 244.418,112.600 244.545 C 112.930 244.671,113.200 245.080,113.200 245.454 C 113.200 245.827,113.473 246.418,113.806 246.766 C 116.821 249.917,117.600 250.911,117.600 251.600 C 117.600 252.044,117.867 252.400,118.200 252.400 C 118.530 252.400,118.800 252.619,118.800 252.886 C 118.800 253.153,119.151 253.738,119.581 254.186 C 121.540 256.228,122.000 256.841,122.000 257.413 C 122.000 257.749,122.270 258.129,122.600 258.255 C 122.930 258.382,123.200 258.732,123.200 259.034 C 123.200 259.335,123.650 259.876,124.200 260.237 C 124.750 260.597,125.200 261.122,125.200 261.403 C 125.200 261.684,125.470 262.018,125.800 262.145 C 126.130 262.271,126.400 262.651,126.400 262.987 C 126.400 263.618,126.552 263.818,129.224 266.700 C 130.091 267.636,130.800 268.676,130.800 269.013 C 130.800 269.350,131.070 269.729,131.400 269.855 C 131.730 269.982,132.000 270.304,132.000 270.571 C 132.000 270.837,132.405 271.442,132.900 271.914 C 134.718 273.649,135.200 274.282,135.200 274.934 C 135.200 275.300,135.386 275.600,135.613 275.600 C 135.839 275.600,136.146 275.915,136.294 276.300 C 136.441 276.685,137.246 277.711,138.081 278.580 C 138.917 279.450,139.600 280.378,139.600 280.642 C 139.600 281.123,141.403 283.379,143.100 285.021 C 143.595 285.500,144.000 286.158,144.000 286.485 C 144.000 286.811,144.594 287.690,145.320 288.439 C 146.046 289.187,146.760 290.115,146.908 290.500 C 147.055 290.885,147.361 291.200,147.587 291.200 C 147.814 291.200,148.000 291.433,148.000 291.719 C 148.000 292.287,148.627 293.145,150.900 295.689 C 151.725 296.613,152.400 297.690,152.400 298.084 C 152.400 298.478,152.658 298.800,152.973 298.800 C 153.288 298.800,153.663 299.169,153.806 299.620 C 153.949 300.071,154.682 301.055,155.433 301.807 C 156.185 302.558,156.800 303.389,156.800 303.653 C 156.800 304.117,157.181 304.599,159.100 306.568 C 159.595 307.076,160.000 307.677,160.000 307.903 C 160.000 308.129,160.270 308.418,160.600 308.545 C 160.930 308.671,161.200 309.080,161.200 309.454 C 161.200 309.827,161.473 310.418,161.806 310.766 C 164.821 313.917,165.600 314.911,165.600 315.600 C 165.600 316.044,165.867 316.400,166.200 316.400 C 166.530 316.400,166.800 316.619,166.800 316.886 C 166.800 317.153,167.151 317.738,167.581 318.186 C 169.540 320.228,170.000 320.841,170.000 321.413 C 170.000 321.749,170.270 322.129,170.600 322.255 C 170.930 322.382,171.200 322.732,171.200 323.034 C 171.200 323.335,171.650 323.876,172.200 324.237 C 172.750 324.597,173.200 325.122,173.200 325.403 C 173.200 325.684,173.470 326.018,173.800 326.145 C 174.130 326.271,174.400 326.651,174.400 326.987 C 174.400 327.618,174.552 327.818,177.224 330.700 C 178.091 331.636,178.800 332.676,178.800 333.013 C 178.800 333.350,179.070 333.729,179.400 333.855 C 179.730 333.982,180.000 334.304,180.000 334.571 C 180.000 334.837,180.405 335.442,180.900 335.914 C 182.699 337.631,183.200 338.279,183.200 338.891 C 183.200 339.234,183.470 339.618,183.800 339.745 C 184.130 339.871,184.400 340.167,184.400 340.403 C 184.400 340.638,185.120 341.580,186.000 342.496 C 186.880 343.412,187.600 344.395,187.600 344.681 C 187.600 345.273,187.851 345.578,191.431 349.330 C 193.589 351.592,194.272 352.071,195.416 352.130 C 196.494 352.185,196.804 352.375,196.830 353.000 C 196.849 353.458,196.952 353.579,197.071 353.282 C 197.259 352.813,195.809 347.774,193.996 342.600 C 192.536 338.433,192.319 337.758,191.944 336.216 C 191.732 335.344,191.408 334.444,191.225 334.216 C 191.042 333.987,190.758 333.171,190.593 332.402 C 190.428 331.632,190.065 330.462,189.785 329.802 C 189.506 329.141,187.531 323.200,185.397 316.600 C 183.263 310.000,181.288 303.970,181.008 303.200 C 180.507 301.820,178.819 296.713,177.703 293.200 C 177.389 292.210,176.901 290.770,176.620 290.000 C 176.339 289.230,175.700 287.250,175.200 285.600 C 174.700 283.950,174.059 281.970,173.775 281.200 C 173.491 280.430,172.855 278.540,172.361 277.000 C 171.535 274.427,170.903 272.543,169.612 268.800 C 169.347 268.030,168.972 266.758,168.779 265.974 C 168.587 265.189,168.154 264.019,167.817 263.374 C 167.480 262.728,167.198 261.930,167.189 261.600 C 167.180 261.270,166.625 259.470,165.956 257.600 C 165.286 255.730,164.597 253.660,164.425 253.000 C 164.086 251.709,160.295 240.181,159.557 238.200 C 159.311 237.540,158.866 236.190,158.569 235.200 C 157.533 231.751,156.737 229.391,156.170 228.086 C 155.857 227.364,155.599 226.464,155.598 226.086 C 155.596 225.709,155.343 224.917,155.035 224.327 C 154.727 223.737,154.344 222.657,154.184 221.929 C 154.024 221.200,153.668 220.062,153.393 219.402 C 153.118 218.741,152.130 215.770,151.199 212.800 C 150.268 209.830,149.382 207.130,149.230 206.800 C 149.079 206.470,148.449 204.580,147.831 202.600 C 147.213 200.620,146.473 198.370,146.188 197.600 C 145.366 195.383,144.388 192.332,143.972 190.686 C 143.762 189.854,143.426 188.864,143.225 188.486 C 142.830 187.745,141.872 184.896,141.037 181.982 C 140.750 180.981,140.309 179.778,140.058 179.308 C 139.806 178.837,139.600 178.153,139.600 177.787 C 139.600 177.421,139.336 176.554,139.014 175.860 C 138.692 175.167,138.255 173.880,138.043 173.000 C 137.687 171.522,135.784 165.696,134.580 162.400 C 133.713 160.027,132.774 157.075,132.356 155.416 C 132.137 154.544,131.797 153.637,131.600 153.400 C 131.403 153.163,131.068 152.256,130.856 151.384 C 130.483 149.850,130.300 149.280,128.807 145.000 C 128.424 143.900,127.600 141.380,126.977 139.400 C 126.355 137.420,125.718 135.530,125.564 135.200 C 125.409 134.870,124.527 132.170,123.604 129.200 C 122.681 126.230,121.682 123.170,121.384 122.400 C 121.087 121.630,120.733 120.433,120.599 119.741 C 120.436 118.901,120.062 118.403,119.477 118.246 C 118.413 117.961,22.808 117.979,22.100 118.265 " stroke="none" fill="#5484cc" fill-rule="evenodd"></path><path id="path3" d="M98.667 43.067 C 97.912 43.821,98.492 44.400,100.003 44.400 C 101.507 44.400,101.576 44.350,101.107 43.600 C 100.625 42.827,99.214 42.519,98.667 43.067 M296.000 43.220 C 295.010 43.397,289.655 43.554,284.100 43.570 C 277.653 43.589,274.000 43.745,274.000 44.000 C 274.000 44.256,277.914 44.407,284.900 44.420 C 290.895 44.432,296.579 44.540,297.531 44.661 C 299.862 44.958,302.800 44.490,302.800 43.822 C 302.800 42.822,299.754 42.552,296.000 43.220 M94.200 44.800 C 94.064 45.020,94.064 45.380,94.200 45.600 C 94.339 45.826,94.015 46.000,93.456 46.000 C 92.125 46.000,91.154 46.403,91.426 46.842 C 91.644 47.194,91.084 47.358,90.100 47.230 C 89.825 47.194,89.600 47.533,89.600 47.982 C 89.600 48.507,89.339 48.800,88.870 48.800 C 87.932 48.800,86.228 50.599,86.598 51.197 C 86.761 51.460,86.651 51.624,86.340 51.583 C 84.983 51.407,84.069 52.107,83.786 53.537 C 83.627 54.342,83.416 54.775,83.315 54.500 C 83.020 53.688,82.505 53.926,82.236 55.000 C 82.098 55.550,81.808 56.000,81.592 56.000 C 81.028 56.000,81.108 55.304,81.700 55.065 C 81.999 54.944,81.918 54.850,81.500 54.832 C 81.056 54.812,80.800 55.093,80.800 55.600 C 80.800 56.040,80.626 56.400,80.413 56.400 C 80.199 56.400,80.129 56.670,80.255 57.000 C 80.382 57.330,80.301 57.600,80.076 57.600 C 79.851 57.600,79.576 57.375,79.465 57.100 C 79.341 56.792,79.251 56.860,79.232 57.276 C 79.214 57.648,78.992 58.081,78.738 58.238 C 78.452 58.415,78.385 58.348,78.562 58.062 C 78.719 57.808,78.678 57.600,78.470 57.600 C 78.263 57.600,77.994 57.978,77.874 58.440 C 77.753 58.902,77.467 59.165,77.239 59.024 C 77.010 58.883,76.714 59.202,76.581 59.734 C 76.437 60.308,76.066 60.680,75.669 60.650 C 75.261 60.620,75.022 60.873,75.056 61.300 C 75.090 61.739,74.830 62.000,74.356 62.000 C 73.871 62.000,73.600 62.282,73.600 62.787 C 73.600 63.336,73.411 63.502,72.976 63.335 C 72.564 63.177,72.280 63.373,72.139 63.911 C 72.022 64.359,71.583 64.816,71.163 64.926 C 70.743 65.035,70.400 65.412,70.400 65.763 C 70.400 66.113,70.130 66.400,69.800 66.400 C 69.470 66.400,69.200 66.670,69.200 67.000 C 69.200 67.333,68.844 67.600,68.400 67.600 C 67.883 67.600,67.600 67.867,67.600 68.353 C 67.600 68.782,67.238 69.201,66.760 69.326 C 66.298 69.447,66.026 69.718,66.155 69.928 C 66.285 70.137,66.033 70.403,65.596 70.517 C 65.158 70.631,64.800 71.012,64.800 71.363 C 64.800 71.713,64.485 72.006,64.100 72.013 C 63.296 72.027,61.908 72.974,62.225 73.292 C 62.342 73.408,61.979 73.619,61.419 73.760 C 60.473 73.997,60.113 74.848,60.386 76.200 C 60.430 76.420,60.333 76.467,60.170 76.303 C 60.007 76.140,59.651 76.192,59.379 76.418 C 59.107 76.643,58.640 76.777,58.342 76.714 C 58.044 76.651,57.843 76.873,57.896 77.206 C 57.949 77.540,57.615 78.048,57.154 78.336 C 56.693 78.624,56.436 78.666,56.582 78.430 C 56.728 78.193,56.657 78.000,56.424 78.000 C 56.191 78.000,56.000 78.354,56.000 78.787 C 56.000 79.292,55.802 79.499,55.449 79.364 C 55.101 79.230,54.806 79.524,54.645 80.162 C 54.474 80.843,54.198 81.097,53.796 80.943 C 53.384 80.785,53.200 80.975,53.200 81.557 C 53.200 82.148,52.948 82.400,52.357 82.400 C 51.772 82.400,51.585 82.584,51.745 83.000 C 51.951 83.537,51.555 83.782,50.700 83.647 C 50.535 83.621,50.400 83.939,50.400 84.353 C 50.400 84.770,50.043 85.200,49.600 85.316 C 49.160 85.431,48.800 85.806,48.800 86.150 C 48.800 86.540,48.575 86.689,48.203 86.546 C 47.843 86.408,47.498 86.611,47.334 87.058 C 47.183 87.466,46.822 87.944,46.530 88.120 C 46.239 88.296,46.000 88.701,46.000 89.020 C 46.000 89.339,45.724 89.600,45.387 89.600 C 45.050 89.600,44.645 89.915,44.487 90.300 C 44.329 90.685,43.975 91.000,43.700 91.000 C 43.425 91.000,43.216 91.164,43.236 91.364 C 43.275 91.761,42.119 92.518,41.266 92.654 C 40.523 92.772,39.648 94.060,39.887 94.683 C 40.018 95.024,39.731 95.200,39.043 95.200 C 38.469 95.200,38.000 95.391,38.000 95.624 C 38.000 95.857,37.840 95.949,37.645 95.828 C 37.450 95.708,37.193 95.985,37.072 96.445 C 36.940 96.953,36.671 97.167,36.387 96.992 C 36.034 96.774,36.030 96.909,36.374 97.552 C 36.790 98.329,36.727 98.400,35.614 98.400 C 34.802 98.400,34.400 98.598,34.400 99.000 C 34.400 99.330,34.100 99.600,33.733 99.600 C 33.367 99.600,33.178 99.711,33.314 99.848 C 33.622 100.155,32.842 100.953,31.875 101.320 C 31.476 101.471,31.261 101.776,31.398 101.997 C 31.535 102.219,31.379 102.400,31.051 102.400 C 30.722 102.400,30.340 102.760,30.200 103.200 C 30.060 103.640,29.598 104.000,29.173 104.000 C 28.667 104.000,28.400 104.276,28.400 104.800 C 28.400 105.333,28.133 105.600,27.600 105.600 C 27.156 105.600,26.800 105.867,26.800 106.200 C 26.800 106.530,26.530 106.800,26.200 106.800 C 25.867 106.800,25.600 107.156,25.600 107.600 C 25.600 108.133,25.333 108.400,24.800 108.400 C 24.267 108.400,24.000 108.667,24.000 109.200 C 24.000 109.741,23.733 110.000,23.176 110.000 C 22.723 110.000,22.449 110.156,22.567 110.347 C 22.685 110.537,22.425 111.015,21.991 111.409 C 21.556 111.802,21.200 112.615,21.200 113.215 C 21.200 113.941,20.952 114.372,20.460 114.500 C 19.925 114.640,19.731 115.044,19.760 115.959 L 19.800 117.225 69.148 117.206 C 96.290 117.196,118.655 117.090,118.848 116.970 C 119.358 116.655,119.280 115.421,118.657 113.914 C 118.044 112.434,117.048 109.529,116.182 106.700 C 113.861 99.121,113.207 97.124,112.775 96.314 C 112.574 95.936,112.240 94.946,112.032 94.114 C 111.677 92.691,110.941 90.438,109.773 87.200 C 108.894 84.760,107.967 81.851,107.572 80.286 C 107.362 79.454,107.038 78.464,106.853 78.086 C 106.477 77.320,105.464 74.384,104.582 71.500 C 104.262 70.455,103.738 68.745,103.418 67.700 C 102.670 65.257,101.558 61.969,101.219 61.200 C 101.074 60.870,100.449 58.980,99.831 57.000 C 99.213 55.020,98.473 52.770,98.187 52.000 C 96.952 48.674,96.401 46.333,96.636 45.401 C 96.900 44.347,94.800 43.829,94.200 44.800 M199.324 45.053 C 199.186 45.412,183.075 61.707,163.520 81.264 C 143.966 100.821,128.075 116.997,128.207 117.211 C 128.566 117.792,272.266 117.740,272.625 117.159 C 272.785 116.901,258.167 101.980,237.449 81.254 C 217.952 61.748,202.000 45.586,202.000 45.338 C 202.000 44.327,199.697 44.082,199.324 45.053 M303.535 46.351 C 303.621 47.592,303.439 48.751,303.035 49.532 C 302.686 50.207,302.394 51.084,302.386 51.480 C 302.379 51.876,302.025 52.920,301.600 53.800 C 301.175 54.680,300.821 55.811,300.814 56.314 C 300.806 56.817,300.550 57.627,300.245 58.114 C 299.940 58.601,299.563 59.720,299.409 60.600 C 299.255 61.480,298.940 62.428,298.709 62.707 C 298.479 62.986,298.149 63.886,297.976 64.707 C 297.630 66.351,296.582 69.533,295.772 71.400 C 295.486 72.060,295.133 73.197,294.988 73.927 C 294.843 74.657,294.473 75.737,294.165 76.327 C 293.857 76.917,293.604 77.733,293.602 78.140 C 293.601 78.546,293.349 79.446,293.043 80.140 C 292.349 81.710,291.279 84.908,290.766 86.942 C 290.552 87.790,290.112 88.996,289.789 89.622 C 289.465 90.248,289.200 91.179,289.200 91.691 C 289.200 92.203,288.953 92.977,288.651 93.411 C 288.349 93.845,287.978 94.830,287.826 95.600 C 287.673 96.370,287.312 97.540,287.022 98.200 C 286.731 98.860,286.090 100.750,285.597 102.400 C 285.103 104.050,284.476 105.941,284.203 106.602 C 283.930 107.262,283.576 108.400,283.416 109.129 C 283.256 109.857,282.873 110.937,282.565 111.527 C 282.257 112.117,282.003 112.960,282.000 113.400 C 281.997 113.840,281.726 114.716,281.398 115.346 C 281.069 115.976,280.800 116.943,280.800 117.496 C 280.800 118.343,278.166 126.789,275.590 134.200 C 275.208 135.300,274.678 136.830,274.412 137.600 C 274.147 138.370,273.760 139.694,273.553 140.542 C 273.346 141.390,272.912 142.596,272.589 143.222 C 272.265 143.848,272.000 144.657,272.000 145.020 C 272.000 145.382,271.749 146.246,271.443 146.940 C 270.736 148.540,270.034 150.661,267.818 157.900 C 266.936 160.784,265.923 163.720,265.547 164.486 C 265.362 164.864,265.040 165.854,264.832 166.686 C 264.477 168.109,263.741 170.362,262.573 173.600 C 261.677 176.087,260.764 178.961,260.356 180.584 C 260.137 181.456,259.808 182.356,259.625 182.584 C 259.442 182.813,259.158 183.629,258.993 184.398 C 258.828 185.168,258.466 186.338,258.188 186.998 C 257.910 187.659,255.938 193.600,253.805 200.200 C 251.673 206.800,249.674 212.791,249.364 213.514 C 249.054 214.236,248.800 215.109,248.800 215.453 C 248.800 215.797,248.549 216.646,248.243 217.340 C 247.649 218.684,246.615 221.704,245.963 224.000 C 245.745 224.770,245.326 226.030,245.033 226.800 C 244.740 227.570,243.466 231.440,242.203 235.400 C 240.940 239.360,239.673 243.230,239.387 244.000 C 238.547 246.267,237.584 249.284,237.156 250.984 C 236.937 251.856,236.597 252.763,236.400 253.000 C 236.203 253.237,235.863 254.144,235.644 255.016 C 235.227 256.674,234.288 259.622,233.420 262.000 C 233.139 262.770,232.500 264.750,232.000 266.400 C 231.500 268.050,230.861 270.030,230.580 270.800 C 230.068 272.202,229.667 273.425,227.761 279.400 C 227.199 281.160,226.499 283.230,226.204 284.000 C 225.423 286.043,224.411 289.178,223.972 290.914 C 223.762 291.746,223.426 292.736,223.225 293.114 C 222.873 293.774,222.231 295.664,220.986 299.700 C 220.664 300.745,220.136 302.455,219.814 303.500 C 218.675 307.193,217.937 309.407,217.648 310.000 C 217.487 310.330,216.849 312.220,216.231 314.200 C 215.613 316.180,214.873 318.430,214.588 319.200 C 213.750 321.460,212.784 324.481,212.356 326.184 C 212.137 327.056,211.808 327.956,211.625 328.184 C 211.442 328.413,211.158 329.229,210.993 329.998 C 210.828 330.768,210.468 331.938,210.193 332.598 C 209.918 333.259,208.929 336.230,207.996 339.200 C 207.062 342.170,206.060 345.230,205.768 346.000 C 205.477 346.770,204.763 348.846,204.182 350.613 C 203.229 353.514,203.029 353.825,202.115 353.813 C 201.435 353.804,200.995 354.086,200.775 354.673 C 200.482 355.450,200.575 355.542,201.623 355.512 C 202.270 355.493,202.803 355.281,202.806 355.039 C 202.809 354.798,202.982 354.868,203.189 355.197 C 203.490 355.672,203.668 355.692,204.063 355.297 C 204.459 354.901,204.442 354.799,203.980 354.794 C 203.487 354.789,203.490 354.730,204.000 354.400 C 204.330 354.187,205.126 354.009,205.769 354.006 C 206.411 354.003,207.250 353.716,207.633 353.370 C 208.016 353.023,208.661 352.687,209.065 352.623 C 209.469 352.559,209.775 352.212,209.744 351.853 C 209.711 351.462,209.989 351.200,210.437 351.200 C 210.898 351.200,211.280 350.822,211.432 350.213 C 211.569 349.671,211.887 349.266,212.140 349.313 C 212.393 349.361,212.555 349.175,212.500 348.900 C 212.445 348.625,212.599 348.400,212.843 348.400 C 213.086 348.400,213.176 348.113,213.041 347.763 C 212.878 347.338,213.064 347.056,213.598 346.916 C 214.039 346.801,214.400 346.470,214.400 346.180 C 214.400 345.891,214.763 345.539,215.206 345.398 C 215.649 345.257,215.916 344.988,215.799 344.799 C 215.683 344.610,215.759 344.349,215.969 344.219 C 216.179 344.089,216.282 343.627,216.198 343.192 C 216.087 342.616,216.264 342.400,216.847 342.400 C 217.287 342.400,217.542 342.229,217.412 342.020 C 217.283 341.811,217.543 341.445,217.989 341.206 C 218.495 340.935,218.802 340.363,218.806 339.686 C 218.811 338.849,218.899 338.737,219.189 339.197 C 219.511 339.705,219.643 339.711,220.083 339.238 C 220.469 338.823,220.474 338.754,220.100 338.965 C 219.825 339.120,219.600 339.079,219.600 338.873 C 219.600 338.434,220.824 337.349,221.136 337.511 C 221.254 337.572,221.392 337.333,221.444 336.980 C 221.624 335.751,221.979 335.200,222.587 335.200 C 222.933 335.200,223.200 334.852,223.200 334.400 C 223.200 333.956,223.467 333.600,223.800 333.600 C 224.130 333.600,224.400 333.427,224.400 333.216 C 224.400 333.004,224.805 332.438,225.300 331.957 C 225.795 331.476,225.987 331.202,225.728 331.348 C 225.468 331.494,225.142 331.430,225.004 331.207 C 224.866 330.983,225.033 330.800,225.376 330.800 C 225.721 330.800,226.000 330.462,226.000 330.044 C 226.000 329.570,226.261 329.310,226.700 329.344 C 227.143 329.380,227.447 329.070,227.528 328.500 C 227.612 327.910,227.931 327.600,228.455 327.600 C 229.065 327.600,229.195 327.416,229.006 326.820 C 228.847 326.317,229.050 325.750,229.580 325.220 C 230.031 324.769,230.400 324.220,230.400 324.000 C 230.400 323.780,230.679 323.600,231.021 323.600 C 231.362 323.600,231.830 323.060,232.060 322.400 C 232.290 321.740,232.654 321.200,232.868 321.200 C 233.551 321.200,234.294 320.194,234.583 318.877 C 234.778 317.991,235.095 317.600,235.619 317.600 C 236.127 317.600,236.299 317.403,236.145 317.000 C 235.984 316.580,236.175 316.400,236.781 316.400 C 237.333 316.400,237.544 316.233,237.362 315.939 C 237.206 315.686,237.410 315.236,237.815 314.939 C 238.277 314.602,238.356 314.400,238.027 314.400 C 237.599 314.400,237.596 314.286,238.016 313.781 C 238.426 313.287,238.596 313.267,238.859 313.681 C 239.079 314.029,239.190 313.853,239.194 313.147 C 239.198 312.433,239.458 312.026,240.000 311.884 C 240.440 311.769,240.806 311.343,240.813 310.937 C 240.830 310.008,242.254 308.262,242.747 308.567 C 243.166 308.826,243.600 307.910,243.600 306.767 C 243.600 306.267,243.878 306.000,244.400 306.000 C 244.844 306.000,245.200 305.733,245.200 305.400 C 245.200 305.070,245.391 304.800,245.624 304.800 C 245.857 304.800,245.944 304.632,245.817 304.427 C 245.690 304.222,245.995 303.754,246.493 303.386 C 247.099 302.939,247.234 302.653,246.900 302.525 C 246.625 302.420,246.400 302.149,246.400 301.924 C 246.400 301.699,246.687 301.624,247.037 301.759 C 247.462 301.922,247.744 301.736,247.884 301.202 C 247.999 300.761,248.347 300.400,248.657 300.400 C 248.966 300.400,249.395 299.939,249.609 299.376 C 249.823 298.813,250.169 298.457,250.378 298.587 C 250.587 298.716,250.688 298.457,250.602 298.011 C 250.485 297.401,250.663 297.193,251.323 297.172 C 252.166 297.145,252.169 297.131,251.400 296.814 C 250.639 296.500,250.649 296.465,251.600 296.096 C 252.150 295.883,252.555 295.594,252.500 295.454 C 252.250 294.819,252.449 294.400,253.000 294.400 C 253.343 294.400,253.600 294.040,253.600 293.557 C 253.600 292.999,253.789 292.787,254.161 292.930 C 254.921 293.221,255.286 292.786,254.786 292.183 C 254.487 291.823,254.648 291.625,255.389 291.438 C 255.945 291.299,256.400 291.008,256.400 290.792 C 256.400 290.228,255.704 290.308,255.465 290.900 C 255.344 291.199,255.250 291.118,255.232 290.700 C 255.214 290.315,255.445 290.000,255.744 290.000 C 256.043 290.000,256.628 289.530,257.044 288.956 C 258.268 287.265,258.839 286.777,259.275 287.046 C 259.535 287.207,259.587 286.988,259.416 286.450 C 259.210 285.801,259.318 285.593,259.873 285.568 C 260.293 285.550,260.389 285.452,260.100 285.335 C 259.342 285.029,259.502 284.348,260.300 284.482 C 260.771 284.562,261.000 284.340,261.001 283.805 C 261.001 283.367,261.315 282.950,261.701 282.876 C 262.085 282.802,262.400 282.497,262.400 282.198 C 262.400 281.899,262.763 281.539,263.206 281.398 C 263.649 281.257,263.916 280.988,263.799 280.799 C 263.683 280.610,263.759 280.349,263.969 280.219 C 264.179 280.089,264.282 279.627,264.198 279.192 C 264.087 278.616,264.264 278.400,264.847 278.400 C 265.287 278.400,265.542 278.229,265.412 278.020 C 265.283 277.811,265.543 277.445,265.989 277.206 C 266.495 276.935,266.802 276.363,266.806 275.686 C 266.811 274.849,266.899 274.737,267.189 275.197 C 267.511 275.705,267.643 275.711,268.083 275.238 C 268.469 274.823,268.474 274.754,268.100 274.965 C 267.825 275.120,267.600 275.067,267.600 274.847 C 267.600 274.413,268.381 273.816,268.962 273.806 C 269.161 273.803,269.372 273.471,269.431 273.069 C 269.625 271.751,269.965 271.200,270.587 271.200 C 270.933 271.200,271.200 270.852,271.200 270.400 C 271.200 269.956,271.467 269.600,271.800 269.600 C 272.130 269.600,272.400 269.427,272.400 269.216 C 272.400 269.004,272.805 268.438,273.300 267.957 C 273.795 267.476,273.987 267.202,273.728 267.348 C 273.468 267.494,273.142 267.430,273.004 267.207 C 272.866 266.983,273.033 266.800,273.376 266.800 C 273.721 266.800,274.000 266.462,274.000 266.044 C 274.000 265.570,274.261 265.310,274.700 265.344 C 275.143 265.380,275.447 265.070,275.528 264.500 C 275.612 263.910,275.931 263.600,276.455 263.600 C 277.065 263.600,277.195 263.416,277.006 262.820 C 276.847 262.317,277.050 261.750,277.580 261.220 C 278.031 260.769,278.400 260.220,278.400 260.000 C 278.400 259.780,278.679 259.600,279.021 259.600 C 279.362 259.600,279.830 259.060,280.060 258.400 C 280.290 257.740,280.654 257.200,280.868 257.200 C 281.551 257.200,282.294 256.194,282.583 254.877 C 282.778 253.991,283.095 253.600,283.619 253.600 C 284.127 253.600,284.299 253.403,284.145 253.000 C 283.984 252.580,284.175 252.400,284.781 252.400 C 285.333 252.400,285.544 252.233,285.362 251.939 C 285.206 251.686,285.410 251.236,285.815 250.939 C 286.277 250.602,286.356 250.400,286.027 250.400 C 285.599 250.400,285.596 250.286,286.016 249.781 C 286.426 249.287,286.596 249.267,286.859 249.681 C 287.079 250.029,287.190 249.853,287.194 249.147 C 287.198 248.433,287.458 248.026,288.000 247.884 C 288.440 247.769,288.806 247.343,288.813 246.937 C 288.830 246.008,290.254 244.262,290.747 244.567 C 291.166 244.826,291.600 243.910,291.600 242.767 C 291.600 242.267,291.878 242.000,292.400 242.000 C 292.844 242.000,293.200 241.733,293.200 241.400 C 293.200 241.070,293.391 240.800,293.624 240.800 C 293.857 240.800,293.944 240.632,293.817 240.427 C 293.690 240.222,293.995 239.754,294.493 239.386 C 295.099 238.939,295.234 238.653,294.900 238.525 C 294.625 238.420,294.400 238.149,294.400 237.924 C 294.400 237.699,294.687 237.624,295.037 237.759 C 295.462 237.922,295.744 237.736,295.884 237.202 C 295.999 236.761,296.347 236.400,296.657 236.400 C 296.966 236.400,297.395 235.939,297.609 235.376 C 297.823 234.813,298.169 234.457,298.378 234.587 C 298.587 234.716,298.688 234.457,298.602 234.011 C 298.485 233.401,298.663 233.193,299.323 233.172 C 300.166 233.145,300.169 233.131,299.400 232.814 C 298.627 232.495,298.632 232.472,299.530 232.122 C 300.041 231.923,300.446 231.634,300.430 231.480 C 300.339 230.625,300.458 230.400,301.000 230.400 C 301.343 230.400,301.600 230.040,301.600 229.557 C 301.600 228.999,301.789 228.787,302.161 228.930 C 302.921 229.221,303.286 228.786,302.786 228.183 C 302.487 227.823,302.648 227.625,303.389 227.438 C 303.945 227.299,304.400 227.008,304.400 226.792 C 304.400 226.228,303.704 226.308,303.465 226.900 C 303.344 227.199,303.250 227.118,303.232 226.700 C 303.214 226.315,303.445 226.000,303.744 226.000 C 304.043 226.000,304.628 225.530,305.044 224.956 C 306.268 223.265,306.839 222.777,307.275 223.046 C 307.535 223.207,307.587 222.988,307.416 222.450 C 307.210 221.801,307.318 221.593,307.873 221.568 C 308.293 221.550,308.389 221.452,308.100 221.335 C 307.342 221.029,307.502 220.348,308.300 220.482 C 308.771 220.562,309.000 220.340,309.001 219.805 C 309.001 219.367,309.315 218.950,309.701 218.876 C 310.085 218.802,310.400 218.497,310.400 218.198 C 310.400 217.899,310.763 217.539,311.206 217.398 C 311.649 217.257,311.916 216.988,311.799 216.799 C 311.683 216.610,311.759 216.349,311.969 216.219 C 312.179 216.089,312.282 215.627,312.198 215.192 C 312.087 214.616,312.264 214.400,312.847 214.400 C 313.287 214.400,313.542 214.229,313.412 214.020 C 313.283 213.811,313.543 213.445,313.989 213.206 C 314.495 212.935,314.802 212.363,314.806 211.686 C 314.811 210.849,314.899 210.737,315.189 211.197 C 315.511 211.705,315.643 211.711,316.083 211.238 C 316.469 210.823,316.474 210.754,316.100 210.965 C 315.825 211.120,315.600 211.079,315.600 210.873 C 315.600 210.486,316.745 209.400,317.153 209.400 C 317.279 209.400,317.418 209.161,317.460 208.869 C 317.624 207.752,317.997 207.200,318.587 207.200 C 318.933 207.200,319.200 206.852,319.200 206.400 C 319.200 205.956,319.467 205.600,319.800 205.600 C 320.130 205.600,320.400 205.427,320.400 205.216 C 320.400 205.004,320.805 204.438,321.300 203.957 C 321.795 203.476,321.987 203.202,321.728 203.348 C 321.468 203.494,321.142 203.430,321.004 203.207 C 320.866 202.983,321.033 202.800,321.376 202.800 C 321.721 202.800,322.000 202.462,322.000 202.044 C 322.000 201.570,322.261 201.310,322.700 201.344 C 323.143 201.380,323.447 201.070,323.528 200.500 C 323.612 199.910,323.931 199.600,324.455 199.600 C 325.065 199.600,325.195 199.416,325.006 198.820 C 324.847 198.317,325.050 197.750,325.580 197.220 C 326.031 196.769,326.400 196.220,326.400 196.000 C 326.400 195.780,326.679 195.600,327.021 195.600 C 327.362 195.600,327.830 195.060,328.060 194.400 C 328.290 193.740,328.654 193.200,328.868 193.200 C 329.551 193.200,330.294 192.194,330.583 190.877 C 330.778 189.991,331.095 189.600,331.619 189.600 C 332.127 189.600,332.299 189.403,332.145 189.000 C 331.984 188.580,332.175 188.400,332.781 188.400 C 333.333 188.400,333.544 188.233,333.362 187.939 C 333.206 187.686,333.410 187.236,333.815 186.939 C 334.277 186.602,334.356 186.400,334.027 186.400 C 333.599 186.400,333.596 186.286,334.016 185.781 C 334.426 185.287,334.596 185.267,334.859 185.681 C 335.079 186.029,335.190 185.853,335.194 185.147 C 335.198 184.433,335.458 184.026,336.000 183.884 C 336.440 183.769,336.806 183.343,336.813 182.937 C 336.830 182.008,338.254 180.262,338.747 180.567 C 339.166 180.826,339.600 179.910,339.600 178.767 C 339.600 178.267,339.878 178.000,340.400 178.000 C 340.844 178.000,341.200 177.733,341.200 177.400 C 341.200 177.070,341.391 176.800,341.624 176.800 C 341.857 176.800,341.944 176.632,341.817 176.427 C 341.690 176.222,341.995 175.754,342.493 175.386 C 343.099 174.939,343.234 174.653,342.900 174.525 C 342.625 174.420,342.400 174.149,342.400 173.924 C 342.400 173.699,342.687 173.624,343.037 173.759 C 343.462 173.922,343.744 173.736,343.884 173.202 C 343.999 172.761,344.347 172.400,344.657 172.400 C 344.966 172.400,345.395 171.939,345.609 171.376 C 345.823 170.813,346.169 170.457,346.378 170.587 C 346.587 170.716,346.688 170.457,346.602 170.011 C 346.485 169.401,346.663 169.193,347.323 169.172 C 348.166 169.145,348.169 169.131,347.400 168.814 C 346.627 168.495,346.632 168.472,347.530 168.122 C 348.041 167.923,348.446 167.634,348.430 167.480 C 348.339 166.625,348.458 166.400,349.000 166.400 C 349.343 166.400,349.600 166.040,349.600 165.557 C 349.600 164.999,349.789 164.787,350.161 164.930 C 350.921 165.221,351.286 164.786,350.786 164.183 C 350.487 163.823,350.648 163.625,351.389 163.438 C 351.945 163.299,352.400 163.008,352.400 162.792 C 352.400 162.228,351.704 162.308,351.465 162.900 C 351.344 163.199,351.250 163.118,351.232 162.700 C 351.214 162.315,351.445 162.000,351.744 162.000 C 352.043 162.000,352.628 161.530,353.044 160.956 C 354.268 159.265,354.839 158.777,355.275 159.046 C 355.535 159.207,355.587 158.988,355.416 158.450 C 355.210 157.801,355.318 157.593,355.873 157.568 C 356.293 157.550,356.389 157.452,356.100 157.335 C 355.342 157.029,355.502 156.348,356.300 156.482 C 356.771 156.562,357.000 156.340,357.001 155.805 C 357.001 155.367,357.315 154.950,357.701 154.876 C 358.085 154.802,358.400 154.497,358.400 154.198 C 358.400 153.899,358.763 153.539,359.206 153.398 C 359.649 153.257,359.916 152.988,359.799 152.799 C 359.683 152.610,359.759 152.349,359.969 152.219 C 360.179 152.089,360.282 151.627,360.198 151.192 C 360.087 150.616,360.264 150.400,360.847 150.400 C 361.287 150.400,361.542 150.229,361.412 150.020 C 361.283 149.811,361.543 149.445,361.989 149.206 C 362.495 148.935,362.802 148.363,362.806 147.686 C 362.811 146.849,362.899 146.737,363.189 147.197 C 363.511 147.705,363.643 147.711,364.083 147.238 C 364.469 146.823,364.474 146.754,364.100 146.965 C 363.825 147.120,363.600 147.067,363.600 146.847 C 363.600 146.413,364.381 145.816,364.962 145.806 C 365.161 145.803,365.372 145.471,365.431 145.069 C 365.625 143.751,365.965 143.200,366.587 143.200 C 366.933 143.200,367.200 142.852,367.200 142.400 C 367.200 141.956,367.467 141.600,367.800 141.600 C 368.130 141.600,368.400 141.427,368.400 141.216 C 368.400 141.004,368.805 140.438,369.300 139.957 C 369.795 139.476,369.987 139.202,369.728 139.348 C 369.468 139.494,369.142 139.430,369.004 139.207 C 368.866 138.983,369.033 138.800,369.376 138.800 C 369.721 138.800,370.000 138.462,370.000 138.044 C 370.000 137.570,370.261 137.310,370.700 137.344 C 371.143 137.380,371.447 137.070,371.528 136.500 C 371.612 135.910,371.931 135.600,372.455 135.600 C 373.065 135.600,373.195 135.416,373.006 134.820 C 372.847 134.317,373.050 133.750,373.580 133.220 C 374.031 132.769,374.400 132.220,374.400 132.000 C 374.400 131.780,374.679 131.600,375.021 131.600 C 375.362 131.600,375.830 131.060,376.060 130.400 C 376.290 129.740,376.654 129.200,376.868 129.200 C 377.560 129.200,378.405 128.077,378.655 126.823 C 378.809 126.055,379.144 125.600,379.557 125.600 C 380.113 125.600,380.232 124.992,380.339 121.602 L 380.464 117.603 331.333 117.502 L 282.203 117.400 282.339 115.800 C 282.414 114.920,282.818 113.445,283.238 112.522 C 283.657 111.599,284.000 110.555,284.000 110.202 C 284.000 109.849,284.255 109.068,284.566 108.466 C 284.877 107.865,285.260 106.659,285.418 105.786 C 285.575 104.914,285.886 103.972,286.107 103.693 C 286.329 103.414,286.651 102.514,286.824 101.693 C 287.209 99.862,288.307 96.592,289.049 95.068 C 289.352 94.445,289.601 93.545,289.602 93.068 C 289.604 92.590,289.880 91.672,290.217 91.026 C 290.554 90.381,290.992 89.211,291.192 88.426 C 291.707 86.402,292.761 83.226,293.430 81.686 C 293.743 80.964,294.006 80.064,294.014 79.686 C 294.021 79.309,294.375 78.280,294.800 77.400 C 295.225 76.520,295.579 75.345,295.586 74.789 C 295.594 74.233,295.855 73.414,296.167 72.969 C 296.479 72.523,296.864 71.448,297.024 70.580 C 297.183 69.711,297.558 68.645,297.857 68.211 C 298.156 67.777,298.401 67.057,298.402 66.611 C 298.404 66.165,298.667 65.297,298.988 64.683 C 299.308 64.069,299.687 62.899,299.830 62.083 C 299.973 61.267,300.312 60.240,300.585 59.800 C 300.857 59.360,301.203 58.333,301.355 57.517 C 301.506 56.701,301.892 55.531,302.212 54.917 C 302.533 54.303,302.796 53.505,302.798 53.144 C 302.799 52.783,303.156 51.703,303.591 50.744 C 304.026 49.785,304.386 48.507,304.391 47.903 C 304.396 47.247,304.721 46.606,305.200 46.307 C 306.581 45.445,305.961 44.400,304.067 44.400 C 303.517 44.400,303.424 44.741,303.535 46.351 M20.092 123.275 C 20.339 124.017,21.200 124.140,21.200 123.433 C 21.200 123.085,20.915 122.800,20.567 122.800 C 20.218 122.800,20.005 123.014,20.092 123.275 M24.492 130.475 C 24.739 131.217,25.600 131.340,25.600 130.633 C 25.600 130.285,25.315 130.000,24.967 130.000 C 24.618 130.000,24.405 130.214,24.492 130.475 M72.492 194.475 C 72.739 195.217,73.600 195.340,73.600 194.633 C 73.600 194.285,73.315 194.000,72.967 194.000 C 72.618 194.000,72.405 194.214,72.492 194.475 M120.492 258.475 C 120.739 259.217,121.600 259.340,121.600 258.633 C 121.600 258.285,121.315 258.000,120.967 258.000 C 120.618 258.000,120.405 258.214,120.492 258.475 M168.492 322.475 C 168.739 323.217,169.600 323.340,169.600 322.633 C 169.600 322.285,169.315 322.000,168.967 322.000 C 168.618 322.000,168.405 322.214,168.492 322.475 " stroke="none" fill="#94c4fc" fill-rule="evenodd"></path></g></svg>