<svg id="svg" version="1.1" xmlns="http://www.w3.org/2000/svg" xmlns:xlink="http://www.w3.org/1999/xlink" width="400" height="400" viewBox="0, 0, 400,400"><g id="svgg"><path id="path0" d="M194.800 14.302 L 193.800 14.434 193.913 48.677 L 194.026 82.921 193.113 83.903 C 192.611 84.443,191.840 85.050,191.400 85.252 C 190.960 85.454,189.880 86.052,189.000 86.582 C 188.120 87.112,186.860 87.826,186.200 88.170 C 185.540 88.514,184.280 89.249,183.400 89.804 C 182.520 90.360,181.440 90.995,181.000 91.216 C 180.560 91.438,179.480 92.052,178.600 92.582 C 177.720 93.112,176.460 93.816,175.800 94.148 C 175.140 94.480,173.430 95.474,172.000 96.358 C 170.570 97.242,168.860 98.243,168.200 98.582 C 167.540 98.921,166.460 99.559,165.800 100.000 C 165.140 100.441,164.060 101.079,163.400 101.417 C 162.740 101.756,161.480 102.463,160.600 102.989 C 159.720 103.515,158.460 104.226,157.800 104.570 C 157.140 104.914,155.880 105.649,155.000 106.204 C 154.120 106.760,153.040 107.395,152.600 107.616 C 152.160 107.838,151.080 108.456,150.200 108.990 C 149.320 109.525,148.330 110.091,148.000 110.249 C 147.454 110.510,143.418 112.854,139.679 115.081 C 138.866 115.565,137.930 116.091,137.600 116.249 C 137.059 116.508,133.195 118.751,129.279 121.079 C 128.466 121.563,127.440 122.145,127.000 122.373 C 126.560 122.600,125.480 123.234,124.600 123.782 C 123.720 124.330,122.460 125.054,121.800 125.392 C 121.140 125.729,119.929 126.409,119.109 126.903 C 118.290 127.396,116.670 128.315,115.509 128.945 C 114.349 129.574,113.130 130.305,112.800 130.567 C 112.470 130.830,111.750 131.259,111.200 131.520 C 110.650 131.781,109.930 132.167,109.600 132.379 C 109.270 132.591,107.498 133.627,105.661 134.682 C 103.825 135.737,101.665 136.983,100.861 137.452 C 100.058 137.920,98.292 138.893,96.937 139.614 C 93.705 141.335,94.000 135.236,94.000 200.406 L 94.000 257.513 98.300 260.041 C 100.665 261.432,103.230 262.915,104.000 263.337 C 104.770 263.759,119.440 272.209,136.600 282.114 C 153.760 292.019,173.290 303.275,180.000 307.127 C 186.710 310.979,192.605 314.493,193.100 314.935 L 194.000 315.739 194.000 349.843 C 194.000 383.544,193.991 383.949,193.204 384.199 C 192.766 384.338,192.262 384.362,192.084 384.252 C 191.907 384.143,191.500 384.218,191.181 384.420 C 190.699 384.725,190.719 384.789,191.300 384.794 C 191.685 384.797,192.000 384.986,192.000 385.213 C 192.000 385.439,192.630 385.583,193.400 385.531 C 194.231 385.475,194.800 385.226,194.800 384.918 C 194.800 384.446,198.208 384.130,201.477 384.299 C 202.053 384.329,202.283 384.162,202.149 383.813 C 202.037 383.520,202.142 383.159,202.383 383.011 C 202.623 382.862,202.794 382.889,202.763 383.070 C 202.616 383.914,202.844 384.094,203.300 383.495 C 203.575 383.132,204.340 382.768,205.000 382.684 C 205.697 382.596,206.200 382.295,206.200 381.966 C 206.200 381.644,206.681 381.345,207.318 381.272 C 208.178 381.173,208.384 380.981,208.212 380.438 C 208.021 379.836,208.252 379.733,209.808 379.733 C 210.808 379.733,211.846 379.497,212.113 379.208 C 212.503 378.788,212.480 378.746,212.000 379.000 C 211.582 379.221,211.521 379.187,211.800 378.887 C 212.020 378.651,212.470 378.399,212.800 378.329 C 213.130 378.258,213.637 377.882,213.927 377.493 C 214.217 377.105,214.622 376.890,214.826 377.016 C 215.030 377.142,215.622 376.786,216.141 376.225 C 216.667 375.658,217.645 375.145,218.345 375.068 C 219.037 374.992,219.737 374.782,219.902 374.601 C 220.066 374.420,219.975 374.401,219.700 374.559 C 219.425 374.718,219.200 374.657,219.200 374.424 C 219.200 374.191,219.740 374.000,220.400 374.000 C 221.333 374.000,221.600 373.822,221.600 373.200 C 221.600 372.760,221.791 372.400,222.024 372.400 C 222.257 372.400,222.324 372.599,222.174 372.841 C 222.024 373.084,222.343 372.994,222.883 372.640 C 223.422 372.286,223.994 372.127,224.153 372.286 C 224.312 372.445,224.324 372.268,224.180 371.891 C 224.001 371.427,224.155 371.132,224.658 370.974 C 225.066 370.846,225.715 370.573,226.100 370.367 C 226.551 370.126,226.800 370.137,226.800 370.397 C 226.800 370.618,226.980 370.800,227.200 370.800 C 227.420 370.800,227.600 370.440,227.600 370.000 C 227.600 369.467,227.867 369.200,228.400 369.200 C 228.840 369.200,229.203 368.975,229.206 368.700 C 229.210 368.367,229.342 368.400,229.600 368.800 C 229.949 369.340,230.172 369.090,230.047 368.300 C 230.021 368.135,230.440 368.000,230.977 368.000 C 231.754 368.000,231.921 367.828,231.792 367.160 C 231.655 366.449,231.777 366.358,232.591 366.562 C 233.119 366.694,233.664 366.619,233.803 366.395 C 233.942 366.171,234.235 366.098,234.455 366.234 C 234.674 366.369,234.950 366.112,235.068 365.663 C 235.216 365.096,235.669 364.807,236.541 364.722 C 237.288 364.650,237.759 364.397,237.700 364.100 C 237.610 363.648,238.097 363.426,238.900 363.553 C 239.065 363.579,239.200 363.408,239.200 363.173 C 239.200 362.928,239.541 362.854,240.000 363.000 C 240.568 363.180,240.800 363.072,240.800 362.627 C 240.800 362.267,241.140 362.000,241.600 362.000 C 242.125 362.000,242.400 361.733,242.400 361.224 C 242.400 360.616,242.725 360.421,243.900 360.324 C 245.041 360.230,245.387 360.033,245.344 359.500 C 245.307 359.025,245.596 358.784,246.244 358.750 C 247.726 358.672,247.910 358.626,248.267 358.236 C 248.458 358.026,248.399 357.987,248.128 358.142 C 247.868 358.291,247.566 358.268,247.456 358.091 C 247.347 357.914,247.730 357.731,248.306 357.683 C 248.883 357.635,249.480 357.394,249.633 357.147 C 249.786 356.900,250.109 356.820,250.351 356.970 C 250.627 357.141,250.702 357.011,250.553 356.621 C 250.381 356.173,250.565 356.000,251.213 356.000 C 251.707 356.000,252.342 355.685,252.624 355.300 C 253.136 354.600,253.282 354.543,254.827 354.450 C 255.464 354.411,255.596 354.216,255.400 353.600 C 255.151 352.815,255.847 352.598,258.308 352.694 C 258.587 352.705,258.767 352.436,258.708 352.097 C 258.639 351.706,258.934 351.454,259.514 351.406 C 260.017 351.365,260.647 351.096,260.914 350.807 C 261.305 350.385,261.259 350.332,260.679 350.537 C 260.278 350.678,260.060 350.627,260.187 350.421 C 260.313 350.217,260.727 350.042,261.108 350.031 C 262.825 349.981,263.200 349.820,263.200 349.133 C 263.200 348.663,263.491 348.400,264.013 348.400 C 264.459 348.400,264.930 348.125,265.059 347.790 C 265.252 347.288,265.405 347.270,265.923 347.690 C 266.270 347.970,266.451 348.020,266.325 347.800 C 266.199 347.580,266.739 346.981,267.523 346.469 C 268.317 345.950,268.718 345.817,268.426 346.169 C 267.988 346.696,268.001 346.800,268.504 346.800 C 268.836 346.800,269.201 346.439,269.316 345.998 C 269.449 345.489,269.744 345.280,270.123 345.426 C 270.527 345.581,270.701 345.420,270.660 344.927 C 270.622 344.463,270.889 344.179,271.400 344.143 C 271.840 344.111,272.515 344.066,272.900 344.043 C 273.285 344.019,273.600 343.741,273.600 343.424 C 273.600 342.720,273.928 342.501,275.377 342.238 C 275.994 342.127,276.611 341.909,276.749 341.754 C 276.887 341.599,276.640 341.602,276.200 341.760 C 275.607 341.973,275.516 341.931,275.848 341.596 C 276.314 341.125,277.204 340.883,278.653 340.831 C 279.168 340.812,279.594 340.467,279.726 339.960 C 279.856 339.463,280.132 339.234,280.400 339.400 C 280.668 339.566,280.944 339.337,281.074 338.840 C 281.242 338.195,281.608 338.000,282.647 338.000 C 283.872 338.000,284.204 337.692,284.047 336.700 C 284.021 336.535,284.405 336.373,284.900 336.339 C 286.809 336.210,286.997 336.148,286.900 335.681 C 286.808 335.237,287.323 335.021,288.134 335.164 C 288.318 335.196,288.564 334.858,288.681 334.411 C 288.814 333.904,289.251 333.581,289.847 333.550 C 291.651 333.455,291.800 333.398,291.800 332.800 C 291.800 332.195,291.947 332.141,293.847 332.050 C 294.687 332.010,294.852 331.842,294.684 331.200 C 294.473 330.394,295.028 330.189,296.900 330.379 C 297.285 330.418,297.600 330.248,297.600 330.002 C 297.600 329.755,297.432 329.656,297.228 329.783 C 297.023 329.909,296.739 329.826,296.598 329.597 C 296.456 329.368,296.489 329.206,296.670 329.237 C 297.826 329.438,298.779 329.096,299.000 328.400 C 299.140 327.960,299.444 327.600,299.676 327.600 C 299.926 327.600,299.877 327.885,299.556 328.300 C 299.049 328.954,299.065 328.958,299.807 328.361 C 300.243 328.009,300.934 327.603,301.342 327.457 C 301.790 327.298,301.993 326.958,301.854 326.597 C 301.639 326.037,302.672 325.766,304.270 325.963 C 304.528 325.995,304.853 325.839,304.991 325.615 C 305.145 325.365,304.964 325.313,304.521 325.479 C 303.898 325.713,303.872 325.661,304.327 325.102 C 304.616 324.745,305.201 324.442,305.627 324.427 C 306.052 324.412,306.760 324.389,307.200 324.375 C 307.640 324.361,308.000 324.112,308.000 323.822 C 308.000 323.531,308.360 323.199,308.800 323.084 C 309.240 322.969,309.600 322.567,309.600 322.191 C 309.600 321.704,309.830 321.567,310.400 321.716 C 310.839 321.831,311.302 321.759,311.427 321.556 C 311.553 321.353,311.827 321.293,312.038 321.423 C 312.248 321.553,312.394 321.511,312.363 321.330 C 312.193 320.356,312.543 320.036,313.900 319.924 C 314.905 319.841,315.404 319.602,315.411 319.200 C 315.417 318.831,315.747 318.634,316.267 318.688 C 316.818 318.745,317.185 318.500,317.319 317.988 C 317.468 317.418,317.868 317.200,318.763 317.200 C 319.733 317.200,320.000 317.028,320.000 316.400 C 320.000 315.755,320.267 315.600,321.373 315.600 C 322.395 315.600,322.811 315.395,323.000 314.800 C 323.224 314.093,324.385 313.734,325.719 313.959 C 325.894 313.988,325.984 313.695,325.919 313.306 C 325.839 312.834,326.022 312.637,326.470 312.711 C 326.854 312.774,327.249 312.476,327.397 312.011 C 327.538 311.565,327.906 311.200,328.214 311.200 C 328.572 311.200,328.689 311.454,328.538 311.900 C 328.378 312.373,328.520 312.308,328.973 311.700 C 329.343 311.205,329.900 310.800,330.210 310.800 C 330.548 310.800,330.682 310.559,330.545 310.200 C 330.363 309.727,330.661 309.600,331.957 309.600 C 333.333 309.600,333.600 309.470,333.600 308.800 C 333.600 308.143,333.869 307.999,335.100 307.994 C 336.073 307.990,336.413 307.869,336.066 307.650 C 335.483 307.280,336.540 306.602,337.472 306.748 C 337.731 306.789,338.703 306.100,339.631 305.217 C 340.559 304.334,341.735 303.556,342.244 303.488 C 343.228 303.356,344.054 302.800,343.267 302.800 C 343.010 302.800,342.800 302.642,342.800 302.449 C 342.800 302.256,343.343 302.144,344.007 302.201 C 344.784 302.267,345.350 302.071,345.595 301.652 C 345.886 301.154,345.979 301.134,345.988 301.567 C 346.002 302.233,346.597 301.753,346.607 301.067 C 346.611 300.810,347.005 300.613,347.483 300.629 C 347.962 300.645,348.342 300.555,348.329 300.429 C 348.247 299.634,348.497 299.223,349.200 299.000 C 349.640 298.860,350.000 298.488,350.000 298.173 C 350.000 297.858,350.371 297.600,350.824 297.600 C 351.277 297.600,351.539 297.425,351.407 297.211 C 351.274 296.997,351.524 296.514,351.962 296.139 C 352.401 295.764,352.668 295.309,352.556 295.129 C 352.444 294.948,352.678 294.797,353.076 294.794 C 353.690 294.789,353.709 294.729,353.200 294.400 C 352.613 294.021,353.042 293.797,354.075 293.944 C 355.005 294.077,354.040 291.912,352.896 291.298 C 350.893 290.224,331.208 278.793,329.400 277.654 C 328.520 277.100,327.080 276.269,326.200 275.808 C 323.844 274.574,300.702 261.181,300.000 260.645 C 299.670 260.393,298.349 259.650,297.064 258.994 C 295.684 258.289,294.578 257.421,294.364 256.874 C 294.152 256.334,294.000 232.312,294.000 199.263 C 294.000 136.620,293.792 141.487,296.527 140.180 C 298.397 139.286,299.997 138.400,301.800 137.260 C 302.680 136.703,304.390 135.722,305.600 135.078 C 306.810 134.435,308.070 133.687,308.400 133.415 C 308.730 133.144,309.270 132.808,309.600 132.669 C 309.930 132.530,310.920 131.962,311.800 131.406 C 312.680 130.850,313.940 130.121,314.600 129.786 C 315.260 129.451,316.385 128.822,317.100 128.388 C 317.815 127.955,318.985 127.245,319.700 126.812 C 320.415 126.378,321.540 125.747,322.200 125.409 C 322.860 125.071,324.120 124.358,325.000 123.825 C 325.880 123.291,327.140 122.573,327.800 122.228 C 328.460 121.884,329.540 121.241,330.200 120.800 C 330.860 120.359,331.940 119.724,332.600 119.389 C 334.730 118.309,338.956 115.908,340.600 114.844 C 341.480 114.275,342.650 113.581,343.200 113.301 C 343.750 113.022,344.871 112.390,345.691 111.897 C 346.510 111.403,348.130 110.481,349.291 109.847 C 350.451 109.213,351.909 108.268,352.531 107.747 C 353.153 107.226,353.789 106.800,353.946 106.800 C 354.102 106.800,354.255 106.460,354.287 106.045 C 354.329 105.485,354.144 105.342,353.572 105.491 C 352.914 105.664,352.800 105.479,352.800 104.234 C 352.800 103.306,352.582 102.691,352.200 102.545 C 351.870 102.418,351.600 102.083,351.600 101.801 C 351.600 101.518,351.156 101.175,350.614 101.039 C 349.890 100.858,349.695 100.607,349.878 100.096 C 350.015 99.713,349.987 99.526,349.816 99.681 C 349.645 99.835,349.233 99.690,348.901 99.358 C 348.569 99.026,348.068 98.842,347.788 98.949 C 347.508 99.057,347.183 98.779,347.066 98.332 C 346.949 97.885,346.682 97.626,346.472 97.755 C 346.062 98.009,345.075 97.058,345.405 96.728 C 345.514 96.619,344.941 96.505,344.131 96.474 C 342.716 96.421,341.837 95.788,342.250 95.119 C 342.358 94.944,341.976 94.800,341.400 94.800 C 340.804 94.800,340.459 94.628,340.600 94.400 C 340.736 94.180,340.646 94.000,340.400 94.000 C 340.154 94.000,340.048 93.845,340.165 93.656 C 340.282 93.467,339.936 93.361,339.397 93.420 C 338.857 93.479,337.979 93.184,337.445 92.764 C 336.911 92.344,336.097 92.000,335.637 92.000 C 335.152 92.000,334.800 91.742,334.800 91.387 C 334.800 90.684,333.277 90.000,332.431 90.322 C 332.038 90.472,331.936 90.343,332.104 89.906 C 332.347 89.273,330.856 88.561,329.694 88.754 C 329.415 88.800,329.212 88.694,329.241 88.519 C 329.398 87.584,329.101 87.200,328.220 87.200 C 327.681 87.200,327.089 86.931,326.905 86.603 C 326.722 86.274,326.087 85.965,325.495 85.916 C 324.903 85.867,324.327 85.587,324.214 85.293 C 324.101 84.999,324.187 84.868,324.405 85.003 C 324.622 85.137,324.800 85.057,324.800 84.824 C 324.800 84.591,324.172 84.400,323.403 84.400 C 322.375 84.400,321.706 84.085,320.865 83.205 C 320.237 82.548,319.605 82.128,319.462 82.272 C 319.318 82.416,319.197 82.188,319.194 81.767 C 319.189 81.125,319.124 81.098,318.800 81.600 C 318.542 82.000,318.410 82.033,318.406 81.700 C 318.403 81.425,318.040 81.200,317.600 81.200 C 317.156 81.200,316.800 80.933,316.800 80.600 C 316.800 80.270,316.524 80.000,316.187 80.000 C 315.851 80.000,315.471 79.730,315.345 79.400 C 315.218 79.070,314.965 78.800,314.783 78.800 C 314.601 78.800,313.945 78.591,313.326 78.335 C 312.707 78.080,312.043 77.907,311.851 77.952 C 311.659 77.996,311.602 77.773,311.724 77.455 C 311.887 77.030,311.678 76.906,310.940 76.987 C 310.388 77.047,309.845 76.862,309.735 76.574 C 309.624 76.286,309.279 76.148,308.967 76.268 C 308.655 76.388,308.400 76.286,308.400 76.043 C 308.400 75.799,308.154 75.600,307.854 75.600 C 307.554 75.600,306.873 75.258,306.341 74.839 C 305.809 74.421,304.929 74.016,304.387 73.939 C 303.707 73.843,303.437 73.582,303.518 73.100 C 303.598 72.623,303.374 72.400,302.818 72.400 C 302.368 72.400,302.000 72.226,302.000 72.013 C 302.000 71.799,301.700 71.740,301.334 71.881 C 300.917 72.041,300.767 71.977,300.932 71.710 C 301.217 71.249,300.370 70.800,299.216 70.800 C 298.821 70.800,298.274 70.530,298.000 70.200 C 297.726 69.870,297.084 69.600,296.574 69.600 C 295.861 69.600,295.682 69.414,295.800 68.800 C 295.951 68.014,295.690 67.888,293.918 67.892 C 293.543 67.892,293.249 67.782,293.265 67.646 C 293.353 66.912,293.136 66.526,292.600 66.467 C 292.270 66.430,291.730 66.370,291.400 66.333 C 291.070 66.297,290.797 65.892,290.794 65.433 C 290.790 64.959,290.661 64.783,290.494 65.025 C 290.288 65.322,289.930 65.311,289.302 64.989 C 288.809 64.736,288.539 64.371,288.702 64.177 C 288.866 63.984,288.650 64.090,288.223 64.413 C 287.729 64.787,287.556 64.817,287.749 64.497 C 288.046 64.001,286.511 63.112,285.937 63.448 C 285.793 63.532,285.769 63.241,285.884 62.801 C 286.068 62.096,285.897 62.000,284.447 62.000 C 283.051 62.000,282.800 61.874,282.800 61.176 C 282.800 60.723,282.635 60.455,282.432 60.580 C 282.230 60.705,281.824 60.581,281.531 60.304 C 280.487 59.319,279.451 58.607,279.724 59.063 C 279.933 59.412,279.764 59.413,279.035 59.069 C 278.503 58.818,278.137 58.501,278.222 58.365 C 278.306 58.229,277.931 57.915,277.387 57.667 C 276.844 57.420,276.400 57.048,276.400 56.840 C 276.400 56.633,275.860 56.345,275.200 56.200 C 274.541 56.055,273.731 55.551,273.400 55.079 C 273.070 54.608,272.800 54.425,272.800 54.673 C 272.800 55.006,272.537 55.003,271.803 54.662 C 271.255 54.408,270.805 54.073,270.803 53.918 C 270.801 53.763,270.170 53.518,269.400 53.374 C 268.387 53.184,268.000 52.902,268.000 52.355 C 268.000 51.741,267.702 51.600,266.400 51.600 C 265.244 51.600,264.800 51.433,264.800 51.000 C 264.800 50.670,264.627 50.400,264.416 50.400 C 264.204 50.400,263.654 49.995,263.193 49.500 C 262.724 48.997,261.879 48.600,261.277 48.600 C 260.430 48.600,260.224 48.429,260.311 47.800 C 260.416 47.044,260.391 47.039,259.858 47.712 C 259.371 48.328,259.263 48.341,259.060 47.812 C 258.931 47.475,258.459 47.200,258.013 47.200 C 257.467 47.200,257.200 46.937,257.200 46.400 C 257.200 45.645,256.866 45.495,255.167 45.488 C 254.818 45.486,254.533 45.244,254.533 44.949 C 254.533 44.519,254.658 44.510,255.167 44.906 C 255.730 45.345,255.737 45.320,255.236 44.682 C 254.926 44.287,254.436 44.054,254.147 44.165 C 253.859 44.275,253.348 44.091,253.012 43.754 C 252.545 43.287,252.397 43.268,252.387 43.671 C 252.379 43.985,252.068 43.833,251.623 43.300 C 251.210 42.805,250.586 42.400,250.236 42.400 C 249.886 42.400,249.600 42.238,249.600 42.039 C 249.600 41.596,247.359 40.775,247.034 41.099 C 246.905 41.228,246.800 40.943,246.800 40.467 C 246.800 39.743,246.569 39.600,245.400 39.600 C 244.283 39.600,244.000 39.444,244.000 38.828 C 244.000 38.334,243.675 38.006,243.100 37.918 C 242.605 37.843,242.235 37.590,242.278 37.357 C 242.321 37.124,242.141 36.918,241.878 36.899 C 240.344 36.788,239.275 36.283,238.306 35.210 C 237.269 34.064,236.485 33.567,236.983 34.372 C 237.109 34.577,237.002 34.875,236.745 35.034 C 236.450 35.217,236.384 35.150,236.566 34.854 C 236.747 34.562,236.415 34.200,235.685 33.893 C 235.041 33.622,234.443 33.220,234.357 33.000 C 234.271 32.780,234.065 32.645,233.900 32.700 C 233.735 32.755,233.600 32.601,233.600 32.357 C 233.600 32.114,233.323 32.021,232.985 32.151 C 232.613 32.293,232.256 32.109,232.085 31.685 C 231.928 31.299,231.485 30.965,231.100 30.942 C 230.715 30.919,230.130 30.877,229.800 30.850 C 229.470 30.823,229.200 30.461,229.200 30.047 C 229.200 29.436,228.891 29.290,227.558 29.272 C 225.742 29.247,225.385 29.071,225.796 28.407 C 225.995 28.085,226.255 28.100,226.736 28.461 C 227.303 28.888,227.324 28.877,226.885 28.385 C 226.601 28.069,226.151 27.790,225.885 27.766 C 225.618 27.742,225.085 27.694,224.700 27.661 C 224.315 27.627,224.000 27.341,224.000 27.024 C 224.000 26.707,223.792 26.319,223.538 26.162 C 223.229 25.971,223.182 26.062,223.397 26.438 C 223.656 26.893,223.614 26.904,223.179 26.500 C 222.882 26.225,222.325 26.000,221.940 26.000 C 221.555 26.000,221.063 25.685,220.848 25.300 C 220.633 24.915,220.354 24.645,220.228 24.700 C 219.567 24.990,218.400 24.735,218.400 24.300 C 218.400 23.573,215.784 21.600,214.821 21.600 C 214.370 21.600,214.000 21.401,214.000 21.157 C 214.000 20.914,213.721 20.822,213.379 20.953 C 213.019 21.091,212.862 21.023,213.006 20.791 C 213.142 20.571,212.686 20.277,211.992 20.138 C 211.299 20.000,210.652 19.680,210.555 19.427 C 210.458 19.175,210.001 18.940,209.539 18.905 C 209.077 18.871,208.354 18.473,207.934 18.021 C 207.455 17.507,206.665 17.200,205.822 17.200 C 204.694 17.200,204.507 17.076,204.674 16.438 C 204.798 15.963,204.671 15.686,204.337 15.701 C 202.457 15.788,201.530 15.560,201.722 15.059 C 201.862 14.695,201.582 14.501,200.865 14.464 C 200.279 14.434,198.900 14.356,197.800 14.290 C 196.700 14.225,195.350 14.230,194.800 14.302 M161.029 28.229 C 160.605 28.538,160.348 28.882,160.458 28.992 C 160.568 29.102,161.005 28.938,161.429 28.629 C 161.852 28.319,162.109 27.975,161.999 27.865 C 161.889 27.755,161.452 27.919,161.029 28.229 M150.000 34.886 C 150.000 35.059,150.360 35.200,150.800 35.200 C 151.240 35.200,151.600 35.059,151.600 34.886 C 151.600 34.713,151.240 34.571,150.800 34.571 C 150.360 34.571,150.000 34.713,150.000 34.886 M147.855 36.200 C 147.715 36.565,147.855 36.800,148.213 36.800 C 148.536 36.800,148.800 36.530,148.800 36.200 C 148.800 35.870,148.639 35.600,148.443 35.600 C 148.246 35.600,147.982 35.870,147.855 36.200 M140.800 40.104 C 140.800 40.455,140.485 40.824,140.100 40.924 C 139.444 41.096,139.445 41.110,140.113 41.154 C 140.836 41.201,141.506 40.173,141.049 39.716 C 140.912 39.579,140.800 39.753,140.800 40.104 M122.104 50.594 C 121.791 50.949,121.754 51.248,122.004 51.402 C 122.222 51.537,122.400 51.446,122.400 51.200 C 122.400 50.954,122.578 50.863,122.795 50.997 C 123.022 51.137,123.089 50.977,122.953 50.621 C 122.671 49.886,122.725 49.888,122.104 50.594 M109.200 58.600 C 108.795 59.088,108.815 59.200,109.308 59.200 C 109.642 59.200,110.018 58.930,110.145 58.600 C 110.271 58.270,110.223 58.000,110.036 58.000 C 109.850 58.000,109.474 58.270,109.200 58.600 M70.880 80.480 C 70.316 81.044,70.253 81.600,70.753 81.600 C 70.948 81.600,71.201 81.240,71.316 80.800 C 71.560 79.866,71.522 79.838,70.880 80.480 M62.650 84.719 C 62.360 85.188,63.103 86.231,63.467 85.867 C 63.637 85.696,63.537 85.408,63.243 85.227 C 62.800 84.953,62.802 84.860,63.255 84.680 C 63.599 84.543,63.624 84.452,63.324 84.432 C 63.062 84.414,62.758 84.544,62.650 84.719 M60.078 86.824 C 59.601 87.587,59.625 87.615,60.393 87.204 C 60.849 86.960,61.117 86.589,60.988 86.380 C 60.675 85.874,60.670 85.876,60.078 86.824 M54.880 89.280 C 54.316 89.844,54.253 90.400,54.753 90.400 C 54.948 90.400,55.201 90.040,55.316 89.600 C 55.560 88.666,55.522 88.638,54.880 89.280 M33.632 104.500 C 33.595 105.300,33.939 105.375,34.800 104.756 C 35.313 104.387,35.302 104.356,34.726 104.540 C 34.355 104.658,33.964 104.540,33.857 104.278 C 33.751 104.015,33.649 104.115,33.632 104.500 M195.921 137.842 C 197.394 138.634,199.320 139.707,200.200 140.225 C 201.080 140.743,202.340 141.441,203.000 141.776 C 203.660 142.110,204.470 142.568,204.800 142.792 C 205.749 143.437,220.912 152.043,221.800 152.440 C 222.240 152.637,222.870 152.977,223.200 153.195 C 224.320 153.935,244.801 165.600,244.981 165.600 C 245.487 165.600,248.748 168.086,248.957 168.632 C 249.091 168.980,249.200 183.029,249.200 199.852 L 249.200 230.438 248.106 231.452 C 247.504 232.010,245.929 233.090,244.606 233.852 C 242.625 234.993,239.639 236.804,233.200 240.768 C 232.019 241.495,218.784 249.188,206.688 256.179 C 193.379 263.871,193.424 263.854,190.866 262.058 C 190.280 261.646,185.030 258.579,179.200 255.243 C 173.370 251.907,168.330 249.014,168.000 248.815 C 167.104 248.275,155.216 241.398,153.600 240.485 C 148.166 237.417,140.074 232.590,139.457 232.050 C 138.228 230.976,138.593 169.404,139.837 167.737 C 140.553 166.778,144.406 164.133,147.000 162.819 C 147.440 162.596,148.464 162.006,149.277 161.507 C 150.089 161.008,154.122 158.620,158.239 156.200 C 162.357 153.780,166.552 151.312,167.563 150.716 C 168.573 150.120,169.670 149.501,170.000 149.340 C 170.330 149.180,171.545 148.447,172.701 147.711 C 173.857 146.976,175.117 146.254,175.501 146.107 C 175.885 145.960,178.000 144.773,180.200 143.468 C 193.111 135.810,192.530 136.017,195.921 137.842 M35.600 296.318 C 35.600 296.529,35.891 296.943,36.246 297.238 C 36.805 297.702,36.873 297.673,36.746 297.020 C 36.595 296.243,35.600 295.633,35.600 296.318 M56.600 310.400 C 56.998 310.840,57.348 311.200,57.377 311.200 C 57.406 311.200,57.457 310.840,57.490 310.400 C 57.533 309.836,57.304 309.600,56.713 309.600 C 55.901 309.600,55.898 309.624,56.600 310.400 M64.800 314.357 C 64.800 314.627,64.592 314.719,64.338 314.562 C 64.071 314.397,63.984 314.451,64.132 314.690 C 64.273 314.917,64.761 315.201,65.217 315.320 C 65.938 315.509,65.979 315.450,65.536 314.869 C 65.256 314.501,64.975 314.125,64.913 314.033 C 64.851 313.942,64.800 314.087,64.800 314.357 M106.093 338.767 C 106.357 339.115,106.625 339.475,106.687 339.567 C 106.749 339.658,106.800 339.373,106.800 338.933 C 106.800 338.493,106.533 338.133,106.206 338.133 C 105.729 338.133,105.707 338.258,106.093 338.767 M144.838 361.100 C 145.133 361.485,145.425 361.875,145.487 361.967 C 145.549 362.058,145.600 361.743,145.600 361.267 C 145.600 360.734,145.350 360.400,144.951 360.400 C 144.396 360.400,144.379 360.501,144.838 361.100 " stroke="none" fill="#fb646c" fill-rule="evenodd"></path><path id="path1" d="M191.700 14.276 C 192.085 14.376,192.715 14.376,193.100 14.276 C 193.485 14.175,193.170 14.093,192.400 14.093 C 191.630 14.093,191.315 14.175,191.700 14.276 M32.240 107.158 C 32.165 107.291,32.151 107.692,32.209 108.048 C 32.270 108.425,32.057 108.677,31.700 108.648 C 31.362 108.622,31.008 108.870,30.913 109.200 C 30.759 109.731,30.787 109.731,31.153 109.203 C 31.461 108.758,31.682 108.722,32.020 109.060 C 32.565 109.605,31.796 111.369,31.180 110.988 C 30.971 110.858,30.792 110.898,30.783 111.076 C 30.773 111.254,30.617 112.165,30.436 113.100 C 30.254 114.044,30.261 114.800,30.454 114.800 C 30.973 114.800,30.871 117.109,30.337 117.439 C 30.022 117.634,29.944 117.459,30.092 116.892 C 30.247 116.299,30.153 116.120,29.764 116.269 C 29.306 116.445,29.216 129.581,29.205 198.284 C 29.193 269.024,29.268 280.059,29.762 279.870 C 30.077 279.749,30.439 279.924,30.567 280.258 C 30.943 281.237,30.837 281.669,30.300 281.347 C 29.939 281.130,29.947 281.228,30.330 281.701 C 30.783 282.259,30.739 282.431,30.030 282.874 C 29.173 283.409,28.894 284.400,29.600 284.400 C 29.820 284.400,29.955 284.238,29.900 284.040 C 29.845 283.842,29.970 283.617,30.178 283.540 C 30.394 283.460,30.510 284.368,30.450 285.664 C 30.359 287.629,30.451 287.962,31.146 288.183 C 31.613 288.331,31.924 288.755,31.890 289.198 C 31.846 289.779,31.709 289.856,31.307 289.523 C 30.901 289.186,30.839 289.236,31.034 289.743 C 31.172 290.105,31.446 290.400,31.643 290.400 C 31.839 290.400,32.000 290.951,32.000 291.624 C 32.000 292.300,32.171 292.742,32.383 292.611 C 32.593 292.481,32.652 292.081,32.515 291.722 C 32.365 291.331,32.427 291.170,32.670 291.319 C 33.326 291.725,36.046 290.805,38.200 289.449 C 39.300 288.757,40.560 287.964,41.000 287.687 C 41.440 287.410,42.340 286.910,43.000 286.576 C 43.660 286.241,44.920 285.534,45.800 285.004 C 46.680 284.475,47.760 283.843,48.200 283.600 C 48.640 283.357,49.720 282.729,50.600 282.203 C 51.480 281.678,53.231 280.702,54.491 280.034 C 55.752 279.367,57.552 278.323,58.491 277.715 C 59.431 277.107,60.650 276.381,61.200 276.101 C 61.750 275.822,62.920 275.154,63.800 274.617 C 64.680 274.080,65.812 273.454,66.315 273.225 C 66.818 272.996,68.438 272.030,69.915 271.078 C 74.298 268.254,75.343 267.633,76.500 267.166 C 77.105 266.922,77.600 266.571,77.600 266.388 C 77.600 266.204,77.958 265.940,78.395 265.802 C 79.144 265.564,80.992 264.542,84.339 262.516 C 85.143 262.029,86.295 261.427,86.900 261.177 C 87.505 260.926,88.000 260.577,88.000 260.400 C 88.000 260.223,88.495 259.880,89.100 259.638 C 89.705 259.396,90.740 258.869,91.400 258.466 L 92.600 257.735 92.701 200.055 C 92.811 137.662,92.898 140.400,90.816 140.400 C 90.435 140.400,89.798 140.040,89.400 139.600 C 89.002 139.160,88.355 138.800,87.962 138.800 C 87.569 138.800,87.153 138.648,87.039 138.463 C 86.775 138.037,80.539 134.400,80.071 134.400 C 79.880 134.400,79.398 134.040,79.000 133.600 C 78.602 133.160,78.050 132.800,77.773 132.800 C 77.496 132.800,76.313 132.170,75.144 131.400 C 73.975 130.630,72.817 130.000,72.571 130.000 C 72.325 130.000,71.798 129.640,71.400 129.200 C 71.002 128.760,70.401 128.400,70.064 128.400 C 69.727 128.400,69.080 128.053,68.626 127.630 C 68.172 127.206,66.836 126.351,65.659 125.730 C 62.902 124.275,61.939 123.729,61.200 123.200 C 60.488 122.691,59.057 121.860,57.400 120.994 C 56.740 120.650,55.480 119.932,54.600 119.399 C 53.720 118.867,52.505 118.227,51.900 117.977 C 51.295 117.726,50.800 117.377,50.800 117.200 C 50.800 117.023,50.305 116.674,49.700 116.423 C 49.095 116.173,47.880 115.533,47.000 115.001 C 46.120 114.468,44.860 113.750,44.200 113.406 C 42.543 112.540,41.112 111.709,40.400 111.200 C 38.677 109.967,32.406 106.861,32.240 107.158 M38.400 299.351 C 38.400 299.434,38.670 299.726,39.000 300.000 C 39.491 300.408,39.600 300.380,39.600 299.849 C 39.600 299.492,39.330 299.200,39.000 299.200 C 38.670 299.200,38.400 299.268,38.400 299.351 M82.200 325.200 C 82.598 325.640,82.969 326.000,83.025 326.000 C 83.080 326.000,83.031 325.640,82.916 325.200 C 82.801 324.760,82.430 324.400,82.091 324.400 C 81.574 324.400,81.591 324.527,82.200 325.200 " stroke="none" fill="#d41c34" fill-rule="evenodd"></path><path id="path2" d="M187.334 14.507 C 187.230 14.675,186.976 14.709,186.770 14.581 C 186.563 14.454,186.286 14.631,186.154 14.975 C 186.004 15.368,185.422 15.600,184.590 15.600 C 182.868 15.600,182.005 15.947,182.235 16.547 C 182.347 16.839,181.984 17.066,181.310 17.124 C 179.230 17.303,178.600 17.506,178.704 17.964 C 178.761 18.216,178.491 18.540,178.104 18.685 C 177.717 18.829,177.154 19.290,176.853 19.708 C 176.517 20.176,176.010 20.391,175.536 20.267 C 175.051 20.141,174.588 20.350,174.287 20.833 C 174.023 21.255,173.506 21.600,173.136 21.600 C 172.137 21.600,171.200 22.032,171.200 22.492 C 171.200 22.721,171.506 22.668,171.900 22.371 C 172.536 21.892,172.545 21.905,172.000 22.507 C 171.670 22.872,170.680 23.231,169.800 23.303 C 168.583 23.404,168.213 23.599,168.256 24.118 C 168.294 24.586,168.011 24.800,167.356 24.800 C 166.773 24.800,166.400 25.034,166.400 25.400 C 166.400 25.730,166.195 26.000,165.944 26.000 C 165.693 26.000,165.230 26.315,164.914 26.700 C 164.599 27.085,164.455 27.175,164.594 26.900 C 164.743 26.606,164.591 26.400,164.224 26.400 C 163.881 26.400,163.600 26.670,163.600 27.000 C 163.600 27.330,163.330 27.600,163.000 27.600 C 162.670 27.600,162.040 27.960,161.600 28.400 C 161.160 28.840,160.517 29.200,160.171 29.200 C 159.826 29.200,159.271 29.472,158.939 29.804 C 158.607 30.136,158.170 30.305,157.968 30.180 C 157.765 30.055,157.600 30.143,157.600 30.376 C 157.600 30.609,157.240 30.800,156.800 30.800 C 156.360 30.800,156.000 31.050,156.000 31.355 C 156.000 31.674,155.402 32.023,154.600 32.174 C 153.762 32.331,153.200 32.670,153.200 33.018 C 153.200 33.338,152.975 33.621,152.700 33.646 C 152.425 33.672,152.020 33.734,151.800 33.785 C 151.580 33.836,151.175 33.906,150.900 33.939 C 150.625 33.973,150.400 34.199,150.400 34.443 C 150.400 34.686,150.670 34.782,151.000 34.655 C 151.330 34.529,151.600 34.599,151.600 34.813 C 151.600 35.026,150.970 35.200,150.200 35.200 C 149.043 35.200,148.800 35.346,148.800 36.043 C 148.800 36.727,148.623 36.842,147.866 36.652 C 147.242 36.496,146.650 36.680,146.083 37.209 C 145.616 37.644,144.945 38.000,144.593 38.000 C 144.241 38.000,144.054 38.163,144.177 38.363 C 144.300 38.562,144.066 38.638,143.656 38.530 C 143.208 38.413,142.813 38.588,142.668 38.968 C 142.534 39.315,142.170 39.600,141.859 39.600 C 141.548 39.600,141.199 39.960,141.084 40.400 C 140.934 40.974,140.538 41.200,139.684 41.200 C 138.843 41.200,138.434 41.427,138.291 41.974 C 138.155 42.495,137.845 42.684,137.342 42.553 C 136.919 42.442,136.215 42.713,135.715 43.179 C 135.230 43.631,134.567 44.000,134.240 44.000 C 133.914 44.000,133.534 44.183,133.396 44.407 C 133.258 44.630,132.977 44.709,132.772 44.583 C 132.568 44.456,132.400 44.633,132.400 44.976 C 132.400 45.547,131.479 45.809,130.100 45.630 C 129.825 45.594,129.600 45.933,129.600 46.382 C 129.600 46.988,129.340 47.200,128.600 47.200 C 127.978 47.200,127.600 47.427,127.600 47.800 C 127.600 48.375,126.885 48.592,125.600 48.409 C 125.270 48.362,125.126 48.452,125.281 48.610 C 125.716 49.052,124.559 50.000,123.586 50.000 C 122.942 50.000,122.780 50.172,122.966 50.657 C 123.179 51.209,123.121 51.232,122.600 50.800 C 122.078 50.367,122.022 50.392,122.240 50.960 C 122.382 51.330,122.341 51.604,122.149 51.569 C 121.153 51.387,120.400 51.669,120.400 52.224 C 120.400 52.567,120.220 52.736,120.000 52.600 C 119.780 52.464,119.600 52.543,119.600 52.776 C 119.600 53.009,119.060 53.200,118.400 53.200 C 117.600 53.200,117.200 53.400,117.200 53.800 C 117.200 54.173,116.822 54.400,116.200 54.400 C 115.650 54.400,115.197 54.625,115.194 54.900 C 115.190 55.233,115.058 55.200,114.800 54.800 C 114.486 54.315,114.411 54.372,114.406 55.100 C 114.402 55.718,114.160 56.000,113.633 56.000 C 112.441 56.000,111.600 56.431,111.600 57.043 C 111.600 57.349,111.240 57.600,110.800 57.600 C 110.360 57.600,110.021 57.735,110.047 57.900 C 110.199 58.859,109.888 59.197,108.900 59.145 C 107.148 59.053,106.800 59.161,106.800 59.800 C 106.800 60.173,106.422 60.400,105.800 60.400 C 105.250 60.400,104.800 60.591,104.800 60.824 C 104.800 61.057,104.639 61.148,104.442 61.026 C 104.245 60.904,103.981 61.074,103.854 61.402 C 103.728 61.731,103.349 62.000,103.013 62.000 C 102.667 62.000,102.400 62.348,102.400 62.800 C 102.400 63.379,102.133 63.600,101.433 63.600 C 100.037 63.600,99.200 64.000,99.200 64.666 C 99.200 64.986,99.028 65.141,98.818 65.011 C 98.221 64.642,96.400 65.230,96.400 65.792 C 96.400 66.075,95.677 66.413,94.761 66.560 C 93.600 66.745,93.184 66.982,93.334 67.372 C 93.477 67.746,93.119 68.001,92.211 68.172 C 91.477 68.309,90.776 68.687,90.651 69.011 C 90.527 69.335,90.059 69.600,89.613 69.600 C 89.157 69.600,88.800 69.864,88.800 70.200 C 88.800 70.573,88.422 70.800,87.800 70.800 C 87.067 70.800,86.800 71.013,86.800 71.600 C 86.800 72.333,85.223 72.733,83.483 72.442 C 83.308 72.412,83.348 72.729,83.570 73.144 C 83.914 73.786,83.826 73.909,82.987 73.958 C 80.892 74.082,80.799 74.117,81.213 74.615 C 81.499 74.960,81.411 75.097,80.906 75.097 C 79.559 75.098,78.351 75.694,78.565 76.253 C 78.708 76.625,78.459 76.800,77.787 76.800 C 77.244 76.800,76.440 77.160,76.000 77.600 C 75.560 78.040,74.919 78.400,74.576 78.400 C 74.233 78.400,74.052 78.561,74.174 78.758 C 74.296 78.955,74.117 79.223,73.777 79.354 C 73.423 79.489,73.263 79.422,73.403 79.195 C 73.827 78.510,73.279 78.765,72.221 79.746 C 71.659 80.266,71.200 80.894,71.200 81.141 C 71.200 81.388,70.885 81.564,70.500 81.532 C 68.886 81.397,68.000 81.634,68.000 82.200 C 68.000 82.530,67.655 82.800,67.233 82.800 C 66.072 82.800,65.200 83.226,65.200 83.793 C 65.200 84.255,63.085 85.004,62.251 84.837 C 62.059 84.799,62.008 85.045,62.138 85.384 C 62.303 85.814,62.130 86.000,61.564 86.000 C 61.118 86.000,60.858 86.171,60.988 86.380 C 61.299 86.883,60.042 87.469,58.849 87.377 C 58.217 87.329,57.832 87.556,57.702 88.052 C 57.578 88.529,57.147 88.800,56.516 88.800 C 55.862 88.800,55.454 89.072,55.316 89.600 C 55.169 90.162,54.770 90.400,53.976 90.400 C 53.289 90.400,52.620 90.722,52.270 91.221 C 51.954 91.673,51.314 92.071,50.847 92.106 C 50.381 92.142,50.000 92.402,50.000 92.685 C 50.000 92.968,49.595 93.203,49.100 93.206 C 48.064 93.213,47.112 93.727,47.174 94.245 C 47.198 94.440,46.565 94.657,45.769 94.727 C 44.561 94.832,44.354 94.982,44.523 95.627 C 44.680 96.227,44.518 96.400,43.795 96.400 C 42.450 96.400,41.600 96.804,41.600 97.443 C 41.600 97.749,41.240 98.000,40.800 98.000 C 40.356 98.000,40.000 98.267,40.000 98.600 C 40.000 98.930,39.734 99.200,39.409 99.200 C 39.084 99.200,38.525 99.648,38.165 100.197 C 37.806 100.745,37.365 101.102,37.185 100.991 C 37.005 100.879,36.743 101.151,36.602 101.594 C 36.461 102.037,36.088 102.400,35.773 102.400 C 35.458 102.400,35.200 102.760,35.200 103.200 C 35.200 103.644,34.933 104.000,34.600 104.000 C 34.270 104.000,34.000 104.174,34.000 104.387 C 34.000 104.601,34.315 104.685,34.700 104.575 C 35.085 104.465,34.995 104.588,34.500 104.849 C 34.005 105.109,33.600 105.640,33.600 106.028 C 33.600 106.416,33.375 106.814,33.100 106.912 C 32.825 107.011,33.770 107.664,35.200 108.363 C 38.024 109.745,39.466 110.532,40.400 111.200 C 41.112 111.709,42.543 112.540,44.200 113.406 C 44.860 113.750,46.120 114.468,47.000 115.001 C 47.880 115.533,49.095 116.173,49.700 116.423 C 50.305 116.674,50.800 117.023,50.800 117.200 C 50.800 117.377,51.295 117.726,51.900 117.977 C 52.505 118.227,53.720 118.867,54.600 119.399 C 55.480 119.932,56.740 120.650,57.400 120.994 C 59.057 121.860,60.488 122.691,61.200 123.200 C 61.939 123.729,62.902 124.275,65.659 125.730 C 66.836 126.351,68.172 127.206,68.626 127.630 C 69.080 128.053,69.727 128.400,70.064 128.400 C 70.401 128.400,71.002 128.760,71.400 129.200 C 71.798 129.640,72.325 130.000,72.571 130.000 C 72.817 130.000,73.975 130.630,75.144 131.400 C 76.313 132.170,77.496 132.800,77.773 132.800 C 78.050 132.800,78.602 133.160,79.000 133.600 C 79.398 134.040,79.880 134.400,80.071 134.400 C 80.539 134.400,86.775 138.037,87.039 138.463 C 87.153 138.648,87.569 138.800,87.962 138.800 C 88.355 138.800,89.002 139.160,89.400 139.600 C 89.798 140.040,90.435 140.400,90.816 140.400 C 92.898 140.400,92.811 137.662,92.701 200.055 L 92.600 257.735 91.400 258.466 C 90.740 258.869,89.705 259.396,89.100 259.638 C 88.495 259.880,88.000 260.223,88.000 260.400 C 88.000 260.577,87.505 260.926,86.900 261.177 C 86.295 261.427,85.143 262.029,84.339 262.516 C 80.992 264.542,79.144 265.564,78.395 265.802 C 77.958 265.940,77.600 266.204,77.600 266.388 C 77.600 266.571,77.105 266.922,76.500 267.166 C 75.343 267.633,74.298 268.254,69.915 271.078 C 68.438 272.030,66.818 272.996,66.315 273.225 C 65.812 273.454,64.680 274.080,63.800 274.617 C 62.920 275.154,61.750 275.822,61.200 276.101 C 60.650 276.381,59.431 277.107,58.491 277.715 C 57.552 278.323,55.752 279.367,54.491 280.034 C 53.231 280.702,51.480 281.678,50.600 282.203 C 49.720 282.729,48.640 283.357,48.200 283.600 C 47.760 283.843,46.680 284.475,45.800 285.004 C 44.920 285.534,43.660 286.241,43.000 286.576 C 42.340 286.910,41.440 287.410,41.000 287.687 C 40.560 287.964,39.300 288.757,38.200 289.449 C 36.213 290.700,33.338 291.732,32.788 291.392 C 32.629 291.295,32.500 291.661,32.500 292.207 C 32.500 292.783,32.731 293.200,33.050 293.200 C 33.352 293.200,33.600 293.458,33.600 293.773 C 33.600 294.088,33.960 294.460,34.400 294.600 C 34.840 294.740,35.200 295.112,35.200 295.427 C 35.200 295.742,35.487 296.000,35.837 296.000 C 36.188 296.000,36.569 296.360,36.684 296.800 C 36.799 297.240,37.047 297.600,37.234 297.600 C 37.422 297.600,37.478 297.852,37.360 298.160 C 37.242 298.467,37.366 298.855,37.635 299.021 C 37.932 299.205,38.021 299.157,37.861 298.899 C 37.691 298.624,37.943 298.637,38.579 298.937 C 39.118 299.192,39.641 299.715,39.742 300.100 C 39.843 300.485,40.296 300.800,40.750 300.800 C 41.286 300.800,41.501 300.993,41.363 301.351 C 41.218 301.729,41.586 301.983,42.537 302.162 C 43.299 302.305,44.024 302.687,44.149 303.011 C 44.273 303.335,44.701 303.600,45.099 303.600 C 45.497 303.600,46.130 303.960,46.507 304.400 C 46.884 304.840,47.638 305.200,48.184 305.200 C 48.892 305.200,49.110 305.368,48.949 305.789 C 48.781 306.227,49.139 306.445,50.345 306.638 C 51.238 306.780,51.930 307.094,51.884 307.336 C 51.838 307.577,52.430 307.870,53.200 307.987 C 54.083 308.121,54.600 308.421,54.600 308.800 C 54.600 309.205,55.089 309.440,56.100 309.524 C 56.925 309.592,57.600 309.828,57.600 310.048 C 57.600 310.267,57.375 310.312,57.100 310.147 C 56.737 309.929,56.745 310.025,57.129 310.499 C 57.420 310.858,58.050 311.212,58.529 311.285 C 59.008 311.359,59.361 311.621,59.314 311.868 C 59.267 312.114,59.852 312.433,60.614 312.576 C 61.441 312.731,62.000 313.071,62.000 313.418 C 62.000 313.828,62.461 314.000,63.557 314.000 C 65.095 314.000,66.103 314.903,65.078 315.363 C 64.785 315.494,64.832 315.563,65.200 315.541 C 66.376 315.471,67.395 315.665,66.900 315.865 C 66.092 316.191,66.327 316.768,67.200 316.600 C 67.640 316.515,68.000 316.616,68.000 316.823 C 68.000 317.030,68.444 317.200,68.987 317.200 C 69.670 317.200,69.908 317.373,69.760 317.760 C 69.606 318.160,70.003 318.398,71.148 318.591 C 72.306 318.787,72.691 319.020,72.533 319.431 C 72.326 319.970,73.208 320.178,75.200 320.059 C 75.627 320.034,75.651 320.089,75.283 320.251 C 74.679 320.516,75.377 321.600,76.153 321.600 C 76.403 321.600,76.832 321.960,77.107 322.400 C 77.426 322.910,78.040 323.200,78.803 323.200 C 79.600 323.200,80.000 323.400,80.000 323.800 C 80.000 324.215,80.417 324.400,81.353 324.400 C 82.370 324.400,82.759 324.599,82.916 325.200 C 83.059 325.746,83.462 326.000,84.186 326.000 C 84.770 326.000,85.144 326.168,85.017 326.372 C 84.767 326.778,85.453 327.325,86.389 327.466 C 86.713 327.515,87.174 327.823,87.414 328.151 C 87.653 328.479,88.377 328.879,89.021 329.041 C 89.665 329.203,90.432 329.575,90.725 329.867 C 91.018 330.160,91.792 330.400,92.446 330.400 C 93.357 330.400,93.608 330.564,93.518 331.100 C 93.427 331.639,93.768 331.856,95.000 332.043 C 95.880 332.177,96.263 332.312,95.851 332.343 C 95.227 332.391,95.186 332.501,95.608 333.010 C 95.886 333.345,96.209 333.524,96.325 333.408 C 96.441 333.292,96.961 333.475,97.479 333.815 C 97.998 334.155,98.602 334.322,98.821 334.187 C 99.040 334.051,99.170 334.179,99.110 334.470 C 99.045 334.785,99.438 335.051,100.078 335.124 C 100.825 335.211,101.088 335.426,100.935 335.824 C 100.765 336.269,101.098 336.400,102.404 336.400 C 103.896 336.400,104.069 336.493,103.884 337.200 C 103.689 337.944,104.824 338.312,106.500 338.047 C 106.665 338.021,106.800 338.379,106.800 338.843 C 106.800 339.449,106.979 339.617,107.437 339.441 C 107.862 339.278,108.144 339.464,108.284 339.998 C 108.499 340.824,108.579 340.865,110.095 340.950 C 110.602 340.978,111.047 341.303,111.124 341.700 C 111.250 342.353,112.280 342.614,114.000 342.431 C 114.533 342.374,114.533 342.413,114.000 342.783 C 113.291 343.276,114.050 343.983,115.300 343.994 C 115.685 343.997,115.955 344.218,115.900 344.485 C 115.845 344.751,116.475 345.143,117.300 345.355 C 118.125 345.567,118.800 345.940,118.800 346.183 C 118.800 346.427,119.295 346.665,119.900 346.714 C 120.505 346.762,121.225 347.106,121.500 347.477 C 121.775 347.849,122.289 348.195,122.642 348.247 C 122.995 348.299,123.545 348.715,123.865 349.171 C 124.184 349.627,124.885 350.000,125.423 350.000 C 125.976 350.000,126.357 350.210,126.300 350.485 C 126.245 350.751,126.875 351.143,127.700 351.355 C 128.525 351.567,129.200 351.979,129.200 352.271 C 129.200 352.619,129.732 352.800,130.756 352.800 C 131.988 352.800,132.300 352.944,132.256 353.496 C 132.216 353.994,132.599 354.264,133.600 354.444 C 134.370 354.582,134.781 354.718,134.513 354.747 C 133.892 354.814,134.286 355.908,134.924 355.889 C 136.629 355.836,137.162 356.033,136.933 356.630 C 136.778 357.034,136.891 357.226,137.246 357.165 C 138.199 357.001,139.977 357.658,139.887 358.140 C 139.837 358.405,140.451 358.654,141.340 358.727 C 142.644 358.834,142.848 358.973,142.675 359.636 C 142.554 360.096,142.662 360.396,142.935 360.362 C 144.665 360.150,145.600 360.445,145.600 361.200 C 145.600 361.675,145.867 362.000,146.256 362.000 C 146.617 362.000,147.112 362.272,147.356 362.605 C 147.600 362.937,148.241 363.294,148.780 363.397 C 149.319 363.500,149.913 363.858,150.100 364.192 C 150.287 364.527,150.965 364.800,151.607 364.800 C 152.481 364.800,152.717 364.951,152.545 365.400 C 152.418 365.730,152.514 366.023,152.757 366.050 C 153.001 366.078,153.380 366.145,153.600 366.200 C 153.820 366.255,154.180 366.322,154.400 366.350 C 154.620 366.378,154.800 366.654,154.800 366.965 C 154.800 367.311,155.411 367.633,156.376 367.796 C 157.511 367.988,157.890 368.221,157.733 368.631 C 157.569 369.058,157.874 369.200,158.957 369.200 C 160.158 369.200,160.400 369.342,160.400 370.043 C 160.400 370.607,160.588 370.813,160.968 370.668 C 161.281 370.548,162.010 370.888,162.589 371.425 C 163.168 371.961,164.127 372.414,164.721 372.432 C 165.314 372.449,165.580 372.552,165.312 372.661 C 164.927 372.817,164.927 372.971,165.312 373.385 C 165.668 373.770,165.879 373.789,166.094 373.456 C 166.306 373.128,166.389 373.140,166.394 373.500 C 166.397 373.775,166.760 374.000,167.200 374.000 C 167.644 374.000,168.000 374.267,168.000 374.600 C 168.000 375.033,168.444 375.200,169.600 375.200 C 170.933 375.200,171.200 375.333,171.200 376.000 C 171.200 376.518,171.467 376.800,171.957 376.800 C 172.374 376.800,172.812 377.053,172.930 377.362 C 173.049 377.672,173.698 378.046,174.373 378.194 C 175.048 378.342,175.600 378.719,175.600 379.032 C 175.600 379.344,175.780 379.600,176.000 379.600 C 176.220 379.600,176.400 379.386,176.400 379.124 C 176.400 378.861,176.643 378.979,176.939 379.385 C 177.236 379.790,177.686 379.994,177.939 379.838 C 178.230 379.658,178.400 379.857,178.400 380.376 C 178.400 381.066,178.652 381.200,179.953 381.200 C 181.170 381.200,181.552 381.373,181.716 382.000 C 181.877 382.616,182.262 382.800,183.386 382.800 C 184.207 382.800,184.744 382.967,184.612 383.180 C 183.998 384.175,191.320 384.937,193.500 384.105 C 193.895 383.955,194.000 376.729,194.000 349.827 L 194.000 315.739 193.100 314.935 C 192.605 314.493,186.710 310.979,180.000 307.127 C 173.290 303.275,153.760 292.019,136.600 282.114 C 119.440 272.209,104.770 263.759,104.000 263.337 C 103.230 262.915,100.665 261.432,98.300 260.041 L 94.000 257.513 94.000 200.406 C 94.000 135.236,93.705 141.335,96.937 139.614 C 98.292 138.893,100.058 137.920,100.861 137.452 C 101.665 136.983,103.825 135.737,105.661 134.682 C 107.498 133.627,109.270 132.591,109.600 132.379 C 109.930 132.167,110.650 131.781,111.200 131.520 C 111.750 131.259,112.470 130.830,112.800 130.567 C 113.130 130.305,114.349 129.574,115.509 128.945 C 116.670 128.315,118.290 127.396,119.109 126.903 C 119.929 126.409,121.140 125.729,121.800 125.392 C 122.460 125.054,123.720 124.330,124.600 123.782 C 125.480 123.234,126.560 122.600,127.000 122.373 C 127.440 122.145,128.466 121.563,129.279 121.079 C 133.195 118.751,137.059 116.508,137.600 116.249 C 137.930 116.091,138.866 115.565,139.679 115.081 C 143.418 112.854,147.454 110.510,148.000 110.249 C 148.330 110.091,149.320 109.525,150.200 108.990 C 151.080 108.456,152.160 107.838,152.600 107.616 C 153.040 107.395,154.120 106.760,155.000 106.204 C 155.880 105.649,157.140 104.914,157.800 104.570 C 158.460 104.226,159.720 103.515,160.600 102.989 C 161.480 102.463,162.740 101.756,163.400 101.417 C 164.060 101.079,165.140 100.441,165.800 100.000 C 166.460 99.559,167.540 98.921,168.200 98.582 C 168.860 98.243,170.570 97.242,172.000 96.358 C 173.430 95.474,175.140 94.480,175.800 94.148 C 176.460 93.816,177.720 93.112,178.600 92.582 C 179.480 92.052,180.560 91.438,181.000 91.216 C 181.440 90.995,182.520 90.360,183.400 89.804 C 184.280 89.249,185.540 88.514,186.200 88.170 C 186.860 87.826,188.120 87.112,189.000 86.582 C 189.880 86.052,190.960 85.454,191.400 85.252 C 191.840 85.050,192.611 84.443,193.113 83.903 L 194.026 82.921 193.913 48.660 C 193.851 29.817,193.935 14.355,194.100 14.300 C 194.265 14.245,192.853 14.200,190.962 14.200 C 189.071 14.200,187.438 14.338,187.334 14.507 M101.379 62.366 C 101.503 62.567,101.379 62.823,101.102 62.934 C 100.799 63.056,100.878 63.149,101.300 63.168 C 101.685 63.186,102.000 62.930,102.000 62.600 C 102.000 62.270,101.809 62.000,101.576 62.000 C 101.343 62.000,101.255 62.165,101.379 62.366 M31.371 109.777 C 30.786 110.209,30.711 110.459,31.063 110.816 C 31.416 111.175,31.637 111.078,31.995 110.409 C 32.593 109.292,32.355 109.051,31.371 109.777 M29.570 114.513 C 29.192 115.626,29.277 116.456,29.750 116.274 C 30.154 116.119,30.249 116.291,30.092 116.892 C 29.944 117.459,30.022 117.634,30.337 117.439 C 31.011 117.022,30.908 114.927,30.200 114.655 C 29.870 114.529,29.587 114.464,29.570 114.513 M29.784 279.921 C 29.209 280.328,29.169 282.464,29.742 282.121 C 29.994 281.970,29.953 282.151,29.651 282.523 C 29.293 282.964,29.258 283.200,29.551 283.200 C 29.798 283.200,29.955 283.335,29.900 283.500 C 29.845 283.665,29.935 283.845,30.100 283.900 C 30.767 284.122,30.874 283.971,30.430 283.436 C 30.093 283.031,30.085 282.795,30.400 282.600 C 30.710 282.408,30.686 282.140,30.319 281.688 C 29.930 281.207,29.925 281.122,30.300 281.347 C 30.599 281.526,30.798 281.437,30.794 281.124 C 30.784 280.293,30.216 279.616,29.784 279.921 M30.887 288.948 C 30.929 289.453,31.161 289.867,31.402 289.867 C 32.054 289.867,32.035 288.499,31.378 288.247 C 30.980 288.094,30.834 288.302,30.887 288.948 " stroke="none" fill="#e34353" fill-rule="evenodd"></path><path id="path3" d="M199.600 14.400 C 199.930 14.613,200.470 14.788,200.800 14.788 C 201.333 14.788,201.333 14.745,200.800 14.400 C 200.470 14.187,199.930 14.012,199.600 14.012 C 199.067 14.012,199.067 14.055,199.600 14.400 M204.684 16.400 C 204.510 17.064,204.672 17.200,205.637 17.200 C 206.975 17.200,207.034 17.091,206.171 16.229 C 205.333 15.391,204.936 15.436,204.684 16.400 M207.884 17.936 C 208.972 19.055,210.129 19.389,209.620 18.438 C 209.238 17.724,208.362 17.200,207.552 17.200 C 207.341 17.200,207.491 17.531,207.884 17.936 M212.702 20.266 C 212.979 20.377,213.105 20.631,212.982 20.830 C 212.859 21.028,213.037 21.084,213.377 20.954 C 214.150 20.657,213.787 19.989,212.876 20.032 C 212.456 20.051,212.390 20.140,212.702 20.266 M215.587 22.017 C 215.152 22.291,215.136 22.389,215.524 22.394 C 215.812 22.397,215.946 22.564,215.822 22.765 C 215.586 23.146,216.613 23.120,216.998 22.735 C 217.447 22.287,216.179 21.642,215.587 22.017 M218.274 23.960 C 218.383 24.378,218.890 24.800,219.400 24.898 C 220.495 25.107,220.344 24.212,219.179 23.589 C 218.164 23.046,218.047 23.094,218.274 23.960 M223.026 26.442 C 223.152 26.646,223.409 26.718,223.597 26.602 C 223.786 26.485,224.033 26.707,224.147 27.095 C 224.323 27.695,224.343 27.686,224.277 27.038 C 224.235 26.619,223.884 26.229,223.498 26.173 C 223.112 26.116,222.899 26.237,223.026 26.442 M225.478 27.866 C 225.740 27.968,225.864 28.288,225.754 28.577 C 225.622 28.919,225.965 29.163,226.735 29.276 C 227.788 29.430,227.885 29.359,227.615 28.630 C 227.415 28.089,226.919 27.788,226.156 27.745 C 225.520 27.710,225.215 27.764,225.478 27.866 M229.200 30.267 C 229.200 30.633,229.318 30.815,229.463 30.670 C 229.608 30.525,230.013 30.627,230.363 30.897 C 230.753 31.197,230.705 31.040,230.238 30.493 C 229.326 29.424,229.200 29.396,229.200 30.267 M233.600 32.400 C 233.600 32.620,233.825 32.755,234.100 32.700 C 234.375 32.645,234.555 32.825,234.500 33.100 C 234.445 33.375,234.599 33.600,234.843 33.600 C 235.086 33.600,235.176 33.315,235.043 32.967 C 234.909 32.619,234.800 32.259,234.800 32.167 C 234.800 32.075,234.530 32.000,234.200 32.000 C 233.870 32.000,233.600 32.180,233.600 32.400 M236.108 34.037 C 236.498 34.264,236.694 34.663,236.544 34.925 C 236.394 35.186,236.426 35.260,236.614 35.088 C 237.325 34.441,237.126 33.600,236.265 33.612 C 235.478 33.623,235.464 33.662,236.108 34.037 M244.000 38.771 C 244.000 39.343,244.257 39.600,244.829 39.600 C 245.402 39.600,245.617 39.385,245.525 38.905 C 245.324 37.862,244.000 37.746,244.000 38.771 M246.800 40.315 C 246.800 40.743,247.121 41.054,247.600 41.090 C 248.507 41.158,248.625 40.785,247.920 40.080 C 247.235 39.395,246.800 39.487,246.800 40.315 M251.206 42.651 C 251.195 43.471,252.277 44.099,252.536 43.423 C 252.662 43.094,252.593 42.719,252.383 42.589 C 252.172 42.459,251.997 42.588,251.994 42.876 C 251.989 43.257,251.882 43.236,251.600 42.800 C 251.387 42.470,251.209 42.403,251.206 42.651 M254.769 44.067 C 254.493 45.272,254.557 45.506,255.141 45.420 C 255.912 45.307,256.028 44.343,255.300 44.100 C 255.025 44.008,254.786 43.993,254.769 44.067 M257.200 46.400 C 257.200 46.927,257.467 47.200,257.980 47.200 C 258.409 47.200,258.922 47.490,259.121 47.844 C 259.452 48.435,259.501 48.435,259.728 47.844 C 259.872 47.467,259.771 47.200,259.484 47.200 C 259.213 47.200,258.768 46.840,258.493 46.400 C 258.218 45.960,257.815 45.600,257.597 45.600 C 257.378 45.600,257.200 45.960,257.200 46.400 M264.300 50.246 C 264.575 50.367,264.800 50.722,264.800 51.033 C 264.800 51.345,265.173 51.600,265.629 51.600 C 267.008 51.600,266.419 50.216,264.997 50.113 C 264.338 50.065,264.025 50.125,264.300 50.246 M268.000 52.601 C 268.000 52.875,268.569 53.214,269.264 53.353 C 270.955 53.691,270.979 53.530,269.354 52.751 C 268.352 52.270,268.000 52.231,268.000 52.601 M108.800 58.200 C 108.522 58.535,108.479 58.800,108.702 58.800 C 108.922 58.800,109.326 58.530,109.600 58.200 C 109.878 57.865,109.921 57.600,109.698 57.600 C 109.478 57.600,109.074 57.870,108.800 58.200 M279.427 59.161 C 279.804 59.537,281.245 59.597,281.016 59.227 C 280.889 59.020,280.436 58.877,280.009 58.909 C 279.583 58.941,279.321 59.055,279.427 59.161 M282.846 61.100 C 282.813 61.749,283.023 62.000,283.600 62.000 C 284.464 62.000,284.692 61.028,283.938 60.562 C 283.663 60.391,283.585 60.451,283.745 60.711 C 283.892 60.949,283.844 61.249,283.637 61.377 C 283.430 61.505,283.178 61.293,283.077 60.905 C 282.937 60.368,282.882 60.415,282.846 61.100 M285.898 62.747 C 285.777 63.208,285.965 63.457,286.459 63.494 C 287.322 63.559,287.465 62.587,286.639 62.270 C 286.319 62.147,286.001 62.351,285.898 62.747 M287.733 64.133 C 287.733 64.427,287.943 64.667,288.200 64.667 C 288.457 64.667,288.667 64.427,288.667 64.133 C 288.667 63.840,288.457 63.600,288.200 63.600 C 287.943 63.600,287.733 63.840,287.733 64.133 M290.800 65.600 C 290.800 66.347,290.907 66.453,291.280 66.080 C 291.653 65.707,291.653 65.493,291.280 65.120 C 290.907 64.747,290.800 64.853,290.800 65.600 M293.305 67.128 C 293.339 67.583,293.620 67.868,293.982 67.815 C 294.817 67.692,294.771 66.644,293.923 66.481 C 293.461 66.392,293.265 66.597,293.305 67.128 M295.969 68.100 C 295.618 69.247,295.764 69.600,296.586 69.600 C 297.090 69.600,297.726 69.870,298.000 70.200 C 298.574 70.892,299.200 70.989,299.200 70.387 C 299.200 70.161,298.885 69.857,298.500 69.714 C 298.115 69.570,297.565 69.126,297.277 68.726 C 296.837 68.114,296.076 67.750,295.969 68.100 M300.702 71.066 C 300.979 71.177,301.089 71.456,300.947 71.686 C 300.803 71.918,300.924 72.025,301.219 71.927 C 302.174 71.609,302.110 70.799,301.133 70.832 C 300.620 70.849,300.426 70.954,300.702 71.066 M303.478 72.941 C 303.199 73.669,303.517 74.000,304.496 74.000 C 305.005 74.000,305.214 73.769,305.125 73.305 C 304.956 72.428,303.775 72.167,303.478 72.941 M306.344 74.813 C 306.864 75.246,307.524 75.600,307.811 75.600 C 308.098 75.600,308.404 75.812,308.490 76.071 C 308.583 76.348,308.862 76.409,309.168 76.220 C 309.531 75.995,309.121 75.609,307.818 74.949 C 305.557 73.803,305.078 73.759,306.344 74.813 M311.455 77.400 C 311.554 77.657,311.880 77.867,312.179 77.867 C 312.479 77.867,312.643 77.657,312.545 77.400 C 312.446 77.143,312.120 76.933,311.821 76.933 C 311.521 76.933,311.357 77.143,311.455 77.400 M70.000 80.600 C 69.722 80.935,69.679 81.200,69.902 81.200 C 70.122 81.200,70.526 80.930,70.800 80.600 C 71.078 80.265,71.121 80.000,70.898 80.000 C 70.678 80.000,70.274 80.270,70.000 80.600 M321.293 83.600 C 321.568 84.040,322.109 84.400,322.496 84.400 C 323.287 84.400,323.450 83.402,322.732 82.958 C 322.417 82.764,322.348 82.887,322.519 83.334 C 322.660 83.700,322.601 84.000,322.387 84.000 C 322.174 84.000,322.000 83.730,322.000 83.400 C 322.000 83.070,321.728 82.800,321.397 82.800 C 320.893 82.800,320.876 82.933,321.293 83.600 M324.832 84.724 C 324.814 85.012,324.622 85.137,324.405 85.003 C 324.187 84.868,324.102 85.000,324.215 85.295 C 324.503 86.046,326.000 86.093,326.000 85.352 C 326.000 85.022,325.835 84.855,325.634 84.979 C 325.433 85.103,325.177 84.979,325.066 84.702 C 324.909 84.313,324.856 84.318,324.832 84.724 M329.310 88.005 C 329.382 88.955,330.086 88.858,330.230 87.878 C 330.284 87.505,330.086 87.200,329.789 87.200 C 329.493 87.200,329.277 87.562,329.310 88.005 M331.678 89.053 C 332.054 89.163,332.261 89.496,332.144 89.803 C 332.001 90.175,332.208 90.335,332.779 90.292 C 334.107 90.192,333.603 89.013,332.197 88.928 C 331.538 88.889,331.305 88.945,331.678 89.053 M334.684 91.200 C 334.800 91.643,335.230 92.000,335.647 92.000 C 336.510 92.000,336.614 91.574,335.920 90.880 C 335.161 90.121,334.450 90.305,334.684 91.200 M339.913 93.713 C 340.414 94.004,340.699 94.367,340.546 94.521 C 340.392 94.674,340.477 94.800,340.733 94.800 C 341.800 94.800,340.964 93.449,339.800 93.292 C 339.084 93.196,339.096 93.240,339.913 93.713 M342.308 95.025 C 341.859 95.475,342.464 96.400,343.207 96.400 C 343.667 96.400,343.892 96.146,343.827 95.700 C 343.723 94.989,342.769 94.565,342.308 95.025 M41.093 97.200 C 40.716 97.640,40.546 98.000,40.715 98.000 C 40.884 98.000,41.330 97.640,41.707 97.200 C 42.084 96.760,42.254 96.400,42.085 96.400 C 41.916 96.400,41.470 96.760,41.093 97.200 M347.090 98.423 C 347.200 98.842,347.514 99.055,347.839 98.930 C 348.627 98.627,348.536 98.129,347.651 97.897 C 347.083 97.749,346.947 97.876,347.090 98.423 M352.800 104.637 C 352.800 105.209,353.034 105.600,353.376 105.600 C 354.233 105.600,354.567 104.805,353.724 104.772 C 353.068 104.746,353.073 104.715,353.779 104.439 C 354.522 104.148,354.517 104.124,353.679 103.905 C 352.954 103.715,352.800 103.843,352.800 104.637 M352.531 107.747 C 351.909 108.268,350.451 109.213,349.291 109.847 C 348.130 110.481,346.510 111.403,345.691 111.897 C 344.871 112.390,343.750 113.022,343.200 113.301 C 342.650 113.581,341.480 114.275,340.600 114.844 C 338.956 115.908,334.730 118.309,332.600 119.389 C 331.940 119.724,330.860 120.359,330.200 120.800 C 329.540 121.241,328.460 121.884,327.800 122.228 C 327.140 122.573,325.880 123.291,325.000 123.825 C 324.120 124.358,322.860 125.071,322.200 125.409 C 321.540 125.747,320.415 126.378,319.700 126.812 C 318.985 127.245,317.815 127.955,317.100 128.388 C 316.385 128.822,315.260 129.451,314.600 129.786 C 313.940 130.121,312.680 130.850,311.800 131.406 C 310.920 131.962,309.930 132.530,309.600 132.669 C 309.270 132.808,308.730 133.144,308.400 133.415 C 308.070 133.687,306.810 134.435,305.600 135.078 C 304.390 135.722,302.680 136.703,301.800 137.260 C 299.997 138.400,298.397 139.286,296.527 140.180 C 293.792 141.487,294.000 136.620,294.000 199.263 C 294.000 232.312,294.152 256.334,294.364 256.874 C 294.578 257.421,295.684 258.289,297.064 258.994 C 298.349 259.650,299.670 260.393,300.000 260.645 C 300.702 261.181,323.844 274.574,326.200 275.808 C 327.080 276.269,328.520 277.100,329.400 277.654 C 331.539 279.002,351.204 290.401,353.019 291.345 C 353.919 291.814,354.372 292.296,354.238 292.645 C 353.934 293.438,354.246 293.332,355.184 292.325 C 355.652 291.822,356.000 290.904,356.000 290.171 C 356.000 289.230,356.211 288.838,356.800 288.684 C 357.504 288.500,357.600 288.138,357.600 285.680 C 357.600 283.565,357.746 282.830,358.200 282.655 C 358.731 282.452,358.800 272.810,358.800 199.213 C 358.800 125.513,358.731 116.000,358.200 116.000 C 357.724 116.000,357.600 115.423,357.600 113.203 C 357.600 110.840,357.476 110.329,356.800 109.907 C 356.266 109.574,356.000 108.974,356.000 108.104 C 356.000 106.449,354.290 106.273,352.531 107.747 M190.348 137.730 C 187.145 139.402,185.221 140.490,180.200 143.468 C 178.000 144.773,175.885 145.960,175.501 146.107 C 175.117 146.254,173.857 146.976,172.701 147.711 C 171.545 148.447,170.330 149.180,170.000 149.340 C 169.670 149.501,168.573 150.120,167.563 150.716 C 166.552 151.312,162.357 153.780,158.239 156.200 C 154.122 158.620,150.089 161.008,149.277 161.507 C 148.464 162.006,147.440 162.596,147.000 162.819 C 144.406 164.133,140.553 166.778,139.837 167.737 C 138.593 169.404,138.228 230.976,139.457 232.050 C 140.074 232.590,148.166 237.417,153.600 240.485 C 155.216 241.398,167.104 248.275,168.000 248.815 C 168.330 249.014,173.370 251.907,179.200 255.243 C 185.030 258.579,190.280 261.646,190.866 262.058 C 193.424 263.854,193.379 263.871,206.688 256.179 C 218.784 249.188,232.019 241.495,233.200 240.768 C 239.639 236.804,242.625 234.993,244.606 233.852 C 245.929 233.090,247.504 232.010,248.106 231.452 L 249.200 230.438 249.200 199.852 C 249.200 183.029,249.091 168.980,248.957 168.632 C 248.748 168.086,245.487 165.600,244.981 165.600 C 244.801 165.600,224.320 153.935,223.200 153.195 C 222.870 152.977,222.240 152.637,221.800 152.440 C 220.912 152.043,205.749 143.437,204.800 142.792 C 204.470 142.568,203.660 142.110,203.000 141.776 C 202.340 141.441,201.080 140.743,200.200 140.225 C 193.090 136.038,193.426 136.123,190.348 137.730 M353.263 293.961 C 352.846 294.218,352.881 294.345,353.424 294.554 C 354.248 294.870,354.700 294.540,354.170 294.010 C 353.963 293.803,353.555 293.781,353.263 293.961 M347.762 299.938 C 347.929 300.209,347.799 300.400,347.447 300.400 C 347.117 300.400,346.746 300.563,346.623 300.763 C 346.500 300.962,346.762 301.030,347.206 300.914 C 348.225 300.648,348.551 300.141,347.945 299.766 C 347.652 299.585,347.584 299.650,347.762 299.938 M342.800 302.467 C 342.800 302.650,342.991 302.800,343.224 302.800 C 343.457 302.800,343.536 302.980,343.400 303.200 C 343.264 303.420,343.343 303.600,343.576 303.600 C 343.809 303.600,344.000 303.270,344.000 302.867 C 344.000 302.463,343.730 302.133,343.400 302.133 C 343.070 302.133,342.800 302.283,342.800 302.467 M341.786 303.471 C 340.902 303.647,339.678 305.200,340.423 305.200 C 341.154 305.200,342.294 304.452,342.540 303.811 C 342.669 303.475,342.736 303.225,342.687 303.254 C 342.639 303.284,342.234 303.382,341.786 303.471 M337.860 305.787 C 337.736 306.110,337.815 306.486,338.035 306.622 C 338.539 306.933,339.667 306.032,339.372 305.555 C 339.028 304.998,338.109 305.139,337.860 305.787 M330.535 310.175 C 330.663 310.509,330.472 310.825,330.078 310.929 C 329.547 311.068,329.578 311.117,330.220 311.154 C 331.035 311.200,332.000 310.531,332.000 309.920 C 332.000 309.744,331.621 309.600,331.157 309.600 C 330.589 309.600,330.386 309.787,330.535 310.175 M327.443 311.833 C 327.100 312.727,327.127 312.800,327.800 312.800 C 328.130 312.800,328.400 312.519,328.400 312.176 C 328.400 311.807,328.588 311.669,328.862 311.838 C 329.148 312.015,329.215 311.948,329.038 311.662 C 328.627 310.997,327.726 311.094,327.443 311.833 M63.600 314.351 C 63.600 315.162,64.632 315.567,64.692 314.780 C 64.725 314.341,64.499 314.000,64.175 314.000 C 63.859 314.000,63.600 314.158,63.600 314.351 M320.000 316.400 C 320.000 317.347,320.253 317.404,321.029 316.629 C 321.804 315.853,321.747 315.600,320.800 315.600 C 320.267 315.600,320.000 315.867,320.000 316.400 M317.338 317.817 C 316.989 318.726,317.470 318.988,318.181 318.276 C 318.962 317.495,318.964 317.200,318.187 317.200 C 317.851 317.200,317.468 317.478,317.338 317.817 M312.117 320.762 C 311.748 321.351,311.749 321.507,312.121 321.450 C 312.853 321.339,313.600 320.797,313.600 320.376 C 313.600 319.715,312.609 319.973,312.117 320.762 M309.484 322.400 C 309.263 323.246,309.810 323.435,310.751 322.839 C 311.054 322.647,311.179 322.289,311.028 322.045 C 310.586 321.330,309.711 321.532,309.484 322.400 M304.200 325.200 C 303.802 325.640,303.092 326.000,302.624 326.000 C 302.038 326.000,301.771 326.250,301.771 326.800 C 301.771 327.876,302.246 327.807,303.399 326.564 C 303.993 325.922,304.557 325.642,304.879 325.828 C 305.166 325.993,305.267 325.981,305.103 325.801 C 304.940 325.621,305.007 325.232,305.252 324.937 C 305.969 324.073,305.001 324.315,304.200 325.200 M299.023 328.285 C 298.890 328.631,298.884 329.017,299.010 329.143 C 299.284 329.418,300.500 328.701,300.681 328.157 C 300.902 327.494,299.278 327.619,299.023 328.285 M291.969 332.167 C 291.454 332.728,291.816 333.513,292.436 333.181 C 293.349 332.692,293.436 332.133,292.600 332.133 C 292.270 332.133,291.986 332.148,291.969 332.167 M288.684 334.400 C 288.450 335.295,289.161 335.479,289.920 334.720 C 290.614 334.026,290.510 333.600,289.647 333.600 C 289.230 333.600,288.800 333.957,288.684 334.400 M102.477 336.830 C 102.556 337.067,102.791 337.260,103.000 337.260 C 103.209 337.260,103.445 337.067,103.523 336.830 C 103.602 336.594,103.367 336.400,103.000 336.400 C 102.633 336.400,102.398 336.594,102.477 336.830 M281.084 338.800 C 280.850 339.695,281.561 339.879,282.320 339.120 C 283.014 338.426,282.910 338.000,282.047 338.000 C 281.630 338.000,281.200 338.357,281.084 338.800 M276.009 341.512 L 275.130 342.224 276.065 342.271 C 276.579 342.297,276.765 342.229,276.479 342.119 C 276.091 341.970,276.142 341.780,276.679 341.372 C 277.075 341.072,277.285 340.820,277.144 340.813 C 277.004 340.806,276.493 341.121,276.009 341.512 M273.867 342.667 C 273.268 343.266,273.573 344.120,274.200 343.600 C 274.530 343.326,274.800 342.944,274.800 342.751 C 274.800 342.337,274.247 342.287,273.867 342.667 M270.592 344.413 C 270.437 344.664,270.480 345.040,270.688 345.248 C 271.174 345.734,272.481 345.244,272.284 344.651 C 272.074 344.022,270.933 343.861,270.592 344.413 M265.030 347.867 C 264.917 348.160,264.459 348.400,264.013 348.400 C 263.462 348.400,263.200 348.662,263.200 349.214 C 263.200 349.904,263.322 349.963,264.000 349.600 C 264.440 349.365,264.800 348.998,264.800 348.786 C 264.800 348.574,265.130 348.400,265.533 348.400 C 265.937 348.400,266.267 348.160,266.267 347.867 C 266.267 347.573,266.034 347.333,265.751 347.333 C 265.467 347.333,265.142 347.573,265.030 347.867 M260.187 350.421 C 260.061 350.624,260.283 350.688,260.679 350.563 C 261.323 350.359,261.317 350.402,260.624 350.967 C 260.196 351.315,259.983 351.600,260.150 351.600 C 260.668 351.600,262.000 350.787,262.000 350.471 C 262.000 350.030,260.455 349.987,260.187 350.421 M255.206 353.100 C 255.224 353.977,255.988 354.559,255.994 353.700 C 255.997 353.205,255.820 352.800,255.600 352.800 C 255.380 352.800,255.203 352.935,255.206 353.100 M252.737 355.076 C 252.489 355.375,252.386 355.720,252.509 355.842 C 252.790 356.124,254.400 355.281,254.400 354.853 C 254.400 354.331,253.224 354.490,252.737 355.076 M250.537 356.580 C 250.685 356.967,250.567 357.085,250.180 356.937 C 249.861 356.814,249.600 356.914,249.600 357.157 C 249.600 357.745,250.518 357.722,251.120 357.120 C 251.786 356.454,251.720 356.000,250.957 356.000 C 250.560 356.000,250.399 356.222,250.537 356.580 M141.288 359.265 C 141.374 359.521,141.736 359.773,142.094 359.826 C 142.507 359.886,142.666 359.717,142.530 359.361 C 142.272 358.689,141.065 358.596,141.288 359.265 M242.400 361.214 C 242.400 361.904,242.522 361.963,243.200 361.600 C 243.640 361.365,244.000 360.998,244.000 360.786 C 244.000 360.574,243.640 360.400,243.200 360.400 C 242.662 360.400,242.400 360.667,242.400 361.214 M235.078 365.623 C 234.902 366.298,234.965 366.361,235.431 365.974 C 236.068 365.446,236.186 364.800,235.647 364.800 C 235.452 364.800,235.196 365.170,235.078 365.623 M231.770 367.078 C 231.894 367.920,232.415 368.108,233.200 367.593 C 233.733 367.244,233.733 367.156,233.200 366.806 C 232.285 366.205,231.660 366.324,231.770 367.078 M226.216 370.373 C 226.071 370.608,225.610 370.800,225.190 370.800 C 224.771 370.800,224.241 371.150,224.012 371.577 C 223.653 372.249,223.713 372.332,224.458 372.189 C 225.364 372.014,227.023 370.490,226.680 370.147 C 226.570 370.037,226.361 370.139,226.216 370.373 M221.600 373.214 C 221.600 373.904,221.722 373.963,222.400 373.600 C 222.840 373.365,223.200 372.976,223.200 372.737 C 223.200 372.469,222.941 372.512,222.523 372.851 C 222.063 373.224,221.943 373.240,222.147 372.900 C 222.312 372.625,222.257 372.400,222.024 372.400 C 221.791 372.400,221.600 372.766,221.600 373.214 M218.908 374.590 C 218.508 375.045,218.551 375.139,219.141 375.094 C 219.540 375.064,219.867 374.806,219.867 374.520 C 219.867 373.856,219.532 373.881,218.908 374.590 M170.000 375.551 C 170.000 375.744,170.256 376.114,170.569 376.374 C 171.035 376.761,171.098 376.698,170.922 376.023 C 170.712 375.219,170.000 374.855,170.000 375.551 M216.400 376.000 C 216.062 376.632,216.096 376.800,216.561 376.800 C 216.904 376.800,217.125 376.465,217.090 376.000 C 217.057 375.560,216.984 375.200,216.929 375.200 C 216.874 375.200,216.635 375.560,216.400 376.000 M213.937 377.476 C 213.689 377.775,213.586 378.120,213.709 378.242 C 213.990 378.524,215.600 377.681,215.600 377.253 C 215.600 376.731,214.424 376.890,213.937 377.476 M212.216 378.539 C 211.730 378.894,211.629 379.171,211.919 379.350 C 212.162 379.500,212.555 379.257,212.794 378.811 C 213.304 377.857,213.209 377.813,212.216 378.539 M208.006 379.871 C 208.022 380.718,208.788 381.402,208.822 380.600 L 208.856 379.800 209.225 380.600 C 209.590 381.393,209.592 381.393,209.492 380.605 C 209.397 379.856,207.993 379.163,208.006 379.871 M180.400 381.502 C 180.400 381.722,180.670 382.126,181.000 382.400 C 181.335 382.678,181.600 382.721,181.600 382.498 C 181.600 382.278,181.330 381.874,181.000 381.600 C 180.665 381.322,180.400 381.279,180.400 381.502 M206.369 381.300 C 206.116 382.128,206.146 382.800,206.435 382.800 C 206.636 382.800,206.800 382.440,206.800 382.000 C 206.800 381.357,206.501 380.871,206.369 381.300 M202.178 383.235 C 202.031 383.474,202.094 383.854,202.320 384.080 C 202.796 384.556,203.603 384.173,203.594 383.476 C 203.590 383.190,203.433 383.239,203.200 383.600 C 202.851 384.140,202.628 383.890,202.753 383.100 C 202.823 382.657,202.487 382.736,202.178 383.235 M190.826 385.031 C 191.354 385.668,192.000 385.786,192.000 385.247 C 192.000 385.052,191.630 384.796,191.177 384.678 C 190.502 384.502,190.439 384.565,190.826 385.031 M194.800 385.000 C 194.800 385.330,194.958 385.600,195.151 385.600 C 195.344 385.600,195.726 385.330,196.000 385.000 C 196.416 384.499,196.358 384.400,195.649 384.400 C 195.161 384.400,194.800 384.655,194.800 385.000 " stroke="none" fill="#fc838b" fill-rule="evenodd"></path></g></svg>