<svg id="svg" version="1.1" xmlns="http://www.w3.org/2000/svg" xmlns:xlink="http://www.w3.org/1999/xlink" width="400" height="400" viewBox="0, 0, 400,400"><g id="svgg"><path id="path0" d="M192.049 10.361 C 191.746 10.553,191.621 10.911,191.772 11.155 C 191.947 11.437,191.673 11.600,191.024 11.600 C 190.267 11.600,190.000 11.808,190.000 12.400 C 190.000 12.840,189.742 13.200,189.427 13.200 C 189.112 13.200,188.740 13.560,188.600 14.000 C 188.460 14.440,188.088 14.800,187.773 14.800 C 187.385 14.800,187.200 15.251,187.200 16.200 C 187.200 17.333,187.048 17.600,186.400 17.600 C 185.816 17.600,185.600 17.867,185.600 18.587 C 185.600 19.289,185.431 19.510,185.016 19.351 C 184.593 19.189,184.476 19.358,184.593 19.963 C 184.682 20.423,184.605 20.800,184.424 20.800 C 184.242 20.800,183.999 21.160,183.884 21.600 C 183.769 22.040,183.388 22.400,183.037 22.400 C 182.576 22.400,182.400 22.786,182.400 23.800 C 182.400 24.791,182.221 25.200,181.787 25.200 C 181.170 25.200,180.344 26.746,180.668 27.295 C 180.763 27.458,180.562 27.484,180.221 27.353 C 179.599 27.114,179.385 28.241,179.584 30.700 C 179.638 31.367,179.443 31.600,178.829 31.600 C 178.373 31.600,178.000 31.858,178.000 32.173 C 178.000 32.488,177.640 32.860,177.200 33.000 C 176.753 33.142,176.400 33.605,176.400 34.051 C 176.400 34.489,176.220 34.736,176.000 34.600 C 175.780 34.464,175.600 34.644,175.600 35.000 C 175.600 35.356,175.780 35.536,176.000 35.400 C 176.220 35.264,176.400 35.343,176.400 35.576 C 176.400 36.170,175.310 36.107,175.065 35.500 C 174.954 35.225,174.849 35.564,174.832 36.253 C 174.809 37.155,174.575 37.565,174.000 37.716 C 173.417 37.868,173.200 38.262,173.200 39.163 C 173.200 39.996,173.004 40.400,172.600 40.400 C 172.270 40.400,172.000 40.664,172.000 40.986 C 172.000 41.308,171.640 41.765,171.200 42.000 C 170.636 42.302,170.400 42.838,170.400 43.814 C 170.400 44.933,170.246 45.200,169.600 45.200 C 169.067 45.200,168.800 45.467,168.800 46.000 C 168.800 46.440,168.620 46.800,168.400 46.800 C 168.180 46.800,168.000 46.991,168.000 47.224 C 168.000 47.457,168.208 47.519,168.462 47.362 C 168.748 47.185,168.815 47.252,168.638 47.538 C 168.481 47.792,168.093 48.000,167.776 48.000 C 167.459 48.000,167.200 48.348,167.200 48.773 C 167.200 49.198,166.840 49.660,166.400 49.800 C 165.960 49.940,165.600 50.216,165.600 50.414 C 165.600 50.613,165.852 50.678,166.160 50.560 C 166.467 50.442,166.825 50.517,166.955 50.728 C 167.085 50.938,166.883 51.085,166.505 51.055 C 166.128 51.025,165.792 51.225,165.760 51.500 C 165.727 51.775,165.678 52.180,165.650 52.400 C 165.623 52.620,165.348 52.800,165.039 52.800 C 164.425 52.800,163.502 54.969,163.933 55.399 C 164.080 55.546,163.934 55.607,163.609 55.533 C 163.250 55.452,162.965 55.752,162.882 56.300 C 162.806 56.795,162.506 57.200,162.215 57.200 C 161.596 57.200,161.200 58.070,161.200 59.433 C 161.200 60.133,160.979 60.400,160.400 60.400 C 159.867 60.400,159.600 60.667,159.600 61.200 C 159.600 61.640,159.349 62.000,159.043 62.000 C 158.449 62.000,158.000 62.834,158.000 63.936 C 158.000 64.306,157.640 64.832,157.200 65.107 C 156.690 65.426,156.400 66.040,156.400 66.803 C 156.400 67.600,156.200 68.000,155.800 68.000 C 155.470 68.000,155.200 68.264,155.200 68.586 C 155.200 68.908,154.840 69.365,154.400 69.600 C 153.901 69.867,153.600 70.438,153.600 71.118 C 153.600 71.774,153.282 72.406,152.800 72.707 C 152.290 73.026,152.000 73.640,152.000 74.403 C 152.000 75.333,151.822 75.600,151.200 75.600 C 150.756 75.600,150.400 75.867,150.400 76.200 C 150.400 76.530,150.040 77.160,149.600 77.600 C 149.160 78.040,148.800 78.850,148.800 79.400 C 148.800 79.988,148.570 80.400,148.243 80.400 C 147.631 80.400,147.200 81.241,147.200 82.433 C 147.200 82.855,146.930 83.200,146.600 83.200 C 146.270 83.200,146.000 83.539,146.000 83.953 C 146.000 84.370,145.643 84.800,145.200 84.916 C 144.587 85.076,144.400 85.462,144.400 86.563 C 144.400 87.733,144.252 88.000,143.600 88.000 C 142.833 88.000,142.563 88.778,142.783 90.354 C 142.833 90.713,142.631 90.821,142.209 90.659 C 141.830 90.513,141.660 90.574,141.803 90.805 C 141.937 91.022,141.857 91.200,141.624 91.200 C 141.391 91.200,141.200 91.830,141.200 92.600 C 141.200 93.601,141.022 94.000,140.576 94.000 C 140.233 94.000,140.064 93.820,140.200 93.600 C 140.336 93.380,140.257 93.200,140.024 93.200 C 139.791 93.200,139.600 93.740,139.600 94.400 C 139.600 95.158,139.395 95.600,139.043 95.600 C 138.737 95.600,138.374 96.049,138.236 96.598 C 138.099 97.146,137.764 97.551,137.493 97.498 C 137.205 97.441,136.949 97.923,136.878 98.659 C 136.795 99.507,136.501 99.985,135.978 100.122 C 135.396 100.274,135.200 100.675,135.200 101.716 C 135.200 102.770,135.006 103.157,134.400 103.316 C 133.960 103.431,133.600 103.812,133.600 104.163 C 133.600 104.513,133.353 104.800,133.050 104.800 C 132.748 104.800,132.387 105.366,132.249 106.057 C 132.110 106.748,131.700 107.531,131.336 107.797 C 130.973 108.063,130.628 108.712,130.571 109.240 C 130.514 109.768,130.452 110.335,130.433 110.500 C 130.415 110.665,130.130 110.800,129.800 110.800 C 129.470 110.800,129.200 111.139,129.200 111.553 C 129.200 111.970,128.843 112.400,128.400 112.516 C 127.793 112.675,127.600 113.062,127.600 114.118 C 127.600 115.199,127.443 115.499,126.900 115.456 C 126.414 115.417,126.161 115.741,126.072 116.514 C 126.002 117.127,125.597 117.845,125.172 118.110 C 124.747 118.375,124.400 118.909,124.400 119.296 C 124.400 119.683,124.150 120.000,123.845 120.000 C 123.529 120.000,123.179 120.589,123.034 121.361 C 122.893 122.110,122.513 122.824,122.189 122.949 C 121.865 123.073,121.600 123.631,121.600 124.187 C 121.600 124.744,121.409 125.200,121.176 125.200 C 120.943 125.200,120.864 125.380,121.000 125.600 C 121.136 125.820,120.967 126.000,120.624 126.000 C 120.267 126.000,120.000 126.342,120.000 126.800 C 120.000 127.522,119.577 127.792,118.681 127.641 C 118.506 127.612,118.392 127.815,118.428 128.094 C 118.599 129.393,118.359 131.355,118.083 130.921 C 117.687 130.298,116.939 130.782,116.723 131.800 C 116.629 132.240,116.338 132.555,116.076 132.500 C 115.814 132.445,115.621 132.535,115.647 132.700 C 115.673 132.865,115.651 133.135,115.597 133.300 C 115.439 133.789,115.303 134.373,115.250 134.800 C 115.222 135.020,114.946 135.200,114.635 135.200 C 114.288 135.200,113.966 135.816,113.800 136.800 C 113.634 137.784,113.312 138.400,112.965 138.400 C 112.654 138.400,112.400 138.748,112.400 139.173 C 112.400 139.598,112.040 140.060,111.600 140.200 C 111.045 140.376,110.800 140.805,110.800 141.600 C 110.800 142.400,110.555 142.824,109.989 143.003 C 109.544 143.145,109.205 143.472,109.237 143.730 C 109.425 145.259,109.152 146.000,108.400 146.000 C 107.735 146.000,107.600 146.267,107.600 147.577 C 107.600 148.939,107.491 149.133,106.800 149.000 C 106.222 148.889,106.000 149.061,106.000 149.623 C 106.000 150.092,105.722 150.405,105.300 150.412 C 104.633 150.424,104.633 150.444,105.300 150.832 C 106.146 151.325,106.219 152.000,105.427 152.000 C 105.112 152.000,104.740 152.360,104.600 152.800 C 104.460 153.240,104.101 153.600,103.801 153.600 C 103.501 153.600,103.198 154.005,103.128 154.500 C 103.058 154.995,102.745 155.400,102.434 155.400 C 102.107 155.400,101.800 155.906,101.708 156.593 C 101.530 157.921,101.349 158.200,100.667 158.200 C 100.410 158.200,100.142 158.605,100.072 159.100 C 100.002 159.595,99.777 160.000,99.572 160.000 C 99.367 160.000,99.200 160.270,99.200 160.600 C 99.200 160.930,99.020 161.200,98.800 161.200 C 98.580 161.200,98.400 161.669,98.400 162.243 C 98.400 163.005,98.239 163.224,97.800 163.055 C 97.229 162.836,96.981 163.641,97.170 165.100 C 97.206 165.375,96.867 165.600,96.418 165.600 C 95.730 165.600,95.600 165.855,95.600 167.200 C 95.600 168.533,95.467 168.800,94.800 168.800 C 94.283 168.800,94.000 169.067,94.000 169.553 C 94.000 169.970,93.643 170.400,93.200 170.516 C 92.626 170.666,92.400 171.062,92.400 171.916 C 92.400 172.789,92.176 173.165,91.560 173.326 C 91.071 173.454,90.835 173.733,90.996 173.994 C 91.148 174.240,90.806 174.873,90.236 175.401 C 89.666 175.930,89.200 176.730,89.200 177.181 C 89.200 177.631,88.941 178.000,88.624 178.000 C 88.247 178.000,88.005 178.519,87.924 179.500 C 87.840 180.511,87.605 181.000,87.200 181.000 C 86.870 181.000,86.542 181.405,86.472 181.900 C 86.402 182.395,86.089 182.800,85.777 182.800 C 85.261 182.800,84.470 185.618,84.729 186.534 C 84.780 186.718,84.458 186.964,84.011 187.081 C 83.565 187.198,83.200 187.530,83.200 187.820 C 83.200 188.109,82.840 188.460,82.400 188.600 C 81.960 188.740,81.600 189.117,81.600 189.440 C 81.600 189.762,81.348 190.122,81.039 190.240 C 80.731 190.359,80.363 191.073,80.221 191.828 C 80.068 192.644,79.728 193.200,79.382 193.200 C 78.981 193.200,78.800 193.646,78.800 194.637 C 78.800 195.738,78.613 196.124,78.000 196.284 C 77.560 196.399,77.200 196.736,77.200 197.033 C 77.200 197.329,76.842 197.764,76.404 197.998 C 75.966 198.232,75.627 198.554,75.651 198.712 C 75.825 199.865,75.489 200.736,74.800 200.916 C 74.187 201.076,74.000 201.462,74.000 202.563 C 74.000 203.353,73.809 204.000,73.576 204.000 C 73.343 204.000,73.280 203.775,73.435 203.500 C 73.657 203.107,73.605 203.104,73.194 203.484 C 72.907 203.751,72.620 204.451,72.557 205.040 C 72.390 206.606,72.060 207.284,71.603 207.002 C 71.381 206.865,71.200 207.123,71.200 207.576 C 71.200 208.133,70.941 208.400,70.400 208.400 C 69.903 208.400,69.600 208.667,69.600 209.104 C 69.600 209.491,69.252 210.025,68.826 210.291 C 68.377 210.571,68.000 211.325,67.926 212.087 C 67.845 212.931,67.586 213.400,67.200 213.400 C 66.820 213.400,66.555 213.861,66.478 214.659 C 66.395 215.507,66.101 215.985,65.578 216.122 C 65.060 216.257,64.800 216.671,64.800 217.363 C 64.800 217.933,64.594 218.355,64.342 218.300 C 64.091 218.245,63.725 218.785,63.531 219.500 C 63.336 220.217,62.913 220.800,62.589 220.800 C 62.183 220.800,62.000 221.234,62.000 222.200 C 62.000 223.191,61.821 223.600,61.387 223.600 C 60.717 223.600,60.027 225.028,60.212 226.033 C 60.276 226.382,60.077 226.667,59.771 226.667 C 59.320 226.667,59.308 226.544,59.706 226.033 C 60.142 225.474,60.118 225.464,59.500 225.949 C 59.115 226.251,58.800 226.905,58.800 227.402 C 58.800 227.970,58.502 228.385,58.000 228.516 C 57.417 228.668,57.200 229.062,57.200 229.963 C 57.200 230.805,57.005 231.200,56.590 231.200 C 56.255 231.200,55.809 231.650,55.600 232.200 C 55.391 232.750,55.035 233.200,54.810 233.200 C 54.584 233.200,54.400 233.830,54.400 234.600 C 54.400 235.733,54.248 236.000,53.600 236.000 C 53.013 236.000,52.800 236.267,52.800 237.000 C 52.800 237.550,52.458 238.342,52.039 238.761 C 51.621 239.179,51.160 239.895,51.015 240.352 C 50.870 240.810,50.537 241.142,50.276 241.092 C 50.007 241.040,49.746 241.557,49.676 242.281 C 49.594 243.128,49.290 243.645,48.776 243.808 C 48.349 243.943,48.000 244.253,48.000 244.495 C 48.000 244.738,47.698 245.271,47.328 245.679 C 46.246 246.875,46.022 255.028,47.050 255.807 C 47.484 256.135,47.589 256.380,47.300 256.387 C 46.582 256.406,46.680 257.200,47.400 257.200 C 47.730 257.200,48.000 256.852,48.000 256.427 C 48.000 255.422,47.955 255.432,58.000 253.980 C 62.730 253.296,69.570 252.298,73.200 251.762 C 76.830 251.225,81.600 250.532,83.800 250.220 C 86.000 249.909,90.410 249.270,93.600 248.800 C 96.790 248.329,101.110 247.701,103.200 247.402 C 105.290 247.103,110.150 246.383,114.000 245.801 C 124.958 244.145,123.990 244.156,125.623 245.676 C 127.681 247.592,134.767 254.012,136.364 255.408 C 137.114 256.064,138.487 257.320,139.415 258.200 C 140.343 259.080,141.718 260.340,142.470 261.000 C 144.356 262.654,155.197 272.404,156.006 273.174 C 157.770 274.851,167.936 284.047,170.122 285.943 C 170.793 286.524,171.625 287.270,171.972 287.600 C 172.318 287.930,174.401 289.809,176.601 291.775 C 178.800 293.741,180.888 295.631,181.239 295.975 C 181.591 296.319,183.285 297.860,185.004 299.400 C 186.723 300.940,188.424 302.479,188.784 302.819 C 197.354 310.930,198.221 311.462,199.923 309.658 C 200.515 309.030,203.880 305.937,207.400 302.786 C 210.920 299.635,213.890 296.954,214.000 296.828 C 214.110 296.703,216.000 294.990,218.200 293.023 C 220.400 291.056,222.380 289.256,222.600 289.023 C 222.820 288.790,224.710 287.070,226.800 285.200 C 228.890 283.330,230.690 281.706,230.800 281.591 C 231.030 281.351,238.336 274.764,240.342 272.988 C 241.080 272.335,242.167 271.350,242.758 270.800 C 243.728 269.898,246.815 267.104,253.785 260.824 C 255.113 259.627,256.290 258.547,256.400 258.424 C 256.510 258.301,258.310 256.670,260.400 254.800 C 262.490 252.930,265.100 250.563,266.200 249.538 C 267.300 248.514,268.949 247.074,269.864 246.338 C 272.228 244.437,272.267 243.860,270.236 240.809 C 269.281 239.374,267.712 236.887,266.750 235.281 C 265.787 233.676,263.886 230.526,262.523 228.281 C 261.161 226.037,259.126 222.670,258.000 220.800 C 254.471 214.938,251.133 209.445,247.200 203.029 C 241.108 193.091,239.011 189.642,236.600 185.600 C 235.353 183.510,233.288 180.090,232.010 178.000 C 230.732 175.910,228.599 172.400,227.269 170.200 C 225.940 168.000,223.135 163.410,221.037 160.000 C 218.939 156.590,216.307 152.270,215.188 150.400 C 214.069 148.530,212.004 145.110,210.600 142.800 C 209.195 140.490,207.464 137.610,206.753 136.400 C 206.042 135.190,204.705 133.030,203.782 131.600 C 202.859 130.170,201.269 127.491,200.249 125.646 L 198.395 122.293 198.497 66.146 L 198.600 10.000 195.600 10.006 C 193.950 10.009,192.352 10.169,192.049 10.361 M265.438 108.048 C 265.630 108.352,265.791 108.720,265.794 108.867 C 265.797 109.013,265.911 109.244,266.046 109.379 C 266.181 109.515,266.271 109.230,266.246 108.746 C 266.221 108.262,265.950 107.783,265.644 107.681 C 265.254 107.551,265.193 107.661,265.438 108.048 M270.800 117.800 C 270.800 118.130,271.092 118.400,271.449 118.400 C 271.980 118.400,272.008 118.291,271.600 117.800 C 271.326 117.470,271.034 117.200,270.951 117.200 C 270.868 117.200,270.800 117.470,270.800 117.800 M198.251 124.700 C 198.675 126.383,198.590 309.595,198.165 309.758 C 197.926 309.850,197.108 309.357,196.349 308.663 C 195.589 307.968,193.085 305.698,190.784 303.617 C 187.144 300.325,184.345 297.766,182.018 295.600 C 181.663 295.270,179.948 293.740,178.207 292.200 C 176.465 290.660,174.750 289.130,174.395 288.800 C 174.040 288.470,171.970 286.580,169.795 284.600 C 167.619 282.620,165.550 280.730,165.197 280.400 C 164.844 280.070,163.749 279.080,162.764 278.200 C 159.271 275.081,153.846 270.192,153.222 269.600 C 152.873 269.270,149.992 266.672,146.820 263.826 C 143.647 260.980,140.757 258.370,140.397 258.026 C 139.380 257.053,132.958 251.241,129.285 247.968 C 124.498 243.703,124.534 243.788,126.424 241.063 C 127.285 239.823,128.542 237.861,129.218 236.704 C 129.894 235.547,132.590 231.090,135.211 226.800 C 137.831 222.510,140.890 217.470,142.009 215.600 C 143.128 213.730,146.190 208.690,148.815 204.400 C 151.439 200.110,154.228 195.520,155.012 194.200 C 155.797 192.880,158.420 188.560,160.842 184.600 C 163.264 180.640,166.335 175.600,167.666 173.400 C 168.998 171.200,170.866 168.140,171.817 166.600 C 172.769 165.060,174.520 162.180,175.709 160.200 C 176.898 158.220,180.005 153.090,182.615 148.800 C 192.173 133.087,197.200 124.653,197.200 124.330 C 197.200 123.697,198.076 124.005,198.251 124.700 M296.800 160.567 C 296.800 160.915,297.085 161.200,297.433 161.200 C 298.140 161.200,298.017 160.339,297.275 160.092 C 297.014 160.005,296.800 160.218,296.800 160.567 M322.942 204.893 C 322.557 205.518,323.029 205.613,323.782 205.063 C 324.430 204.589,324.436 204.533,323.835 204.533 C 323.467 204.533,323.065 204.695,322.942 204.893 M332.173 218.294 C 332.224 218.646,332.554 218.976,332.906 219.027 C 333.293 219.084,333.464 218.912,333.341 218.591 C 333.034 217.790,332.062 217.543,332.173 218.294 M336.678 225.856 C 336.321 226.212,336.744 226.800,337.357 226.800 C 337.637 226.800,337.867 226.530,337.867 226.200 C 337.867 225.593,337.148 225.385,336.678 225.856 M49.600 244.600 C 49.600 244.930,49.330 245.200,49.000 245.200 C 48.375 245.200,48.206 244.727,48.667 244.267 C 49.127 243.806,49.600 243.975,49.600 244.600 M348.806 245.451 C 348.818 246.139,349.498 246.889,349.746 246.488 C 349.881 246.269,349.723 245.868,349.396 245.596 C 349.068 245.324,348.803 245.259,348.806 245.451 " stroke="none" fill="#cbb3fc" fill-rule="evenodd"></path><path id="path1" d="M198.667 10.267 C 198.520 10.413,198.400 35.681,198.400 66.418 L 198.400 122.303 200.252 125.651 C 201.270 127.493,202.859 130.170,203.782 131.600 C 204.705 133.030,206.042 135.190,206.753 136.400 C 207.464 137.610,209.195 140.490,210.600 142.800 C 212.004 145.110,214.069 148.530,215.188 150.400 C 216.307 152.270,218.939 156.590,221.037 160.000 C 223.135 163.410,225.940 168.000,227.269 170.200 C 228.599 172.400,230.732 175.910,232.010 178.000 C 233.288 180.090,235.353 183.510,236.600 185.600 C 239.011 189.642,241.108 193.091,247.200 203.029 C 251.133 209.445,254.471 214.938,258.000 220.800 C 259.126 222.670,261.161 226.037,262.523 228.281 C 263.886 230.526,265.787 233.676,266.750 235.281 C 267.712 236.887,269.281 239.374,270.236 240.809 C 272.267 243.860,272.228 244.437,269.864 246.338 C 268.949 247.074,267.300 248.514,266.200 249.538 C 265.100 250.563,262.490 252.930,260.400 254.800 C 258.310 256.670,256.510 258.301,256.400 258.424 C 256.290 258.547,255.113 259.627,253.785 260.824 C 246.815 267.104,243.728 269.898,242.758 270.800 C 242.167 271.350,241.080 272.335,240.342 272.988 C 238.336 274.764,231.030 281.351,230.800 281.591 C 230.690 281.706,228.890 283.330,226.800 285.200 C 224.710 287.070,222.820 288.790,222.600 289.023 C 222.380 289.256,220.400 291.056,218.200 293.023 C 216.000 294.990,214.110 296.703,214.000 296.828 C 213.890 296.954,210.920 299.635,207.400 302.786 C 203.880 305.937,200.515 309.030,199.923 309.658 C 198.221 311.462,197.354 310.930,188.784 302.819 C 188.424 302.479,186.723 300.940,185.004 299.400 C 183.285 297.860,181.591 296.319,181.239 295.975 C 180.888 295.631,178.800 293.741,176.601 291.775 C 174.401 289.809,172.318 287.930,171.972 287.600 C 171.625 287.270,170.793 286.524,170.122 285.943 C 167.936 284.047,157.770 274.851,156.006 273.174 C 155.197 272.404,144.356 262.654,142.470 261.000 C 141.718 260.340,140.343 259.080,139.415 258.200 C 138.487 257.320,137.114 256.064,136.364 255.408 C 134.767 254.012,127.681 247.592,125.623 245.676 C 123.990 244.156,124.958 244.145,114.000 245.801 C 110.150 246.383,105.290 247.103,103.200 247.402 C 101.110 247.701,96.790 248.329,93.600 248.800 C 90.410 249.270,86.000 249.909,83.800 250.220 C 81.600 250.532,76.830 251.225,73.200 251.762 C 69.570 252.298,62.730 253.296,58.000 253.980 C 47.081 255.559,47.927 255.256,48.077 257.534 C 48.199 259.380,48.719 260.486,49.300 260.134 C 49.465 260.035,49.600 260.302,49.600 260.730 C 49.600 261.739,51.237 262.081,52.021 261.235 C 52.537 260.679,52.614 260.752,52.725 261.905 C 52.794 262.617,53.064 263.203,53.325 263.206 C 53.621 263.210,53.583 263.350,53.226 263.576 C 52.775 263.861,52.970 264.127,54.125 264.809 C 54.936 265.287,55.496 265.845,55.370 266.049 C 55.244 266.253,55.289 266.394,55.470 266.363 C 56.431 266.196,57.200 266.465,57.200 266.969 C 57.200 267.282,57.832 267.746,58.604 268.001 C 59.376 268.256,59.903 268.633,59.776 268.839 C 59.649 269.045,59.349 269.092,59.111 268.945 C 58.851 268.785,58.791 268.863,58.962 269.138 C 59.119 269.392,59.507 269.600,59.824 269.600 C 60.141 269.600,60.400 269.870,60.400 270.200 C 60.400 270.533,60.756 270.800,61.200 270.800 C 61.733 270.800,62.000 271.067,62.000 271.600 C 62.000 272.141,62.267 272.400,62.824 272.400 C 63.277 272.400,63.542 272.571,63.412 272.780 C 63.283 272.989,63.543 273.355,63.989 273.594 C 64.435 273.833,64.800 274.280,64.800 274.587 C 64.800 275.285,66.137 275.737,67.200 275.400 C 67.835 275.198,68.000 275.328,68.000 276.029 C 68.000 276.515,68.315 277.157,68.700 277.457 C 69.367 277.976,69.367 277.990,68.700 277.758 C 68.308 277.622,68.000 277.709,68.000 277.957 C 68.000 278.201,68.317 278.400,68.704 278.400 C 69.091 278.400,69.632 278.760,69.907 279.200 C 70.182 279.640,70.765 280.000,71.203 280.000 C 71.733 280.000,72.000 280.268,72.000 280.800 C 72.000 281.380,72.267 281.600,72.971 281.600 C 73.559 281.600,74.013 281.876,74.124 282.300 C 74.298 282.967,74.309 282.967,74.354 282.300 C 74.379 281.915,74.670 281.600,75.000 281.600 C 75.545 281.600,75.823 282.776,75.635 284.280 C 75.600 284.557,75.916 284.693,76.387 284.602 C 76.979 284.488,77.200 284.657,77.200 285.223 C 77.200 285.667,77.473 286.000,77.837 286.000 C 78.188 286.000,78.569 286.360,78.684 286.800 C 78.803 287.254,79.230 287.600,79.670 287.600 C 80.098 287.600,80.358 287.744,80.250 287.919 C 79.841 288.580,80.769 289.323,81.962 289.289 C 82.915 289.262,83.212 289.431,83.250 290.027 C 83.278 290.452,83.345 290.980,83.400 291.200 C 83.455 291.420,83.522 291.791,83.550 292.024 C 83.577 292.257,83.760 292.349,83.955 292.228 C 84.359 291.978,85.306 292.960,84.978 293.289 C 84.860 293.407,85.220 293.619,85.779 293.759 C 86.338 293.899,86.751 294.228,86.698 294.489 C 86.590 295.013,86.838 295.077,89.247 295.150 C 90.685 295.194,90.867 295.301,90.684 296.000 C 90.569 296.439,90.641 296.902,90.844 297.027 C 91.047 297.153,91.092 297.451,90.945 297.689 C 90.785 297.949,90.863 298.009,91.138 297.838 C 91.392 297.681,91.600 297.754,91.600 298.000 C 91.600 298.246,91.780 298.336,92.000 298.200 C 92.220 298.064,92.400 298.340,92.400 298.814 C 92.400 299.338,92.713 299.757,93.200 299.884 C 93.643 300.000,94.000 300.430,94.000 300.847 C 94.000 301.318,94.282 301.600,94.753 301.600 C 95.182 301.600,95.601 301.962,95.726 302.440 C 95.847 302.902,96.119 303.173,96.331 303.043 C 96.543 302.912,96.827 303.094,96.963 303.447 C 97.158 303.955,97.329 303.991,97.781 303.616 C 98.254 303.224,98.399 303.389,98.621 304.571 C 98.776 305.395,99.124 306.000,99.445 306.000 C 99.750 306.000,100.000 306.241,100.000 306.536 C 100.000 306.830,100.460 307.281,101.023 307.537 C 101.585 307.794,101.934 308.183,101.799 308.402 C 101.664 308.621,101.743 308.822,101.976 308.850 C 102.209 308.878,102.580 308.945,102.800 309.000 C 103.020 309.055,103.470 309.123,103.800 309.150 C 104.130 309.178,104.400 309.391,104.400 309.624 C 104.400 309.857,104.192 309.919,103.938 309.762 C 103.645 309.581,103.585 309.653,103.774 309.958 C 103.991 310.310,104.213 310.321,104.600 310.000 C 104.987 309.679,105.209 309.690,105.426 310.042 C 105.628 310.369,105.544 310.426,105.162 310.218 C 104.853 310.050,105.140 310.375,105.800 310.942 C 106.460 311.508,107.135 311.978,107.300 311.986 C 107.465 311.994,107.600 312.287,107.600 312.637 C 107.600 312.988,107.960 313.369,108.400 313.484 C 108.840 313.599,109.200 313.959,109.200 314.284 C 109.200 314.609,109.543 314.965,109.963 315.074 C 110.383 315.184,110.816 315.617,110.926 316.037 C 111.038 316.467,111.474 316.800,111.925 316.800 C 112.519 316.800,112.673 316.999,112.523 317.573 C 112.359 318.201,112.481 318.304,113.177 318.122 C 113.649 317.999,114.005 318.056,113.970 318.249 C 113.812 319.106,114.056 319.564,114.792 319.797 C 115.227 319.936,115.542 320.173,115.492 320.324 C 115.441 320.476,115.507 320.600,115.639 320.600 C 116.201 320.600,117.169 321.726,116.934 322.107 C 116.784 322.349,116.870 322.404,117.138 322.238 C 117.392 322.081,117.600 322.143,117.600 322.376 C 117.600 322.609,117.735 322.755,117.900 322.700 C 118.065 322.645,118.280 322.780,118.378 323.000 C 118.687 323.697,119.390 324.322,119.672 324.151 C 119.822 324.061,120.060 324.173,120.200 324.400 C 120.340 324.627,120.651 324.692,120.889 324.545 C 121.151 324.383,121.208 324.463,121.034 324.746 C 120.852 325.040,121.204 325.408,121.978 325.734 C 122.658 326.020,123.105 326.362,122.972 326.494 C 122.840 326.627,123.107 326.936,123.566 327.182 C 124.025 327.427,124.400 327.892,124.400 328.214 C 124.400 328.536,124.760 328.800,125.200 328.800 C 125.916 328.800,126.187 329.216,126.047 330.100 C 126.021 330.265,126.339 330.400,126.753 330.400 C 127.178 330.400,127.601 330.760,127.722 331.224 C 127.907 331.931,128.140 332.010,129.369 331.779 C 130.643 331.540,130.800 331.603,130.800 332.355 C 130.800 332.820,130.614 333.200,130.386 333.200 C 129.685 333.200,130.712 334.718,131.605 335.002 C 132.049 335.142,132.308 335.425,132.182 335.630 C 132.055 335.834,132.424 336.181,133.000 336.400 C 133.640 336.643,133.937 336.979,133.762 337.261 C 133.585 337.548,133.652 337.615,133.938 337.438 C 134.192 337.281,134.400 337.343,134.400 337.576 C 134.400 337.809,134.535 337.979,134.700 337.953 C 135.817 337.776,136.800 338.085,136.800 338.613 C 136.800 338.950,137.149 339.355,137.576 339.513 C 138.322 339.789,138.400 339.911,138.400 340.800 C 138.400 341.020,138.571 341.200,138.779 341.200 C 139.316 341.200,141.200 343.005,141.200 343.519 C 141.200 343.754,141.543 344.055,141.963 344.188 C 142.383 344.321,142.827 344.694,142.950 345.015 C 143.089 345.375,143.717 345.600,144.587 345.600 C 145.970 345.600,146.333 346.218,146.051 348.088 C 146.027 348.246,146.366 348.568,146.804 348.802 C 147.242 349.036,147.600 349.472,147.600 349.770 C 147.600 350.067,147.859 350.286,148.177 350.256 C 148.494 350.225,148.719 350.332,148.677 350.492 C 148.527 351.061,150.606 352.178,151.578 352.051 C 152.398 351.943,152.483 352.018,152.083 352.500 C 151.512 353.188,152.317 354.084,154.125 354.771 C 154.743 355.006,155.145 355.366,155.018 355.570 C 154.892 355.775,155.151 356.057,155.594 356.198 C 156.037 356.339,156.400 356.802,156.400 357.227 C 156.400 357.775,156.678 358.000,157.356 358.000 C 158.020 358.000,158.294 358.213,158.256 358.700 C 158.211 359.266,158.487 359.383,159.700 359.312 C 161.249 359.221,161.398 359.461,161.307 361.900 C 161.297 362.175,161.629 362.400,162.044 362.400 C 162.460 362.400,162.800 362.664,162.800 362.986 C 162.800 363.308,163.160 363.765,163.600 364.000 C 164.040 364.235,164.400 364.711,164.400 365.057 C 164.400 365.439,164.625 365.599,164.974 365.465 C 165.290 365.344,165.612 365.435,165.689 365.668 C 165.767 365.901,166.308 366.144,166.892 366.208 C 168.353 366.368,168.800 366.709,168.800 367.661 C 168.800 368.125,169.128 368.561,169.563 368.674 C 169.983 368.784,170.417 369.222,170.529 369.648 C 170.640 370.074,170.972 370.373,171.266 370.311 C 171.559 370.250,171.750 370.441,171.689 370.734 C 171.627 371.028,171.942 371.364,172.389 371.481 C 172.841 371.600,173.200 372.026,173.200 372.447 C 173.200 372.926,173.483 373.200,173.977 373.200 C 174.405 373.200,175.052 373.605,175.414 374.100 L 176.074 375.000 175.810 374.100 C 175.653 373.564,175.719 373.200,175.973 373.200 C 176.208 373.200,176.400 373.734,176.400 374.386 C 176.400 375.162,176.676 375.720,177.200 376.000 C 177.640 376.235,178.000 376.692,178.000 377.014 C 178.000 377.543,178.480 377.777,179.300 377.647 C 179.465 377.621,179.600 377.849,179.600 378.154 C 179.600 378.459,180.056 379.007,180.613 379.372 C 181.170 379.737,181.505 380.230,181.358 380.468 C 181.178 380.759,181.577 380.843,182.577 380.727 C 183.951 380.566,184.051 380.623,183.887 381.477 C 183.743 382.230,183.885 382.400,184.655 382.400 C 185.333 382.400,185.600 382.626,185.600 383.200 C 185.600 383.733,185.867 384.000,186.400 384.000 C 186.840 384.000,187.200 384.258,187.200 384.573 C 187.200 384.888,187.563 385.261,188.006 385.402 C 188.449 385.543,188.714 385.816,188.595 386.009 C 188.475 386.202,188.743 386.555,189.189 386.794 C 189.635 387.033,190.000 387.469,190.000 387.764 C 190.000 388.059,190.540 388.408,191.200 388.540 C 191.860 388.672,192.400 388.975,192.400 389.214 C 192.400 389.452,192.175 389.520,191.900 389.365 C 191.526 389.154,191.531 389.223,191.917 389.638 C 192.357 390.111,192.489 390.105,192.811 389.597 C 193.062 389.198,193.190 389.166,193.194 389.500 C 193.198 389.848,193.990 390.000,195.800 390.000 C 197.611 390.000,198.401 389.848,198.404 389.500 C 198.453 383.317,198.344 313.222,198.284 312.800 C 198.203 312.222,199.940 310.501,207.976 303.200 C 210.034 301.330,212.013 299.530,212.374 299.200 C 214.836 296.949,221.236 291.178,222.364 290.192 C 223.114 289.536,224.490 288.280,225.422 287.400 C 226.353 286.520,228.340 284.720,229.838 283.400 C 231.335 282.080,233.559 280.078,234.780 278.952 C 236.001 277.825,237.794 276.205,238.764 275.352 C 239.734 274.498,241.287 273.080,242.215 272.200 C 243.143 271.320,244.599 269.994,245.451 269.254 C 246.303 268.514,247.906 267.074,249.014 266.054 C 250.122 265.034,252.443 262.940,254.172 261.400 C 255.901 259.860,258.081 257.880,259.016 257.000 C 259.950 256.120,261.938 254.320,263.433 253.000 C 267.567 249.350,269.554 247.553,271.357 245.834 L 273.000 244.267 277.200 244.934 C 285.102 246.189,291.400 247.131,293.600 247.388 C 294.810 247.529,296.700 247.814,297.800 248.020 C 298.900 248.227,301.870 248.679,304.400 249.025 C 310.146 249.811,318.111 250.944,323.600 251.758 C 343.633 254.728,349.737 255.562,350.044 255.373 C 350.696 254.970,350.489 246.280,349.833 246.532 C 349.224 246.766,348.800 246.027,348.800 244.730 C 348.800 244.278,348.469 243.839,348.046 243.728 C 347.530 243.593,347.211 243.030,347.038 241.946 C 346.896 241.062,346.611 240.470,346.392 240.605 C 346.175 240.739,345.819 240.376,345.600 239.800 C 345.381 239.224,345.021 238.863,344.801 239.000 C 344.467 239.206,344.189 237.817,344.345 236.724 C 344.366 236.573,344.027 236.336,343.592 236.197 C 343.156 236.059,342.800 235.598,342.800 235.173 C 342.800 234.748,342.575 234.397,342.300 234.394 C 341.939 234.389,341.954 234.290,342.353 234.038 C 342.787 233.763,342.723 233.629,342.053 233.417 C 341.584 233.268,341.200 232.810,341.200 232.400 C 341.200 231.990,340.840 231.540,340.400 231.400 C 339.832 231.220,339.600 230.795,339.600 229.936 C 339.600 229.062,339.378 228.667,338.800 228.516 C 338.360 228.401,338.000 227.989,338.000 227.600 C 338.000 227.211,337.668 226.807,337.263 226.701 C 336.772 226.572,336.553 226.189,336.608 225.554 C 336.701 224.484,336.096 223.493,335.555 223.828 C 335.360 223.949,335.200 223.507,335.200 222.846 C 335.200 222.099,334.898 221.434,334.401 221.086 C 333.961 220.778,333.563 220.057,333.515 219.485 C 333.456 218.762,333.291 218.558,332.978 218.818 C 332.307 219.375,331.929 218.770,332.503 218.060 C 332.900 217.571,332.899 217.507,332.500 217.747 C 332.051 218.017,331.790 217.329,331.953 216.300 C 331.979 216.135,331.640 216.000,331.200 216.000 C 330.572 216.000,330.400 215.733,330.400 214.763 C 330.400 213.862,330.183 213.468,329.600 213.316 C 329.104 213.186,328.781 212.744,328.750 212.153 C 328.661 210.448,328.571 210.199,328.082 210.300 C 327.637 210.392,327.421 209.878,327.564 209.066 C 327.596 208.882,327.258 208.636,326.811 208.519 C 326.306 208.387,326.000 207.974,326.000 207.425 C 326.000 206.941,325.543 206.147,324.984 205.661 C 324.425 205.174,324.075 204.602,324.207 204.388 C 324.339 204.175,324.089 204.000,323.650 204.000 C 323.023 204.000,322.861 203.743,322.888 202.794 C 322.924 201.525,322.630 201.000,321.883 201.000 C 321.635 201.000,321.306 200.379,321.150 199.620 C 320.995 198.860,320.586 198.032,320.240 197.780 C 319.895 197.527,319.737 197.197,319.889 197.045 C 320.041 196.893,319.768 196.664,319.283 196.537 C 318.695 196.384,318.400 195.999,318.400 195.386 C 318.400 194.097,318.001 193.200,317.428 193.200 C 317.160 193.200,316.767 192.525,316.555 191.700 C 316.343 190.875,315.951 190.245,315.685 190.300 C 315.418 190.355,315.200 190.136,315.200 189.814 C 315.200 189.492,314.840 189.035,314.400 188.800 C 313.960 188.565,313.600 188.035,313.600 187.623 C 313.600 187.089,313.386 186.931,312.851 187.071 C 312.201 187.241,312.098 187.017,312.065 185.365 C 312.044 184.319,311.852 183.356,311.638 183.224 C 311.425 183.092,311.063 182.491,310.834 181.889 C 310.605 181.287,310.212 180.840,309.961 180.897 C 309.710 180.954,309.301 180.301,309.052 179.446 C 308.803 178.591,308.420 177.912,308.200 177.938 C 307.980 177.964,307.681 177.538,307.535 176.992 C 307.389 176.447,307.335 176.000,307.416 176.000 C 307.497 176.000,307.112 175.548,306.560 174.997 C 306.008 174.445,305.667 173.815,305.802 173.597 C 305.937 173.378,305.677 173.200,305.224 173.200 C 304.570 173.200,304.400 172.945,304.400 171.963 C 304.400 171.078,304.181 170.668,303.630 170.524 C 303.137 170.395,302.913 170.053,303.006 169.570 C 303.086 169.156,302.979 168.711,302.769 168.581 C 302.559 168.451,302.509 168.132,302.658 167.872 C 302.806 167.613,302.780 167.534,302.599 167.699 C 302.418 167.863,301.936 167.449,301.529 166.779 C 301.121 166.109,300.610 165.670,300.394 165.804 C 300.177 165.938,299.979 165.722,299.954 165.324 C 299.928 164.926,299.866 164.420,299.815 164.200 C 299.764 163.980,299.694 163.553,299.661 163.251 C 299.609 162.786,299.497 162.786,298.923 163.251 C 298.551 163.553,298.350 163.620,298.476 163.400 C 298.842 162.764,298.086 161.200,297.413 161.200 C 296.999 161.200,296.800 160.811,296.800 160.000 C 296.800 159.333,296.444 158.444,296.000 158.000 C 295.560 157.560,295.200 156.834,295.200 156.387 C 295.200 155.941,294.930 155.471,294.600 155.345 C 294.270 155.218,294.000 154.774,294.000 154.357 C 294.000 153.884,293.719 153.600,293.251 153.600 C 292.685 153.600,292.439 153.204,292.243 151.981 C 292.101 151.091,291.820 150.464,291.620 150.588 C 291.144 150.882,290.818 150.324,290.711 149.035 C 290.662 148.445,290.318 147.901,289.913 147.772 C 289.521 147.648,289.200 147.198,289.200 146.773 C 289.200 146.267,288.924 146.000,288.400 146.000 C 287.956 146.000,287.600 145.733,287.600 145.400 C 287.600 145.070,287.261 144.800,286.846 144.800 C 286.205 144.800,286.097 144.503,286.123 142.806 C 286.153 140.814,286.004 140.526,283.900 138.497 C 283.513 138.124,283.200 137.236,283.200 136.511 C 283.200 135.467,283.037 135.200,282.400 135.200 C 281.686 135.200,281.368 134.438,281.540 133.138 C 281.559 132.994,281.301 132.771,280.967 132.643 C 280.562 132.487,280.452 132.575,280.638 132.905 C 280.829 133.243,280.783 133.273,280.493 133.000 C 280.259 132.780,280.007 132.150,279.934 131.600 C 279.860 131.050,279.548 130.600,279.240 130.600 C 278.932 130.600,278.615 130.150,278.535 129.600 C 278.284 127.865,278.056 127.600,276.813 127.600 C 276.001 127.600,275.600 127.401,275.600 127.000 C 275.600 126.670,275.761 126.400,275.957 126.400 C 276.524 126.400,276.811 125.254,276.321 124.951 C 276.030 124.771,275.987 124.870,276.197 125.238 C 276.440 125.664,276.400 125.692,276.031 125.352 C 275.610 124.965,275.345 124.218,275.231 123.100 C 275.214 122.935,274.950 122.800,274.645 122.800 C 274.326 122.800,273.977 122.202,273.826 121.400 C 273.669 120.562,273.330 120.000,272.982 120.000 C 272.662 120.000,272.400 119.640,272.400 119.200 C 272.400 118.667,272.133 118.400,271.600 118.400 C 270.934 118.400,270.800 118.133,270.800 116.813 C 270.800 115.564,270.672 115.274,270.199 115.456 C 269.645 115.668,268.850 113.644,269.115 112.700 C 269.162 112.535,268.942 112.400,268.627 112.400 C 268.312 112.400,267.940 112.040,267.800 111.600 C 267.660 111.160,267.333 110.799,267.073 110.797 C 266.813 110.795,266.392 110.345,266.137 109.796 C 265.787 109.042,265.787 108.863,266.137 109.064 C 266.392 109.210,266.161 108.848,265.625 108.259 C 264.967 107.537,264.519 107.321,264.245 107.595 C 263.436 108.404,263.200 107.954,263.200 105.600 C 263.200 103.733,263.067 103.200,262.600 103.200 C 262.270 103.200,261.978 103.020,261.950 102.800 C 261.923 102.580,261.855 102.220,261.800 102.000 C 261.745 101.780,261.678 101.448,261.650 101.261 C 261.623 101.075,261.244 100.512,260.808 100.010 C 260.373 99.508,260.113 98.940,260.232 98.748 C 260.350 98.557,260.262 98.400,260.036 98.400 C 259.810 98.400,259.729 98.128,259.857 97.795 C 260.023 97.363,259.906 97.261,259.445 97.438 C 258.972 97.620,258.800 97.450,258.800 96.805 C 258.800 96.262,258.494 95.845,258.000 95.716 C 257.557 95.600,257.200 95.170,257.200 94.753 C 257.200 94.313,256.909 93.988,256.500 93.972 C 255.890 93.947,255.899 93.905,256.573 93.641 C 257.105 93.433,257.199 93.247,256.873 93.045 C 256.613 92.884,256.220 92.864,256.000 93.000 C 255.767 93.144,255.600 92.737,255.600 92.024 C 255.600 91.067,255.426 90.800,254.800 90.800 C 254.271 90.800,254.000 90.533,254.000 90.013 C 254.000 89.477,253.808 89.299,253.400 89.455 C 252.920 89.639,252.800 89.316,252.800 87.843 C 252.800 86.565,252.567 85.767,252.039 85.239 C 251.621 84.821,251.155 84.088,251.003 83.611 C 250.852 83.133,250.513 82.825,250.250 82.926 C 249.987 83.027,249.737 82.770,249.695 82.355 C 249.653 81.940,249.585 81.330,249.543 81.000 C 249.473 80.448,249.059 80.233,248.300 80.353 C 248.135 80.379,248.000 79.948,248.000 79.396 C 248.000 78.844,247.640 78.084,247.200 77.707 C 246.760 77.330,246.400 76.702,246.400 76.311 C 246.400 75.862,246.099 75.600,245.582 75.600 C 245.133 75.600,244.794 75.375,244.830 75.100 C 245.005 73.748,244.746 72.800,244.200 72.800 C 243.870 72.800,243.573 72.485,243.539 72.100 C 243.506 71.715,243.458 71.182,243.434 70.915 C 243.410 70.649,243.141 70.199,242.837 69.915 C 242.385 69.495,242.336 69.495,242.575 69.916 C 242.797 70.309,242.596 70.367,241.734 70.160 C 240.194 69.790,240.226 69.851,240.212 67.279 C 240.202 65.334,240.097 65.017,239.500 65.118 C 239.005 65.201,238.796 64.966,238.787 64.318 C 238.773 63.284,237.859 61.875,237.460 62.273 C 237.317 62.416,237.200 62.034,237.200 61.424 C 237.200 60.602,237.044 60.374,236.600 60.545 C 236.173 60.709,235.986 60.491,235.950 59.787 C 235.923 59.244,235.855 58.620,235.800 58.400 C 235.745 58.180,235.678 57.826,235.650 57.613 C 235.623 57.399,235.330 57.329,235.000 57.455 C 234.558 57.625,234.400 57.401,234.400 56.605 C 234.400 55.872,234.150 55.460,233.623 55.322 C 233.148 55.198,232.798 54.707,232.723 54.059 C 232.651 53.439,232.351 53.000,232.000 53.000 C 231.144 53.000,230.861 52.456,231.060 51.196 C 231.180 50.432,231.032 50.021,230.572 49.845 C 230.023 49.634,229.955 49.779,230.168 50.695 C 230.358 51.514,230.319 51.645,230.018 51.200 C 229.795 50.870,229.609 50.021,229.606 49.314 C 229.602 48.435,229.343 47.891,228.787 47.593 C 228.340 47.354,228.002 46.943,228.035 46.679 C 228.165 45.643,227.974 45.200,227.400 45.200 C 226.859 45.200,226.622 44.725,226.753 43.900 C 226.779 43.735,226.575 43.597,226.300 43.594 C 225.967 43.590,226.000 43.458,226.400 43.200 C 226.836 42.918,226.857 42.811,226.476 42.806 C 226.188 42.803,226.063 42.622,226.197 42.405 C 226.337 42.178,226.177 42.111,225.821 42.247 C 225.393 42.412,225.200 42.248,225.200 41.719 C 225.200 41.298,224.917 40.604,224.570 40.176 C 224.224 39.749,224.072 39.653,224.232 39.962 C 224.424 40.331,224.365 40.426,224.062 40.238 C 223.808 40.081,223.600 39.497,223.600 38.939 C 223.600 38.262,223.335 37.856,222.800 37.716 C 222.258 37.574,221.998 37.167,221.994 36.453 C 221.987 35.246,221.476 34.269,220.955 34.466 C 220.760 34.540,220.542 34.195,220.472 33.700 C 220.402 33.205,220.087 32.800,219.772 32.800 C 219.457 32.800,219.200 32.532,219.200 32.205 C 219.200 31.826,218.873 31.644,218.300 31.705 C 217.478 31.792,217.397 31.627,217.366 29.800 C 217.318 27.023,217.256 26.718,216.799 27.000 C 216.579 27.137,216.223 26.787,216.009 26.224 C 215.795 25.661,215.345 25.200,215.010 25.200 C 214.578 25.200,214.400 24.785,214.400 23.776 C 214.400 22.929,214.238 22.453,214.000 22.600 C 213.780 22.736,213.600 22.646,213.600 22.400 C 213.600 22.154,213.420 22.064,213.200 22.200 C 212.967 22.344,212.800 21.937,212.800 21.224 C 212.800 20.382,212.605 20.000,212.176 20.000 C 211.833 20.000,211.664 19.820,211.800 19.600 C 211.936 19.380,211.857 19.200,211.624 19.200 C 211.391 19.200,211.221 19.065,211.247 18.900 C 211.378 18.075,211.141 17.600,210.600 17.600 C 210.270 17.600,210.000 17.330,210.000 17.000 C 210.000 15.584,209.330 14.272,208.780 14.612 C 208.444 14.820,208.342 14.573,208.425 13.749 C 208.439 13.612,208.034 13.282,207.525 13.017 C 207.016 12.752,206.645 12.324,206.700 12.067 C 206.755 11.810,206.440 11.600,206.000 11.600 C 205.560 11.600,205.200 11.353,205.200 11.050 C 205.200 10.187,199.437 9.496,198.667 10.267 M175.246 35.100 C 175.218 35.654,175.431 36.000,175.800 36.000 C 176.130 36.000,176.400 35.809,176.400 35.576 C 176.400 35.343,176.234 35.256,176.030 35.381 C 175.827 35.507,175.578 35.293,175.477 34.905 C 175.337 34.368,175.282 34.415,175.246 35.100 M140.369 92.500 C 140.078 93.451,140.176 94.000,140.635 94.000 C 140.946 94.000,141.200 93.640,141.200 93.200 C 141.200 92.581,140.520 92.008,140.369 92.500 M104.933 151.389 C 104.933 151.725,105.188 152.000,105.500 152.000 C 105.812 152.000,105.995 151.786,105.908 151.525 C 105.667 150.800,104.933 150.697,104.933 151.389 M94.700 167.632 C 93.760 168.179,93.813 168.800,94.800 168.800 C 95.333 168.800,95.600 168.533,95.600 168.000 C 95.600 167.082,95.626 167.093,94.700 167.632 M71.800 206.000 C 71.936 206.220,71.846 206.400,71.600 206.400 C 71.354 206.400,71.266 206.583,71.404 206.807 C 71.542 207.030,71.823 207.109,72.028 206.983 C 72.538 206.667,72.499 205.600,71.976 205.600 C 71.743 205.600,71.664 205.780,71.800 206.000 M59.208 225.790 C 58.930 226.126,58.769 226.414,58.851 226.431 C 60.083 226.684,60.306 226.642,60.237 226.170 C 60.105 225.275,59.746 225.142,59.208 225.790 M341.727 265.060 C 341.870 265.204,341.675 265.574,341.294 265.883 C 340.668 266.389,340.686 266.403,341.478 266.020 C 342.649 265.454,343.013 264.800,342.157 264.800 C 341.777 264.800,341.584 264.917,341.727 265.060 M275.376 324.839 C 275.030 325.399,275.902 325.600,276.348 325.062 C 276.680 324.663,276.638 324.533,276.176 324.533 C 275.840 324.533,275.480 324.671,275.376 324.839 M260.135 338.624 C 259.791 339.522,260.270 339.787,260.971 339.086 C 261.513 338.544,261.514 338.452,260.975 338.246 C 260.632 338.114,260.268 338.278,260.135 338.624 M152.919 353.066 C 152.748 353.513,152.817 353.636,153.132 353.442 C 153.389 353.283,153.600 353.343,153.600 353.576 C 153.600 354.175,152.983 354.102,152.432 353.439 C 151.989 352.904,152.053 352.805,153.087 352.432 C 153.136 352.414,153.060 352.700,152.919 353.066 M228.200 367.133 C 227.831 367.502,227.995 368.050,228.400 367.800 C 228.620 367.664,228.800 367.773,228.800 368.043 C 228.800 368.655,229.329 368.164,229.433 367.455 C 229.507 366.954,228.613 366.720,228.200 367.133 M213.000 381.200 C 212.864 381.420,212.859 381.772,212.989 381.983 C 213.324 382.524,214.267 382.081,214.267 381.383 C 214.267 380.722,213.375 380.593,213.000 381.200 " stroke="none" fill="#ab83fc" fill-rule="evenodd"></path><path id="path2" d="M178.700 29.757 C 177.739 30.487,177.803 31.600,178.806 31.600 C 179.456 31.600,179.595 31.367,179.521 30.400 C 179.471 29.740,179.423 29.206,179.415 29.213 C 179.407 29.220,179.085 29.465,178.700 29.757 M172.267 39.467 C 171.806 39.927,171.975 40.400,172.600 40.400 C 172.930 40.400,173.200 40.130,173.200 39.800 C 173.200 39.175,172.727 39.006,172.267 39.467 M167.492 47.042 C 167.015 47.518,167.159 48.000,167.776 48.000 C 168.093 48.000,168.481 47.792,168.638 47.538 C 168.807 47.265,168.749 47.184,168.496 47.341 C 168.261 47.486,168.004 47.413,167.926 47.177 C 167.847 46.942,167.652 46.881,167.492 47.042 M146.267 82.267 C 145.806 82.727,145.975 83.200,146.600 83.200 C 146.930 83.200,147.200 82.930,147.200 82.600 C 147.200 81.975,146.727 81.806,146.267 82.267 M141.776 89.787 C 141.183 90.236,141.141 90.379,141.600 90.393 C 142.133 90.410,142.133 90.455,141.600 90.800 C 141.270 91.013,141.180 91.188,141.400 91.188 C 142.114 91.188,142.679 90.616,142.673 89.900 C 142.665 89.058,142.729 89.066,141.776 89.787 M120.700 124.791 C 120.315 125.163,120.120 125.587,120.267 125.733 C 120.668 126.134,121.280 126.054,121.021 125.634 C 120.897 125.433,121.003 125.199,121.258 125.114 C 121.512 125.029,121.648 124.770,121.560 124.538 C 121.464 124.286,121.118 124.388,120.700 124.791 M197.200 124.330 C 197.200 124.653,192.173 133.087,182.615 148.800 C 180.005 153.090,176.898 158.220,175.709 160.200 C 174.520 162.180,172.769 165.060,171.817 166.600 C 170.866 168.140,168.998 171.200,167.666 173.400 C 166.335 175.600,163.264 180.640,160.842 184.600 C 158.420 188.560,155.797 192.880,155.012 194.200 C 154.228 195.520,151.439 200.110,148.815 204.400 C 146.190 208.690,143.128 213.730,142.009 215.600 C 140.890 217.470,137.831 222.510,135.211 226.800 C 132.590 231.090,129.894 235.547,129.218 236.704 C 128.542 237.861,127.285 239.823,126.424 241.063 C 124.534 243.788,124.498 243.703,129.285 247.968 C 132.958 251.241,139.380 257.053,140.397 258.026 C 140.757 258.370,143.647 260.980,146.820 263.826 C 149.992 266.672,152.873 269.270,153.222 269.600 C 153.846 270.192,159.271 275.081,162.764 278.200 C 163.749 279.080,164.844 280.070,165.197 280.400 C 165.550 280.730,167.619 282.620,169.795 284.600 C 171.970 286.580,174.040 288.470,174.395 288.800 C 174.750 289.130,176.465 290.660,178.207 292.200 C 179.948 293.740,181.663 295.270,182.018 295.600 C 184.345 297.766,187.144 300.325,190.784 303.617 C 193.085 305.698,195.589 307.968,196.349 308.663 C 197.108 309.357,197.926 309.850,198.165 309.758 C 198.590 309.595,198.675 126.383,198.251 124.700 C 198.076 124.005,197.200 123.697,197.200 124.330 M115.660 132.642 C 115.362 132.978,115.199 133.332,115.295 133.429 C 115.392 133.526,115.798 133.244,116.198 132.802 C 116.597 132.361,116.761 132.007,116.562 132.015 C 116.363 132.024,115.957 132.305,115.660 132.642 M106.900 147.700 C 106.955 147.975,106.758 148.149,106.463 148.088 C 106.167 148.026,105.997 148.190,106.084 148.453 C 106.402 149.406,107.600 149.178,107.600 148.165 C 107.600 147.634,107.420 147.200,107.200 147.200 C 106.980 147.200,106.845 147.425,106.900 147.700 M83.443 186.233 C 83.084 187.167,83.133 187.272,83.862 187.129 C 84.650 186.975,84.961 185.600,84.207 185.600 C 83.920 185.600,83.576 185.885,83.443 186.233 M77.562 195.846 C 77.098 196.405,77.127 196.473,77.780 196.346 C 78.194 196.266,78.609 195.975,78.700 195.700 C 78.938 194.986,78.196 195.082,77.562 195.846 M73.000 202.800 C 72.708 203.272,73.087 204.000,73.624 204.000 C 73.831 204.000,74.000 203.640,74.000 203.200 C 74.000 202.356,73.418 202.124,73.000 202.800 M339.600 230.753 C 339.600 230.948,339.970 231.204,340.423 231.322 C 341.098 231.498,341.161 231.435,340.774 230.969 C 340.246 230.332,339.600 230.214,339.600 230.753 M52.051 237.960 C 51.749 238.151,51.584 238.553,51.684 238.853 C 51.811 239.232,52.012 239.125,52.347 238.499 C 52.879 237.505,52.851 237.454,52.051 237.960 M48.278 243.857 C 48.540 243.964,48.656 244.310,48.535 244.626 C 48.400 244.978,48.563 245.200,48.957 245.200 C 49.786 245.200,49.794 244.160,48.967 243.843 C 48.225 243.558,47.575 243.572,48.278 243.857 M184.400 382.551 C 184.400 382.634,184.670 382.926,185.000 383.200 C 185.491 383.608,185.600 383.580,185.600 383.049 C 185.600 382.692,185.330 382.400,185.000 382.400 C 184.670 382.400,184.400 382.468,184.400 382.551 " stroke="none" fill="#ece4fc" fill-rule="evenodd"></path><path id="path3" d="M217.387 30.440 C 217.062 31.466,217.628 32.118,218.540 31.768 C 219.248 31.496,219.283 30.408,218.600 29.906 C 217.949 29.428,217.669 29.551,217.387 30.440 M240.249 68.616 C 239.911 69.496,240.276 70.000,241.251 70.000 C 241.856 70.000,242.024 69.777,241.928 69.104 C 241.775 68.031,240.604 67.691,240.249 68.616 M252.813 88.543 C 252.803 89.397,252.951 89.627,253.400 89.455 C 253.808 89.299,254.000 89.477,254.000 90.013 C 254.000 90.571,254.262 90.792,254.900 90.772 C 255.759 90.745,255.763 90.728,255.000 90.400 L 254.200 90.056 255.000 90.016 C 255.797 89.976,255.797 89.974,255.005 89.515 C 254.568 89.261,253.899 88.682,253.518 88.227 C 252.831 87.405,252.827 87.407,252.813 88.543 M263.200 106.400 C 263.200 108.054,263.573 108.396,264.351 107.459 C 265.053 106.613,264.754 104.800,263.913 104.800 C 263.348 104.800,263.200 105.132,263.200 106.400 M276.100 126.265 C 275.315 126.582,275.516 127.600,276.363 127.600 C 276.928 127.600,277.071 127.393,276.916 126.800 C 276.801 126.360,276.683 126.014,276.653 126.032 C 276.624 126.049,276.375 126.154,276.100 126.265 M286.200 143.133 C 285.658 143.675,286.063 144.800,286.800 144.800 C 287.371 144.800,287.600 144.533,287.600 143.867 C 287.600 143.022,286.755 142.579,286.200 143.133 M312.138 186.217 C 311.824 187.035,312.201 187.362,313.072 187.028 C 313.628 186.815,313.664 186.687,313.244 186.427 C 312.800 186.153,312.802 186.060,313.255 185.880 C 313.630 185.731,313.578 185.653,313.087 185.632 C 312.696 185.614,312.268 185.878,312.138 186.217 M323.075 202.658 C 322.509 203.225,322.829 204.000,323.629 204.000 C 324.189 204.000,324.417 203.783,324.329 203.333 C 324.187 202.597,323.504 202.230,323.075 202.658 M271.155 245.947 C 269.651 247.460,268.013 248.956,263.433 253.000 C 261.938 254.320,259.950 256.120,259.016 257.000 C 258.081 257.880,255.901 259.860,254.172 261.400 C 252.443 262.940,250.122 265.034,249.014 266.054 C 247.906 267.074,246.303 268.514,245.451 269.254 C 244.599 269.994,243.143 271.320,242.215 272.200 C 241.287 273.080,239.734 274.498,238.764 275.352 C 237.794 276.205,236.001 277.825,234.780 278.952 C 233.559 280.078,231.335 282.080,229.838 283.400 C 228.340 284.720,226.353 286.520,225.422 287.400 C 224.490 288.280,223.114 289.536,222.364 290.192 C 221.236 291.178,214.836 296.949,212.374 299.200 C 212.013 299.530,210.034 301.330,207.976 303.200 C 199.940 310.502,198.203 312.222,198.284 312.800 C 198.331 313.130,198.379 330.635,198.392 351.700 L 198.416 390.000 201.808 390.000 C 204.894 390.000,205.200 389.930,205.200 389.227 C 205.200 388.802,205.560 388.340,206.000 388.200 C 206.440 388.060,206.800 387.669,206.800 387.330 C 206.800 386.931,207.024 386.800,207.437 386.959 C 207.862 387.122,208.144 386.936,208.284 386.402 C 208.400 385.957,208.829 385.600,209.247 385.600 C 209.661 385.600,209.979 385.465,209.953 385.300 C 209.814 384.425,210.079 384.000,210.763 384.000 C 211.305 384.000,211.470 383.788,211.333 383.267 C 211.206 382.779,211.358 382.533,211.788 382.533 C 212.212 382.533,212.352 382.751,212.194 383.167 C 212.008 383.655,212.061 383.692,212.430 383.327 C 212.692 383.066,212.928 382.436,212.953 381.927 C 212.992 381.157,213.251 380.979,214.479 380.877 C 215.567 380.787,215.899 380.603,215.738 380.183 C 215.599 379.820,215.901 379.466,216.562 379.214 C 217.136 378.996,217.560 378.589,217.503 378.309 C 217.446 378.029,217.743 377.799,218.162 377.798 C 218.591 377.797,218.971 377.480,219.031 377.072 C 219.155 376.227,220.681 374.800,221.461 374.800 C 221.758 374.800,222.000 374.440,222.000 374.000 C 222.000 373.535,222.267 373.200,222.637 373.200 C 222.988 373.200,223.369 372.840,223.484 372.400 C 223.600 371.957,224.030 371.600,224.447 371.600 C 224.861 371.600,225.200 371.356,225.200 371.058 C 225.200 370.283,227.578 368.417,228.242 368.672 C 228.549 368.789,228.800 368.686,228.800 368.443 C 228.800 368.199,228.605 368.000,228.367 368.000 C 227.597 368.000,228.240 367.001,229.033 366.965 C 230.245 366.911,231.200 366.366,231.200 365.730 C 231.200 365.328,231.449 365.225,232.000 365.400 C 232.858 365.672,233.062 365.222,232.387 364.547 C 232.102 364.262,232.165 364.113,232.587 364.067 C 232.924 364.030,233.478 363.970,233.817 363.933 C 234.157 363.897,234.349 363.644,234.245 363.372 C 234.047 362.857,236.273 360.925,236.863 361.100 C 237.048 361.155,237.200 360.840,237.200 360.400 C 237.200 359.935,237.467 359.600,237.837 359.600 C 238.188 359.600,238.569 359.240,238.684 358.800 C 238.800 358.357,239.230 358.000,239.647 358.000 C 240.133 358.000,240.400 357.717,240.400 357.200 C 240.400 356.667,240.667 356.400,241.200 356.400 C 241.733 356.400,242.000 356.133,242.000 355.600 C 242.000 355.061,242.267 354.800,242.818 354.800 C 243.374 354.800,243.598 354.577,243.518 354.100 C 243.433 353.596,243.651 353.413,244.300 353.448 C 244.795 353.474,245.200 353.345,245.200 353.160 C 245.200 352.976,245.477 352.932,245.816 353.062 C 246.155 353.192,246.404 353.141,246.369 352.949 C 246.212 352.088,246.440 351.547,246.897 351.699 C 247.170 351.790,247.586 351.490,247.820 351.032 C 248.055 350.575,248.551 350.225,248.923 350.256 C 249.381 350.293,249.600 350.010,249.600 349.379 C 249.600 348.645,249.780 348.481,250.443 348.608 C 251.116 348.738,251.244 348.612,251.080 347.985 C 250.918 347.366,251.078 347.200,251.837 347.200 C 252.367 347.200,252.779 347.065,252.753 346.900 C 252.622 346.075,252.859 345.600,253.400 345.600 C 253.730 345.600,254.000 345.351,254.000 345.047 C 254.000 344.742,254.360 344.399,254.800 344.284 C 255.240 344.169,255.600 343.800,255.600 343.464 C 255.600 343.129,255.960 342.740,256.400 342.600 C 256.840 342.460,257.200 342.088,257.200 341.773 C 257.200 341.458,257.560 341.200,258.000 341.200 C 258.533 341.200,258.800 340.933,258.800 340.400 C 258.800 339.960,259.049 339.600,259.353 339.600 C 259.658 339.600,259.995 339.263,260.103 338.850 C 260.231 338.359,260.659 338.100,261.341 338.100 C 262.399 338.100,264.380 336.573,264.393 335.749 C 264.406 334.929,265.409 334.369,265.930 334.890 C 266.290 335.250,266.400 335.155,266.400 334.480 C 266.400 333.867,266.642 333.600,267.200 333.600 C 267.733 333.600,268.000 333.333,268.000 332.800 C 268.000 332.267,268.267 332.000,268.800 332.000 C 269.240 332.000,269.579 331.865,269.553 331.700 C 269.422 330.875,269.659 330.400,270.200 330.400 C 270.533 330.400,270.800 330.044,270.800 329.600 C 270.800 329.083,271.067 328.800,271.553 328.800 C 271.971 328.800,272.400 328.443,272.516 327.998 C 272.656 327.464,272.938 327.278,273.363 327.441 C 273.821 327.617,274.000 327.449,274.000 326.843 C 274.000 326.261,274.253 326.000,274.818 326.000 C 275.374 326.000,275.598 325.777,275.518 325.300 C 275.439 324.833,275.699 324.558,276.300 324.472 C 276.795 324.402,277.200 324.177,277.200 323.972 C 277.200 323.767,277.470 323.600,277.800 323.600 C 278.130 323.600,278.400 323.441,278.400 323.247 C 278.400 323.052,278.760 322.799,279.200 322.684 C 279.640 322.569,280.000 322.188,280.000 321.837 C 280.000 321.487,280.258 321.200,280.573 321.200 C 280.888 321.200,281.257 320.849,281.394 320.420 C 281.549 319.932,281.866 319.727,282.244 319.872 C 282.637 320.023,282.925 319.807,283.071 319.252 C 283.276 318.467,283.687 318.216,284.530 318.363 C 284.711 318.394,284.760 318.258,284.638 318.061 C 284.388 317.656,286.591 315.200,287.203 315.200 C 287.422 315.200,287.600 314.840,287.600 314.400 C 287.600 313.867,287.867 313.600,288.400 313.600 C 288.844 313.600,289.200 313.333,289.200 313.000 C 289.200 312.670,289.487 312.400,289.837 312.400 C 290.188 312.400,290.565 312.055,290.675 311.634 C 290.855 310.945,292.488 310.152,293.330 310.344 C 293.511 310.386,293.558 310.256,293.434 310.055 C 293.129 309.561,294.260 308.666,294.782 308.989 C 295.021 309.137,295.200 308.894,295.200 308.424 C 295.200 307.971,295.458 307.600,295.773 307.600 C 296.088 307.600,296.460 307.240,296.600 306.800 C 296.740 306.360,297.129 306.000,297.464 306.000 C 297.800 306.000,298.169 305.640,298.284 305.200 C 298.399 304.760,298.811 304.400,299.200 304.400 C 299.589 304.400,300.006 304.022,300.126 303.560 C 300.247 303.098,300.525 302.830,300.744 302.966 C 300.963 303.101,301.257 302.849,301.398 302.406 C 301.539 301.963,301.891 301.600,302.180 301.600 C 302.470 301.600,302.801 301.240,302.916 300.800 C 303.031 300.360,303.412 300.000,303.763 300.000 C 304.133 300.000,304.400 299.665,304.400 299.200 C 304.400 298.667,304.667 298.400,305.200 298.400 C 305.733 298.400,306.000 298.133,306.000 297.600 C 306.000 297.082,306.267 296.800,306.756 296.800 C 307.230 296.800,307.490 296.539,307.456 296.100 C 307.415 295.592,307.647 295.434,308.300 295.525 C 308.890 295.607,309.200 295.443,309.200 295.049 C 309.200 294.718,309.378 294.337,309.595 294.203 C 309.823 294.062,309.889 294.224,309.751 294.584 C 309.574 295.044,309.687 295.142,310.178 294.953 C 310.546 294.812,310.762 294.479,310.660 294.212 C 310.558 293.946,310.635 293.474,310.831 293.164 C 311.117 292.712,311.189 292.744,311.194 293.324 C 311.197 293.722,311.380 293.936,311.600 293.800 C 311.820 293.664,312.000 293.191,312.000 292.749 C 312.000 292.135,312.183 292.004,312.781 292.194 C 313.409 292.393,313.531 292.281,313.404 291.621 C 313.279 290.974,313.453 290.800,314.223 290.800 C 314.933 290.800,315.200 290.582,315.200 290.000 C 315.200 289.550,315.467 289.200,315.810 289.200 C 316.145 289.200,316.595 288.739,316.809 288.176 C 317.023 287.613,317.366 287.255,317.570 287.382 C 317.775 287.508,318.056 287.253,318.196 286.814 C 318.335 286.375,318.573 286.034,318.724 286.055 C 319.539 286.171,320.000 285.934,320.000 285.400 C 320.000 285.070,320.270 284.800,320.600 284.800 C 320.933 284.800,321.200 284.444,321.200 284.000 C 321.200 283.467,321.467 283.200,322.000 283.200 C 322.533 283.200,322.800 282.933,322.800 282.400 C 322.800 281.862,323.067 281.600,323.613 281.600 C 324.082 281.600,324.579 281.219,324.788 280.700 C 325.111 279.894,325.413 280.317,325.237 281.330 C 325.206 281.511,325.377 281.538,325.617 281.389 C 325.858 281.241,325.958 280.867,325.840 280.560 C 325.716 280.237,325.874 280.000,326.213 280.000 C 326.536 280.000,326.800 279.809,326.800 279.576 C 326.800 279.343,327.011 279.283,327.268 279.442 C 327.583 279.636,327.652 279.513,327.481 279.066 C 327.249 278.462,327.608 278.212,328.500 278.353 C 328.665 278.379,328.755 278.179,328.700 277.909 C 328.645 277.640,329.005 277.357,329.500 277.282 C 330.062 277.196,330.400 276.865,330.400 276.399 C 330.400 275.989,330.760 275.540,331.200 275.400 C 331.640 275.260,332.000 274.909,332.000 274.620 C 332.000 274.330,332.360 273.999,332.800 273.884 C 333.240 273.769,333.600 273.388,333.600 273.037 C 333.600 272.687,333.858 272.400,334.173 272.400 C 334.488 272.400,334.860 272.040,335.000 271.600 C 335.142 271.153,335.605 270.800,336.051 270.800 C 336.489 270.800,336.740 270.626,336.608 270.413 C 336.477 270.200,336.736 269.797,337.184 269.517 C 337.633 269.237,338.000 268.781,338.000 268.504 C 338.000 268.227,338.347 268.000,338.771 268.000 C 339.195 268.000,340.021 267.415,340.606 266.700 C 341.288 265.867,341.741 265.580,341.869 265.902 C 342.089 266.456,342.800 266.189,342.800 265.553 C 342.800 265.333,342.632 265.256,342.428 265.383 C 342.223 265.509,341.942 265.430,341.804 265.207 C 341.664 264.980,341.928 264.800,342.400 264.800 C 342.866 264.800,343.146 264.637,343.023 264.437 C 342.900 264.238,343.159 264.169,343.599 264.284 C 344.464 264.510,344.725 263.798,343.900 263.465 C 343.625 263.354,343.895 263.249,344.500 263.232 C 345.105 263.214,345.600 263.039,345.600 262.842 C 345.600 262.187,347.971 259.935,348.389 260.193 C 348.627 260.341,348.800 260.038,348.800 259.473 C 348.800 258.937,349.068 258.276,349.396 258.004 C 349.723 257.732,349.900 257.362,349.789 257.182 C 349.678 257.002,349.770 256.742,349.993 256.604 C 350.217 256.466,350.400 256.083,350.400 255.753 C 350.400 255.423,350.240 255.252,350.044 255.373 C 349.737 255.562,343.633 254.728,323.600 251.758 C 317.824 250.902,309.896 249.775,304.400 249.030 C 301.870 248.687,299.387 248.310,298.881 248.191 C 298.376 248.072,296.036 247.715,293.681 247.397 C 287.502 246.562,278.766 245.249,276.362 244.793 C 273.322 244.216,272.749 244.343,271.155 245.947 M51.811 261.446 C 51.051 262.206,51.193 262.947,52.133 263.129 C 52.639 263.227,52.800 262.962,52.800 262.029 C 52.800 260.618,52.699 260.559,51.811 261.446 M58.910 268.802 C 58.953 269.373,59.094 269.454,59.484 269.131 C 60.132 268.592,60.129 268.535,59.427 268.266 C 59.044 268.119,58.872 268.298,58.910 268.802 M66.886 275.538 C 66.244 275.946,66.633 277.067,67.417 277.067 C 67.761 277.067,68.000 276.684,68.000 276.133 C 68.000 275.148,67.729 275.004,66.886 275.538 M74.291 282.372 C 74.142 282.944,74.285 283.129,74.845 283.087 C 75.282 283.054,75.600 282.729,75.600 282.315 C 75.600 281.354,74.546 281.400,74.291 282.372 M81.969 289.300 C 81.639 290.379,81.770 290.800,82.435 290.800 C 82.933 290.800,83.200 290.521,83.200 290.000 C 83.200 289.388,82.129 288.779,81.969 289.300 M88.513 295.600 C 88.608 295.930,88.982 296.175,89.343 296.144 C 89.704 296.114,90.000 296.260,90.000 296.468 C 90.000 296.677,90.180 296.736,90.400 296.600 C 91.104 296.165,90.828 295.200,90.000 295.200 C 89.560 295.200,89.197 295.425,89.194 295.700 C 89.190 296.039,89.051 296.007,88.763 295.600 C 88.386 295.067,88.358 295.067,88.513 295.600 M97.420 303.633 C 97.522 303.797,97.379 304.007,97.102 304.100 C 96.826 304.192,97.070 304.358,97.645 304.468 C 98.476 304.627,98.655 304.531,98.516 304.001 C 98.420 303.634,98.093 303.333,97.788 303.333 C 97.484 303.333,97.318 303.468,97.420 303.633 M129.200 332.333 C 129.200 333.277,129.536 333.599,130.239 333.330 C 131.124 332.990,130.932 331.600,130.000 331.600 C 129.491 331.600,129.200 331.867,129.200 332.333 M135.276 338.700 C 135.350 339.085,135.790 339.419,136.253 339.443 C 136.886 339.475,137.047 339.301,136.901 338.743 C 136.646 337.769,135.089 337.728,135.276 338.700 M144.400 346.400 C 144.400 346.933,144.667 347.200,145.200 347.200 C 145.733 347.200,146.000 346.933,146.000 346.400 C 146.000 345.867,145.733 345.600,145.200 345.600 C 144.667 345.600,144.400 345.867,144.400 346.400 M150.667 352.267 C 150.203 352.731,150.378 353.132,151.004 353.041 C 152.057 352.886,152.690 352.000,151.747 352.000 C 151.299 352.000,150.813 352.120,150.667 352.267 M152.587 352.706 C 151.844 353.234,152.399 354.806,153.324 354.794 C 153.610 354.790,153.561 354.633,153.200 354.400 C 152.800 354.142,152.767 354.010,153.100 354.006 C 153.375 354.003,153.600 353.809,153.600 353.576 C 153.600 353.343,153.389 353.283,153.132 353.442 C 152.817 353.636,152.748 353.513,152.919 353.066 C 153.205 352.320,153.175 352.288,152.587 352.706 M159.798 359.603 C 159.566 359.979,160.463 361.200,160.971 361.200 C 161.097 361.200,161.200 360.750,161.200 360.200 C 161.200 359.193,160.291 358.806,159.798 359.603 M165.767 366.454 C 165.524 366.847,165.782 366.915,167.200 366.826 C 167.990 366.777,168.074 366.849,167.603 367.165 C 167.095 367.507,167.089 367.643,167.562 368.083 C 168.021 368.510,168.067 368.496,167.829 368.000 C 167.653 367.633,167.763 367.672,168.114 368.100 C 168.430 368.485,168.778 368.800,168.889 368.800 C 169.227 368.800,168.729 366.803,168.329 366.556 C 167.686 366.159,165.991 366.091,165.767 366.454 M175.606 373.500 C 175.624 374.377,176.388 374.959,176.394 374.100 C 176.397 373.605,176.220 373.200,176.000 373.200 C 175.780 373.200,175.603 373.335,175.606 373.500 M183.100 380.718 C 182.323 380.874,182.159 381.804,182.835 382.222 C 183.074 382.369,183.451 382.309,183.672 382.088 C 184.280 381.480,183.895 380.558,183.100 380.718 " stroke="none" fill="#b363fc" fill-rule="evenodd"></path></g></svg>