<svg id="svg" version="1.1" xmlns="http://www.w3.org/2000/svg" xmlns:xlink="http://www.w3.org/1999/xlink" width="400" height="400" viewBox="0, 0, 400,400"><g id="svgg"><path id="path0" d="M214.800 78.351 C 214.800 78.818,214.969 79.200,215.176 79.200 C 215.869 79.200,215.998 78.496,215.396 77.996 C 214.900 77.585,214.800 77.645,214.800 78.351 M220.400 88.153 C 220.400 88.458,220.777 88.805,221.237 88.926 C 222.040 89.136,222.045 89.113,221.375 88.372 C 220.543 87.454,220.400 87.421,220.400 88.153 M249.247 137.571 C 248.872 137.803,248.958 137.948,249.566 138.107 C 250.025 138.227,250.400 138.173,250.400 137.986 C 250.400 137.441,249.804 137.227,249.247 137.571 M259.200 154.624 C 259.200 154.967,259.380 155.136,259.600 155.000 C 259.820 154.864,260.000 155.063,260.000 155.443 C 260.000 155.823,260.106 156.027,260.237 155.897 C 260.570 155.563,260.023 154.000,259.573 154.000 C 259.368 154.000,259.200 154.281,259.200 154.624 M194.240 170.447 C 193.162 170.662,191.907 171.100,191.451 171.419 C 190.995 171.739,190.392 172.000,190.111 172.000 C 189.462 172.000,186.760 174.695,186.096 176.005 C 185.818 176.552,185.233 177.540,184.795 178.200 C 184.357 178.860,183.718 179.940,183.375 180.600 C 182.440 182.401,181.679 183.730,181.200 184.400 C 180.507 185.368,179.658 186.918,179.173 188.100 C 178.925 188.705,178.577 189.200,178.400 189.200 C 178.223 189.200,177.879 189.695,177.634 190.300 C 177.390 190.905,176.752 192.120,176.216 193.000 C 175.680 193.880,175.048 194.960,174.811 195.400 C 174.575 195.840,173.945 196.920,173.411 197.800 C 172.878 198.680,172.241 199.846,171.996 200.392 C 171.750 200.937,171.423 201.477,171.267 201.592 C 171.111 201.706,170.762 202.250,170.491 202.800 C 169.503 204.804,167.506 208.216,166.960 208.831 C 166.652 209.179,166.400 209.602,166.400 209.771 C 166.400 209.941,165.439 211.726,164.265 213.740 C 163.091 215.753,162.016 217.715,161.877 218.100 C 161.739 218.485,161.454 218.800,161.244 218.800 C 161.035 218.800,160.745 219.340,160.600 220.000 C 160.455 220.660,160.188 221.200,160.007 221.200 C 159.826 221.200,159.477 221.695,159.230 222.300 C 158.685 223.638,157.501 225.723,157.125 226.008 C 156.974 226.123,156.650 226.663,156.404 227.208 C 156.159 227.754,155.522 228.920,154.989 229.800 C 154.455 230.680,153.825 231.760,153.589 232.200 C 153.352 232.640,152.720 233.720,152.184 234.600 C 151.648 235.480,151.010 236.695,150.766 237.300 C 150.521 237.905,150.177 238.400,150.000 238.400 C 149.823 238.400,149.479 238.895,149.234 239.500 C 148.990 240.105,148.352 241.320,147.816 242.200 C 147.280 243.080,146.648 244.160,146.411 244.600 C 146.175 245.040,145.544 246.120,145.010 247.000 C 144.475 247.880,143.911 248.870,143.756 249.200 C 143.316 250.137,140.251 255.377,140.013 255.600 C 139.761 255.836,138.907 257.373,137.344 260.400 C 136.719 261.610,136.109 262.690,135.989 262.800 C 135.523 263.224,130.800 271.601,130.800 272.002 C 130.800 272.235,130.541 272.524,130.224 272.646 C 129.908 272.767,129.537 273.377,129.400 274.000 C 129.263 274.623,128.892 275.233,128.576 275.354 C 128.259 275.476,128.000 275.930,128.000 276.364 C 128.000 276.798,127.802 277.275,127.559 277.425 C 127.317 277.575,126.861 278.261,126.546 278.949 C 126.232 279.637,125.626 280.740,125.200 281.400 C 124.774 282.060,124.168 283.163,123.854 283.851 C 123.539 284.539,123.083 285.225,122.841 285.375 C 121.150 286.420,122.746 295.154,125.113 297.800 C 128.751 301.869,124.251 301.635,196.400 301.510 C 267.203 301.386,262.136 301.614,265.533 298.402 C 271.047 293.189,271.307 288.847,266.588 280.782 C 265.113 278.262,263.745 275.840,263.547 275.400 C 263.350 274.960,262.830 274.060,262.393 273.400 C 261.956 272.740,261.323 271.660,260.986 271.000 C 260.650 270.340,260.020 269.260,259.586 268.600 C 259.153 267.940,258.523 266.860,258.187 266.200 C 257.851 265.540,257.222 264.415,256.788 263.700 C 256.355 262.985,255.645 261.815,255.212 261.100 C 254.778 260.385,254.149 259.260,253.813 258.600 C 253.477 257.940,252.843 256.860,252.405 256.200 C 251.967 255.540,251.486 254.730,251.335 254.400 C 251.184 254.070,249.135 250.470,246.781 246.400 C 244.427 242.330,239.955 234.590,236.845 229.200 C 233.734 223.810,231.008 219.130,230.786 218.800 C 230.565 218.470,230.113 217.660,229.781 217.000 C 229.449 216.340,228.730 215.080,228.182 214.200 C 227.634 213.320,227.007 212.240,226.789 211.800 C 226.570 211.360,225.940 210.280,225.389 209.400 C 224.837 208.520,224.210 207.440,223.994 207.000 C 223.778 206.560,223.429 205.930,223.217 205.600 C 223.006 205.270,219.576 199.330,215.597 192.400 C 211.617 185.470,208.197 179.530,207.998 179.200 C 207.798 178.870,207.153 177.790,206.566 176.800 C 203.510 171.652,199.235 169.449,194.240 170.447 M268.933 171.867 C 268.933 172.160,269.143 172.400,269.400 172.400 C 269.657 172.400,269.867 172.160,269.867 171.867 C 269.867 171.573,269.657 171.333,269.400 171.333 C 269.143 171.333,268.933 171.573,268.933 171.867 M272.800 178.751 C 272.800 179.239,273.055 179.600,273.400 179.600 C 273.730 179.600,274.000 179.442,274.000 179.249 C 274.000 179.056,273.730 178.674,273.400 178.400 C 272.899 177.984,272.800 178.042,272.800 178.751 M294.400 216.000 C 294.400 216.747,294.507 216.853,294.880 216.480 C 295.253 216.107,295.253 215.893,294.880 215.520 C 294.507 215.147,294.400 215.253,294.400 216.000 M300.000 225.787 C 300.000 226.144,300.235 226.285,300.598 226.146 C 300.926 226.019,301.096 225.755,300.974 225.558 C 300.625 224.993,300.000 225.140,300.000 225.787 M305.733 235.400 C 305.733 235.742,305.897 235.968,306.097 235.901 C 306.297 235.835,306.460 235.609,306.460 235.400 C 306.460 235.191,306.297 234.965,306.097 234.899 C 305.897 234.832,305.733 235.058,305.733 235.400 M321.200 262.524 C 321.200 262.849,321.452 263.211,321.761 263.330 C 322.117 263.466,322.286 263.307,322.226 262.894 C 322.104 262.064,321.200 261.738,321.200 262.524 M336.964 289.350 C 336.629 290.221,336.863 290.455,337.608 289.995 C 338.066 289.712,338.088 289.528,337.710 289.150 C 337.332 288.772,337.169 288.815,336.964 289.350 M344.075 302.025 C 344.171 302.314,344.486 302.629,344.775 302.725 C 345.075 302.825,345.225 302.675,345.125 302.375 C 345.029 302.086,344.714 301.771,344.425 301.675 C 344.125 301.575,343.975 301.725,344.075 302.025 M352.400 316.600 C 352.400 316.930,352.692 317.200,353.049 317.200 C 353.580 317.200,353.608 317.091,353.200 316.600 C 352.926 316.270,352.634 316.000,352.551 316.000 C 352.468 316.000,352.400 316.270,352.400 316.600 M354.000 319.213 C 354.000 319.708,354.260 319.988,354.700 319.968 C 355.188 319.946,355.235 319.871,354.855 319.720 C 354.445 319.557,354.429 319.429,354.788 319.207 C 355.135 318.993,355.093 318.844,354.634 318.668 C 354.188 318.497,354.000 318.658,354.000 319.213 M358.032 326.333 C 357.999 327.310,358.809 327.374,359.127 326.419 C 359.225 326.124,359.118 326.003,358.886 326.147 C 358.656 326.289,358.377 326.179,358.266 325.902 C 358.154 325.626,358.049 325.820,358.032 326.333 M363.733 336.200 C 363.733 336.530,363.973 336.800,364.267 336.800 C 364.560 336.800,364.800 337.010,364.800 337.267 C 364.800 337.523,364.916 337.618,365.057 337.476 C 365.198 337.335,365.110 336.973,364.860 336.673 C 364.611 336.372,364.525 336.008,364.670 335.863 C 364.815 335.718,364.663 335.600,364.333 335.600 C 364.003 335.600,363.733 335.870,363.733 336.200 M365.600 338.976 C 365.600 339.867,366.226 340.044,366.292 339.172 C 366.324 338.748,366.181 338.400,365.975 338.400 C 365.769 338.400,365.600 338.659,365.600 338.976 M365.200 351.387 C 365.200 351.745,365.435 351.885,365.800 351.745 C 366.130 351.618,366.400 351.354,366.400 351.157 C 366.400 350.961,366.130 350.800,365.800 350.800 C 365.470 350.800,365.200 351.064,365.200 351.387 " stroke="none" fill="#fcdb63" fill-rule="evenodd"></path><path id="path1" d="M189.600 59.653 C 189.600 60.064,189.465 60.379,189.300 60.353 C 188.053 60.156,186.270 60.457,186.779 60.779 C 187.233 61.066,187.123 61.204,186.272 61.418 C 185.589 61.589,185.225 61.923,185.293 62.319 C 185.352 62.665,185.040 63.048,184.597 63.173 C 184.024 63.335,183.800 63.729,183.816 64.549 C 183.828 65.180,183.515 66.109,183.119 66.612 C 182.724 67.115,182.400 67.913,182.400 68.387 C 182.400 68.860,182.220 69.136,182.000 69.000 C 181.780 68.864,181.600 68.954,181.600 69.200 C 181.600 69.446,181.392 69.519,181.138 69.362 C 180.860 69.190,180.785 69.252,180.949 69.518 C 181.100 69.761,180.857 70.155,180.411 70.394 C 179.831 70.704,179.600 71.231,179.600 72.241 C 179.600 73.490,179.503 73.623,178.769 73.390 C 178.119 73.184,177.954 73.288,178.015 73.863 C 178.171 75.354,177.986 76.000,177.400 76.000 C 176.864 76.000,176.588 76.768,176.771 77.755 C 176.807 77.950,176.192 78.700,175.404 79.422 C 174.428 80.315,174.123 80.829,174.447 81.029 C 174.772 81.230,174.822 81.145,174.603 80.762 C 174.331 80.285,174.367 80.283,174.841 80.750 C 175.280 81.182,175.291 81.340,174.893 81.486 C 173.784 81.892,173.107 82.892,173.670 83.293 C 174.047 83.561,173.944 83.613,173.314 83.476 C 172.826 83.369,172.443 83.399,172.461 83.541 C 172.662 85.082,172.324 86.000,171.557 86.000 C 170.986 86.000,170.786 86.186,170.937 86.580 C 171.067 86.920,170.865 87.252,170.446 87.385 C 169.716 87.617,169.665 87.781,169.573 90.200 C 169.537 91.164,169.330 91.600,168.911 91.600 C 168.390 91.600,168.381 91.504,168.851 90.935 C 169.322 90.365,169.315 90.299,168.800 90.474 C 168.462 90.589,168.207 91.142,168.216 91.739 C 168.224 92.323,168.010 92.800,167.739 92.800 C 167.469 92.800,167.119 93.008,166.962 93.262 C 166.771 93.571,166.862 93.618,167.238 93.403 C 167.693 93.144,167.704 93.186,167.300 93.621 C 167.025 93.918,166.800 94.585,166.800 95.104 C 166.800 95.631,166.623 95.938,166.400 95.800 C 166.180 95.664,166.000 95.754,166.000 96.000 C 166.000 96.246,165.789 96.317,165.532 96.158 C 165.217 95.964,165.148 96.087,165.319 96.534 C 165.460 96.900,165.417 97.200,165.225 97.200 C 165.032 97.200,164.964 97.540,165.072 97.955 C 165.181 98.370,165.043 98.850,164.767 99.020 C 164.423 99.233,164.337 99.140,164.495 98.729 C 164.622 98.398,164.565 97.874,164.369 97.564 C 164.123 97.175,164.010 97.465,164.006 98.500 C 164.001 99.746,163.860 100.000,163.176 100.000 C 162.720 100.000,162.465 100.181,162.604 100.407 C 162.742 100.630,163.051 100.692,163.289 100.545 C 163.551 100.383,163.608 100.463,163.434 100.745 C 163.275 101.002,162.965 101.102,162.746 100.966 C 162.526 100.831,162.380 100.963,162.421 101.260 C 162.572 102.363,162.383 102.800,161.753 102.800 C 161.304 102.800,161.170 103.044,161.316 103.600 C 161.431 104.039,161.370 104.495,161.180 104.612 C 160.990 104.730,160.947 105.119,161.085 105.477 C 161.282 105.990,161.150 106.080,160.467 105.902 C 159.587 105.671,159.383 106.175,159.579 108.100 C 159.627 108.573,159.369 108.800,158.782 108.800 C 158.175 108.800,157.984 108.980,158.145 109.400 C 158.290 109.778,158.140 110.000,157.738 110.000 C 157.214 110.000,157.191 110.107,157.608 110.609 C 158.028 111.116,158.007 111.178,157.486 110.978 C 157.022 110.800,156.826 111.031,156.730 111.869 C 156.632 112.718,156.414 112.968,155.855 112.872 C 155.209 112.761,155.131 112.962,155.268 114.396 C 155.404 115.823,155.329 116.022,154.713 115.861 C 154.213 115.731,154.000 115.903,154.000 116.437 C 154.000 117.097,153.628 117.353,152.781 117.274 C 152.661 117.263,152.548 117.737,152.530 118.327 C 152.471 120.294,152.403 120.487,151.850 120.274 C 151.547 120.158,151.305 120.274,151.313 120.532 C 151.362 122.270,151.149 122.800,150.400 122.800 C 149.679 122.800,149.369 123.453,149.569 124.549 C 149.604 124.741,149.398 124.808,149.110 124.698 C 148.758 124.562,148.572 124.884,148.539 125.683 C 148.512 126.336,148.264 127.079,147.987 127.335 C 147.600 127.691,147.549 127.683,147.765 127.300 C 147.920 127.025,147.865 126.800,147.642 126.800 C 147.250 126.800,146.537 129.437,146.735 130.149 C 146.789 130.341,146.565 130.395,146.237 130.269 C 145.813 130.107,145.712 130.227,145.888 130.686 C 146.068 131.153,145.988 131.240,145.600 131.000 C 145.208 130.758,145.133 130.848,145.319 131.334 C 145.695 132.312,145.238 133.189,144.501 132.907 C 144.114 132.758,143.970 132.828,144.130 133.087 C 144.453 133.609,143.450 134.505,142.999 134.097 C 142.819 133.933,142.794 134.013,142.942 134.272 C 143.091 134.532,143.038 134.853,142.824 134.985 C 142.611 135.117,142.485 135.849,142.545 136.613 C 142.668 138.171,142.515 138.311,141.784 137.311 C 141.347 136.713,141.280 136.832,141.280 138.202 C 141.280 139.532,141.036 139.999,139.740 141.149 C 138.893 141.901,138.519 142.285,138.910 142.001 C 139.300 141.718,139.723 141.589,139.849 141.715 C 139.975 141.841,139.700 142.180,139.239 142.469 C 138.778 142.757,138.400 143.207,138.400 143.469 C 138.400 143.732,138.069 144.051,137.665 144.179 C 137.103 144.358,136.912 144.858,136.858 146.294 C 136.813 147.481,136.568 148.298,136.193 148.508 C 135.867 148.690,135.600 149.081,135.600 149.375 C 135.600 149.670,135.285 149.886,134.900 149.856 C 134.460 149.821,134.185 150.097,134.159 150.600 C 134.061 152.527,133.967 152.800,133.400 152.800 C 133.070 152.800,132.800 153.070,132.800 153.400 C 132.800 153.730,132.460 154.000,132.044 154.000 C 131.629 154.000,131.297 154.225,131.307 154.500 C 131.372 156.251,131.156 157.220,130.755 156.972 C 130.185 156.620,129.558 157.604,129.818 158.444 C 129.928 158.797,129.744 159.315,129.409 159.593 C 129.074 159.871,128.782 159.941,128.760 159.749 C 128.738 159.557,128.587 159.850,128.425 160.400 C 128.262 160.950,127.907 161.351,127.635 161.290 C 127.355 161.228,127.263 161.378,127.422 161.635 C 127.576 161.885,127.500 162.214,127.253 162.367 C 127.006 162.520,126.765 163.110,126.718 163.678 C 126.658 164.402,126.458 164.644,126.047 164.486 C 125.657 164.336,125.534 164.452,125.678 164.831 C 126.010 165.701,125.307 167.200,124.567 167.200 C 124.064 167.200,123.951 167.481,124.085 168.400 C 124.226 169.360,124.115 169.600,123.531 169.600 C 123.129 169.600,122.800 169.804,122.800 170.053 C 122.800 170.302,122.475 170.797,122.078 171.153 C 121.682 171.509,121.362 172.250,121.367 172.800 C 121.374 173.419,121.153 173.800,120.789 173.800 C 120.397 173.800,120.158 174.302,120.076 175.300 C 120.008 176.125,119.772 176.800,119.552 176.800 C 119.333 176.800,119.283 177.011,119.442 177.268 C 119.638 177.585,119.511 177.651,119.050 177.474 C 118.624 177.311,118.392 177.398,118.431 177.706 C 118.573 178.809,118.375 179.600,117.957 179.600 C 117.714 179.600,117.622 179.321,117.753 178.979 C 117.884 178.638,117.824 178.461,117.621 178.587 C 117.274 178.801,117.226 179.146,117.206 181.542 C 117.200 182.224,117.028 182.420,116.584 182.249 C 116.213 182.107,115.867 182.288,115.710 182.707 C 115.567 183.088,115.168 183.638,114.825 183.930 C 114.481 184.221,114.423 184.347,114.695 184.209 C 115.021 184.044,115.109 184.170,114.954 184.577 C 114.823 184.917,114.557 185.097,114.363 184.977 C 114.168 184.857,114.120 185.049,114.257 185.403 C 114.426 185.844,114.234 186.118,113.652 186.271 C 113.183 186.393,112.800 186.663,112.800 186.870 C 112.800 187.078,112.981 187.135,113.203 186.998 C 113.664 186.713,112.856 188.783,112.265 189.400 C 112.016 189.661,111.981 189.626,112.165 189.300 C 112.320 189.025,112.257 188.800,112.024 188.800 C 111.791 188.800,111.600 189.329,111.600 189.976 C 111.600 190.623,111.417 191.266,111.193 191.404 C 110.970 191.542,110.906 191.868,111.052 192.128 C 111.217 192.421,111.107 192.404,110.762 192.083 C 110.289 191.643,110.295 191.505,110.803 191.153 C 111.331 190.787,111.331 190.758,110.800 190.901 C 110.466 190.991,110.111 191.689,110.000 192.473 C 109.858 193.475,109.615 193.855,109.160 193.786 C 108.707 193.717,108.549 193.959,108.621 194.611 C 108.720 195.514,108.470 195.973,106.775 198.000 C 106.315 198.550,106.071 198.747,106.231 198.438 C 106.426 198.063,106.366 197.974,106.051 198.168 C 105.791 198.329,105.605 198.672,105.637 198.930 C 105.855 200.699,105.562 201.960,104.984 201.738 C 104.645 201.608,104.396 201.659,104.431 201.851 C 104.681 203.220,104.357 203.914,103.564 203.706 C 102.847 203.519,102.739 203.653,102.806 204.644 C 102.931 206.476,102.839 206.800,102.200 206.800 C 101.870 206.800,101.600 207.070,101.600 207.400 C 101.600 207.941,101.125 208.178,100.300 208.047 C 100.135 208.021,100.000 208.201,100.000 208.447 C 100.000 208.696,100.353 208.801,100.801 208.684 C 101.241 208.569,101.500 208.638,101.377 208.837 C 101.254 209.037,100.893 209.200,100.576 209.200 C 100.183 209.200,100.000 209.651,100.000 210.624 C 100.000 211.486,99.840 211.948,99.593 211.796 C 99.370 211.658,99.291 211.377,99.417 211.172 C 99.544 210.968,99.437 210.800,99.181 210.800 C 98.924 210.800,98.818 211.070,98.945 211.400 C 99.071 211.730,99.001 212.000,98.787 212.000 C 98.574 212.000,98.421 212.135,98.447 212.300 C 98.603 213.283,98.336 213.950,97.861 213.768 C 97.484 213.623,97.312 213.939,97.287 214.825 C 97.264 215.636,96.943 216.305,96.391 216.691 C 95.839 217.078,95.603 217.569,95.733 218.064 C 95.859 218.549,95.650 219.012,95.167 219.313 C 94.745 219.577,94.400 220.030,94.400 220.320 C 94.400 220.610,94.220 220.736,94.000 220.600 C 93.780 220.464,93.600 220.644,93.600 221.000 C 93.600 221.364,93.410 221.530,93.165 221.379 C 92.890 221.208,92.773 221.456,92.847 222.055 C 92.926 222.699,92.491 223.496,91.482 224.556 C 90.667 225.412,90.000 226.447,90.000 226.856 C 90.000 227.287,89.706 227.612,89.300 227.628 C 88.727 227.651,88.709 227.706,89.200 227.928 C 89.872 228.233,90.202 229.200,89.633 229.200 C 89.432 229.200,89.176 228.975,89.065 228.700 C 88.954 228.425,88.849 228.695,88.832 229.300 C 88.803 230.281,88.439 230.596,87.500 230.447 C 87.335 230.421,87.221 230.535,87.247 230.700 C 87.478 232.160,87.138 233.551,86.600 233.345 C 86.034 233.128,85.779 233.979,85.963 235.470 C 85.995 235.728,85.809 236.071,85.549 236.232 C 85.269 236.404,85.182 236.352,85.336 236.104 C 85.479 235.873,85.326 235.581,84.998 235.454 C 84.557 235.286,84.400 235.513,84.400 236.316 C 84.400 236.989,84.080 237.607,83.567 237.928 C 83.094 238.223,82.829 238.698,82.954 239.024 C 83.277 239.865,82.814 240.796,82.057 240.828 C 81.544 240.850,81.575 240.932,82.200 241.200 C 82.884 241.494,82.899 241.548,82.300 241.572 C 81.915 241.587,81.621 241.735,81.647 241.900 C 81.836 243.097,81.540 243.678,80.835 243.493 C 80.205 243.328,80.101 243.467,80.249 244.279 C 80.352 244.850,80.265 245.164,80.041 245.026 C 79.829 244.894,79.525 244.998,79.366 245.255 C 79.192 245.537,79.249 245.617,79.511 245.455 C 79.749 245.308,80.065 245.382,80.213 245.620 C 80.363 245.863,80.111 246.150,79.640 246.274 C 79.067 246.423,78.790 246.828,78.768 247.547 C 78.751 248.126,78.646 248.375,78.535 248.100 C 78.101 247.025,77.337 247.622,77.382 249.000 C 77.419 250.095,77.273 250.400,76.714 250.400 C 76.321 250.400,76.021 250.535,76.047 250.700 C 76.194 251.632,75.956 253.593,75.700 253.553 C 74.816 253.413,74.400 253.684,74.400 254.400 C 74.400 254.840,74.175 255.155,73.900 255.100 C 73.603 255.041,73.350 255.512,73.278 256.259 C 73.195 257.107,72.901 257.585,72.378 257.722 C 71.819 257.868,71.600 258.273,71.600 259.163 C 71.600 259.996,71.404 260.400,71.000 260.400 C 70.670 260.400,70.400 260.670,70.400 261.000 C 70.400 261.330,70.201 261.600,69.957 261.600 C 69.714 261.600,69.618 261.870,69.745 262.200 C 69.871 262.530,69.816 262.800,69.621 262.800 C 69.426 262.800,69.176 262.575,69.065 262.300 C 68.954 262.025,68.846 262.610,68.825 263.600 C 68.800 264.798,68.670 265.215,68.437 264.846 C 68.158 264.406,67.986 264.478,67.603 265.194 C 67.207 265.935,67.217 266.038,67.660 265.771 C 68.355 265.353,67.232 266.851,66.500 267.320 C 66.225 267.496,66.000 268.261,66.000 269.020 C 66.000 270.147,65.849 270.400,65.176 270.400 C 64.723 270.400,64.457 270.569,64.585 270.775 C 64.712 270.982,64.498 271.336,64.108 271.563 C 63.439 271.953,63.439 271.976,64.100 271.988 C 64.485 271.995,64.800 272.270,64.800 272.600 C 64.800 272.930,64.524 273.200,64.187 273.200 C 63.851 273.200,63.471 273.470,63.345 273.800 C 63.218 274.130,62.864 274.400,62.557 274.400 C 62.251 274.400,62.000 274.574,62.000 274.787 C 62.000 275.001,62.270 275.071,62.600 274.945 C 62.930 274.818,63.200 274.902,63.200 275.130 C 63.200 275.359,62.840 275.660,62.400 275.800 C 61.960 275.940,61.600 276.312,61.600 276.627 C 61.600 276.942,61.311 277.200,60.957 277.200 C 60.556 277.200,60.399 277.421,60.540 277.787 C 60.664 278.110,60.590 278.483,60.376 278.615 C 60.162 278.747,60.098 279.035,60.234 279.255 C 60.369 279.474,60.099 279.753,59.634 279.875 C 59.168 279.997,58.811 280.300,58.841 280.548 C 59.019 282.045,58.740 283.200,58.200 283.200 C 57.777 283.200,57.600 283.628,57.600 284.649 C 57.600 285.816,57.495 286.011,57.063 285.652 C 56.391 285.094,56.000 285.462,56.000 286.654 C 56.000 287.308,55.826 287.508,55.400 287.345 C 54.927 287.163,54.800 287.461,54.800 288.757 C 54.800 290.372,53.949 291.100,53.465 289.900 C 53.354 289.625,53.249 289.805,53.232 290.300 C 53.214 290.795,52.840 291.560,52.400 292.000 C 51.960 292.440,51.600 293.141,51.600 293.557 C 51.600 293.974,51.311 294.425,50.958 294.561 C 50.606 294.696,50.402 295.030,50.506 295.303 C 50.853 296.216,50.047 297.704,49.350 297.436 C 48.834 297.238,48.744 297.394,48.900 298.208 C 49.037 298.930,48.876 299.345,48.347 299.628 C 47.838 299.901,47.600 300.470,47.600 301.414 C 47.600 302.426,47.425 302.800,46.951 302.800 C 46.420 302.800,46.392 302.691,46.800 302.200 C 47.208 301.709,47.180 301.600,46.649 301.600 C 46.159 301.600,46.000 301.990,46.000 303.187 C 46.000 304.473,45.879 304.729,45.365 304.531 C 44.911 304.357,44.754 304.503,44.811 305.044 C 44.976 306.585,44.779 307.112,43.960 307.326 C 43.497 307.447,43.238 307.738,43.383 307.973 C 43.532 308.213,43.330 308.414,42.924 308.432 C 42.504 308.450,42.410 308.548,42.700 308.665 C 43.330 308.919,43.349 309.860,42.732 310.242 C 42.415 310.438,42.349 310.311,42.527 309.845 C 42.684 309.437,42.630 309.258,42.395 309.403 C 42.178 309.537,42.000 310.076,42.000 310.600 C 42.000 311.124,41.820 311.664,41.600 311.800 C 41.380 311.936,41.197 311.812,41.194 311.524 C 41.189 311.143,41.082 311.164,40.800 311.600 C 40.587 311.930,40.409 312.785,40.406 313.500 C 40.403 314.215,40.209 314.800,39.976 314.800 C 39.743 314.800,39.680 314.575,39.835 314.300 C 40.051 313.917,40.000 313.909,39.613 314.265 C 39.336 314.521,39.087 315.268,39.061 315.924 C 39.023 316.845,38.847 317.086,38.293 316.979 C 37.898 316.903,37.601 317.057,37.635 317.320 C 37.768 318.384,37.570 318.763,36.995 318.543 C 36.564 318.377,36.461 318.494,36.637 318.953 C 36.773 319.306,37.045 319.496,37.242 319.374 C 37.439 319.252,37.600 319.322,37.600 319.530 C 37.600 319.737,37.222 320.006,36.760 320.126 C 36.297 320.247,36.038 320.538,36.183 320.773 C 36.328 321.008,36.246 321.200,36.000 321.200 C 35.749 321.200,35.684 321.419,35.853 321.700 C 36.093 322.099,36.030 322.100,35.538 321.702 C 35.010 321.274,34.917 321.375,34.888 322.403 C 34.852 323.659,33.913 324.964,33.393 324.481 C 33.227 324.326,33.181 324.697,33.291 325.303 C 33.453 326.201,33.389 326.323,32.945 325.955 C 32.645 325.706,32.378 325.614,32.350 325.751 C 32.227 326.362,32.096 327.697,32.050 328.800 C 32.004 329.912,30.800 330.659,30.800 329.576 C 30.800 329.343,30.980 329.264,31.200 329.400 C 31.420 329.536,31.600 329.345,31.600 328.975 C 31.600 328.407,31.501 328.384,30.968 328.827 C 30.599 329.133,30.409 329.737,30.512 330.276 C 30.621 330.844,30.496 331.200,30.187 331.200 C 29.599 331.200,29.200 332.087,29.200 333.395 C 29.200 334.084,29.018 334.278,28.500 334.142 C 27.968 334.004,27.785 334.224,27.737 335.058 C 27.703 335.662,27.409 336.350,27.084 336.588 C 26.759 336.826,26.421 337.375,26.332 337.810 C 26.229 338.316,25.889 338.568,25.385 338.512 C 24.953 338.463,24.825 338.523,25.100 338.645 C 25.375 338.767,25.600 339.042,25.600 339.257 C 25.600 339.472,25.412 339.531,25.182 339.389 C 24.754 339.124,24.661 350.773,25.082 351.870 C 25.370 352.619,26.400 352.530,26.400 351.757 C 26.400 351.319,26.177 351.192,25.700 351.358 C 25.116 351.561,25.129 351.502,25.776 351.001 C 26.204 350.670,26.928 350.400,27.386 350.400 C 27.844 350.400,29.175 349.770,30.344 349.000 C 31.513 348.230,32.557 347.600,32.663 347.600 C 32.831 347.600,41.218 342.812,45.200 340.443 C 45.970 339.985,46.960 339.449,47.400 339.252 C 47.840 339.054,50.270 337.681,52.800 336.200 C 55.330 334.719,57.760 333.346,58.200 333.149 C 58.640 332.952,59.720 332.340,60.600 331.789 C 61.480 331.237,62.560 330.605,63.000 330.384 C 63.440 330.162,64.520 329.544,65.400 329.010 C 66.280 328.475,67.270 327.909,67.600 327.752 C 67.930 327.594,70.990 325.846,74.400 323.867 C 77.810 321.887,81.410 319.839,82.400 319.316 C 83.390 318.792,84.740 318.015,85.400 317.588 C 86.060 317.161,86.960 316.650,87.400 316.453 C 87.840 316.255,90.270 314.881,92.800 313.400 C 95.330 311.919,97.760 310.545,98.200 310.347 C 98.640 310.150,99.540 309.630,100.200 309.193 C 100.860 308.756,101.940 308.123,102.600 307.786 C 103.260 307.450,104.340 306.826,105.000 306.400 C 105.660 305.974,106.830 305.298,107.600 304.897 C 110.921 303.169,121.426 297.001,121.699 296.619 C 122.053 296.123,121.771 294.510,120.880 291.931 C 120.281 290.198,120.284 289.905,120.917 287.896 C 121.293 286.704,121.600 285.443,121.600 285.093 C 121.600 284.743,121.825 284.213,122.100 283.914 C 122.751 283.208,123.864 281.289,124.430 279.900 C 124.677 279.295,125.041 278.800,125.239 278.800 C 125.438 278.800,125.600 278.554,125.600 278.254 C 125.600 277.954,125.960 277.250,126.400 276.691 C 126.840 276.131,127.200 275.446,127.200 275.168 C 127.200 274.890,127.462 274.373,127.783 274.019 C 128.428 273.306,130.487 269.723,131.415 267.700 C 131.743 266.985,132.188 266.400,132.405 266.400 C 132.622 266.400,132.800 266.064,132.800 265.654 C 132.800 265.244,133.115 264.477,133.500 263.949 C 134.482 262.605,135.127 261.562,135.694 260.400 C 135.963 259.850,136.412 259.256,136.692 259.080 C 136.971 258.904,137.200 258.420,137.200 258.004 C 137.200 257.588,137.383 257.134,137.606 256.996 C 137.829 256.858,138.279 256.173,138.605 255.473 C 138.931 254.773,139.559 253.660,140.000 253.000 C 140.441 252.340,141.074 251.215,141.406 250.500 C 141.739 249.785,142.188 249.200,142.405 249.200 C 142.622 249.200,142.800 248.853,142.800 248.429 C 142.800 248.004,143.039 247.418,143.332 247.125 C 143.878 246.579,144.816 244.963,145.604 243.208 C 145.849 242.663,146.177 242.123,146.333 242.008 C 146.489 241.894,146.841 241.350,147.116 240.800 C 147.391 240.250,148.053 239.080,148.587 238.200 C 149.122 237.320,149.752 236.240,149.989 235.800 C 150.225 235.360,150.858 234.280,151.394 233.400 C 151.930 232.520,152.573 231.305,152.823 230.700 C 153.074 230.095,153.421 229.600,153.596 229.600 C 153.770 229.600,154.023 229.163,154.157 228.628 C 154.291 228.093,154.626 227.415,154.901 227.121 C 155.175 226.827,155.850 225.689,156.400 224.593 C 156.950 223.497,157.625 222.456,157.900 222.280 C 158.175 222.104,158.400 221.637,158.400 221.242 C 158.400 220.847,158.760 220.198,159.200 219.800 C 159.640 219.402,160.000 218.843,160.000 218.558 C 160.000 218.273,160.534 217.249,161.186 216.283 C 161.838 215.316,162.554 214.047,162.776 213.463 C 162.998 212.878,163.365 212.400,163.590 212.400 C 163.816 212.400,164.000 212.040,164.000 211.600 C 164.000 211.160,164.360 210.440,164.800 210.000 C 165.240 209.560,165.600 209.003,165.600 208.763 C 165.600 208.523,165.960 207.869,166.400 207.309 C 166.840 206.750,167.200 206.046,167.200 205.746 C 167.200 205.446,167.362 205.200,167.561 205.200 C 167.759 205.200,168.127 204.705,168.378 204.100 C 168.906 202.828,170.076 200.722,171.211 199.000 C 171.646 198.340,172.274 197.215,172.606 196.500 C 172.939 195.785,173.388 195.200,173.605 195.200 C 173.822 195.200,174.000 194.853,174.000 194.429 C 174.000 194.004,174.269 193.388,174.598 193.059 C 174.928 192.730,175.377 192.042,175.597 191.530 C 175.818 191.019,176.169 190.330,176.378 190.000 C 176.586 189.670,177.262 188.529,177.879 187.464 C 178.495 186.399,179.396 184.869,179.879 184.064 C 180.363 183.259,180.954 182.167,181.193 181.637 C 181.432 181.108,182.162 179.884,182.814 178.917 C 183.466 177.951,184.000 176.893,184.000 176.567 C 184.000 176.242,184.270 175.871,184.600 175.745 C 184.930 175.618,185.200 175.315,185.200 175.072 C 185.200 174.477,188.445 171.200,189.034 171.200 C 189.292 171.200,189.719 170.939,189.984 170.620 C 190.249 170.300,191.261 169.920,192.234 169.774 L 194.003 169.509 193.901 114.254 L 193.800 59.000 191.700 58.953 C 189.899 58.912,189.600 59.012,189.600 59.653 M144.000 135.133 C 144.000 135.654,143.524 136.001,143.138 135.761 C 142.724 135.506,143.081 134.800,143.624 134.800 C 143.831 134.800,144.000 134.950,144.000 135.133 " stroke="none" fill="#fc743b" fill-rule="evenodd"></path><path id="path2" d="M193.625 57.887 C 193.611 58.156,193.330 58.271,193.000 58.145 C 192.670 58.018,192.400 58.093,192.400 58.311 C 192.400 58.528,192.760 58.801,193.200 58.916 C 193.995 59.124,194.000 59.462,194.000 114.317 L 194.000 169.509 192.233 169.774 C 191.261 169.920,190.249 170.300,189.984 170.620 C 189.719 170.939,189.292 171.200,189.034 171.200 C 188.445 171.200,185.200 174.477,185.200 175.072 C 185.200 175.315,184.930 175.618,184.600 175.745 C 184.270 175.871,184.000 176.242,184.000 176.567 C 184.000 176.893,183.466 177.951,182.814 178.917 C 182.162 179.884,181.432 181.108,181.193 181.637 C 180.954 182.167,180.363 183.259,179.879 184.064 C 179.396 184.869,178.495 186.399,177.879 187.464 C 177.262 188.529,176.586 189.670,176.378 190.000 C 176.169 190.330,175.818 191.019,175.597 191.530 C 175.377 192.042,174.928 192.730,174.598 193.059 C 174.269 193.388,174.000 194.004,174.000 194.429 C 174.000 194.853,173.822 195.200,173.605 195.200 C 173.388 195.200,172.939 195.785,172.606 196.500 C 172.274 197.215,171.646 198.340,171.211 199.000 C 170.076 200.722,168.906 202.828,168.378 204.100 C 168.127 204.705,167.759 205.200,167.561 205.200 C 167.362 205.200,167.200 205.446,167.200 205.746 C 167.200 206.046,166.840 206.750,166.400 207.309 C 165.960 207.869,165.600 208.523,165.600 208.763 C 165.600 209.003,165.240 209.560,164.800 210.000 C 164.360 210.440,164.000 211.160,164.000 211.600 C 164.000 212.040,163.816 212.400,163.590 212.400 C 163.365 212.400,162.998 212.878,162.776 213.463 C 162.554 214.047,161.838 215.316,161.186 216.283 C 160.534 217.249,160.000 218.273,160.000 218.558 C 160.000 218.843,159.640 219.402,159.200 219.800 C 158.760 220.198,158.400 220.847,158.400 221.242 C 158.400 221.637,158.175 222.104,157.900 222.280 C 157.625 222.456,156.950 223.497,156.400 224.593 C 155.850 225.689,155.175 226.827,154.901 227.121 C 154.626 227.415,154.291 228.093,154.157 228.628 C 154.023 229.163,153.770 229.600,153.596 229.600 C 153.421 229.600,153.074 230.095,152.823 230.700 C 152.573 231.305,151.930 232.520,151.394 233.400 C 150.858 234.280,150.225 235.360,149.989 235.800 C 149.752 236.240,149.122 237.320,148.587 238.200 C 148.053 239.080,147.391 240.250,147.116 240.800 C 146.841 241.350,146.505 241.890,146.370 242.000 C 146.103 242.217,145.097 244.037,144.419 245.530 C 144.187 246.042,143.728 246.730,143.398 247.059 C 143.069 247.388,142.800 248.004,142.800 248.429 C 142.800 248.853,142.622 249.200,142.405 249.200 C 142.188 249.200,141.739 249.785,141.406 250.500 C 141.074 251.215,140.441 252.340,140.000 253.000 C 139.559 253.660,138.931 254.773,138.605 255.473 C 138.279 256.173,137.829 256.858,137.606 256.996 C 137.383 257.134,137.200 257.588,137.200 258.004 C 137.200 258.420,136.971 258.904,136.692 259.080 C 136.412 259.256,135.963 259.850,135.694 260.400 C 135.127 261.562,134.482 262.605,133.500 263.949 C 133.115 264.477,132.800 265.244,132.800 265.654 C 132.800 266.064,132.622 266.400,132.405 266.400 C 132.188 266.400,131.743 266.985,131.415 267.700 C 130.487 269.723,128.428 273.306,127.783 274.019 C 127.462 274.373,127.200 274.890,127.200 275.168 C 127.200 275.446,126.840 276.131,126.400 276.691 C 125.960 277.250,125.600 277.954,125.600 278.254 C 125.600 278.554,125.438 278.800,125.239 278.800 C 125.041 278.800,124.677 279.295,124.430 279.900 C 123.864 281.289,122.751 283.208,122.100 283.914 C 121.825 284.213,121.600 284.743,121.600 285.093 C 121.600 285.443,121.293 286.704,120.917 287.896 C 120.284 289.905,120.281 290.198,120.880 291.931 C 121.771 294.510,122.053 296.123,121.699 296.619 C 121.426 297.001,110.921 303.169,107.600 304.897 C 106.830 305.298,105.660 305.974,105.000 306.400 C 104.340 306.826,103.260 307.450,102.600 307.786 C 101.940 308.123,100.860 308.756,100.200 309.193 C 99.540 309.630,98.640 310.150,98.200 310.347 C 97.760 310.545,95.330 311.919,92.800 313.400 C 90.270 314.881,87.840 316.255,87.400 316.453 C 86.960 316.650,86.060 317.161,85.400 317.588 C 84.740 318.015,83.390 318.792,82.400 319.316 C 81.410 319.839,77.810 321.887,74.400 323.867 C 70.990 325.846,67.930 327.594,67.600 327.752 C 67.270 327.909,66.280 328.475,65.400 329.010 C 64.520 329.544,63.440 330.162,63.000 330.384 C 62.560 330.605,61.480 331.237,60.600 331.789 C 59.720 332.340,58.640 332.952,58.200 333.149 C 57.760 333.346,55.330 334.719,52.800 336.200 C 50.270 337.681,47.840 339.054,47.400 339.252 C 46.960 339.449,45.970 339.985,45.200 340.443 C 41.218 342.812,32.831 347.600,32.663 347.600 C 32.557 347.600,31.513 348.230,30.344 349.000 C 29.175 349.770,27.854 350.403,27.409 350.406 C 26.520 350.413,25.044 351.183,25.900 351.194 C 26.175 351.197,26.400 351.476,26.400 351.813 C 26.400 352.149,26.670 352.529,27.000 352.655 C 27.330 352.782,27.600 353.286,27.600 353.776 C 27.600 354.940,27.996 355.301,28.663 354.748 C 29.058 354.420,29.200 354.421,29.200 354.751 C 29.200 354.998,29.560 355.200,30.000 355.200 C 30.898 355.200,31.026 355.614,30.340 356.300 C 29.994 356.646,30.068 356.762,30.640 356.770 C 32.787 356.801,33.792 357.041,33.700 357.501 C 33.619 357.902,66.209 358.001,196.422 357.999 C 299.333 357.997,359.158 357.856,359.010 357.616 C 358.880 357.406,358.481 357.348,358.122 357.485 C 357.664 357.661,357.562 357.585,357.780 357.233 C 357.950 356.957,358.430 356.819,358.845 356.928 C 359.260 357.036,359.600 356.972,359.600 356.786 C 359.600 356.599,359.939 356.511,360.354 356.591 C 360.930 356.702,361.061 356.555,360.908 355.968 C 360.725 355.270,361.698 354.892,362.628 355.300 C 363.993 355.898,363.447 352.566,362.049 351.772 C 361.472 351.444,360.524 350.866,359.942 350.488 C 359.361 350.110,357.227 348.810,355.200 347.600 C 353.173 346.390,351.092 345.130,350.574 344.800 C 348.494 343.474,338.973 337.755,335.336 335.646 C 334.051 334.901,332.910 334.178,332.800 334.038 C 332.690 333.898,332.150 333.559,331.600 333.284 C 331.050 333.009,329.880 332.346,329.000 331.811 C 328.120 331.276,327.130 330.708,326.800 330.548 C 326.470 330.389,326.110 330.147,326.000 330.011 C 325.890 329.875,323.730 328.544,321.200 327.054 C 318.670 325.564,314.890 323.293,312.800 322.007 C 310.710 320.721,308.100 319.183,307.000 318.590 C 305.900 317.996,304.730 317.286,304.400 317.011 C 304.070 316.737,301.849 315.362,299.464 313.956 C 297.079 312.550,294.649 311.085,294.064 310.699 C 293.479 310.314,292.460 309.724,291.800 309.388 C 291.140 309.052,289.520 308.068,288.200 307.200 C 286.880 306.332,285.260 305.348,284.600 305.012 C 283.940 304.676,281.870 303.414,280.000 302.207 C 278.130 301.000,276.240 299.850,275.800 299.652 C 275.360 299.454,274.014 298.641,272.809 297.846 C 269.950 295.959,269.623 296.001,266.984 298.599 C 265.755 299.808,264.268 300.918,263.679 301.066 C 263.090 301.214,262.368 301.575,262.075 301.867 C 261.236 302.707,130.488 302.653,129.376 301.813 C 128.949 301.490,128.315 301.220,127.968 301.213 C 127.217 301.198,123.201 297.691,123.198 297.047 C 123.196 296.801,122.925 296.082,122.595 295.450 C 121.200 292.774,121.202 286.981,122.600 284.435 C 123.659 282.505,143.214 248.604,143.616 248.000 C 143.836 247.670,144.288 246.860,144.621 246.200 C 144.953 245.540,145.574 244.460,146.000 243.800 C 146.426 243.140,147.055 242.060,147.398 241.400 C 147.741 240.740,148.248 239.840,148.525 239.400 C 148.801 238.960,149.433 237.880,149.929 237.000 C 150.424 236.120,151.228 234.729,151.715 233.909 C 152.202 233.090,153.117 231.470,153.748 230.309 C 154.380 229.149,155.415 227.426,156.048 226.480 C 156.682 225.534,157.200 224.668,157.200 224.556 C 157.200 224.444,159.810 219.868,163.000 214.386 C 166.190 208.905,168.800 204.295,168.800 204.141 C 168.800 203.988,169.052 203.579,169.360 203.231 C 169.901 202.621,171.738 199.467,172.990 197.000 C 173.324 196.340,173.959 195.260,174.400 194.600 C 174.841 193.940,175.477 192.860,175.814 192.200 C 176.150 191.540,176.774 190.460,177.200 189.800 C 177.626 189.140,178.247 188.060,178.579 187.400 C 178.912 186.740,179.358 185.930,179.571 185.600 C 179.784 185.270,181.251 182.750,182.830 180.000 C 186.786 173.112,190.090 170.019,193.510 170.004 C 194.117 170.001,194.550 169.658,194.810 168.974 C 195.378 167.480,195.340 59.734,194.772 59.383 C 194.537 59.237,194.188 58.732,193.997 58.259 C 193.807 57.787,193.639 57.619,193.625 57.887 M174.164 80.950 C 173.829 81.821,174.063 82.055,174.808 81.595 C 175.266 81.312,175.288 81.128,174.910 80.750 C 174.532 80.372,174.369 80.415,174.164 80.950 M168.800 91.000 C 168.392 91.491,168.420 91.600,168.951 91.600 C 169.308 91.600,169.600 91.330,169.600 91.000 C 169.600 90.670,169.532 90.400,169.449 90.400 C 169.366 90.400,169.074 90.670,168.800 91.000 M158.655 108.200 C 158.515 108.565,158.655 108.800,159.013 108.800 C 159.336 108.800,159.600 108.530,159.600 108.200 C 159.600 107.870,159.439 107.600,159.243 107.600 C 159.046 107.600,158.782 107.870,158.655 108.200 M143.017 135.172 C 142.744 135.614,143.375 136.092,143.744 135.722 C 144.125 135.342,144.054 134.800,143.624 134.800 C 143.417 134.800,143.144 134.968,143.017 135.172 M136.062 147.324 C 135.399 148.124,135.593 148.903,136.339 148.439 C 136.636 148.255,136.816 147.783,136.739 147.390 C 136.612 146.735,136.555 146.730,136.062 147.324 M116.278 181.456 C 115.958 181.775,116.319 182.400,116.824 182.400 C 117.031 182.400,117.200 182.130,117.200 181.800 C 117.200 181.181,116.728 181.005,116.278 181.456 M110.853 191.074 C 110.458 191.502,110.430 191.769,110.750 192.037 C 110.994 192.240,111.106 192.287,111.000 192.140 C 110.894 191.994,111.011 191.628,111.260 191.327 C 111.889 190.570,111.526 190.344,110.853 191.074 M94.860 218.668 C 94.114 219.474,94.668 219.903,95.448 219.124 C 95.794 218.778,95.924 218.402,95.738 218.289 C 95.552 218.176,95.157 218.347,94.860 218.668 M79.452 245.451 C 78.752 246.412,78.749 246.468,79.413 246.339 C 79.802 246.262,80.183 245.795,80.258 245.300 C 80.429 244.176,80.374 244.187,79.452 245.451 M63.720 272.756 C 63.310 273.413,63.350 273.486,64.024 273.310 C 64.451 273.198,64.800 272.858,64.800 272.553 C 64.800 271.769,64.275 271.868,63.720 272.756 M62.267 275.067 C 61.781 275.553,61.990 275.979,62.600 275.745 C 62.930 275.618,63.200 275.354,63.200 275.157 C 63.200 274.738,62.649 274.684,62.267 275.067 M56.576 284.987 C 56.149 285.310,55.890 285.594,56.000 285.618 C 57.404 285.922,57.600 285.867,57.600 285.165 C 57.600 284.246,57.564 284.240,56.576 284.987 M46.800 302.200 C 46.392 302.691,46.420 302.800,46.951 302.800 C 47.308 302.800,47.600 302.530,47.600 302.200 C 47.600 301.870,47.532 301.600,47.449 301.600 C 47.366 301.600,47.074 301.870,46.800 302.200 M31.600 329.024 C 31.600 329.367,31.420 329.536,31.200 329.400 C 30.980 329.264,30.800 329.343,30.800 329.576 C 30.800 329.809,31.070 330.000,31.400 330.000 C 31.733 330.000,32.000 329.644,32.000 329.200 C 32.000 328.760,31.910 328.400,31.800 328.400 C 31.690 328.400,31.600 328.681,31.600 329.024 " stroke="none" fill="#fc933c" fill-rule="evenodd"></path><path id="path3" d="M194.000 58.151 C 194.000 58.454,194.270 58.926,194.600 59.200 C 195.324 59.801,195.529 167.083,194.810 168.974 C 194.550 169.658,194.117 170.001,193.510 170.004 C 190.090 170.019,186.786 173.112,182.830 180.000 C 181.251 182.750,179.784 185.270,179.571 185.600 C 179.358 185.930,178.912 186.740,178.579 187.400 C 178.247 188.060,177.626 189.140,177.200 189.800 C 176.774 190.460,176.150 191.540,175.814 192.200 C 175.477 192.860,174.841 193.940,174.400 194.600 C 173.959 195.260,173.324 196.340,172.990 197.000 C 171.738 199.467,169.901 202.621,169.360 203.231 C 169.052 203.579,168.800 203.988,168.800 204.141 C 168.800 204.295,166.190 208.905,163.000 214.386 C 159.810 219.868,157.200 224.444,157.200 224.556 C 157.200 224.668,156.682 225.534,156.048 226.480 C 155.415 227.426,154.380 229.149,153.748 230.309 C 153.117 231.470,152.202 233.090,151.715 233.909 C 151.228 234.729,150.424 236.120,149.929 237.000 C 149.433 237.880,148.801 238.960,148.525 239.400 C 148.248 239.840,147.741 240.740,147.398 241.400 C 147.055 242.060,146.426 243.140,146.000 243.800 C 145.574 244.460,144.953 245.540,144.621 246.200 C 144.288 246.860,143.836 247.670,143.616 248.000 C 143.214 248.604,123.659 282.505,122.600 284.435 C 121.202 286.981,121.200 292.774,122.595 295.450 C 122.925 296.082,123.196 296.801,123.198 297.047 C 123.201 297.691,127.217 301.198,127.968 301.213 C 128.315 301.220,128.949 301.490,129.376 301.813 C 130.488 302.653,261.236 302.707,262.075 301.867 C 262.368 301.575,263.090 301.214,263.679 301.066 C 264.268 300.918,265.755 299.808,266.984 298.599 C 269.623 296.001,269.950 295.959,272.809 297.846 C 274.014 298.641,275.360 299.454,275.800 299.652 C 276.240 299.850,278.130 301.000,280.000 302.207 C 281.870 303.414,283.940 304.676,284.600 305.012 C 285.260 305.348,286.880 306.332,288.200 307.200 C 289.520 308.068,291.140 309.052,291.800 309.388 C 292.460 309.724,293.479 310.314,294.064 310.699 C 294.649 311.085,297.079 312.550,299.464 313.956 C 301.849 315.362,304.070 316.737,304.400 317.011 C 304.730 317.286,305.900 317.996,307.000 318.590 C 308.100 319.183,310.710 320.721,312.800 322.007 C 314.890 323.293,318.670 325.564,321.200 327.054 C 323.730 328.544,325.890 329.875,326.000 330.011 C 326.110 330.147,326.470 330.389,326.800 330.548 C 327.130 330.708,328.120 331.276,329.000 331.811 C 329.880 332.346,331.050 333.009,331.600 333.284 C 332.150 333.559,332.690 333.898,332.800 334.038 C 332.910 334.178,334.051 334.901,335.336 335.646 C 338.973 337.755,348.494 343.474,350.574 344.800 C 351.092 345.130,353.173 346.390,355.200 347.600 C 357.227 348.810,359.361 350.110,359.942 350.488 C 360.524 350.866,361.495 351.456,362.100 351.798 C 363.167 352.402,363.388 352.930,363.271 354.600 C 363.216 355.373,363.231 355.371,363.707 354.559 C 363.978 354.096,364.425 353.796,364.700 353.892 C 364.975 353.988,365.200 353.757,365.200 353.377 C 365.200 352.998,365.515 352.429,365.900 352.111 C 366.567 351.562,366.567 351.545,365.900 351.755 C 365.435 351.901,365.200 351.762,365.200 351.341 C 365.200 350.910,365.449 350.772,365.977 350.910 C 366.721 351.104,366.754 350.858,366.754 345.157 C 366.754 341.445,366.603 339.200,366.354 339.200 C 366.133 339.200,366.064 339.380,366.200 339.600 C 366.336 339.820,366.349 340.000,366.229 340.000 C 365.806 340.000,364.836 337.173,365.059 336.590 C 365.184 336.266,365.076 336.000,364.819 336.000 C 364.563 336.000,364.464 336.180,364.600 336.400 C 364.736 336.620,364.582 336.800,364.259 336.800 C 363.826 336.800,363.721 336.474,363.864 335.570 C 364.021 334.573,363.900 334.299,363.229 334.123 C 362.493 333.931,362.137 332.865,362.353 331.500 C 362.379 331.335,362.040 331.200,361.600 331.200 C 361.059 331.200,360.800 330.933,360.800 330.376 C 360.800 329.923,360.620 329.664,360.400 329.800 C 360.180 329.936,360.000 329.857,360.000 329.624 C 360.000 329.391,360.180 329.200,360.400 329.200 C 360.620 329.200,360.800 329.001,360.800 328.757 C 360.800 328.514,360.530 328.418,360.200 328.545 C 359.653 328.754,359.380 328.122,359.563 327.070 C 359.594 326.888,359.256 326.855,358.810 326.997 C 358.053 327.237,357.676 326.052,357.953 324.300 C 357.979 324.135,357.730 324.000,357.400 324.000 C 357.070 324.000,356.778 323.730,356.750 323.400 C 356.723 323.070,356.678 322.605,356.650 322.368 C 356.623 322.130,356.285 321.705,355.900 321.424 C 355.515 321.142,355.200 320.707,355.200 320.456 C 355.200 320.205,354.930 320.000,354.600 320.000 C 354.181 320.000,354.000 319.578,354.000 318.600 C 354.000 317.467,353.848 317.200,353.200 317.200 C 352.570 317.200,352.400 316.933,352.400 315.944 C 352.400 315.246,352.111 314.477,351.750 314.213 C 351.393 313.951,351.100 313.262,351.100 312.680 C 351.100 311.997,350.834 311.538,350.350 311.384 C 349.716 311.183,349.384 310.251,349.545 309.124 C 349.566 308.973,349.225 308.735,348.786 308.596 C 348.347 308.456,348.079 308.197,348.189 308.018 C 348.299 307.840,348.032 307.239,347.595 306.684 C 347.158 306.128,346.800 305.387,346.800 305.037 C 346.800 304.667,346.465 304.400,346.000 304.400 C 345.525 304.400,345.200 304.133,345.200 303.744 C 345.200 303.383,344.936 302.888,344.614 302.644 C 344.292 302.400,343.958 301.489,343.873 300.620 C 343.788 299.751,343.487 298.962,343.204 298.868 C 342.900 298.767,342.803 298.882,342.968 299.148 C 343.122 299.397,343.137 299.600,343.003 299.600 C 342.868 299.600,342.570 299.060,342.340 298.400 C 342.110 297.740,341.759 297.200,341.561 297.200 C 341.362 297.200,341.200 296.549,341.200 295.753 C 341.200 294.504,341.091 294.335,340.400 294.516 C 339.764 294.682,339.600 294.528,339.600 293.763 C 339.600 293.174,339.367 292.800,339.000 292.800 C 338.577 292.800,338.400 292.373,338.400 291.353 C 338.400 290.104,338.291 289.935,337.600 290.116 C 337.069 290.255,336.800 290.128,336.800 289.739 C 336.800 289.386,336.999 289.265,337.300 289.435 C 337.700 289.661,337.700 289.610,337.300 289.179 C 337.025 288.882,336.800 288.316,336.800 287.920 C 336.800 287.524,336.575 287.245,336.300 287.300 C 335.998 287.360,335.749 286.868,335.671 286.055 C 335.583 285.129,335.302 284.647,334.771 284.508 C 334.227 284.366,334.000 283.956,334.000 283.116 C 334.000 282.264,333.774 281.866,333.204 281.717 C 332.767 281.603,332.496 281.368,332.603 281.195 C 332.710 281.023,332.275 280.323,331.638 279.641 C 331.001 278.958,330.611 278.400,330.773 278.400 C 330.934 278.400,331.067 278.117,331.067 277.771 C 331.067 277.358,330.815 277.207,330.333 277.333 C 329.660 277.509,329.350 276.782,329.553 275.500 C 329.579 275.335,329.319 275.200,328.976 275.200 C 328.633 275.200,328.455 275.035,328.579 274.834 C 328.704 274.632,328.315 273.867,327.717 273.134 C 326.904 272.138,326.852 271.993,327.514 272.562 C 328.334 273.267,328.400 273.272,328.400 272.625 C 328.400 272.240,328.040 271.831,327.600 271.716 C 327.160 271.601,326.800 271.258,326.800 270.953 C 326.800 270.649,326.530 270.400,326.200 270.400 C 325.800 270.400,325.600 270.000,325.600 269.203 C 325.600 268.440,325.310 267.826,324.800 267.507 C 324.360 267.232,324.000 266.727,324.000 266.384 C 324.000 266.041,323.775 265.518,323.500 265.221 C 323.094 264.784,323.113 264.737,323.600 264.971 C 323.967 265.147,323.928 265.037,323.500 264.686 C 323.115 264.370,322.800 263.917,322.800 263.680 C 322.800 263.442,322.592 263.119,322.338 262.962 C 322.054 262.786,321.985 262.852,322.159 263.134 C 322.342 263.429,322.222 263.507,321.821 263.353 C 321.474 263.220,321.200 262.643,321.200 262.046 C 321.200 261.456,320.824 260.656,320.361 260.259 C 319.820 259.796,319.598 259.252,319.735 258.726 C 319.886 258.149,319.723 257.853,319.174 257.709 C 318.601 257.559,318.400 257.155,318.400 256.153 C 318.400 255.131,318.229 254.800,317.700 254.800 C 317.222 254.800,316.980 254.458,316.937 253.722 C 316.903 253.129,316.588 252.434,316.237 252.178 C 315.887 251.922,315.600 251.409,315.600 251.038 C 315.600 250.619,315.336 250.409,314.900 250.482 C 314.354 250.574,314.173 250.271,314.076 249.100 C 313.995 248.119,313.753 247.600,313.376 247.600 C 312.999 247.600,312.800 247.173,312.800 246.363 C 312.800 245.462,312.583 245.068,312.000 244.916 C 311.560 244.801,311.200 244.381,311.200 243.982 C 311.200 243.583,310.930 242.987,310.600 242.657 C 310.270 242.327,310.000 241.684,310.000 241.229 C 310.000 240.667,309.743 240.400,309.200 240.400 C 308.442 240.400,308.170 239.644,308.370 238.100 C 308.406 237.825,308.170 237.600,307.845 237.600 C 307.521 237.600,307.198 237.195,307.128 236.700 C 307.042 236.096,306.768 235.839,306.294 235.919 C 305.905 235.984,305.612 235.894,305.641 235.719 C 305.844 234.515,305.522 233.200,305.025 233.200 C 304.669 233.200,304.403 232.705,304.325 231.900 C 304.231 230.919,304.028 230.629,303.500 230.718 C 302.961 230.808,302.800 230.555,302.800 229.618 C 302.800 228.948,302.609 228.400,302.376 228.400 C 302.143 228.400,302.064 228.220,302.200 228.000 C 302.336 227.780,302.269 227.600,302.051 227.600 C 301.832 227.600,301.536 227.227,301.391 226.771 C 301.233 226.273,300.903 226.028,300.564 226.159 C 300.226 226.288,300.000 226.123,300.000 225.745 C 300.000 225.318,300.226 225.193,300.700 225.358 C 301.367 225.590,301.367 225.576,300.700 225.057 C 300.315 224.757,300.000 224.307,300.000 224.056 C 300.000 223.805,299.640 223.600,299.200 223.600 C 298.551 223.600,298.400 223.333,298.400 222.187 C 298.400 221.301,298.177 220.689,297.800 220.545 C 297.463 220.415,297.200 219.820,297.200 219.184 C 297.200 218.405,296.951 217.975,296.400 217.800 C 295.896 217.640,295.600 217.195,295.600 216.597 C 295.600 216.074,295.422 215.537,295.205 215.403 C 294.984 215.266,294.907 215.415,295.032 215.739 C 295.154 216.058,295.062 216.438,294.827 216.583 C 294.446 216.819,294.229 215.809,294.293 214.100 C 294.303 213.825,293.971 213.600,293.556 213.600 C 293.107 213.600,292.795 213.315,292.787 212.900 C 292.780 212.515,292.510 211.851,292.187 211.424 C 291.864 210.996,291.597 210.096,291.594 209.424 C 291.589 208.486,291.497 208.340,291.200 208.800 C 290.918 209.236,290.811 209.257,290.806 208.876 C 290.803 208.588,290.658 208.440,290.485 208.548 C 290.312 208.655,290.131 208.279,290.084 207.712 C 289.990 206.577,289.279 205.504,288.811 205.793 C 288.647 205.895,288.561 205.540,288.619 205.004 C 288.692 204.338,288.485 203.954,287.963 203.788 C 287.408 203.612,287.200 203.173,287.200 202.173 C 287.200 201.238,287.014 200.800,286.618 200.800 C 286.270 200.800,285.931 200.238,285.774 199.400 C 285.623 198.598,285.274 198.000,284.955 198.000 C 284.650 198.000,284.400 197.640,284.400 197.200 C 284.400 196.667,284.133 196.400,283.600 196.400 C 282.952 196.400,282.800 196.133,282.800 195.000 C 282.800 194.022,282.619 193.600,282.200 193.600 C 281.636 193.600,281.410 192.894,281.579 191.660 C 281.620 191.363,281.461 191.238,281.227 191.383 C 280.992 191.529,280.800 191.446,280.800 191.200 C 280.800 190.954,280.620 190.864,280.400 191.000 C 280.174 191.140,280.000 190.808,280.000 190.236 C 280.000 189.502,279.836 189.288,279.400 189.455 C 279.070 189.582,278.800 189.486,278.800 189.243 C 278.800 188.999,279.081 188.800,279.424 188.800 C 279.767 188.800,279.934 188.617,279.796 188.393 C 279.658 188.170,279.377 188.091,279.172 188.217 C 278.968 188.344,278.800 188.089,278.800 187.651 C 278.800 187.205,278.447 186.742,278.000 186.600 C 277.298 186.377,276.941 185.240,277.153 183.900 C 277.179 183.735,276.930 183.600,276.600 183.600 C 276.246 183.600,275.997 183.231,275.994 182.700 C 275.986 181.510,275.400 180.629,274.845 180.972 C 274.564 181.146,274.400 180.883,274.400 180.261 C 274.400 179.450,274.248 179.315,273.544 179.499 C 272.752 179.706,272.708 179.614,272.962 178.261 C 273.205 176.967,273.143 176.800,272.418 176.800 C 271.812 176.800,271.600 176.541,271.600 175.800 C 271.600 175.250,271.595 174.714,271.590 174.610 C 271.569 174.224,269.696 172.400,269.321 172.400 C 269.108 172.400,268.933 172.133,268.933 171.806 C 268.933 171.326,269.055 171.306,269.567 171.699 C 270.035 172.059,270.017 171.971,269.500 171.362 C 269.115 170.908,268.800 170.354,268.800 170.130 C 268.800 169.907,268.440 169.398,268.000 169.000 C 267.560 168.602,267.200 167.944,267.200 167.538 C 267.200 167.132,266.930 166.800,266.600 166.800 C 266.181 166.800,266.000 166.378,266.000 165.400 C 266.000 164.267,265.848 164.000,265.200 164.000 C 264.667 164.000,264.400 163.733,264.400 163.200 C 264.400 162.756,264.133 162.400,263.800 162.400 C 263.470 162.400,263.200 162.209,263.200 161.976 C 263.200 161.743,263.368 161.656,263.572 161.783 C 263.777 161.909,264.058 161.830,264.196 161.607 C 264.334 161.383,264.167 161.200,263.824 161.200 C 263.262 161.200,263.021 160.733,263.153 159.900 C 263.179 159.735,262.840 159.600,262.400 159.600 C 261.752 159.600,261.600 159.333,261.600 158.200 C 261.600 157.430,261.409 156.800,261.176 156.800 C 260.943 156.800,260.880 157.025,261.035 157.300 C 261.255 157.689,261.203 157.694,260.802 157.324 C 260.519 157.062,260.268 156.313,260.244 155.659 C 260.212 154.807,260.069 154.579,259.736 154.855 C 259.326 155.193,258.727 153.800,258.623 152.268 C 258.610 152.085,258.267 151.692,257.860 151.394 C 257.453 151.097,257.246 150.649,257.400 150.400 C 257.566 150.132,257.336 149.856,256.840 149.726 C 256.192 149.557,256.000 149.192,256.000 148.130 C 256.000 147.256,255.844 146.849,255.573 147.017 C 255.338 147.162,255.047 146.903,254.926 146.440 C 254.806 145.978,254.536 145.600,254.326 145.600 C 254.117 145.600,254.060 145.240,254.200 144.800 C 254.380 144.232,254.272 144.000,253.827 144.000 C 253.468 144.000,253.200 143.660,253.200 143.203 C 253.200 142.765,252.840 142.182,252.400 141.907 C 251.960 141.632,251.600 141.001,251.600 140.504 C 251.600 139.967,251.356 139.600,251.000 139.600 C 250.670 139.600,250.400 139.324,250.400 138.987 C 250.400 138.650,249.995 138.211,249.500 138.012 C 248.694 137.689,249.117 137.387,250.130 137.563 C 250.311 137.594,250.345 137.435,250.206 137.210 C 250.067 136.984,249.693 136.800,249.376 136.800 C 249.001 136.800,248.800 136.377,248.800 135.587 C 248.800 134.879,248.551 134.279,248.200 134.145 C 247.870 134.018,247.600 133.664,247.600 133.357 C 247.600 133.051,247.240 132.800,246.800 132.800 C 246.176 132.800,246.000 132.533,246.000 131.587 C 246.000 130.879,245.751 130.279,245.400 130.145 C 245.059 130.014,244.800 129.417,244.800 128.761 C 244.800 128.040,244.500 127.419,244.000 127.107 C 243.560 126.832,243.200 126.184,243.200 125.666 C 243.200 125.081,242.915 124.651,242.446 124.528 C 241.936 124.395,241.758 124.084,241.893 123.565 C 242.044 122.990,241.884 122.800,241.247 122.800 C 240.543 122.800,240.400 122.559,240.400 121.376 C 240.400 120.487,240.243 120.050,239.982 120.211 C 239.743 120.359,239.286 119.765,238.921 118.835 C 238.568 117.936,238.126 117.200,237.939 117.200 C 237.753 117.200,237.600 116.840,237.600 116.400 C 237.600 115.960,237.240 115.240,236.800 114.800 C 236.360 114.360,236.000 113.730,236.000 113.400 C 236.000 113.070,235.730 112.800,235.400 112.800 C 234.979 112.800,234.800 112.375,234.800 111.376 C 234.800 110.593,234.656 110.042,234.481 110.150 C 233.847 110.542,233.149 109.696,233.115 108.496 C 233.091 107.641,232.917 107.334,232.540 107.478 C 232.172 107.620,232.000 107.355,232.000 106.646 C 232.000 106.040,231.667 105.399,231.200 105.107 C 230.760 104.832,230.400 104.381,230.400 104.104 C 230.400 103.827,230.053 103.253,229.630 102.830 C 229.170 102.370,228.943 101.740,229.066 101.268 C 229.211 100.715,229.029 100.400,228.460 100.219 C 227.909 100.044,227.608 99.550,227.524 98.681 C 227.438 97.792,227.201 97.414,226.751 97.447 C 226.318 97.478,226.164 97.259,226.288 96.786 C 226.410 96.319,226.187 95.986,225.637 95.812 C 225.154 95.659,224.800 95.206,224.800 94.744 C 224.800 93.943,223.856 92.677,223.514 93.019 C 223.332 93.202,223.265 92.822,223.158 91.000 C 223.126 90.446,222.854 90.000,222.550 90.000 C 222.019 90.000,221.837 89.535,221.967 88.513 C 222.001 88.244,221.663 87.796,221.215 87.516 C 220.767 87.237,220.400 86.781,220.400 86.504 C 220.400 86.227,220.130 86.000,219.800 86.000 C 219.470 86.000,219.178 85.640,219.150 85.200 C 219.055 83.686,218.998 83.534,218.339 83.052 C 217.975 82.786,217.611 82.126,217.529 81.584 C 217.447 81.038,217.149 80.649,216.861 80.710 C 216.575 80.770,216.447 80.648,216.577 80.438 C 216.707 80.227,216.627 79.940,216.400 79.800 C 216.173 79.660,216.102 79.358,216.244 79.130 C 216.408 78.864,216.193 78.812,215.650 78.984 C 214.899 79.223,214.800 79.098,214.800 77.916 C 214.800 77.084,214.505 76.325,214.019 75.909 C 213.562 75.518,213.305 74.896,213.398 74.410 C 213.486 73.953,213.388 73.684,213.179 73.813 C 212.971 73.942,212.797 73.812,212.794 73.524 C 212.789 73.143,212.682 73.164,212.400 73.600 C 212.113 74.045,212.011 73.801,212.006 72.657 C 212.001 71.467,211.866 71.166,211.413 71.340 C 211.090 71.464,210.719 71.393,210.589 71.183 C 210.459 70.972,210.768 70.779,211.276 70.754 C 211.954 70.720,212.014 70.658,211.500 70.524 C 211.115 70.424,210.800 70.118,210.800 69.846 C 210.800 69.574,210.440 68.964,210.000 68.492 C 209.560 68.020,209.200 67.339,209.200 66.979 C 209.200 66.619,208.840 66.231,208.400 66.116 C 207.933 65.994,207.600 65.570,207.600 65.097 C 207.600 64.652,207.322 64.085,206.982 63.836 C 206.642 63.588,206.334 62.984,206.297 62.494 C 206.260 62.005,206.042 61.647,205.813 61.700 C 205.313 61.815,203.842 60.407,203.482 59.469 C 203.285 58.956,202.713 58.800,201.025 58.800 C 199.234 58.800,198.868 58.689,199.055 58.200 C 199.246 57.704,198.828 57.600,196.643 57.600 C 194.665 57.600,194.000 57.739,194.000 58.151 M181.425 68.372 C 180.755 69.113,180.760 69.136,181.563 68.926 C 182.023 68.805,182.400 68.458,182.400 68.153 C 182.400 67.421,182.257 67.454,181.425 68.372 M221.200 88.200 C 221.608 88.691,221.580 88.800,221.049 88.800 C 220.692 88.800,220.400 88.530,220.400 88.200 C 220.400 87.870,220.468 87.600,220.551 87.600 C 220.634 87.600,220.926 87.870,221.200 88.200 M154.281 114.933 C 154.168 115.227,154.329 115.467,154.638 115.467 C 154.947 115.467,155.200 115.227,155.200 114.933 C 155.200 114.640,155.039 114.400,154.843 114.400 C 154.646 114.400,154.393 114.640,154.281 114.933 M133.228 151.766 C 132.596 152.528,132.785 152.904,133.560 152.425 C 133.856 152.242,134.024 151.872,133.934 151.602 C 133.818 151.254,133.614 151.301,133.228 151.766 M200.837 171.171 C 202.855 172.067,205.017 174.191,206.566 176.800 C 207.153 177.790,207.798 178.870,207.998 179.200 C 208.197 179.530,211.617 185.470,215.597 192.400 C 219.576 199.330,223.006 205.270,223.217 205.600 C 223.429 205.930,223.778 206.560,223.994 207.000 C 224.210 207.440,224.837 208.520,225.389 209.400 C 225.940 210.280,226.570 211.360,226.789 211.800 C 227.007 212.240,227.634 213.320,228.182 214.200 C 228.730 215.080,229.449 216.340,229.781 217.000 C 230.113 217.660,230.565 218.470,230.786 218.800 C 231.008 219.130,233.734 223.810,236.845 229.200 C 239.955 234.590,244.427 242.330,246.781 246.400 C 249.135 250.470,251.184 254.070,251.335 254.400 C 251.486 254.730,251.967 255.540,252.405 256.200 C 252.843 256.860,253.477 257.940,253.813 258.600 C 254.149 259.260,254.778 260.385,255.212 261.100 C 255.645 261.815,256.355 262.985,256.788 263.700 C 257.222 264.415,257.851 265.540,258.187 266.200 C 258.523 266.860,259.153 267.940,259.586 268.600 C 260.020 269.260,260.650 270.340,260.986 271.000 C 261.323 271.660,261.956 272.740,262.393 273.400 C 262.830 274.060,263.350 274.960,263.547 275.400 C 263.745 275.840,265.113 278.262,266.588 280.782 C 271.307 288.847,271.047 293.189,265.533 298.402 C 262.136 301.614,267.203 301.386,196.400 301.510 C 124.251 301.635,128.751 301.869,125.113 297.800 C 122.746 295.154,121.150 286.420,122.841 285.375 C 123.083 285.225,123.539 284.539,123.854 283.851 C 124.168 283.163,124.774 282.060,125.200 281.400 C 125.626 280.740,126.232 279.637,126.546 278.949 C 126.861 278.261,127.317 277.575,127.559 277.425 C 127.802 277.275,128.000 276.798,128.000 276.364 C 128.000 275.930,128.259 275.476,128.576 275.354 C 128.892 275.233,129.263 274.623,129.400 274.000 C 129.537 273.377,129.908 272.767,130.224 272.646 C 130.541 272.524,130.800 272.235,130.800 272.002 C 130.800 271.601,135.523 263.224,135.989 262.800 C 136.109 262.690,136.719 261.610,137.344 260.400 C 138.907 257.373,139.761 255.836,140.013 255.600 C 140.251 255.377,143.316 250.137,143.756 249.200 C 143.911 248.870,144.475 247.880,145.010 247.000 C 145.544 246.120,146.175 245.040,146.411 244.600 C 146.648 244.160,147.280 243.080,147.816 242.200 C 148.352 241.320,148.990 240.105,149.234 239.500 C 149.479 238.895,149.823 238.400,150.000 238.400 C 150.177 238.400,150.521 237.905,150.766 237.300 C 151.010 236.695,151.648 235.480,152.184 234.600 C 152.720 233.720,153.352 232.640,153.589 232.200 C 153.825 231.760,154.455 230.680,154.989 229.800 C 155.522 228.920,156.159 227.754,156.404 227.208 C 156.650 226.663,156.974 226.123,157.125 226.008 C 157.501 225.723,158.685 223.638,159.230 222.300 C 159.477 221.695,159.826 221.200,160.007 221.200 C 160.188 221.200,160.455 220.660,160.600 220.000 C 160.745 219.340,161.035 218.800,161.244 218.800 C 161.454 218.800,161.739 218.485,161.877 218.100 C 162.016 217.715,163.091 215.753,164.265 213.740 C 165.439 211.726,166.400 209.941,166.400 209.771 C 166.400 209.602,166.652 209.179,166.960 208.831 C 167.506 208.216,169.503 204.804,170.491 202.800 C 170.762 202.250,171.111 201.706,171.267 201.592 C 171.423 201.477,171.750 200.937,171.996 200.392 C 172.241 199.846,172.878 198.680,173.411 197.800 C 173.945 196.920,174.575 195.840,174.811 195.400 C 175.048 194.960,175.680 193.880,176.216 193.000 C 176.752 192.120,177.390 190.905,177.634 190.300 C 177.879 189.695,178.223 189.200,178.400 189.200 C 178.577 189.200,178.925 188.705,179.173 188.100 C 179.658 186.918,180.507 185.368,181.200 184.400 C 181.679 183.730,182.440 182.401,183.375 180.600 C 183.718 179.940,184.357 178.860,184.795 178.200 C 185.233 177.540,185.818 176.552,186.096 176.005 C 186.760 174.695,189.462 172.000,190.111 172.000 C 190.392 172.000,190.995 171.739,191.451 171.419 C 193.560 169.942,197.814 169.830,200.837 171.171 M74.821 252.761 C 74.475 253.408,74.532 253.490,75.207 253.314 C 75.643 253.200,76.000 252.858,76.000 252.553 C 76.000 251.751,75.295 251.875,74.821 252.761 M53.867 289.067 C 53.406 289.527,53.575 290.000,54.200 290.000 C 54.530 290.000,54.800 289.730,54.800 289.400 C 54.800 288.775,54.327 288.606,53.867 289.067 M43.825 306.772 C 43.155 307.513,43.160 307.536,43.963 307.326 C 44.423 307.205,44.800 306.858,44.800 306.553 C 44.800 305.821,44.657 305.854,43.825 306.772 M26.643 336.233 C 26.493 336.623,26.582 336.806,26.875 336.708 C 27.473 336.509,27.802 335.600,27.276 335.600 C 27.061 335.600,26.776 335.885,26.643 336.233 M26.400 352.813 C 26.400 353.026,26.591 353.200,26.824 353.200 C 27.057 353.200,27.136 353.380,27.000 353.600 C 26.864 353.820,26.943 354.000,27.176 354.000 C 27.823 354.000,27.681 352.917,27.000 352.655 C 26.670 352.529,26.400 352.599,26.400 352.813 M27.888 354.515 C 27.745 354.887,27.757 355.171,27.914 355.148 C 28.791 355.017,29.200 355.288,29.200 356.000 C 29.200 356.907,29.615 357.025,30.320 356.320 C 31.025 355.615,30.907 355.200,30.000 355.200 C 29.560 355.200,29.200 355.009,29.200 354.776 C 29.200 354.543,29.035 354.455,28.834 354.579 C 28.633 354.703,28.396 354.588,28.308 354.323 C 28.206 354.017,28.052 354.088,27.888 354.515 M361.741 355.077 C 360.456 355.328,360.268 356.615,361.501 356.717 C 362.191 356.774,362.422 356.634,362.274 356.248 C 362.158 355.945,362.264 355.496,362.511 355.249 C 362.758 355.002,362.879 354.825,362.780 354.854 C 362.681 354.884,362.213 354.985,361.741 355.077 M31.202 356.931 C 31.904 357.682,33.359 357.980,33.491 357.400 C 33.541 357.180,33.181 357.000,32.691 357.000 C 32.201 357.000,31.530 356.840,31.200 356.644 C 30.669 356.328,30.669 356.361,31.202 356.931 M357.814 357.178 C 357.670 357.410,357.698 357.614,357.876 357.631 C 358.054 357.647,358.525 357.723,358.923 357.799 C 359.340 357.878,359.580 357.738,359.489 357.468 C 359.282 356.844,358.142 356.647,357.814 357.178 " stroke="none" fill="#fcb44c" fill-rule="evenodd"></path></g></svg>