<svg id="svg" version="1.1" xmlns="http://www.w3.org/2000/svg" xmlns:xlink="http://www.w3.org/1999/xlink" width="400" height="400" viewBox="0, 0, 400,400"><g id="svgg"><path id="path0" d="M101.953 36.300 C 101.927 36.465,101.914 36.698,101.925 36.817 C 101.936 36.936,101.552 37.081,101.072 37.138 C 100.593 37.195,99.840 37.300,99.400 37.370 C 98.960 37.440,98.375 37.521,98.100 37.549 C 97.825 37.577,97.600 37.870,97.600 38.200 C 97.600 38.619,97.178 38.800,96.200 38.800 C 94.928 38.800,94.595 39.099,94.753 40.100 C 94.779 40.265,94.524 40.400,94.187 40.400 C 93.850 40.400,93.424 40.805,93.241 41.300 C 93.058 41.795,92.794 42.155,92.654 42.100 C 92.019 41.850,91.600 42.049,91.600 42.600 C 91.600 42.933,91.244 43.200,90.800 43.200 C 90.084 43.200,89.813 43.616,89.953 44.500 C 89.979 44.665,89.779 44.755,89.509 44.700 C 89.240 44.645,88.957 45.010,88.880 45.511 C 88.791 46.096,88.505 46.382,88.080 46.311 C 87.712 46.249,87.414 46.466,87.409 46.800 C 87.404 47.130,86.978 47.460,86.462 47.533 C 85.777 47.630,85.576 47.863,85.715 48.398 C 85.842 48.881,85.650 49.198,85.154 49.328 C 84.739 49.436,84.400 49.812,84.400 50.163 C 84.400 50.533,84.065 50.800,83.600 50.800 C 83.156 50.800,82.800 51.067,82.800 51.400 C 82.800 51.733,82.444 52.000,82.000 52.000 C 81.275 52.000,81.006 52.427,81.163 53.330 C 81.194 53.511,81.023 53.538,80.783 53.389 C 80.536 53.237,80.252 53.480,80.130 53.947 C 80.011 54.401,79.573 54.882,79.157 55.014 C 78.741 55.146,78.400 55.512,78.400 55.827 C 78.400 56.142,78.029 56.400,77.576 56.400 C 77.123 56.400,76.855 56.565,76.979 56.766 C 77.224 57.162,74.978 59.600,74.369 59.600 C 74.166 59.600,74.000 59.870,74.000 60.200 C 74.000 60.539,73.642 60.800,73.176 60.800 C 72.723 60.800,72.461 60.975,72.593 61.189 C 72.726 61.403,72.466 61.893,72.017 62.278 C 71.568 62.663,71.200 63.229,71.200 63.536 C 71.200 63.896,70.918 64.019,70.400 63.884 C 69.807 63.729,69.600 63.872,69.600 64.437 C 69.600 64.921,69.321 65.200,68.837 65.200 C 68.291 65.200,68.130 65.411,68.270 65.945 C 68.404 66.458,68.206 66.757,67.632 66.907 C 67.175 67.027,66.800 67.433,66.800 67.809 C 66.800 68.296,66.570 68.433,66.000 68.284 C 65.407 68.129,65.200 68.272,65.200 68.837 C 65.200 69.321,64.921 69.600,64.437 69.600 C 63.872 69.600,63.729 69.807,63.884 70.400 C 64.019 70.918,63.896 71.200,63.536 71.200 C 63.229 71.200,62.663 71.568,62.278 72.017 C 61.893 72.466,61.403 72.726,61.189 72.593 C 60.975 72.461,60.800 72.723,60.800 73.176 C 60.800 73.642,60.539 74.000,60.200 74.000 C 59.870 74.000,59.600 74.166,59.600 74.369 C 59.600 74.978,57.162 77.224,56.766 76.979 C 56.565 76.855,56.400 77.123,56.400 77.576 C 56.400 78.042,56.139 78.400,55.800 78.400 C 55.470 78.400,55.200 78.554,55.200 78.742 C 55.200 79.349,53.257 81.200,52.619 81.200 C 52.267 81.200,52.000 81.545,52.000 82.000 C 52.000 82.444,51.733 82.800,51.400 82.800 C 51.070 82.800,50.800 83.139,50.800 83.553 C 50.800 83.970,50.443 84.400,50.000 84.516 C 49.560 84.631,49.200 84.995,49.200 85.325 C 49.200 85.720,48.937 85.856,48.433 85.724 C 47.859 85.574,47.632 85.760,47.533 86.462 C 47.460 86.978,47.130 87.404,46.800 87.409 C 46.455 87.414,46.250 87.712,46.318 88.109 C 46.388 88.521,46.181 88.800,45.805 88.800 C 45.458 88.800,45.071 89.070,44.945 89.400 C 44.818 89.730,44.374 90.000,43.957 90.000 C 43.482 90.000,43.200 90.281,43.200 90.753 C 43.200 91.182,42.838 91.601,42.360 91.726 C 41.863 91.856,41.634 92.132,41.800 92.400 C 41.966 92.668,41.737 92.944,41.240 93.074 C 40.778 93.194,40.400 93.611,40.400 94.000 C 40.400 94.389,40.010 94.809,39.534 94.933 C 38.766 95.134,38.732 95.238,39.234 95.857 C 39.598 96.305,39.621 96.446,39.300 96.253 C 38.969 96.054,38.800 96.214,38.800 96.727 C 38.800 97.153,38.532 97.724,38.204 97.996 C 37.877 98.268,37.707 98.650,37.828 98.845 C 37.949 99.040,37.857 99.200,37.624 99.200 C 37.391 99.200,37.200 99.794,37.200 100.520 C 37.200 101.246,36.975 102.082,36.700 102.379 C 36.300 102.810,36.300 102.861,36.700 102.635 C 37.378 102.252,37.337 102.989,36.648 103.560 C 36.261 103.881,36.077 105.122,36.034 107.709 L 35.971 111.400 73.486 111.400 L 111.000 111.400 111.101 197.300 L 111.202 283.200 74.681 283.200 C 48.013 283.200,38.038 283.078,37.707 282.747 C 37.458 282.498,36.972 282.402,36.627 282.534 C 35.891 282.817,35.682 291.356,36.400 291.800 C 36.620 291.936,36.800 291.827,36.800 291.557 C 36.800 290.273,37.313 291.778,37.389 293.284 C 37.490 295.287,37.850 296.257,38.600 296.545 C 38.935 296.673,39.050 297.086,38.906 297.638 C 38.771 298.154,38.834 298.426,39.056 298.289 C 39.266 298.159,39.700 298.238,40.019 298.464 C 40.496 298.802,40.477 298.836,39.913 298.655 C 39.535 298.534,39.119 298.607,38.989 298.817 C 38.776 299.163,39.315 299.371,40.100 299.247 C 40.265 299.221,40.400 299.669,40.400 300.243 C 40.400 301.005,40.561 301.224,41.000 301.055 C 41.390 300.906,41.600 301.066,41.601 301.513 C 41.601 301.891,42.321 302.877,43.201 303.705 C 44.080 304.533,44.800 305.310,44.800 305.433 C 44.800 305.730,45.879 306.800,46.178 306.800 C 46.457 306.800,49.200 309.580,49.200 309.863 C 49.200 310.138,50.295 311.200,50.578 311.200 C 50.857 311.200,53.600 313.980,53.600 314.263 C 53.600 314.538,54.695 315.600,54.978 315.600 C 55.257 315.600,58.000 318.380,58.000 318.663 C 58.000 318.941,59.097 320.000,59.385 320.000 C 59.700 320.000,62.400 322.700,62.400 323.015 C 62.400 323.329,63.471 324.400,63.785 324.400 C 64.100 324.400,66.800 327.100,66.800 327.415 C 66.800 327.729,67.871 328.800,68.185 328.800 C 68.500 328.800,71.200 331.500,71.200 331.815 C 71.200 332.129,72.271 333.200,72.585 333.200 C 72.900 333.200,75.600 335.900,75.600 336.215 C 75.600 336.529,76.671 337.600,76.985 337.600 C 77.300 337.600,80.000 340.300,80.000 340.615 C 80.000 340.903,81.059 342.000,81.337 342.000 C 81.620 342.000,84.400 344.743,84.400 345.022 C 84.400 345.305,85.462 346.400,85.737 346.400 C 86.020 346.400,88.800 349.143,88.800 349.422 C 88.800 349.820,89.918 350.800,90.371 350.800 C 90.607 350.800,90.755 351.025,90.700 351.300 C 90.643 351.585,91.092 351.856,91.746 351.931 C 92.470 352.014,92.965 352.345,93.092 352.831 C 93.203 353.254,93.536 353.600,93.833 353.600 C 94.129 353.600,94.565 353.960,94.800 354.400 C 95.080 354.924,95.638 355.200,96.414 355.200 C 97.333 355.200,97.600 355.380,97.600 356.000 C 97.600 356.630,97.867 356.800,98.856 356.800 C 99.578 356.800,100.324 357.090,100.610 357.482 C 101.038 358.066,101.988 358.176,107.255 358.248 C 110.635 358.295,113.008 358.247,112.529 358.142 C 111.197 357.851,111.151 356.361,111.281 318.200 L 111.400 283.400 196.773 283.299 L 282.146 283.198 283.073 284.069 L 284.000 284.939 283.997 319.370 C 283.993 358.501,284.020 357.884,282.247 358.131 C 281.561 358.226,283.655 358.284,286.900 358.259 C 290.145 358.234,292.800 358.065,292.800 357.883 C 292.800 357.701,292.978 357.663,293.195 357.797 C 293.422 357.937,293.489 357.777,293.353 357.421 C 293.159 356.915,293.456 356.800,294.957 356.800 C 296.267 356.800,297.032 356.568,297.600 356.000 C 298.040 355.560,298.844 355.200,299.387 355.200 C 300.101 355.200,300.311 355.033,300.145 354.600 C 299.939 354.063,300.392 353.809,301.300 353.953 C 301.465 353.979,301.600 353.809,301.600 353.576 C 301.600 353.343,301.760 353.251,301.955 353.372 C 302.150 353.492,302.404 353.228,302.520 352.784 C 302.636 352.340,302.963 352.027,303.247 352.089 C 303.531 352.150,303.772 351.938,303.782 351.618 C 303.792 351.298,304.216 350.938,304.724 350.818 C 305.232 350.698,305.637 350.465,305.624 350.300 C 305.551 349.379,305.643 349.179,306.027 349.417 C 306.262 349.562,306.553 349.303,306.674 348.840 C 306.799 348.362,307.218 348.000,307.647 348.000 C 308.133 348.000,308.400 347.717,308.400 347.200 C 308.400 346.667,308.667 346.400,309.200 346.400 C 309.644 346.400,310.000 346.133,310.000 345.800 C 310.000 345.470,310.184 345.200,310.410 345.200 C 310.635 345.200,310.990 344.753,311.197 344.208 C 311.437 343.577,311.786 343.296,312.155 343.438 C 312.533 343.583,312.783 343.365,312.868 342.815 C 312.941 342.349,313.174 341.930,313.387 341.884 C 314.013 341.748,315.600 340.148,315.600 339.654 C 315.600 339.404,315.960 339.200,316.400 339.200 C 316.933 339.200,317.200 338.933,317.200 338.400 C 317.200 337.960,317.371 337.600,317.579 337.600 C 318.130 337.600,320.000 335.788,320.000 335.254 C 320.000 335.004,320.381 334.800,320.847 334.800 C 321.496 334.800,321.645 334.614,321.484 334.000 C 321.337 333.439,321.473 333.198,321.937 333.193 C 322.673 333.185,324.400 331.538,324.400 330.844 C 324.400 330.600,324.747 330.400,325.172 330.400 C 325.666 330.400,325.994 330.075,326.082 329.500 C 326.157 329.005,326.395 328.615,326.609 328.633 C 327.047 328.671,329.031 326.712,328.871 326.400 C 328.815 326.290,329.135 326.142,329.584 326.072 C 330.079 325.995,330.400 325.641,330.400 325.172 C 330.400 324.747,330.604 324.400,330.854 324.400 C 331.278 324.400,333.167 322.613,333.190 322.190 C 333.195 322.086,333.200 321.837,333.200 321.637 C 333.200 321.438,333.560 321.369,334.000 321.484 C 334.614 321.645,334.800 321.496,334.800 320.847 C 334.800 320.381,335.004 320.000,335.254 320.000 C 335.788 320.000,337.600 318.130,337.600 317.579 C 337.600 317.371,337.960 317.200,338.400 317.200 C 338.933 317.200,339.200 316.933,339.200 316.400 C 339.200 315.960,339.404 315.600,339.654 315.600 C 340.144 315.600,341.983 313.769,341.974 313.290 C 341.971 313.131,342.349 312.941,342.815 312.868 C 343.365 312.783,343.583 312.533,343.438 312.155 C 343.296 311.786,343.577 311.437,344.208 311.197 C 344.753 310.990,345.200 310.635,345.200 310.410 C 345.200 310.184,345.470 310.000,345.800 310.000 C 346.133 310.000,346.400 309.644,346.400 309.200 C 346.400 308.667,346.667 308.400,347.200 308.400 C 347.717 308.400,348.000 308.133,348.000 307.647 C 348.000 307.226,348.359 306.800,348.811 306.681 C 349.258 306.564,349.573 306.228,349.511 305.934 C 349.446 305.619,349.687 305.448,350.100 305.518 C 350.577 305.598,350.800 305.374,350.800 304.818 C 350.800 304.086,351.211 303.812,352.100 303.953 C 352.265 303.979,352.400 303.640,352.400 303.200 C 352.400 302.760,352.658 302.400,352.973 302.400 C 353.288 302.400,353.660 302.040,353.800 301.600 C 353.940 301.160,354.312 300.800,354.627 300.800 C 355.018 300.800,355.200 300.344,355.200 299.363 C 355.200 298.319,355.396 297.874,355.915 297.738 C 356.345 297.626,356.664 297.124,356.716 296.476 C 356.763 295.884,357.071 295.200,357.401 294.956 C 358.212 294.355,358.158 293.974,357.300 294.250 C 356.726 294.434,356.748 294.342,357.424 293.737 C 358.079 293.152,358.272 292.429,358.365 290.224 C 358.428 288.698,358.713 287.078,358.997 286.624 C 359.356 286.052,359.420 285.250,359.207 284.000 C 358.916 282.290,358.897 282.270,358.844 283.600 C 358.790 284.949,358.770 284.967,358.294 284.080 L 357.800 283.161 321.352 283.184 C 291.018 283.204,284.829 283.117,284.451 282.662 C 284.116 282.258,284.024 259.896,284.099 196.758 L 284.200 111.400 321.100 111.298 C 355.186 111.204,358.000 111.145,358.000 110.531 C 358.000 110.166,358.111 109.978,358.248 110.114 C 358.849 110.715,359.694 109.196,359.140 108.512 C 358.686 107.953,358.687 107.899,359.141 108.172 C 359.541 108.413,359.521 108.249,359.066 107.549 C 358.699 106.986,358.368 105.299,358.252 103.400 C 358.144 101.640,358.043 100.161,358.028 100.113 C 358.012 100.064,357.730 100.129,357.400 100.255 C 356.840 100.470,356.607 99.372,356.691 96.912 C 356.700 96.644,356.368 96.317,355.954 96.185 C 355.441 96.023,355.200 95.571,355.200 94.773 C 355.200 93.709,354.840 93.388,353.851 93.569 C 353.659 93.604,353.609 93.354,353.740 93.013 C 353.883 92.640,353.663 92.197,353.189 91.900 C 352.755 91.629,352.400 91.193,352.400 90.931 C 352.400 90.668,352.040 90.340,351.600 90.200 C 351.160 90.060,350.800 89.688,350.800 89.373 C 350.800 89.057,350.422 88.800,349.957 88.800 C 349.386 88.800,349.186 88.614,349.337 88.220 C 349.471 87.870,349.251 87.543,348.780 87.394 C 348.351 87.257,348.000 86.931,348.000 86.668 C 348.000 86.405,347.595 86.005,347.100 85.780 C 346.605 85.555,346.245 85.152,346.300 84.885 C 346.355 84.618,346.046 84.400,345.613 84.400 C 345.087 84.400,344.900 84.206,345.049 83.817 C 345.197 83.430,344.933 83.148,344.263 82.980 C 343.664 82.830,343.334 82.517,343.450 82.213 C 343.569 81.904,343.224 81.592,342.587 81.433 C 341.877 81.254,341.601 80.974,341.751 80.583 C 341.900 80.196,341.715 80.000,341.200 80.000 C 340.698 80.000,340.501 79.802,340.641 79.436 C 340.770 79.100,340.533 78.769,340.055 78.617 C 339.613 78.477,339.192 78.056,339.120 77.682 C 339.048 77.308,338.632 77.001,338.195 77.001 C 337.755 77.000,337.400 76.732,337.400 76.400 C 337.400 76.070,337.073 75.667,336.674 75.503 C 336.275 75.340,336.068 75.013,336.215 74.776 C 336.362 74.538,336.115 74.250,335.662 74.132 C 335.211 74.014,334.786 73.622,334.716 73.260 C 334.646 72.898,334.232 72.601,333.795 72.601 C 333.272 72.600,333.021 72.352,333.060 71.873 C 333.093 71.474,333.020 71.247,332.897 71.370 C 332.549 71.717,331.580 70.757,331.845 70.328 C 331.974 70.118,331.719 69.852,331.277 69.736 C 330.835 69.621,330.374 69.146,330.253 68.680 C 330.131 68.215,329.906 67.961,329.753 68.114 C 329.403 68.464,328.340 67.621,328.600 67.200 C 328.705 67.030,328.478 66.915,328.096 66.945 C 327.649 66.980,327.400 66.714,327.399 66.200 C 327.399 65.756,327.132 65.400,326.799 65.400 C 326.470 65.400,326.102 65.040,325.982 64.600 C 325.862 64.160,325.592 63.797,325.382 63.794 C 324.734 63.783,323.976 63.163,324.189 62.818 C 324.300 62.638,324.078 62.515,323.696 62.545 C 323.251 62.580,322.996 62.311,322.990 61.800 C 322.984 61.307,322.727 61.019,322.321 61.050 C 321.931 61.080,321.561 60.698,321.414 60.114 C 321.251 59.463,320.968 59.203,320.583 59.351 C 320.065 59.550,319.823 59.155,319.948 58.314 C 319.971 58.157,319.730 58.129,319.412 58.251 C 319.027 58.399,318.745 58.119,318.567 57.413 C 318.408 56.776,318.096 56.431,317.787 56.550 C 317.483 56.666,317.170 56.336,317.020 55.737 C 316.852 55.067,316.570 54.803,316.183 54.951 C 315.653 55.154,315.412 54.735,315.563 53.870 C 315.594 53.689,315.448 53.647,315.238 53.777 C 314.849 54.017,314.232 53.326,314.188 52.600 C 314.175 52.380,313.943 52.246,313.674 52.302 C 313.405 52.359,312.986 51.968,312.743 51.434 C 312.482 50.863,312.074 50.550,311.750 50.674 C 311.262 50.862,311.014 50.375,311.153 49.500 C 311.179 49.335,310.942 49.200,310.627 49.200 C 310.312 49.200,309.940 48.840,309.800 48.400 C 309.660 47.960,309.307 47.600,309.016 47.600 C 308.724 47.600,308.382 47.330,308.255 47.000 C 308.129 46.670,307.749 46.400,307.413 46.400 C 307.067 46.400,306.800 46.052,306.800 45.600 C 306.800 45.156,306.533 44.800,306.200 44.800 C 305.870 44.800,305.600 44.530,305.600 44.200 C 305.600 43.870,305.313 43.600,304.963 43.600 C 304.612 43.600,304.234 43.252,304.123 42.828 C 304.012 42.403,303.660 41.955,303.340 41.832 C 303.015 41.708,302.866 41.784,303.003 42.005 C 303.137 42.222,303.142 42.400,303.014 42.400 C 302.885 42.400,302.609 41.950,302.400 41.400 C 302.167 40.788,301.706 40.400,301.210 40.400 C 300.764 40.400,300.400 40.255,300.400 40.077 C 300.400 39.899,299.680 39.436,298.800 39.048 C 297.920 38.660,297.200 38.186,297.200 37.996 C 297.200 37.805,296.390 37.528,295.400 37.379 C 294.162 37.193,293.600 36.917,293.600 36.493 C 293.600 35.981,293.449 36.005,292.707 36.638 C 291.980 37.258,291.915 37.270,292.356 36.700 C 292.865 36.042,292.612 36.000,288.149 36.000 L 283.400 36.000 283.511 72.500 C 283.572 92.575,283.524 109.405,283.403 109.901 L 283.184 110.802 197.492 110.701 L 111.800 110.600 111.698 73.300 L 111.596 36.000 106.798 36.000 C 104.159 36.000,101.979 36.135,101.953 36.300 M242.400 137.041 C 243.390 137.504,244.529 137.998,244.932 138.141 C 248.669 139.461,256.400 147.156,256.400 149.555 C 256.400 149.815,256.648 150.427,256.951 150.914 C 258.938 154.107,259.000 155.511,259.000 197.200 C 259.000 241.272,259.077 240.047,255.948 245.600 C 255.762 245.930,255.321 246.740,254.967 247.400 C 252.320 252.341,244.448 257.215,237.527 258.199 C 225.828 259.862,156.020 258.848,152.000 256.957 C 147.375 254.781,146.343 254.113,143.408 251.400 C 142.053 250.146,139.200 246.380,139.200 245.844 C 139.200 245.578,139.003 245.163,138.762 244.922 C 138.521 244.681,137.891 243.250,137.363 241.742 L 136.403 239.000 136.402 197.228 L 136.400 155.456 137.280 152.828 C 138.982 147.746,144.733 140.287,147.632 139.401 C 148.164 139.238,148.870 138.893,149.200 138.634 C 150.050 137.966,153.974 136.473,155.400 136.276 C 160.653 135.548,240.711 136.252,242.400 137.041 " stroke="none" fill="#a4e48c" fill-rule="evenodd"></path><path id="path1" d="M37.100 111.485 L 36.000 111.653 36.000 197.189 C 36.000 280.823,36.017 282.721,36.755 282.528 C 37.170 282.419,37.631 282.526,37.778 282.765 C 37.969 283.073,48.717 283.200,74.625 283.200 L 111.202 283.200 111.101 197.300 L 111.000 111.400 74.600 111.359 C 54.580 111.336,37.705 111.393,37.100 111.485 M111.375 283.720 C 111.031 284.618,111.383 357.516,111.733 357.867 C 112.169 358.302,283.031 358.302,283.467 357.867 C 283.650 357.684,283.851 341.232,283.914 321.308 L 284.028 285.082 283.144 284.141 L 282.261 283.200 196.918 283.200 C 127.250 283.200,111.538 283.296,111.375 283.720 " stroke="none" fill="#7ccc94" fill-rule="evenodd"></path><path id="path2" d="M111.698 73.299 L 111.800 110.600 197.492 110.701 L 283.184 110.802 283.402 109.901 C 283.522 109.405,283.570 92.620,283.510 72.600 L 283.400 36.200 197.498 36.099 L 111.596 35.998 111.698 73.299 M87.669 45.716 C 87.345 46.107,87.431 46.247,88.020 46.292 C 88.459 46.325,88.800 46.099,88.800 45.775 C 88.800 45.060,88.238 45.031,87.669 45.716 M86.200 47.200 C 86.064 47.420,86.223 47.600,86.553 47.600 C 86.883 47.600,87.264 47.420,87.400 47.200 C 87.536 46.980,87.377 46.800,87.047 46.800 C 86.717 46.800,86.336 46.980,86.200 47.200 M84.042 49.460 C 82.810 50.675,82.764 50.800,83.542 50.800 C 84.046 50.800,84.400 50.547,84.400 50.187 C 84.400 49.850,84.753 49.444,85.184 49.284 C 85.625 49.121,85.843 48.803,85.684 48.557 C 85.503 48.279,84.906 48.608,84.042 49.460 M78.800 54.600 C 78.259 55.251,78.389 55.333,79.367 54.957 C 79.715 54.824,80.000 54.554,80.000 54.357 C 80.000 53.804,79.352 53.935,78.800 54.600 M75.242 58.224 C 74.495 58.981,74.076 59.600,74.311 59.600 C 74.713 59.600,77.200 57.335,77.200 56.969 C 77.200 56.512,76.470 56.980,75.242 58.224 M71.100 62.394 C 69.844 63.713,69.755 64.000,70.600 64.000 C 70.930 64.000,71.200 63.724,71.200 63.387 C 71.200 63.051,71.456 62.677,71.769 62.557 C 72.368 62.327,72.981 61.186,72.487 61.219 C 72.329 61.230,71.705 61.758,71.100 62.394 M66.700 66.794 C 65.460 68.096,65.357 68.400,66.153 68.400 C 66.458 68.400,66.801 68.040,66.916 67.600 C 67.031 67.160,67.412 66.800,67.763 66.800 C 68.113 66.800,68.400 66.530,68.400 66.200 C 68.400 65.328,67.944 65.488,66.700 66.794 M62.254 71.240 C 61.624 71.901,61.206 72.540,61.326 72.659 C 61.445 72.778,61.866 72.499,62.260 72.038 C 62.655 71.577,63.208 71.200,63.489 71.200 C 63.770 71.200,64.000 70.930,64.000 70.600 C 64.000 69.721,63.542 69.889,62.254 71.240 M58.062 75.436 C 57.326 76.218,56.810 76.943,56.914 77.047 C 57.157 77.291,59.600 74.856,59.600 74.369 C 59.600 73.829,59.528 73.879,58.062 75.436 M53.690 79.807 C 52.969 80.573,52.573 81.200,52.809 81.200 C 53.304 81.200,55.200 79.251,55.200 78.742 C 55.200 78.233,55.114 78.294,53.690 79.807 M49.322 84.173 C 48.346 85.211,48.181 85.584,48.622 85.753 C 48.974 85.888,49.200 85.730,49.200 85.350 C 49.200 85.006,49.560 84.631,50.000 84.516 C 50.443 84.400,50.800 83.970,50.800 83.553 C 50.800 82.586,50.825 82.576,49.322 84.173 M47.092 86.242 C 46.931 86.402,46.800 86.809,46.800 87.147 C 46.800 87.597,46.918 87.642,47.245 87.315 C 47.490 87.070,47.621 86.663,47.537 86.410 C 47.452 86.157,47.252 86.081,47.092 86.242 M44.890 88.607 C 44.087 89.461,43.799 90.000,44.147 90.000 C 44.459 90.000,44.818 89.730,44.945 89.400 C 45.071 89.070,45.439 88.800,45.763 88.800 C 46.104 88.800,46.325 88.464,46.290 88.000 C 46.257 87.560,46.223 87.203,46.215 87.207 C 46.207 87.211,45.610 87.841,44.890 88.607 M356.800 99.600 C 356.800 100.116,357.003 100.399,357.300 100.300 C 357.575 100.208,357.800 99.893,357.800 99.600 C 357.800 99.307,357.575 98.992,357.300 98.900 C 357.003 98.801,356.800 99.084,356.800 99.600 M36.000 103.316 C 36.000 103.966,36.101 104.014,36.600 103.600 C 36.930 103.326,37.200 102.974,37.200 102.818 C 37.200 102.661,36.930 102.533,36.600 102.533 C 36.270 102.533,36.000 102.885,36.000 103.316 M358.800 110.024 C 358.800 110.257,358.620 110.336,358.400 110.200 C 358.180 110.064,358.000 110.232,358.000 110.574 C 358.000 111.131,354.157 111.206,321.100 111.298 L 284.200 111.400 284.099 196.758 C 284.024 259.896,284.116 282.258,284.451 282.662 C 284.829 283.117,291.018 283.204,321.352 283.184 L 357.800 283.161 358.270 284.046 C 358.731 284.916,358.743 284.911,358.918 283.766 C 359.016 283.125,359.052 283.368,358.997 284.306 C 358.942 285.245,359.053 286.109,359.243 286.227 C 359.438 286.347,359.593 247.724,359.597 198.020 C 359.603 138.953,359.472 109.600,359.203 109.600 C 358.981 109.600,358.800 109.791,358.800 110.024 M155.400 136.276 C 153.974 136.473,150.050 137.966,149.200 138.634 C 148.870 138.893,148.164 139.238,147.632 139.401 C 144.733 140.287,138.982 147.746,137.280 152.828 L 136.400 155.456 136.402 197.228 L 136.403 239.000 137.363 241.742 C 137.891 243.250,138.521 244.681,138.762 244.922 C 139.003 245.163,139.200 245.578,139.200 245.844 C 139.200 247.520,145.187 253.517,148.620 255.281 C 155.499 258.815,155.070 258.784,197.800 258.785 C 238.899 258.785,239.329 258.759,245.111 255.906 C 248.728 254.121,253.635 249.887,254.967 247.400 C 255.321 246.740,255.762 245.930,255.948 245.600 C 259.077 240.047,259.000 241.272,259.000 197.200 C 259.000 155.511,258.938 154.107,256.951 150.914 C 256.648 150.427,256.400 149.815,256.400 149.555 C 256.400 147.156,248.669 139.461,244.932 138.141 C 244.529 137.998,243.390 137.504,242.400 137.041 C 240.711 136.252,160.653 135.548,155.400 136.276 M37.517 295.962 C 37.674 296.369,37.798 296.406,37.908 296.077 C 37.996 295.812,38.233 295.697,38.434 295.821 C 38.635 295.945,38.800 295.868,38.800 295.648 C 38.800 295.429,38.460 295.275,38.044 295.307 C 37.548 295.344,37.367 295.569,37.517 295.962 M47.100 308.415 C 47.903 309.197,48.116 309.169,47.792 308.324 C 47.668 307.999,47.303 307.733,46.983 307.733 C 46.519 307.733,46.543 307.872,47.100 308.415 M51.500 312.815 C 52.303 313.597,52.516 313.569,52.192 312.724 C 52.068 312.399,51.703 312.133,51.383 312.133 C 50.919 312.133,50.943 312.272,51.500 312.815 M55.900 317.215 C 56.703 317.997,56.916 317.969,56.592 317.124 C 56.468 316.799,56.103 316.533,55.783 316.533 C 55.319 316.533,55.343 316.672,55.900 317.215 M60.300 321.616 C 60.685 321.991,61.133 322.221,61.296 322.128 C 61.703 321.894,60.756 320.933,60.118 320.933 C 59.766 320.933,59.824 321.152,60.300 321.616 M64.663 325.504 C 64.565 325.667,64.726 326.023,65.021 326.296 C 65.316 326.569,65.638 326.659,65.737 326.496 C 65.835 326.333,65.674 325.977,65.379 325.704 C 65.084 325.431,64.762 325.341,64.663 325.504 M69.063 329.904 C 68.965 330.067,69.126 330.423,69.421 330.696 C 69.716 330.969,70.038 331.059,70.137 330.896 C 70.235 330.733,70.074 330.377,69.779 330.104 C 69.484 329.831,69.162 329.741,69.063 329.904 M73.463 334.304 C 73.365 334.467,73.526 334.823,73.821 335.096 C 74.116 335.369,74.438 335.459,74.537 335.296 C 74.635 335.133,74.474 334.777,74.179 334.504 C 73.884 334.231,73.562 334.141,73.463 334.304 M77.872 338.704 C 77.779 338.867,78.009 339.315,78.384 339.700 C 78.848 340.176,79.067 340.234,79.067 339.882 C 79.067 339.244,78.106 338.297,77.872 338.704 M87.093 348.400 C 87.470 348.840,87.828 349.200,87.889 349.200 C 88.152 349.200,87.764 348.174,87.400 347.906 C 86.606 347.323,86.423 347.617,87.093 348.400 M91.200 352.062 C 91.310 352.138,91.904 352.645,92.520 353.188 L 93.640 354.177 93.276 353.188 C 93.057 352.591,92.535 352.145,91.956 352.062 C 91.430 351.986,91.090 351.986,91.200 352.062 M300.392 354.005 C 299.893 354.313,299.889 354.443,300.362 354.883 C 300.690 355.188,300.810 355.209,300.656 354.934 C 300.513 354.678,300.621 354.388,300.898 354.289 C 301.174 354.190,301.305 354.005,301.188 353.877 C 301.072 353.748,300.714 353.806,300.392 354.005 M293.033 357.457 C 292.895 357.819,292.875 358.209,292.991 358.324 C 293.106 358.439,293.200 358.313,293.200 358.043 C 293.200 357.773,293.360 357.651,293.555 357.772 C 293.750 357.893,294.132 357.723,294.404 357.396 C 294.814 356.902,294.760 356.800,294.092 356.800 C 293.648 356.800,293.172 357.096,293.033 357.457 " stroke="none" fill="#c4f48c" fill-rule="evenodd"></path></g></svg>