<svg id="svg" version="1.1" xmlns="http://www.w3.org/2000/svg" xmlns:xlink="http://www.w3.org/1999/xlink" width="400" height="400" viewBox="0, 0, 400,400"><g id="svgg"><path id="path0" d="M161.067 40.267 C 160.636 40.697,160.759 41.067,161.333 41.067 C 161.627 41.067,161.867 40.827,161.867 40.533 C 161.867 39.959,161.497 39.836,161.067 40.267 M139.200 47.157 C 139.200 47.427,139.032 47.544,138.828 47.417 C 138.623 47.291,138.350 47.357,138.221 47.566 C 138.092 47.774,138.149 48.045,138.348 48.168 C 138.788 48.440,139.818 47.285,139.457 46.924 C 139.316 46.782,139.200 46.887,139.200 47.157 M97.718 61.779 C 97.337 62.212,97.359 62.375,97.818 62.551 C 98.206 62.700,98.400 62.512,98.400 61.987 C 98.400 61.066,98.356 61.053,97.718 61.779 M72.353 97.900 C 72.327 98.065,72.334 98.357,72.369 98.549 C 72.404 98.741,72.194 98.807,71.902 98.695 C 71.577 98.570,71.371 98.783,71.371 99.245 C 71.371 99.660,71.588 100.000,71.852 100.000 C 72.117 100.000,72.424 100.225,72.535 100.500 C 72.646 100.775,72.751 100.235,72.768 99.300 C 72.795 97.870,72.509 96.908,72.353 97.900 M198.503 112.504 C 197.570 113.217,194.791 115.240,192.327 117.000 C 189.863 118.760,185.908 121.640,183.537 123.400 C 181.166 125.160,177.583 127.770,175.574 129.200 C 173.566 130.630,170.455 132.866,168.661 134.168 C 166.867 135.470,163.780 137.710,161.800 139.146 C 156.766 142.796,153.554 145.137,152.499 145.926 C 152.003 146.297,149.338 148.220,146.577 150.200 C 143.816 152.180,138.101 156.331,133.878 159.424 C 129.655 162.517,125.030 165.854,123.600 166.840 C 122.170 167.825,118.750 170.274,116.000 172.281 C 113.250 174.288,109.965 176.680,108.700 177.596 C 106.058 179.509,105.748 180.753,107.200 183.600 C 107.640 184.462,108.000 185.397,108.000 185.676 C 108.000 186.118,108.988 188.887,110.043 191.400 C 110.706 192.981,111.662 195.829,112.041 197.352 C 112.254 198.205,112.691 199.281,113.014 199.741 C 113.336 200.201,113.600 200.907,113.600 201.309 C 113.600 201.711,113.899 202.616,114.263 203.320 C 114.628 204.024,115.066 205.140,115.236 205.800 C 115.628 207.323,116.702 210.357,117.217 211.400 C 117.434 211.840,117.777 212.740,117.979 213.400 C 118.181 214.060,118.812 215.860,119.382 217.400 C 119.951 218.940,120.946 221.730,121.593 223.600 C 122.239 225.470,123.234 228.260,123.804 229.800 C 124.374 231.340,125.008 233.140,125.214 233.800 C 125.420 234.460,125.747 235.360,125.940 235.800 C 126.134 236.240,126.648 237.590,127.081 238.800 C 127.515 240.010,128.100 241.630,128.382 242.400 C 128.663 243.170,129.102 244.520,129.358 245.400 C 129.613 246.280,130.042 247.393,130.311 247.874 C 130.580 248.354,130.800 249.077,130.800 249.480 C 130.800 249.882,131.160 250.884,131.600 251.704 C 132.040 252.525,132.400 253.396,132.400 253.638 C 132.400 253.881,132.658 254.646,132.974 255.340 C 133.290 256.033,133.729 257.230,133.949 258.000 C 134.169 258.770,135.090 261.470,135.994 264.000 C 136.899 266.530,137.884 269.320,138.183 270.200 C 138.483 271.080,139.116 272.790,139.592 274.000 C 140.067 275.210,140.781 277.100,141.177 278.200 C 142.704 282.434,142.892 282.800,143.539 282.807 C 166.080 283.037,200.248 282.723,200.690 282.281 C 201.233 281.739,201.519 112.439,200.978 111.565 C 200.628 110.998,200.324 111.113,198.503 112.504 M44.320 135.680 C 44.693 136.053,44.907 136.053,45.280 135.680 C 45.653 135.307,45.547 135.200,44.800 135.200 C 44.053 135.200,43.947 135.307,44.320 135.680 " stroke="none" fill="#fcf4a4" fill-rule="evenodd"></path><path id="path1" d="M201.482 69.101 L 201.565 110.200 202.724 111.200 C 203.361 111.750,205.034 113.025,206.441 114.033 C 207.849 115.042,213.680 119.255,219.400 123.395 C 242.956 140.447,251.290 146.476,256.777 150.434 C 259.954 152.725,265.084 156.434,268.177 158.675 C 271.269 160.916,275.999 164.336,278.687 166.275 C 281.375 168.214,285.283 171.060,287.371 172.600 C 289.459 174.140,292.331 176.210,293.753 177.200 C 297.726 179.967,297.831 178.546,292.587 193.000 C 291.629 195.640,289.738 200.950,288.384 204.800 C 287.031 208.650,284.681 215.265,283.162 219.500 C 281.643 223.735,279.157 230.665,277.637 234.900 C 276.118 239.135,273.764 245.750,272.406 249.600 C 271.048 253.450,269.771 256.960,269.568 257.400 C 269.171 258.258,266.151 266.690,265.600 268.478 C 264.440 272.246,260.844 281.634,260.306 282.300 C 259.990 282.692,253.682 282.800,231.213 282.800 C 204.371 282.800,202.488 282.845,201.962 283.500 C 201.484 284.095,201.430 290.964,201.600 329.400 L 201.800 374.600 204.600 374.602 C 206.592 374.603,207.553 374.430,207.930 374.002 C 208.221 373.671,208.357 373.606,208.232 373.858 C 207.818 374.692,209.204 374.796,210.009 373.991 C 210.874 373.126,211.042 372.400,210.376 372.400 C 210.143 372.400,210.049 372.556,210.167 372.747 C 210.285 372.937,210.018 373.422,209.573 373.824 C 208.788 374.534,208.773 374.533,209.045 373.778 C 209.681 372.006,211.358 371.304,211.855 372.600 C 211.982 372.930,212.266 373.200,212.486 373.200 C 212.706 373.200,212.782 372.930,212.655 372.600 C 212.500 372.194,212.676 372.000,213.200 372.000 C 213.727 372.000,213.901 372.193,213.743 372.605 C 213.575 373.043,213.694 373.139,214.178 372.953 C 214.546 372.812,214.755 372.459,214.643 372.169 C 214.508 371.815,214.654 371.723,215.086 371.888 C 215.553 372.068,215.640 371.988,215.400 371.600 C 215.160 371.212,215.247 371.132,215.714 371.312 C 216.142 371.476,216.292 371.385,216.160 371.041 C 216.025 370.689,216.362 370.511,217.214 370.487 C 218.221 370.459,218.420 370.583,218.232 371.126 C 218.023 371.727,218.057 371.725,218.543 371.100 C 218.843 370.715,219.293 370.400,219.544 370.400 C 219.795 370.400,219.979 370.265,219.953 370.100 C 219.794 369.094,220.019 368.610,220.380 369.181 C 220.582 369.500,220.677 369.875,220.591 370.014 C 220.505 370.153,220.697 370.267,221.018 370.267 C 221.338 370.267,221.600 370.117,221.600 369.933 C 221.600 369.750,221.375 369.597,221.100 369.594 C 220.731 369.589,220.742 369.498,221.141 369.245 C 221.439 369.056,222.699 368.957,223.941 369.024 C 226.056 369.139,226.149 369.107,225.400 368.520 C 224.592 367.886,224.778 367.904,226.569 368.631 C 226.904 368.767,227.324 368.515,227.589 368.020 C 227.837 367.557,228.223 367.291,228.447 367.429 C 228.671 367.567,228.953 367.302,229.074 366.840 C 229.234 366.227,229.611 366.000,230.470 366.000 C 231.203 366.000,231.548 366.161,231.383 366.427 C 231.238 366.662,230.873 366.760,230.572 366.645 C 230.272 366.529,229.931 366.588,229.815 366.776 C 229.348 367.532,230.873 367.527,231.630 366.770 C 232.140 366.260,233.104 365.908,234.220 365.825 C 235.494 365.729,236.221 365.424,236.785 364.746 C 237.343 364.077,237.579 363.976,237.593 364.400 C 237.609 364.915,237.664 364.918,237.976 364.426 C 238.291 363.927,238.435 363.927,239.070 364.426 C 239.737 364.951,239.753 364.940,239.254 364.304 C 238.614 363.487,239.819 362.817,241.592 363.005 C 242.138 363.063,242.858 362.815,243.192 362.455 C 243.898 361.695,244.800 361.428,244.800 361.980 C 244.800 362.189,244.485 362.544,244.100 362.768 C 243.715 362.992,243.618 363.181,243.884 363.188 C 244.151 363.195,244.691 362.862,245.084 362.450 C 245.941 361.551,247.867 360.845,247.400 361.600 C 247.180 361.956,247.354 362.007,248.050 361.790 C 248.572 361.628,249.136 361.263,249.302 360.979 C 249.469 360.695,250.129 360.347,250.769 360.207 C 251.409 360.066,252.033 359.692,252.154 359.376 C 252.276 359.059,252.856 358.800,253.443 358.800 C 254.031 358.800,254.730 358.502,254.997 358.137 C 255.343 357.663,256.120 357.466,257.709 357.446 C 258.933 357.431,259.837 357.260,259.717 357.065 C 259.440 356.618,260.367 356.014,261.343 356.006 C 261.877 356.002,262.017 356.196,261.842 356.700 C 261.610 357.367,261.624 357.367,262.143 356.700 C 262.443 356.315,262.884 356.000,263.124 356.000 C 263.364 356.000,263.763 355.685,264.010 355.300 C 264.439 354.633,264.450 354.633,264.243 355.300 C 264.108 355.733,264.235 356.000,264.575 356.000 C 264.936 356.000,265.050 355.713,264.907 355.165 C 264.714 354.427,264.847 354.340,266.044 354.422 C 267.731 354.538,269.669 354.035,269.374 353.557 C 269.252 353.361,269.838 353.194,270.676 353.187 C 272.192 353.175,273.824 352.358,273.327 351.860 C 273.184 351.717,273.806 351.600,274.710 351.600 C 275.613 351.600,276.464 351.420,276.600 351.200 C 276.736 350.980,277.062 350.803,277.324 350.806 C 277.610 350.810,277.561 350.967,277.200 351.200 C 276.710 351.517,276.757 351.589,277.456 351.594 C 278.021 351.598,278.292 351.367,278.256 350.914 C 278.213 350.388,278.527 350.224,279.600 350.212 C 280.370 350.204,281.253 350.036,281.562 349.837 C 281.907 349.615,282.033 349.622,281.890 349.855 C 281.761 350.063,282.046 350.263,282.523 350.299 C 283.210 350.351,283.266 350.286,282.795 349.988 C 282.468 349.782,282.380 349.607,282.600 349.600 C 282.820 349.593,282.782 349.449,282.516 349.280 C 282.241 349.106,282.847 348.924,283.916 348.860 C 287.943 348.620,288.203 348.562,288.094 347.921 C 288.010 347.428,288.327 347.321,289.621 347.409 C 290.898 347.496,291.207 347.396,291.036 346.951 C 290.862 346.495,290.978 346.467,291.615 346.808 C 292.239 347.142,292.463 347.100,292.649 346.617 C 292.779 346.278,293.144 346.000,293.460 346.000 C 293.786 346.000,293.984 345.696,293.918 345.300 C 293.826 344.754,294.129 344.573,295.300 344.476 C 296.331 344.391,296.802 344.516,296.806 344.876 C 296.811 345.305,296.872 345.305,297.142 344.880 C 297.324 344.594,297.848 344.332,298.308 344.297 C 298.768 344.262,299.112 344.046,299.072 343.817 C 299.033 343.588,299.225 343.445,299.500 343.500 C 299.775 343.555,300.000 343.465,300.001 343.300 C 300.001 343.135,300.856 343.007,301.901 343.016 C 304.130 343.036,304.691 342.844,303.943 342.320 C 303.521 342.024,303.511 341.894,303.900 341.736 C 304.679 341.420,304.488 340.482,303.587 340.196 C 303.140 340.054,301.745 338.499,300.487 336.739 C 299.229 334.980,297.335 332.339,296.277 330.870 C 295.219 329.402,293.726 327.300,292.958 326.200 C 292.190 325.100,290.768 323.120,289.796 321.800 C 288.825 320.480,287.202 318.230,286.189 316.800 C 285.176 315.370,283.274 312.760,281.962 311.000 C 280.650 309.240,278.952 306.900,278.190 305.800 C 277.427 304.700,275.817 302.450,274.612 300.800 C 273.407 299.150,271.881 296.990,271.219 296.000 C 270.558 295.010,269.518 293.590,268.908 292.845 C 268.299 292.100,267.635 291.200,267.434 290.845 C 267.233 290.490,266.323 289.210,265.412 288.000 C 262.045 283.527,261.479 281.996,262.561 280.286 C 262.869 279.799,263.250 278.770,263.407 278.000 C 263.564 277.230,263.869 276.380,264.086 276.111 C 264.302 275.843,264.630 275.033,264.815 274.311 C 264.999 273.590,265.626 271.740,266.207 270.200 C 266.788 268.660,267.411 266.810,267.592 266.089 C 267.773 265.367,268.098 264.557,268.314 264.289 C 268.531 264.020,268.841 263.170,269.005 262.400 C 269.168 261.630,269.549 260.645,269.851 260.211 C 270.153 259.777,270.401 259.057,270.402 258.611 C 270.404 258.165,270.668 257.296,270.989 256.680 C 271.311 256.064,271.749 254.984,271.962 254.280 C 272.525 252.427,273.563 249.527,273.994 248.600 C 274.199 248.160,274.559 247.043,274.794 246.117 C 275.029 245.191,275.397 244.326,275.611 244.193 C 275.825 244.061,276.006 243.558,276.014 243.076 C 276.021 242.594,276.375 241.480,276.800 240.600 C 277.225 239.720,277.579 238.719,277.586 238.376 C 277.594 238.034,277.864 237.404,278.187 236.976 C 278.510 236.549,278.780 235.837,278.787 235.394 C 278.794 234.951,279.160 233.916,279.600 233.096 C 280.040 232.275,280.400 231.314,280.400 230.962 C 280.400 230.609,280.640 229.754,280.934 229.060 C 281.460 227.819,281.966 226.456,282.849 223.900 C 283.096 223.185,283.540 222.060,283.835 221.400 C 284.131 220.740,284.495 219.660,284.646 219.000 C 284.796 218.340,285.163 217.445,285.460 217.011 C 285.757 216.577,286.001 215.857,286.002 215.411 C 286.004 214.965,286.268 214.096,286.589 213.480 C 286.911 212.864,287.348 211.784,287.561 211.080 C 287.775 210.376,288.690 207.730,289.594 205.200 C 290.499 202.670,291.484 199.880,291.784 199.000 C 292.450 197.039,295.424 188.737,297.292 183.621 C 298.051 181.543,298.926 179.770,299.236 179.681 C 299.546 179.592,301.150 178.886,302.800 178.112 C 304.450 177.338,306.610 176.345,307.600 175.905 C 308.590 175.465,309.670 174.945,310.000 174.750 C 310.330 174.555,310.870 174.294,311.200 174.172 C 312.035 173.861,315.274 172.354,316.000 171.938 C 316.330 171.749,316.870 171.481,317.200 171.341 C 317.530 171.202,319.240 170.417,321.000 169.597 C 324.620 167.910,327.341 166.661,331.400 164.821 C 332.940 164.124,334.830 163.267,335.600 162.918 C 336.370 162.569,337.270 162.129,337.600 161.940 C 337.930 161.752,338.650 161.411,339.200 161.183 C 339.750 160.954,341.280 160.255,342.600 159.628 C 345.569 158.217,348.284 156.974,349.600 156.422 C 350.150 156.191,350.870 155.848,351.200 155.660 C 351.530 155.471,352.430 155.038,353.200 154.697 C 356.021 153.447,361.840 150.718,363.279 149.969 C 364.093 149.546,365.386 149.200,366.152 149.200 C 367.441 149.200,367.535 149.117,367.400 148.100 C 367.320 147.495,367.243 146.865,367.228 146.700 C 367.212 146.535,366.979 146.445,366.709 146.500 C 366.440 146.555,366.157 146.195,366.082 145.700 C 365.951 144.846,365.218 144.566,363.665 144.778 C 363.297 144.828,363.212 144.592,363.393 144.024 C 363.570 143.466,363.453 143.119,363.035 142.958 C 362.545 142.770,362.506 142.550,362.849 141.909 C 363.211 141.233,363.110 140.948,362.249 140.208 C 361.680 139.719,361.313 139.220,361.434 139.100 C 361.555 138.979,361.326 138.907,360.927 138.940 C 360.440 138.980,360.239 138.768,360.318 138.300 C 360.398 137.823,360.174 137.600,359.618 137.600 C 359.076 137.600,358.800 137.339,358.800 136.827 C 358.800 136.402,358.469 135.949,358.065 135.821 C 357.547 135.656,357.350 135.241,357.399 134.415 C 357.457 133.443,357.357 133.302,356.814 133.592 C 356.269 133.884,356.144 133.697,356.067 132.471 C 356.017 131.662,355.743 130.820,355.459 130.600 C 355.174 130.380,354.716 129.840,354.441 129.400 C 354.091 128.842,354.003 128.805,354.149 129.280 C 354.294 129.749,354.184 129.892,353.792 129.742 C 353.480 129.622,353.239 129.406,353.256 129.262 C 353.353 128.429,352.652 127.282,352.161 127.470 C 351.742 127.631,351.600 127.309,351.600 126.194 C 351.600 124.913,351.515 124.773,351.000 125.200 C 350.362 125.730,350.223 125.439,350.379 123.903 C 350.427 123.424,350.255 123.281,349.827 123.445 C 349.142 123.708,348.357 122.190,348.705 121.276 C 348.819 120.976,348.541 120.657,348.056 120.531 C 347.590 120.409,347.297 120.166,347.405 119.992 C 347.513 119.817,347.271 119.761,346.867 119.867 C 346.401 119.988,346.106 119.829,346.057 119.429 C 346.015 119.083,345.947 118.478,345.905 118.085 C 345.850 117.568,345.492 117.374,344.614 117.385 C 343.289 117.401,343.200 117.299,343.200 115.757 C 343.200 114.979,343.358 114.775,343.821 114.953 C 344.177 115.089,344.337 115.022,344.197 114.795 C 344.063 114.578,343.674 114.400,343.334 114.400 C 342.938 114.400,342.801 114.176,342.953 113.779 C 343.090 113.421,343.023 113.262,342.792 113.405 C 342.317 113.698,341.122 112.612,341.502 112.232 C 341.646 112.087,341.382 111.868,340.913 111.745 C 340.355 111.599,340.109 111.270,340.202 110.791 C 340.311 110.226,340.099 110.064,339.271 110.080 C 337.240 110.120,337.201 110.080,337.168 107.900 C 337.151 106.745,337.046 106.026,336.934 106.302 C 336.641 107.029,336.000 106.497,336.000 105.527 C 336.000 104.799,336.082 104.766,336.700 105.251 C 337.334 105.749,337.349 105.734,336.851 105.100 C 336.549 104.715,335.975 104.400,335.575 104.400 C 334.735 104.400,334.040 103.520,334.704 103.299 C 335.683 102.972,333.921 101.682,332.748 101.867 C 331.578 102.052,331.082 101.168,332.027 100.583 C 332.262 100.438,332.354 100.058,332.232 99.739 C 332.107 99.415,332.184 99.266,332.405 99.403 C 332.622 99.537,332.800 99.457,332.800 99.224 C 332.800 98.991,332.530 98.800,332.200 98.800 C 331.870 98.800,331.600 98.632,331.600 98.427 C 331.600 98.222,331.237 97.939,330.794 97.798 C 330.351 97.657,330.088 97.381,330.211 97.183 C 330.333 96.985,329.989 96.437,329.447 95.966 C 328.877 95.470,328.556 94.858,328.688 94.516 C 328.830 94.146,328.279 93.341,327.224 92.377 C 326.294 91.527,325.652 90.640,325.796 90.406 C 325.941 90.172,325.911 90.006,325.730 90.037 C 324.827 90.194,324.400 89.925,324.400 89.200 C 324.400 88.760,324.220 88.400,324.000 88.400 C 323.780 88.400,323.600 88.209,323.600 87.976 C 323.600 87.743,323.808 87.681,324.062 87.838 C 324.357 88.021,324.415 87.947,324.222 87.635 C 324.056 87.367,323.837 87.230,323.736 87.331 C 323.490 87.577,321.781 85.848,321.471 85.040 C 321.336 84.688,320.949 84.400,320.613 84.400 C 320.276 84.400,320.000 84.226,320.000 84.013 C 320.000 83.799,320.315 83.720,320.700 83.835 C 321.194 83.983,321.135 83.847,320.500 83.374 C 320.005 83.004,319.600 82.364,319.600 81.951 C 319.600 81.528,319.319 81.200,318.957 81.200 C 318.550 81.200,318.399 80.980,318.545 80.600 C 318.701 80.192,318.523 80.000,317.987 80.000 C 317.527 80.000,317.175 79.709,317.139 79.300 C 317.106 78.915,317.052 78.330,317.020 78.000 C 316.989 77.670,316.746 77.445,316.481 77.500 C 316.217 77.555,316.000 77.446,316.000 77.258 C 316.000 77.071,315.547 76.428,314.993 75.831 C 314.440 75.233,314.080 74.594,314.194 74.410 C 314.308 74.225,314.041 74.169,313.601 74.284 C 312.993 74.443,312.800 74.297,312.800 73.675 C 312.800 73.225,312.574 72.619,312.297 72.329 C 310.458 70.394,309.598 69.035,309.804 68.388 C 309.930 67.992,309.847 67.553,309.621 67.413 C 309.376 67.262,309.306 67.410,309.447 67.779 C 309.631 68.257,309.404 68.400,308.466 68.400 C 307.317 68.400,307.239 68.301,307.123 66.700 C 307.039 65.546,306.830 65.035,306.470 65.110 C 306.179 65.170,306.045 65.051,306.173 64.844 C 306.300 64.637,306.230 64.408,306.015 64.334 C 305.801 64.260,305.580 63.600,305.525 62.867 C 305.431 61.619,304.414 60.520,303.862 61.071 C 303.729 61.205,303.336 61.079,302.991 60.792 C 302.486 60.373,302.464 60.197,302.881 59.898 C 303.257 59.628,303.205 59.587,302.696 59.751 C 301.438 60.156,299.636 59.587,299.862 58.856 C 300.031 58.310,299.966 58.321,299.473 58.921 C 299.114 59.358,298.822 59.466,298.732 59.195 C 298.650 58.950,297.819 58.646,296.886 58.521 C 295.659 58.356,295.219 58.124,295.295 57.681 C 295.375 57.216,294.966 57.049,293.600 56.984 C 290.788 56.852,290.703 56.830,290.906 56.300 C 291.038 55.954,290.527 55.762,289.248 55.678 C 286.293 55.482,284.628 55.001,284.973 54.443 C 285.066 54.293,284.680 54.131,284.115 54.085 C 283.550 54.038,282.830 53.685,282.514 53.300 C 282.199 52.915,282.053 52.823,282.191 53.095 C 282.356 53.421,282.230 53.509,281.823 53.354 C 281.483 53.223,281.304 52.955,281.426 52.758 C 281.803 52.148,280.527 52.365,280.000 53.000 C 279.726 53.330,279.299 53.597,279.051 53.594 C 278.755 53.590,278.740 53.487,279.008 53.294 C 279.261 53.111,279.065 52.627,278.488 52.014 C 277.884 51.373,277.651 51.268,277.823 51.714 C 278.103 52.446,277.418 52.677,276.996 51.993 C 276.858 51.770,276.577 51.691,276.372 51.817 C 276.168 51.944,276.000 51.857,276.000 51.624 C 276.000 51.390,275.213 51.200,274.243 51.200 C 272.535 51.200,271.407 50.317,272.522 49.853 C 272.785 49.744,272.439 49.750,271.752 49.867 C 270.793 50.030,270.307 49.867,269.650 49.162 C 268.966 48.427,268.696 48.344,268.298 48.746 C 267.900 49.147,267.940 49.194,268.500 48.981 C 268.885 48.834,269.200 48.886,269.200 49.095 C 269.200 49.416,268.460 49.458,266.676 49.240 C 266.498 49.218,266.464 49.020,266.600 48.800 C 266.753 48.552,266.004 48.400,264.624 48.400 C 262.770 48.400,262.401 48.283,262.406 47.700 C 262.411 47.096,262.470 47.082,262.837 47.600 C 263.214 48.133,263.243 48.133,263.099 47.600 C 263.010 47.270,262.501 46.939,261.969 46.864 C 261.436 46.788,260.643 46.428,260.207 46.064 C 259.460 45.439,259.446 45.441,259.956 46.100 C 260.435 46.718,260.397 46.800,259.631 46.800 C 259.030 46.800,258.801 46.587,258.882 46.105 C 258.980 45.527,258.661 45.399,257.000 45.351 C 255.900 45.319,254.955 45.249,254.900 45.196 C 254.626 44.933,253.721 44.985,253.070 45.303 C 252.505 45.580,252.293 45.478,252.129 44.852 C 251.976 44.265,251.519 44.005,250.459 43.905 C 249.023 43.768,249.016 43.759,250.000 43.308 C 251.147 42.783,251.101 42.742,249.200 42.591 C 246.550 42.380,245.011 42.033,244.872 41.617 C 244.796 41.388,244.223 41.200,243.600 41.200 C 242.977 41.200,242.376 40.975,242.265 40.700 C 242.104 40.300,242.057 40.300,242.032 40.700 C 241.995 41.276,240.400 41.394,240.400 40.820 C 240.400 40.611,240.715 40.256,241.100 40.032 C 241.649 39.712,241.399 39.622,239.943 39.612 C 238.669 39.604,238.013 39.411,237.855 39.000 C 237.729 38.670,237.394 38.414,237.113 38.432 C 236.711 38.456,236.708 38.507,237.100 38.665 C 237.796 38.946,237.727 39.600,237.000 39.600 C 236.670 39.600,236.400 39.258,236.400 38.840 C 236.400 38.216,236.154 38.102,235.032 38.207 C 234.104 38.293,233.456 38.104,233.018 37.620 C 232.560 37.114,231.783 36.907,230.343 36.907 C 228.516 36.907,227.360 36.325,227.785 35.619 C 227.857 35.499,226.900 35.351,225.658 35.291 C 224.239 35.223,223.235 34.963,222.956 34.591 C 222.689 34.236,221.850 34.000,220.856 34.000 C 219.467 34.000,219.200 33.871,219.200 33.200 C 219.200 32.760,219.065 32.421,218.900 32.447 C 218.026 32.585,214.275 32.307,214.700 32.135 C 214.975 32.024,215.200 31.758,215.200 31.543 C 215.200 31.328,215.020 31.264,214.800 31.400 C 214.580 31.536,214.400 31.472,214.400 31.259 C 214.400 31.038,213.536 30.938,212.400 31.027 C 211.227 31.119,210.400 31.018,210.400 30.783 C 210.400 30.563,209.950 30.178,209.400 29.927 C 208.850 29.677,208.400 29.310,208.400 29.112 C 208.400 28.915,208.580 28.864,208.800 29.000 C 209.020 29.136,209.200 29.044,209.200 28.797 C 209.200 28.519,208.873 28.450,208.350 28.616 C 207.743 28.808,207.585 28.748,207.797 28.404 C 207.997 28.080,207.850 27.973,207.347 28.077 C 206.936 28.161,206.619 28.502,206.642 28.835 C 206.669 29.227,206.274 29.470,205.512 29.528 C 204.534 29.602,204.380 29.494,204.577 28.874 C 204.780 28.234,204.574 28.121,203.106 28.066 L 201.400 28.001 201.482 69.101 M193.600 29.200 C 193.365 29.640,192.908 30.000,192.586 30.000 C 192.264 30.000,192.000 30.180,192.000 30.400 C 192.000 31.018,192.612 30.874,193.277 30.100 C 194.055 29.195,194.504 28.400,194.238 28.400 C 194.122 28.400,193.835 28.760,193.600 29.200 M165.762 38.862 L 165.000 39.724 166.100 39.016 C 167.234 38.286,167.449 38.000,166.862 38.000 C 166.676 38.000,166.181 38.388,165.762 38.862 M142.400 46.200 C 142.122 46.535,142.079 46.800,142.302 46.800 C 142.522 46.800,142.926 46.530,143.200 46.200 C 143.478 45.865,143.521 45.600,143.298 45.600 C 143.078 45.600,142.674 45.870,142.400 46.200 M263.600 47.267 C 263.600 47.523,263.718 47.615,263.863 47.470 C 264.008 47.325,264.368 47.407,264.663 47.652 C 265.001 47.933,265.200 47.947,265.200 47.692 C 265.200 47.468,264.915 47.176,264.567 47.043 C 263.697 46.709,263.600 46.732,263.600 47.267 M328.222 93.635 C 328.369 93.874,328.333 94.227,328.142 94.418 C 327.669 94.891,326.628 94.203,326.972 93.645 C 327.322 93.079,327.876 93.075,328.222 93.635 M75.200 94.000 C 75.200 94.220,74.947 94.400,74.637 94.400 C 74.272 94.400,74.148 94.680,74.284 95.200 C 74.572 96.302,75.705 96.199,76.251 95.021 C 76.613 94.239,76.587 94.004,76.118 93.824 C 75.317 93.516,75.200 93.539,75.200 94.000 M70.511 99.249 C 70.264 99.496,70.151 99.927,70.259 100.208 C 70.366 100.489,70.262 100.838,70.026 100.984 C 69.727 101.169,69.723 101.483,70.013 102.024 C 70.739 103.381,71.217 102.864,71.144 100.800 C 71.105 99.700,71.048 98.800,71.017 98.800 C 70.985 98.800,70.758 99.002,70.511 99.249 M64.350 107.413 C 64.323 107.516,64.278 107.772,64.250 107.983 C 64.223 108.193,63.860 108.614,63.445 108.918 C 63.030 109.221,62.790 109.724,62.913 110.035 C 63.078 110.451,63.145 110.416,63.168 109.900 C 63.186 109.515,63.391 109.200,63.624 109.200 C 63.857 109.200,63.952 109.354,63.836 109.542 C 63.720 109.729,64.069 110.085,64.613 110.333 C 65.599 110.782,65.880 110.514,65.591 109.400 C 65.534 109.180,65.500 108.700,65.516 108.332 C 65.542 107.750,64.483 106.915,64.350 107.413 M39.969 140.700 C 39.786 142.495,39.282 143.698,38.830 143.419 C 38.624 143.291,38.354 143.351,38.230 143.552 C 38.106 143.752,38.274 144.019,38.602 144.146 C 38.931 144.272,39.200 144.201,39.200 143.987 C 39.200 143.774,39.380 143.600,39.600 143.600 C 39.820 143.600,39.955 143.814,39.900 144.076 C 39.845 144.338,40.115 144.621,40.500 144.706 C 41.089 144.834,41.200 144.561,41.200 142.987 C 41.200 141.377,41.102 141.149,40.500 141.358 C 39.916 141.561,39.929 141.502,40.576 141.001 C 41.255 140.476,41.267 140.400,40.676 140.400 C 40.304 140.400,39.986 140.535,39.969 140.700 M36.896 203.300 L 37.000 258.200 38.300 258.099 C 39.639 257.994,39.833 258.518,39.707 261.900 C 39.683 262.548,40.278 262.548,40.520 261.900 C 40.701 261.415,40.839 261.654,41.397 263.425 C 41.506 263.769,41.776 263.939,41.997 263.802 C 42.235 263.655,42.400 264.065,42.400 264.800 C 42.400 265.650,42.549 265.955,42.868 265.758 C 43.191 265.558,43.253 265.705,43.067 266.234 C 42.813 266.958,42.828 266.961,43.352 266.287 C 43.990 265.467,44.713 267.157,44.135 268.118 C 43.960 268.411,44.112 268.385,44.523 268.051 C 45.181 267.518,45.454 267.989,45.247 269.300 C 45.221 269.465,45.557 269.600,45.992 269.600 C 46.504 269.600,46.874 269.954,47.036 270.600 C 47.174 271.150,47.537 271.600,47.843 271.600 C 48.150 271.600,48.400 271.791,48.400 272.024 C 48.400 272.257,48.192 272.319,47.938 272.162 C 47.643 271.979,47.585 272.053,47.779 272.365 C 47.945 272.634,48.330 272.759,48.634 272.642 C 49.242 272.409,50.174 273.795,49.808 274.387 C 49.682 274.591,49.943 274.688,50.389 274.602 C 51.032 274.478,51.200 274.657,51.200 275.466 C 51.200 276.265,51.048 276.432,50.500 276.238 C 50.080 276.089,50.195 276.299,50.789 276.763 C 51.333 277.189,51.945 277.434,52.151 277.307 C 52.356 277.180,52.403 277.272,52.255 277.511 C 52.108 277.749,52.182 278.065,52.421 278.213 C 52.659 278.360,52.754 278.742,52.632 279.061 C 52.507 279.385,52.584 279.534,52.805 279.397 C 53.022 279.263,53.200 279.354,53.200 279.600 C 53.200 279.846,53.380 279.936,53.600 279.800 C 53.831 279.657,54.000 280.040,54.000 280.710 C 54.000 282.163,54.354 282.533,55.138 281.897 C 55.652 281.480,55.707 281.514,55.484 282.109 C 55.311 282.570,55.529 283.129,56.107 283.707 C 56.596 284.196,56.944 284.822,56.880 285.098 C 56.817 285.375,57.132 285.600,57.582 285.600 C 58.096 285.600,58.400 285.862,58.400 286.304 C 58.400 286.691,58.770 287.238,59.222 287.521 C 59.799 287.881,59.967 288.275,59.786 288.845 C 59.592 289.457,59.739 289.711,60.385 289.880 C 60.929 290.022,61.326 290.530,61.475 291.274 C 61.622 292.008,61.901 292.370,62.225 292.246 C 62.509 292.137,62.955 292.305,63.216 292.619 C 63.477 292.934,63.850 293.093,64.045 292.972 C 64.240 292.851,64.400 292.943,64.400 293.176 C 64.400 293.409,64.214 293.600,63.986 293.600 C 63.706 293.600,63.701 293.841,63.972 294.347 C 64.192 294.758,64.243 295.237,64.086 295.412 C 63.929 295.586,63.999 295.615,64.242 295.476 C 65.078 295.000,67.257 297.396,67.122 298.645 C 67.006 299.728,67.068 299.774,68.489 299.660 C 69.954 299.543,69.977 299.563,69.925 300.935 C 69.880 302.137,69.795 302.252,69.308 301.765 C 68.997 301.454,68.671 301.200,68.584 301.200 C 68.264 301.200,68.897 302.402,69.243 302.450 C 69.439 302.478,69.780 302.545,70.000 302.600 C 70.220 302.655,70.580 302.723,70.800 302.750 C 71.463 302.833,71.250 303.528,70.500 303.728 C 69.914 303.885,69.950 303.963,70.723 304.210 C 71.273 304.386,71.561 304.724,71.437 305.048 C 71.322 305.346,71.357 305.571,71.514 305.548 C 72.391 305.417,72.800 305.688,72.800 306.400 C 72.800 306.858,73.067 307.200,73.424 307.200 C 73.767 307.200,73.934 307.383,73.796 307.607 C 73.658 307.830,73.332 307.891,73.072 307.742 C 72.813 307.594,72.740 307.626,72.912 307.814 C 73.450 308.405,74.400 308.356,74.400 307.736 C 74.400 307.215,74.473 307.216,75.000 307.743 C 75.887 308.630,75.754 309.303,74.753 308.985 C 74.147 308.793,73.956 308.867,74.082 309.247 C 74.180 309.539,74.625 309.873,75.072 309.989 C 75.549 310.113,75.842 310.478,75.782 310.874 C 75.725 311.244,76.066 311.874,76.539 312.274 L 77.400 313.000 76.638 312.100 C 76.219 311.605,76.053 311.200,76.270 311.200 C 76.828 311.200,77.746 313.039,77.438 313.538 C 77.294 313.771,78.062 314.356,79.191 314.874 C 80.296 315.381,81.219 315.976,81.243 316.198 C 81.267 316.419,81.337 317.230,81.400 318.000 C 81.579 320.199,81.591 320.233,81.984 319.612 C 82.456 318.867,82.864 319.261,82.941 320.536 C 82.973 321.079,83.124 321.447,83.275 321.353 C 83.427 321.260,83.697 321.412,83.875 321.692 C 84.054 321.971,84.539 322.387,84.954 322.615 C 85.817 323.089,85.834 323.827,84.981 323.745 C 84.666 323.715,84.512 323.857,84.638 324.061 C 84.764 324.266,85.235 324.316,85.684 324.173 C 86.228 324.001,86.409 324.062,86.226 324.357 C 86.076 324.601,86.158 324.800,86.410 324.800 C 86.661 324.800,86.792 325.024,86.701 325.298 C 86.609 325.572,87.046 326.307,87.670 326.932 C 88.295 327.556,88.712 328.219,88.597 328.405 C 88.482 328.590,88.751 328.857,89.194 328.998 C 89.882 329.216,90.221 330.113,90.056 331.275 C 90.034 331.427,90.377 331.481,90.819 331.396 C 91.260 331.311,91.532 331.387,91.422 331.565 C 90.980 332.280,92.255 334.015,93.537 334.441 C 94.470 334.752,94.747 335.013,94.454 335.306 C 94.161 335.599,93.818 335.556,93.317 335.163 C 92.661 334.648,92.647 334.660,93.160 335.313 C 93.468 335.706,93.918 335.958,94.160 335.874 C 94.782 335.658,95.977 337.584,95.702 338.357 C 95.576 338.711,95.615 338.871,95.789 338.714 C 96.237 338.309,97.675 339.156,97.371 339.647 C 97.233 339.870,97.453 340.325,97.860 340.656 C 98.267 340.988,98.387 341.153,98.128 341.023 C 97.868 340.893,97.525 340.998,97.366 341.255 C 97.192 341.537,97.249 341.617,97.511 341.455 C 97.749 341.308,98.058 341.370,98.196 341.593 C 98.559 342.181,99.295 342.095,98.994 341.500 C 98.855 341.225,99.019 341.343,99.360 341.762 C 99.986 342.533,101.056 341.194,100.529 340.300 C 100.432 340.135,100.526 340.000,100.737 340.000 C 100.948 340.000,101.488 339.415,101.938 338.700 C 102.866 337.223,105.008 334.188,105.626 333.476 C 105.854 333.214,106.615 332.158,107.320 331.129 C 109.432 328.041,113.556 322.284,117.817 316.476 C 122.285 310.384,123.677 308.439,126.600 304.199 C 127.700 302.604,130.474 298.711,132.764 295.549 C 135.055 292.387,137.553 288.900,138.316 287.800 C 139.079 286.700,140.013 285.440,140.392 285.000 C 141.850 283.306,141.863 283.372,138.199 273.400 C 137.391 271.200,136.484 268.680,136.185 267.800 C 135.617 266.129,132.029 256.056,130.770 252.600 C 130.370 251.500,129.412 248.800,128.642 246.600 C 127.872 244.400,126.495 240.530,125.583 238.000 C 124.671 235.470,123.605 232.500,123.215 231.400 C 122.824 230.300,121.564 226.790,120.414 223.600 C 119.264 220.410,117.714 216.090,116.970 214.000 C 116.226 211.910,115.152 208.940,114.584 207.400 C 114.015 205.860,113.395 204.060,113.206 203.400 C 112.803 201.995,110.676 196.220,109.570 193.526 C 109.146 192.495,108.800 191.316,108.800 190.906 C 108.800 190.496,108.635 189.989,108.432 189.780 C 108.230 189.571,107.401 187.420,106.590 185.000 C 104.773 179.582,105.015 179.867,100.404 177.695 C 95.891 175.570,91.256 173.397,87.400 171.600 C 85.860 170.882,83.160 169.622,81.400 168.800 C 74.063 165.372,72.899 164.833,70.800 163.885 C 69.590 163.339,66.800 162.041,64.600 161.000 C 59.469 158.573,55.965 156.939,46.600 152.604 C 42.420 150.669,38.829 148.932,38.620 148.743 C 36.687 146.999,36.783 143.955,36.896 203.300 M363.200 258.800 C 363.200 259.668,363.495 259.781,364.351 259.239 C 364.997 258.830,364.611 258.000,363.776 258.000 C 363.459 258.000,363.200 258.360,363.200 258.800 M361.778 261.235 C 361.631 261.474,361.736 261.879,362.014 262.135 C 362.400 262.491,362.451 262.483,362.235 262.100 C 362.080 261.825,362.143 261.600,362.376 261.600 C 362.609 261.600,362.800 261.420,362.800 261.200 C 362.800 260.666,362.116 260.689,361.778 261.235 M358.153 265.193 C 357.391 265.501,357.242 266.109,357.549 267.657 C 357.620 268.016,358.800 268.437,358.748 268.086 C 358.581 266.969,358.859 266.446,359.500 266.671 C 360.050 266.865,360.100 266.809,359.731 266.410 C 359.473 266.131,359.358 265.654,359.474 265.351 C 359.712 264.732,359.390 264.693,358.153 265.193 M354.196 272.407 C 354.058 272.630,353.793 272.719,353.607 272.605 C 353.422 272.490,353.303 272.622,353.344 272.898 C 353.435 273.516,353.863 273.723,354.510 273.462 C 354.860 273.320,354.843 273.254,354.451 273.232 C 354.009 273.206,353.999 273.084,354.400 272.600 C 354.674 272.270,354.797 272.000,354.673 272.000 C 354.549 272.000,354.334 272.183,354.196 272.407 M351.646 275.933 C 351.597 276.935,352.437 276.969,352.705 275.975 C 352.837 275.489,352.801 275.486,352.471 275.958 C 352.153 276.413,352.045 276.376,351.887 275.758 C 351.728 275.136,351.684 275.167,351.646 275.933 M347.266 281.858 C 347.295 283.259,347.398 283.548,347.685 283.033 C 347.895 282.658,347.961 282.047,347.832 281.676 C 347.620 281.063,347.648 281.064,348.138 281.693 C 348.627 282.321,348.682 282.273,348.713 281.193 C 348.739 280.276,348.571 280.000,347.988 280.000 C 347.347 280.000,347.235 280.287,347.266 281.858 M344.800 285.600 C 345.349 285.955,345.079 286.178,344.270 286.037 C 344.089 286.006,344.060 286.173,344.206 286.410 C 344.392 286.711,344.638 286.700,345.031 286.374 C 345.641 285.868,345.437 285.196,344.676 285.206 C 344.390 285.210,344.439 285.367,344.800 285.600 M341.600 289.024 C 341.600 289.367,341.765 289.545,341.966 289.421 C 342.167 289.297,342.423 289.421,342.534 289.698 C 342.646 289.974,342.751 289.795,342.768 289.300 C 342.788 288.753,342.565 288.400,342.200 288.400 C 341.870 288.400,341.600 288.681,341.600 289.024 M339.708 291.749 C 339.581 291.955,339.691 291.991,339.954 291.828 C 340.298 291.616,340.371 291.850,340.214 292.666 C 340.094 293.290,340.113 293.530,340.256 293.200 C 340.400 292.870,340.761 292.456,341.059 292.280 C 341.356 292.104,341.600 291.800,341.600 291.605 C 341.600 291.142,340.008 291.263,339.708 291.749 M336.579 297.566 C 336.703 297.767,336.579 298.023,336.302 298.134 C 335.999 298.256,336.078 298.349,336.500 298.368 C 336.885 298.386,337.200 298.130,337.200 297.800 C 337.200 297.470,337.009 297.200,336.776 297.200 C 336.543 297.200,336.455 297.365,336.579 297.566 M333.200 300.800 C 333.200 301.240,333.410 301.600,333.667 301.600 C 333.923 301.600,334.015 301.482,333.870 301.337 C 333.725 301.192,333.807 300.832,334.052 300.537 C 334.394 300.125,334.347 300.000,333.849 300.000 C 333.467 300.000,333.200 300.329,333.200 300.800 M332.281 303.437 C 331.886 303.967,331.729 304.400,331.932 304.400 C 332.451 304.400,333.304 303.304,333.138 302.850 C 333.062 302.643,332.677 302.907,332.281 303.437 M327.200 308.219 C 327.200 309.862,327.590 309.942,329.042 308.596 C 330.276 307.452,330.188 307.216,328.443 306.995 C 327.262 306.846,327.200 306.907,327.200 308.219 M324.412 313.547 C 324.403 314.288,324.230 314.449,323.614 314.288 C 323.079 314.148,322.751 314.324,322.587 314.841 C 322.454 315.258,322.199 315.600,322.020 315.600 C 321.840 315.600,321.599 316.092,321.484 316.692 C 321.301 317.652,321.337 317.700,321.782 317.092 C 322.060 316.712,322.504 316.400,322.768 316.400 C 323.031 316.400,323.136 316.220,323.000 316.000 C 322.864 315.780,322.898 315.594,323.076 315.587 C 324.040 315.547,325.240 314.001,324.840 313.314 C 324.468 312.675,324.423 312.699,324.412 313.547 M317.316 321.567 C 316.675 322.041,316.823 322.800,317.557 322.800 C 318.158 322.800,318.800 322.095,318.800 321.434 C 318.800 321.234,317.624 321.339,317.316 321.567 M315.722 326.229 L 314.600 327.258 315.900 326.354 C 316.615 325.857,317.200 325.393,317.200 325.325 C 317.200 325.009,316.758 325.280,315.722 326.229 M309.191 333.609 C 308.297 334.503,308.151 335.250,308.900 335.100 C 309.175 335.045,309.351 335.238,309.290 335.530 C 309.230 335.821,309.373 335.940,309.610 335.794 C 309.911 335.608,309.899 335.360,309.570 334.964 C 309.203 334.521,309.231 334.400,309.702 334.400 C 310.032 334.400,310.509 334.151,310.761 333.847 C 311.535 332.915,310.102 332.698,309.191 333.609 M307.364 336.237 C 307.492 337.106,307.852 337.260,308.351 336.659 C 308.720 336.214,308.657 336.056,308.051 335.897 C 307.557 335.768,307.313 335.889,307.364 336.237 M306.612 339.180 C 306.465 339.418,306.177 339.509,305.972 339.383 C 305.768 339.256,305.600 339.343,305.600 339.576 C 305.600 339.809,305.859 340.000,306.176 340.000 C 306.793 340.000,307.412 339.279,307.080 338.947 C 306.970 338.837,306.760 338.942,306.612 339.180 M257.600 357.933 C 257.600 358.190,257.195 358.421,256.700 358.446 C 255.959 358.485,255.931 358.527,256.542 358.684 C 257.340 358.889,258.325 358.191,257.873 357.740 C 257.723 357.590,257.600 357.677,257.600 357.933 " stroke="none" fill="#ebdb4c" fill-rule="evenodd"></path><path id="path2" d="M204.643 28.633 C 204.277 29.586,204.311 29.620,205.541 29.526 C 206.424 29.458,206.640 29.275,206.495 28.719 C 206.263 27.831,204.973 27.771,204.643 28.633 M252.000 44.533 C 252.000 44.827,252.114 45.180,252.253 45.319 C 252.598 45.664,254.000 44.876,254.000 44.337 C 254.000 44.069,253.741 44.112,253.323 44.451 C 252.863 44.824,252.743 44.840,252.947 44.500 C 253.136 44.185,253.016 44.000,252.624 44.000 C 252.281 44.000,252.000 44.240,252.000 44.533 M307.200 67.067 C 307.200 68.273,307.311 68.400,308.367 68.400 C 309.008 68.400,309.624 68.625,309.735 68.900 C 309.887 69.276,309.945 69.267,309.968 68.863 C 309.986 68.567,309.625 68.227,309.166 68.107 C 308.532 67.941,308.460 67.808,308.866 67.551 C 309.266 67.297,309.274 67.211,308.900 67.206 C 308.625 67.203,308.400 66.870,308.400 66.467 C 308.400 66.063,308.130 65.733,307.800 65.733 C 307.387 65.733,307.200 66.148,307.200 67.067 M332.064 100.496 C 331.288 101.272,331.532 101.997,332.541 101.913 C 333.236 101.856,333.432 101.646,333.293 101.111 C 333.039 100.141,332.626 99.934,332.064 100.496 M337.200 108.586 C 337.200 109.364,337.335 110.015,337.500 110.033 C 337.665 110.052,338.199 110.111,338.686 110.165 C 339.174 110.220,339.804 110.118,340.086 109.938 C 340.469 109.696,340.428 109.611,339.927 109.606 C 339.557 109.603,339.140 109.240,339.000 108.800 C 338.477 107.153,337.200 107.002,337.200 108.586 M343.045 116.628 C 342.820 117.213,343.137 117.600,343.842 117.600 C 344.121 117.600,344.325 117.270,344.295 116.867 C 344.233 116.041,343.336 115.869,343.045 116.628 M363.447 143.823 C 363.097 144.734,363.112 144.757,364.000 144.690 C 364.937 144.619,365.017 144.278,364.247 143.639 C 363.818 143.283,363.638 143.325,363.447 143.823 M363.200 149.988 C 361.887 150.694,356.331 153.310,353.200 154.697 C 352.430 155.038,351.530 155.471,351.200 155.660 C 350.870 155.848,350.150 156.191,349.600 156.422 C 348.284 156.974,345.569 158.217,342.600 159.628 C 341.280 160.255,339.750 160.954,339.200 161.183 C 338.650 161.411,337.930 161.752,337.600 161.940 C 337.270 162.129,336.370 162.569,335.600 162.918 C 334.830 163.267,332.940 164.124,331.400 164.821 C 322.704 168.761,317.437 171.215,316.800 171.622 C 316.470 171.833,315.930 172.106,315.600 172.228 C 314.765 172.539,311.526 174.046,310.800 174.462 C 310.470 174.651,309.930 174.908,309.600 175.035 C 308.759 175.357,306.312 176.464,302.800 178.112 C 301.150 178.886,299.546 179.592,299.236 179.681 C 298.926 179.770,298.051 181.543,297.292 183.621 C 295.424 188.737,292.450 197.039,291.784 199.000 C 291.484 199.880,290.499 202.670,289.594 205.200 C 288.690 207.730,287.775 210.376,287.561 211.080 C 287.348 211.784,286.911 212.864,286.589 213.480 C 286.268 214.096,286.004 214.965,286.002 215.411 C 286.001 215.857,285.757 216.577,285.460 217.011 C 285.163 217.445,284.796 218.340,284.646 219.000 C 284.495 219.660,284.131 220.740,283.835 221.400 C 283.540 222.060,283.096 223.185,282.849 223.900 C 281.966 226.456,281.460 227.819,280.934 229.060 C 280.640 229.754,280.400 230.609,280.400 230.962 C 280.400 231.314,280.040 232.275,279.600 233.096 C 279.160 233.916,278.794 234.951,278.787 235.394 C 278.780 235.837,278.510 236.549,278.187 236.976 C 277.864 237.404,277.594 238.034,277.586 238.376 C 277.579 238.719,277.225 239.720,276.800 240.600 C 276.375 241.480,276.021 242.594,276.014 243.076 C 276.006 243.558,275.825 244.061,275.611 244.193 C 275.397 244.326,275.029 245.191,274.794 246.117 C 274.559 247.043,274.199 248.160,273.994 248.600 C 273.563 249.527,272.525 252.427,271.962 254.280 C 271.749 254.984,271.311 256.064,270.989 256.680 C 270.668 257.296,270.404 258.165,270.402 258.611 C 270.401 259.057,270.153 259.777,269.851 260.211 C 269.549 260.645,269.168 261.630,269.005 262.400 C 268.841 263.170,268.531 264.020,268.314 264.289 C 268.098 264.557,267.773 265.367,267.592 266.089 C 267.411 266.810,266.788 268.660,266.207 270.200 C 265.626 271.740,264.999 273.590,264.815 274.311 C 264.630 275.033,264.302 275.843,264.086 276.111 C 263.869 276.380,263.564 277.230,263.407 278.000 C 263.250 278.770,262.869 279.799,262.561 280.286 C 261.479 281.996,262.045 283.527,265.412 288.000 C 266.323 289.210,267.233 290.490,267.434 290.845 C 267.635 291.200,268.299 292.100,268.908 292.845 C 269.518 293.590,270.558 295.010,271.219 296.000 C 271.881 296.990,273.407 299.150,274.612 300.800 C 275.817 302.450,277.427 304.700,278.190 305.800 C 278.952 306.900,280.650 309.240,281.962 311.000 C 283.274 312.760,285.176 315.370,286.189 316.800 C 287.202 318.230,288.825 320.480,289.796 321.800 C 290.768 323.120,292.190 325.100,292.958 326.200 C 293.726 327.300,295.219 329.402,296.277 330.870 C 297.335 332.339,299.229 334.980,300.487 336.739 C 301.745 338.499,303.140 340.054,303.587 340.196 C 304.034 340.338,304.400 340.712,304.400 341.027 C 304.400 341.478,304.556 341.451,305.131 340.900 C 305.533 340.515,305.775 339.930,305.667 339.600 C 305.560 339.270,305.613 339.126,305.784 339.281 C 306.325 339.769,307.243 338.464,307.320 337.097 C 307.384 335.979,307.544 335.785,308.397 335.792 C 308.989 335.797,309.359 335.595,309.300 335.300 C 309.245 335.025,309.410 334.800,309.667 334.800 C 309.923 334.800,310.018 334.684,309.876 334.543 C 309.735 334.402,309.345 334.514,309.010 334.792 C 308.259 335.415,308.210 334.812,308.932 333.825 C 309.225 333.425,309.900 333.075,310.432 333.049 C 310.964 333.022,311.400 332.783,311.400 332.517 C 311.400 332.252,311.712 331.802,312.093 331.517 C 312.473 331.233,312.844 330.600,312.916 330.110 C 312.987 329.621,313.200 329.081,313.387 328.910 C 313.575 328.739,313.575 328.869,313.387 329.200 C 313.093 329.717,313.140 329.724,313.723 329.251 C 314.095 328.949,314.400 328.377,314.400 327.980 C 314.400 327.583,315.015 326.750,315.766 326.129 C 316.983 325.124,317.120 324.813,317.016 323.300 C 316.896 321.552,316.994 321.451,318.741 321.529 C 319.362 321.557,319.752 321.304,319.888 320.786 C 320.001 320.353,320.353 320.000,320.670 320.000 C 320.988 320.000,321.136 319.820,321.000 319.600 C 320.864 319.380,320.932 319.200,321.151 319.200 C 321.371 319.200,321.540 318.488,321.528 317.618 C 321.515 316.670,321.765 315.778,322.153 315.390 C 322.509 315.034,322.800 314.593,322.800 314.409 C 322.800 314.225,323.160 314.169,323.600 314.284 C 324.231 314.449,324.403 314.294,324.414 313.547 L 324.428 312.600 325.000 313.600 C 325.314 314.150,325.593 314.420,325.619 314.200 C 325.645 313.980,325.743 313.350,325.837 312.800 C 325.931 312.250,326.036 311.592,326.070 311.338 C 326.105 311.084,326.405 310.980,326.736 311.108 C 327.174 311.275,327.268 311.155,327.082 310.669 C 326.905 310.208,327.039 309.990,327.513 309.968 C 327.930 309.949,328.003 309.858,327.700 309.735 C 326.358 309.193,327.140 306.829,328.600 307.016 C 329.914 307.184,330.214 306.953,330.047 305.900 C 330.021 305.735,330.371 305.600,330.824 305.600 C 331.277 305.600,331.553 305.447,331.437 305.260 C 331.321 305.073,331.671 304.318,332.213 303.582 C 332.756 302.846,333.200 301.740,333.200 301.122 C 333.200 300.052,333.990 299.683,335.700 299.953 C 335.865 299.979,336.000 299.550,336.000 299.000 C 336.000 298.450,336.191 298.000,336.424 298.000 C 336.657 298.000,336.736 297.820,336.600 297.600 C 336.464 297.380,336.543 297.200,336.776 297.200 C 337.009 297.200,337.200 296.840,337.200 296.400 C 337.200 295.867,337.467 295.600,338.000 295.600 C 338.704 295.600,339.013 294.991,338.852 293.914 C 338.829 293.757,339.077 293.732,339.405 293.857 C 339.771 293.998,340.000 293.851,340.000 293.476 C 340.000 293.140,340.121 292.551,340.268 292.167 C 340.465 291.653,340.396 291.555,340.006 291.796 C 339.654 292.014,339.572 291.969,339.762 291.662 C 339.919 291.408,340.397 291.200,340.824 291.200 C 341.251 291.200,341.600 290.930,341.600 290.600 C 341.600 290.270,341.780 290.000,342.000 290.000 C 342.220 290.000,342.400 289.809,342.400 289.576 C 342.400 289.343,342.220 289.264,342.000 289.400 C 341.780 289.536,341.600 289.355,341.600 288.998 C 341.600 288.620,341.892 288.379,342.300 288.421 C 343.804 288.574,344.260 288.426,343.600 288.000 C 343.223 287.756,343.181 287.610,343.486 287.606 C 343.753 287.603,344.176 287.218,344.426 286.752 C 344.738 286.168,344.744 285.987,344.444 286.173 C 344.171 286.341,344.100 286.206,344.252 285.809 C 344.407 285.404,344.766 285.262,345.247 285.415 C 345.819 285.596,346.000 285.455,346.000 284.827 C 346.000 284.359,346.260 284.000,346.600 284.000 C 347.193 284.000,347.353 283.263,347.218 281.155 C 347.159 280.225,347.332 280.081,348.794 279.847 C 349.698 279.703,350.334 279.417,350.208 279.212 C 350.081 279.008,350.343 278.645,350.789 278.406 C 351.357 278.102,351.600 277.569,351.600 276.623 C 351.600 275.439,351.705 275.302,352.463 275.501 C 353.191 275.691,353.291 275.591,353.101 274.863 C 352.976 274.388,353.028 274.000,353.214 274.000 C 353.401 274.000,353.482 273.624,353.393 273.164 C 353.258 272.465,353.329 272.409,353.826 272.821 C 354.152 273.092,354.535 273.198,354.676 273.057 C 354.818 272.916,354.678 272.794,354.367 272.787 C 353.963 272.778,354.018 272.610,354.559 272.200 C 354.976 271.884,355.471 271.720,355.659 271.836 C 355.847 271.952,356.000 271.394,356.000 270.597 C 356.000 269.328,356.100 269.178,356.800 269.400 C 357.368 269.580,357.600 269.472,357.600 269.027 C 357.600 268.682,357.825 268.397,358.100 268.394 C 358.463 268.389,358.449 268.292,358.050 268.039 C 356.381 266.982,357.929 264.337,359.797 265.054 C 360.180 265.201,360.400 265.051,360.400 264.643 C 360.400 264.289,360.658 264.000,360.973 264.000 C 361.648 264.000,362.119 262.775,361.782 261.897 C 361.473 261.092,362.385 260.533,362.839 261.249 C 363.066 261.608,363.190 261.137,363.194 259.896 L 363.200 257.992 364.611 258.167 C 365.764 258.310,366.002 258.220,365.911 257.671 C 365.839 257.236,366.116 256.955,366.700 256.872 L 367.600 256.744 367.600 202.972 L 367.600 149.200 366.100 149.218 C 365.275 149.227,363.970 149.574,363.200 149.988 M62.792 293.185 C 63.204 293.956,64.400 293.917,64.400 293.134 C 64.400 292.924,64.232 292.856,64.028 292.983 C 63.823 293.109,63.542 293.030,63.404 292.807 C 62.922 292.027,62.359 292.375,62.792 293.185 M68.400 300.400 C 68.400 300.933,68.667 301.200,69.200 301.200 C 69.733 301.200,70.000 300.933,70.000 300.400 C 70.000 299.867,69.733 299.600,69.200 299.600 C 68.667 299.600,68.400 299.867,68.400 300.400 M92.981 335.100 C 93.044 335.500,93.372 335.750,93.745 335.682 C 94.105 335.618,94.400 335.824,94.400 336.140 C 94.400 336.456,94.671 336.818,95.001 336.945 C 95.513 337.142,95.507 337.029,94.955 336.188 C 94.599 335.645,94.464 335.197,94.654 335.194 C 95.169 335.185,93.877 334.413,93.335 334.406 C 93.080 334.403,92.920 334.715,92.981 335.100 " stroke="none" fill="#cbbb33" fill-rule="evenodd"></path><path id="path3" d="M195.200 28.299 C 194.870 28.417,194.150 29.036,193.600 29.675 C 192.866 30.527,192.175 30.870,191.000 30.964 C 190.120 31.034,189.085 31.116,188.700 31.146 C 188.315 31.175,188.000 31.470,188.000 31.800 C 188.000 32.255,187.507 32.400,185.963 32.400 C 184.262 32.400,183.891 32.532,183.716 33.200 C 183.547 33.844,183.170 34.000,181.782 34.000 C 180.751 34.000,179.806 34.252,179.432 34.625 C 179.088 34.969,178.107 35.260,177.252 35.272 C 175.615 35.294,174.705 35.651,174.772 36.245 C 174.794 36.440,173.957 36.657,172.912 36.726 C 171.703 36.806,170.760 37.122,170.320 37.593 C 169.854 38.094,169.259 38.277,168.488 38.155 C 167.687 38.029,167.127 38.217,166.611 38.788 C 166.065 39.391,165.378 39.600,163.938 39.600 C 162.156 39.600,161.825 39.802,161.928 40.827 C 161.941 40.951,161.110 41.097,160.081 41.150 C 159.053 41.203,157.925 41.506,157.574 41.823 C 157.224 42.140,156.221 42.400,155.345 42.400 C 154.469 42.400,153.404 42.683,152.976 43.030 C 152.549 43.376,152.470 43.527,152.800 43.366 C 153.153 43.193,153.263 43.222,153.067 43.436 C 152.681 43.858,152.547 43.883,150.376 43.950 C 149.260 43.984,148.842 44.144,149.038 44.462 C 149.224 44.762,149.147 44.814,148.817 44.611 C 148.538 44.438,148.196 44.480,148.055 44.704 C 147.915 44.928,146.902 45.232,145.805 45.380 C 144.707 45.527,143.523 45.907,143.173 46.224 C 142.823 46.541,141.919 46.800,141.165 46.800 C 140.272 46.800,139.634 47.054,139.339 47.527 C 139.008 48.057,138.307 48.280,136.747 48.351 C 135.529 48.406,134.323 48.708,133.943 49.051 C 133.577 49.383,132.509 49.709,131.571 49.776 C 130.572 49.847,129.667 50.168,129.388 50.549 C 129.092 50.953,128.334 51.200,127.387 51.200 C 126.537 51.200,125.543 51.490,125.140 51.854 C 124.742 52.214,123.648 52.576,122.708 52.659 C 121.769 52.741,120.800 53.076,120.556 53.404 C 120.291 53.759,119.463 54.000,118.505 54.000 C 116.982 54.000,115.700 54.767,116.270 55.337 C 116.415 55.482,115.533 55.600,114.309 55.600 C 112.702 55.600,112.022 55.766,111.855 56.200 C 111.703 56.596,111.077 56.800,110.013 56.800 C 108.933 56.800,108.135 57.065,107.600 57.600 C 107.160 58.040,106.271 58.400,105.624 58.400 C 104.977 58.400,104.334 58.583,104.196 58.807 C 104.058 59.030,103.796 59.121,103.614 59.009 C 103.433 58.896,103.185 59.063,103.063 59.380 C 102.924 59.742,102.476 59.888,101.853 59.775 C 100.226 59.480,98.811 60.246,98.547 61.564 C 98.390 62.351,98.128 62.670,97.756 62.528 C 97.390 62.387,97.200 62.602,97.200 63.157 C 97.200 63.646,96.944 64.000,96.590 64.000 C 96.255 64.000,95.809 64.450,95.600 65.000 C 95.391 65.550,95.078 66.000,94.905 66.000 C 94.578 66.000,93.981 67.006,93.184 68.900 C 92.930 69.505,92.469 70.000,92.161 70.000 C 91.852 70.000,91.600 70.227,91.600 70.504 C 91.600 70.781,91.240 71.232,90.800 71.507 C 90.360 71.782,90.000 72.434,90.000 72.957 C 90.000 73.570,89.717 73.981,89.200 74.116 C 88.760 74.231,88.400 74.612,88.400 74.963 C 88.400 75.313,88.232 75.600,88.027 75.600 C 87.822 75.600,87.540 75.960,87.400 76.400 C 87.260 76.840,86.908 77.200,86.616 77.200 C 86.036 77.200,85.434 79.008,85.811 79.618 C 85.941 79.828,85.773 80.000,85.438 80.000 C 85.102 80.000,84.635 80.360,84.400 80.800 C 84.165 81.240,83.708 81.600,83.386 81.600 C 83.064 81.600,82.800 81.960,82.800 82.400 C 82.800 82.840,82.616 83.200,82.391 83.200 C 82.167 83.200,81.765 83.695,81.500 84.300 C 81.234 84.905,80.788 85.544,80.508 85.720 C 80.229 85.896,80.000 86.301,80.000 86.620 C 80.000 86.939,79.736 87.200,79.413 87.200 C 79.029 87.200,78.914 87.431,79.081 87.866 C 79.252 88.313,79.183 88.436,78.868 88.242 C 78.557 88.050,78.400 88.297,78.400 88.976 C 78.400 89.620,78.177 90.000,77.800 90.000 C 77.265 90.000,76.989 90.766,77.170 91.751 C 77.205 91.944,76.866 92.006,76.417 91.889 C 75.818 91.732,75.600 91.867,75.600 92.395 C 75.600 92.791,75.330 93.218,75.000 93.345 C 74.316 93.607,74.184 94.400,74.824 94.400 C 75.057 94.400,75.136 94.220,75.000 94.000 C 74.726 93.557,75.221 93.480,76.118 93.824 C 77.424 94.325,75.965 96.067,74.469 95.794 C 73.351 95.591,73.103 95.684,72.922 96.376 C 72.804 96.829,72.458 97.200,72.153 97.200 C 71.849 97.200,71.586 97.335,71.569 97.500 C 71.553 97.665,71.451 98.160,71.345 98.600 C 71.238 99.040,71.170 100.165,71.194 101.100 C 71.238 102.843,70.728 103.314,70.069 102.138 C 69.629 101.352,68.400 101.682,68.400 102.587 C 68.400 102.924,68.132 103.200,67.805 103.200 C 67.421 103.200,67.120 103.759,66.958 104.770 C 66.781 105.882,66.546 106.277,66.154 106.127 C 65.849 106.010,65.600 106.114,65.600 106.357 C 65.600 106.601,65.825 106.803,66.100 106.806 C 66.473 106.811,66.464 106.899,66.064 107.152 C 65.769 107.339,65.564 108.011,65.607 108.646 C 65.748 110.734,65.694 110.826,64.613 110.333 C 64.069 110.085,63.720 109.729,63.836 109.542 C 63.952 109.354,63.887 109.200,63.691 109.200 C 63.277 109.200,62.346 111.990,62.615 112.424 C 62.714 112.585,62.547 112.812,62.243 112.928 C 61.856 113.077,61.751 112.909,61.892 112.370 C 62.003 111.947,61.892 111.600,61.647 111.600 C 61.401 111.600,61.200 111.960,61.200 112.400 C 61.200 112.870,60.933 113.200,60.553 113.200 C 60.103 113.200,59.970 113.444,60.116 114.001 C 60.231 114.441,60.162 114.700,59.963 114.577 C 59.763 114.454,59.600 114.723,59.600 115.176 C 59.600 115.642,59.339 116.000,59.000 116.000 C 58.670 116.000,58.400 116.258,58.400 116.573 C 58.400 116.888,58.040 117.260,57.600 117.400 C 57.160 117.540,56.800 117.893,56.800 118.184 C 56.800 118.476,56.518 118.822,56.174 118.954 C 55.830 119.087,55.581 119.511,55.620 119.897 C 55.759 121.255,55.593 121.600,54.800 121.600 C 54.267 121.600,54.000 121.867,54.000 122.400 C 54.000 122.858,53.733 123.200,53.376 123.200 C 53.033 123.200,52.851 123.360,52.972 123.555 C 53.093 123.750,52.895 124.155,52.534 124.455 C 52.172 124.755,51.632 125.585,51.333 126.300 C 51.034 127.015,50.522 127.600,50.195 127.600 C 49.867 127.600,49.600 127.959,49.600 128.400 C 49.600 128.840,49.375 129.155,49.100 129.100 C 48.819 129.044,48.545 129.481,48.473 130.100 C 48.404 130.705,47.999 131.387,47.573 131.614 C 47.148 131.842,46.800 132.292,46.800 132.614 C 46.800 132.936,46.530 133.200,46.200 133.200 C 45.870 133.200,45.600 133.367,45.600 133.571 C 45.600 133.776,45.317 134.226,44.971 134.571 C 44.400 135.143,44.402 135.200,44.995 135.200 C 45.356 135.200,45.529 135.391,45.383 135.627 C 45.238 135.862,44.867 135.958,44.560 135.840 C 44.192 135.699,44.000 135.908,44.000 136.450 C 44.000 136.937,43.674 137.360,43.204 137.483 C 42.767 137.597,42.502 137.841,42.616 138.025 C 42.729 138.209,42.457 138.555,42.011 138.794 C 41.565 139.033,41.200 139.517,41.200 139.870 C 41.200 140.223,40.885 140.757,40.500 141.057 C 39.833 141.576,39.833 141.590,40.500 141.358 C 41.102 141.149,41.200 141.377,41.200 142.987 C 41.200 144.561,41.089 144.834,40.500 144.706 C 40.115 144.621,39.839 144.355,39.887 144.114 C 39.935 143.873,39.720 143.578,39.408 143.458 C 39.014 143.307,38.916 143.438,39.088 143.886 C 39.249 144.303,39.177 144.433,38.887 144.254 C 38.640 144.101,38.069 144.291,37.619 144.677 C 36.520 145.617,36.447 148.400,37.520 148.400 C 37.916 148.400,38.411 148.554,38.620 148.743 C 38.829 148.932,42.420 150.669,46.600 152.604 C 55.965 156.939,59.469 158.573,64.600 161.000 C 66.800 162.041,69.590 163.339,70.800 163.885 C 72.899 164.833,74.063 165.372,81.400 168.800 C 83.160 169.622,85.860 170.882,87.400 171.600 C 91.256 173.397,95.891 175.570,100.404 177.695 C 105.015 179.867,104.773 179.582,106.590 185.000 C 107.401 187.420,108.230 189.571,108.432 189.780 C 108.635 189.989,108.800 190.496,108.800 190.906 C 108.800 191.316,109.146 192.495,109.570 193.526 C 110.676 196.220,112.803 201.995,113.206 203.400 C 113.395 204.060,114.015 205.860,114.584 207.400 C 115.152 208.940,116.226 211.910,116.970 214.000 C 117.714 216.090,119.264 220.410,120.414 223.600 C 121.564 226.790,122.824 230.300,123.215 231.400 C 123.605 232.500,124.671 235.470,125.583 238.000 C 126.495 240.530,127.872 244.400,128.642 246.600 C 129.412 248.800,130.370 251.500,130.770 252.600 C 132.029 256.056,135.617 266.129,136.185 267.800 C 136.484 268.680,137.391 271.200,138.199 273.400 C 141.863 283.372,141.850 283.306,140.392 285.000 C 140.013 285.440,139.079 286.700,138.316 287.800 C 137.553 288.900,135.055 292.387,132.764 295.549 C 130.474 298.711,127.700 302.604,126.600 304.199 C 123.677 308.439,122.285 310.384,117.817 316.476 C 113.556 322.284,109.432 328.041,107.320 331.129 C 106.615 332.158,105.854 333.214,105.626 333.476 C 105.008 334.188,102.866 337.223,101.938 338.700 C 101.488 339.415,100.948 340.000,100.737 340.000 C 100.526 340.000,100.432 340.135,100.529 340.300 C 101.037 341.163,99.989 342.538,99.415 341.762 C 98.921 341.096,98.863 341.086,98.947 341.688 C 99.088 342.693,99.433 342.918,101.097 343.089 C 101.919 343.173,102.738 343.503,102.916 343.821 C 103.125 344.195,103.889 344.400,105.076 344.400 C 106.363 344.400,107.065 344.609,107.424 345.100 C 107.971 345.848,108.053 345.873,110.200 345.950 C 111.156 345.984,111.600 346.190,111.600 346.600 C 111.600 346.930,111.915 347.227,112.300 347.261 C 112.685 347.295,113.450 347.357,114.000 347.400 C 115.868 347.546,116.000 347.600,116.000 348.218 C 116.000 348.557,116.225 348.806,116.500 348.770 C 118.604 348.497,120.320 348.851,120.516 349.600 C 120.686 350.250,121.062 350.400,122.520 350.400 C 123.751 350.400,124.387 350.590,124.546 351.004 C 124.673 351.336,124.918 351.584,125.089 351.556 C 126.869 351.264,128.727 351.679,128.919 352.411 C 129.036 352.858,129.282 353.196,129.466 353.164 C 131.145 352.869,133.551 353.263,133.345 353.800 C 133.195 354.190,133.374 354.424,133.857 354.468 C 134.266 354.506,134.870 354.577,135.200 354.626 C 135.530 354.675,136.205 354.734,136.700 354.757 C 137.200 354.781,137.600 355.058,137.600 355.380 C 137.600 355.806,138.213 355.992,139.900 356.080 C 141.624 356.170,142.200 356.350,142.202 356.800 C 142.203 357.224,142.672 357.416,143.802 357.453 C 145.691 357.516,146.883 357.942,146.574 358.442 C 146.452 358.639,147.242 358.800,148.330 358.800 C 149.994 358.800,150.341 358.931,150.524 359.630 C 150.655 360.132,151.029 360.430,151.470 360.384 C 153.328 360.190,154.800 360.433,154.800 360.933 C 154.800 361.520,155.048 361.595,157.400 361.717 C 158.388 361.768,159.092 362.029,159.240 362.400 C 159.500 363.048,159.599 363.075,162.000 363.150 C 163.133 363.185,163.600 363.375,163.600 363.800 C 163.600 364.464,163.562 364.450,165.773 364.602 C 166.651 364.663,167.553 364.995,167.817 365.355 C 168.127 365.779,168.891 366.000,170.048 366.000 C 171.337 366.000,171.933 366.201,172.277 366.752 C 172.613 367.289,173.234 367.512,174.444 367.528 C 175.532 367.543,176.264 367.771,176.484 368.164 C 176.679 368.514,177.668 368.888,178.789 369.036 C 179.885 369.182,180.845 369.540,180.963 369.848 C 181.104 370.216,181.846 370.400,183.187 370.400 C 184.710 370.400,185.200 370.546,185.200 371.000 C 185.200 371.330,185.335 371.579,185.500 371.553 C 185.665 371.527,185.890 371.542,186.000 371.586 C 186.110 371.630,186.912 371.740,187.782 371.830 C 188.653 371.920,189.496 372.229,189.658 372.517 C 189.819 372.805,190.727 373.083,191.675 373.135 C 192.624 373.187,193.598 373.490,193.840 373.808 C 194.081 374.127,194.396 374.270,194.540 374.127 C 194.683 373.984,194.800 374.054,194.800 374.284 C 194.800 374.537,196.179 374.726,198.300 374.765 L 201.800 374.829 201.600 329.514 C 201.430 290.980,201.484 284.095,201.962 283.500 C 202.488 282.845,204.371 282.800,231.213 282.800 C 253.682 282.800,259.990 282.692,260.306 282.300 C 260.844 281.634,264.440 272.246,265.600 268.478 C 266.151 266.690,269.171 258.258,269.568 257.400 C 269.771 256.960,271.048 253.450,272.406 249.600 C 273.764 245.750,276.118 239.135,277.637 234.900 C 279.157 230.665,281.643 223.735,283.162 219.500 C 284.681 215.265,287.031 208.650,288.384 204.800 C 289.738 200.950,291.629 195.640,292.587 193.000 C 297.831 178.546,297.726 179.967,293.753 177.200 C 292.331 176.210,289.459 174.140,287.371 172.600 C 285.283 171.060,281.375 168.214,278.687 166.275 C 275.999 164.336,271.269 160.916,268.177 158.675 C 265.084 156.434,259.954 152.725,256.777 150.434 C 251.290 146.476,242.956 140.447,219.400 123.395 C 213.680 119.255,207.849 115.042,206.441 114.033 C 205.034 113.025,203.360 111.750,202.722 111.200 L 201.562 110.200 201.481 69.200 L 201.400 28.200 198.600 28.142 C 197.060 28.110,195.530 28.181,195.200 28.299 M236.400 39.000 C 236.400 39.330,236.692 39.600,237.049 39.600 C 237.580 39.600,237.608 39.491,237.200 39.000 C 236.926 38.670,236.634 38.400,236.551 38.400 C 236.468 38.400,236.400 38.670,236.400 39.000 M240.675 40.258 C 240.153 40.780,240.402 41.200,241.233 41.200 C 241.699 41.200,241.997 40.990,241.908 40.725 C 241.713 40.140,241.046 39.888,240.675 40.258 M245.015 41.576 C 244.899 41.763,245.068 42.017,245.389 42.141 C 245.711 42.264,246.069 42.212,246.185 42.024 C 246.301 41.837,246.132 41.583,245.811 41.459 C 245.489 41.336,245.131 41.388,245.015 41.576 M249.400 43.600 C 249.264 43.820,249.523 44.000,249.976 44.000 C 250.429 44.000,250.800 43.820,250.800 43.600 C 250.800 43.380,250.541 43.200,250.224 43.200 C 249.907 43.200,249.536 43.380,249.400 43.600 M259.010 45.984 C 258.671 46.533,258.971 46.945,259.562 46.742 C 259.804 46.658,259.835 46.376,259.637 46.057 C 259.387 45.655,259.225 45.636,259.010 45.984 M262.656 47.078 C 261.974 47.759,262.469 48.407,263.605 48.321 C 264.652 48.241,265.155 47.410,264.167 47.394 C 263.965 47.391,263.600 47.260,263.356 47.105 C 263.111 46.949,262.796 46.937,262.656 47.078 M266.650 48.720 C 266.486 48.984,266.498 49.218,266.676 49.240 C 268.375 49.448,269.200 49.429,269.200 49.181 C 269.200 48.649,267.871 48.362,267.580 48.832 C 267.376 49.163,267.248 49.145,267.122 48.765 C 266.989 48.366,266.875 48.355,266.650 48.720 M271.500 50.012 C 271.995 50.211,272.400 50.560,272.400 50.787 C 272.400 51.014,272.670 51.200,273.000 51.200 C 273.966 51.200,273.690 50.414,272.574 49.990 C 271.285 49.500,270.277 49.521,271.500 50.012 M276.990 51.848 C 277.347 52.204,277.759 52.374,277.907 52.226 C 278.056 52.078,277.912 51.789,277.588 51.584 C 276.643 50.987,276.287 51.144,276.990 51.848 M285.284 54.877 C 286.409 55.743,286.800 55.778,286.800 55.013 C 286.800 54.629,286.569 54.514,286.134 54.681 C 285.704 54.846,285.566 54.779,285.743 54.492 C 285.913 54.217,285.705 54.072,285.193 54.111 C 284.389 54.171,284.392 54.191,285.284 54.877 M302.586 60.385 C 303.389 61.272,304.159 61.477,303.913 60.738 C 303.828 60.484,303.329 60.117,302.804 59.923 C 301.864 59.576,301.861 59.583,302.586 60.385 M305.902 64.241 C 306.179 64.366,306.322 64.603,306.220 64.767 C 306.118 64.932,306.302 65.067,306.629 65.067 C 307.486 65.067,307.078 64.217,306.167 64.107 C 305.745 64.056,305.626 64.116,305.902 64.241 M326.972 93.645 C 326.628 94.203,327.669 94.891,328.142 94.418 C 328.527 94.033,328.156 93.200,327.600 93.200 C 327.406 93.200,327.124 93.400,326.972 93.645 M72.794 99.300 C 72.791 100.235,72.656 100.802,72.494 100.560 C 72.332 100.318,71.951 100.040,71.646 99.942 C 71.201 99.799,71.226 99.631,71.775 99.082 C 72.150 98.707,72.344 98.400,72.205 98.400 C 72.066 98.400,72.064 98.220,72.200 98.000 C 72.654 97.266,72.800 97.586,72.794 99.300 M334.514 103.742 C 334.726 104.379,335.467 104.485,335.467 103.878 C 335.467 103.578,335.222 103.333,334.922 103.333 C 334.623 103.333,334.439 103.517,334.514 103.742 M336.000 105.527 C 336.000 106.535,336.634 107.010,336.934 106.227 C 337.054 105.914,336.893 105.443,336.576 105.180 C 336.106 104.790,336.000 104.854,336.000 105.527 M200.978 111.565 C 201.519 112.439,201.233 281.739,200.690 282.281 C 200.248 282.723,166.080 283.037,143.539 282.807 C 142.892 282.800,142.704 282.434,141.177 278.200 C 140.781 277.100,140.067 275.210,139.592 274.000 C 139.116 272.790,138.483 271.080,138.183 270.200 C 137.884 269.320,136.899 266.530,135.994 264.000 C 135.090 261.470,134.169 258.770,133.949 258.000 C 133.729 257.230,133.290 256.033,132.974 255.340 C 132.658 254.646,132.400 253.881,132.400 253.638 C 132.400 253.396,132.040 252.525,131.600 251.704 C 131.160 250.884,130.800 249.882,130.800 249.480 C 130.800 249.077,130.580 248.354,130.311 247.874 C 130.042 247.393,129.613 246.280,129.358 245.400 C 129.102 244.520,128.663 243.170,128.382 242.400 C 128.100 241.630,127.515 240.010,127.081 238.800 C 126.648 237.590,126.134 236.240,125.940 235.800 C 125.747 235.360,125.420 234.460,125.214 233.800 C 125.008 233.140,124.374 231.340,123.804 229.800 C 123.234 228.260,122.239 225.470,121.593 223.600 C 120.946 221.730,119.951 218.940,119.382 217.400 C 118.812 215.860,118.181 214.060,117.979 213.400 C 117.777 212.740,117.434 211.840,117.217 211.400 C 116.702 210.357,115.628 207.323,115.236 205.800 C 115.066 205.140,114.628 204.024,114.263 203.320 C 113.899 202.616,113.600 201.711,113.600 201.309 C 113.600 200.907,113.336 200.201,113.014 199.741 C 112.691 199.281,112.254 198.205,112.041 197.352 C 111.662 195.829,110.706 192.981,110.043 191.400 C 108.988 188.887,108.000 186.118,108.000 185.676 C 108.000 185.397,107.640 184.462,107.200 183.600 C 105.748 180.753,106.058 179.509,108.700 177.596 C 109.965 176.680,113.250 174.288,116.000 172.281 C 118.750 170.274,122.170 167.825,123.600 166.840 C 125.030 165.854,129.655 162.517,133.878 159.424 C 138.101 156.331,143.816 152.180,146.577 150.200 C 149.338 148.220,152.003 146.297,152.499 145.926 C 153.554 145.137,156.766 142.796,161.800 139.146 C 163.780 137.710,166.867 135.470,168.661 134.168 C 170.455 132.866,173.566 130.630,175.574 129.200 C 177.583 127.770,181.166 125.160,183.537 123.400 C 185.908 121.640,189.863 118.760,192.327 117.000 C 194.791 115.240,197.570 113.217,198.503 112.504 C 200.324 111.113,200.628 110.998,200.978 111.565 M343.232 115.467 C 343.253 115.960,343.334 116.022,343.480 115.655 C 343.663 115.194,343.756 115.194,344.079 115.655 C 344.395 116.105,344.434 116.100,344.305 115.625 C 344.071 114.757,343.195 114.628,343.232 115.467 M346.133 119.400 C 346.133 119.742,346.297 119.968,346.497 119.901 C 346.697 119.835,346.860 119.609,346.860 119.400 C 346.860 119.191,346.697 118.966,346.497 118.899 C 346.297 118.832,346.133 119.058,346.133 119.400 M357.426 135.158 C 357.304 135.355,357.468 135.617,357.789 135.741 C 358.415 135.980,358.948 135.482,358.522 135.056 C 358.161 134.694,357.685 134.739,357.426 135.158 M38.207 258.389 C 37.994 258.734,39.055 260.800,39.446 260.800 C 39.531 260.800,39.600 260.170,39.600 259.400 C 39.600 258.036,38.789 257.447,38.207 258.389 M42.832 265.886 C 42.814 266.153,43.142 266.555,43.561 266.779 C 44.213 267.128,44.291 267.069,44.105 266.359 C 43.959 265.801,43.793 265.688,43.593 266.011 C 43.370 266.371,43.243 266.355,43.080 265.945 C 42.936 265.583,42.853 265.563,42.832 265.886 M46.926 271.164 C 46.995 272.060,48.400 272.824,48.400 271.965 C 48.400 271.764,48.143 271.600,47.829 271.600 C 47.515 271.600,47.167 271.285,47.055 270.900 C 46.932 270.476,46.881 270.580,46.926 271.164 M48.667 272.667 C 48.153 273.181,48.399 273.975,49.000 273.745 C 49.483 273.559,49.833 274.056,49.532 274.500 C 49.495 274.555,49.682 275.005,49.946 275.500 C 50.589 276.701,51.200 276.641,51.200 275.376 C 51.200 274.813,51.028 274.459,50.817 274.589 C 50.606 274.720,50.152 274.280,49.807 273.613 C 49.133 272.310,49.073 272.260,48.667 272.667 M65.600 296.757 C 65.600 297.138,66.697 298.400,67.029 298.400 C 67.562 298.400,67.076 297.162,66.400 296.800 C 65.916 296.541,65.600 296.524,65.600 296.757 M69.371 301.829 C 69.717 302.174,70.000 302.714,70.000 303.029 C 70.000 303.343,70.270 303.600,70.600 303.600 C 70.930 303.600,71.200 303.519,71.200 303.421 C 71.200 303.115,69.325 301.200,69.026 301.200 C 68.870 301.200,69.026 301.483,69.371 301.829 M73.722 308.213 C 75.370 309.662,76.503 309.246,75.000 307.743 C 74.467 307.210,74.400 307.215,74.400 307.795 C 74.400 308.154,74.217 308.334,73.993 308.196 C 73.770 308.058,73.691 307.777,73.817 307.572 C 73.944 307.368,73.722 307.206,73.324 307.213 C 72.729 307.223,72.800 307.402,73.722 308.213 M78.400 314.713 C 78.400 314.910,78.850 315.277,79.400 315.527 C 79.950 315.778,80.406 316.302,80.413 316.691 C 80.420 317.081,80.685 317.743,81.002 318.162 C 81.531 318.860,81.563 318.795,81.383 317.389 C 81.275 316.544,81.144 315.841,81.093 315.826 C 81.042 315.812,80.415 315.475,79.700 315.077 C 78.985 314.680,78.400 314.516,78.400 314.713 M84.400 322.771 C 84.400 322.976,84.635 323.381,84.922 323.671 C 85.210 323.962,85.564 324.515,85.710 324.900 C 85.993 325.647,86.800 325.869,86.800 325.200 C 86.800 324.980,86.609 324.800,86.376 324.800 C 86.143 324.800,86.064 324.620,86.200 324.400 C 86.336 324.180,86.227 324.000,85.957 324.000 C 85.687 324.000,85.585 323.882,85.730 323.737 C 86.033 323.434,85.276 322.400,84.751 322.400 C 84.558 322.400,84.400 322.567,84.400 322.771 M317.900 322.676 C 317.515 322.776,317.200 323.143,317.200 323.491 C 317.200 324.038,317.309 324.025,318.000 323.400 C 318.680 322.784,319.046 322.286,318.700 322.446 C 318.645 322.472,318.285 322.575,317.900 322.676 M300.000 343.236 C 300.000 343.462,299.840 343.549,299.645 343.428 C 299.450 343.307,299.096 343.443,298.858 343.730 C 298.518 344.140,298.693 344.246,299.680 344.225 C 301.027 344.198,301.629 343.450,300.617 343.062 C 300.278 342.932,300.000 343.010,300.000 343.236 M293.894 344.639 C 293.763 344.771,293.752 345.131,293.870 345.439 C 294.248 346.423,296.800 346.004,296.800 344.957 C 296.800 344.398,294.398 344.135,293.894 344.639 M287.200 347.624 C 287.200 347.857,287.050 347.955,286.867 347.841 C 286.683 347.728,286.533 347.867,286.533 348.151 C 286.533 348.958,287.433 348.755,287.495 347.933 C 287.525 347.530,287.471 347.200,287.375 347.200 C 287.279 347.200,287.200 347.391,287.200 347.624 M282.302 349.085 C 282.579 349.186,282.703 349.433,282.579 349.634 C 282.455 349.835,282.614 350.000,282.934 350.000 C 284.026 350.000,283.946 349.002,282.849 348.951 C 282.272 348.923,282.026 348.984,282.302 349.085 M278.159 350.467 C 277.758 351.115,278.441 351.664,279.036 351.170 C 279.346 350.913,279.600 350.574,279.600 350.418 C 279.600 350.020,278.410 350.061,278.159 350.467 M273.327 351.860 C 273.470 352.004,273.294 352.336,272.935 352.598 C 272.359 353.019,272.385 353.067,273.154 353.011 C 274.666 352.899,275.648 351.600,274.219 351.600 C 273.585 351.600,273.184 351.717,273.327 351.860 M269.441 353.667 C 269.555 353.850,269.367 354.000,269.024 354.000 C 268.681 354.000,268.400 354.176,268.400 354.391 C 268.400 354.630,268.792 354.604,269.400 354.327 C 270.509 353.822,270.714 353.333,269.818 353.333 C 269.497 353.333,269.328 353.483,269.441 353.667 M264.800 355.000 C 264.800 355.747,265.177 355.743,266.176 354.987 C 266.921 354.424,266.909 354.400,265.876 354.400 C 265.186 354.400,264.800 354.615,264.800 355.000 M259.803 356.654 C 259.044 357.413,259.045 357.418,259.963 357.487 C 260.383 357.519,261.006 357.235,261.349 356.856 C 262.187 355.930,260.720 355.737,259.803 356.654 M255.579 357.687 C 254.365 358.135,254.612 358.934,255.867 358.619 C 257.639 358.174,258.736 357.265,257.411 357.340 C 256.832 357.373,256.008 357.529,255.579 357.687 M252.000 359.600 C 251.765 360.040,251.722 360.400,251.906 360.400 C 252.331 360.400,253.200 359.541,253.200 359.120 C 253.200 358.499,252.423 358.810,252.000 359.600 M243.242 362.293 C 242.955 362.601,242.812 362.945,242.925 363.059 C 243.195 363.328,244.800 362.467,244.800 362.053 C 244.800 361.534,243.808 361.688,243.242 362.293 M240.196 363.207 C 240.058 363.430,239.790 363.517,239.600 363.400 C 239.410 363.283,239.150 363.357,239.021 363.566 C 238.546 364.335,239.517 364.355,240.209 363.591 C 240.602 363.156,240.817 362.800,240.686 362.800 C 240.554 362.800,240.334 362.983,240.196 363.207 M229.084 366.800 C 228.843 367.721,229.401 367.896,229.742 367.007 C 229.867 366.680,230.228 366.513,230.544 366.634 C 230.860 366.755,231.238 366.662,231.383 366.427 C 231.548 366.161,231.203 366.000,230.470 366.000 C 229.630 366.000,229.234 366.229,229.084 366.800 M226.226 368.043 C 226.412 368.343,226.195 368.401,225.550 368.224 C 224.706 367.991,224.683 368.013,225.342 368.424 C 225.932 368.792,226.217 368.755,226.728 368.244 C 227.319 367.652,227.314 367.600,226.662 367.600 C 226.245 367.600,226.066 367.783,226.226 368.043 M220.032 369.100 C 220.014 369.375,219.955 369.718,219.900 369.862 C 219.845 370.006,220.116 370.170,220.502 370.227 C 220.888 370.283,221.102 370.166,220.978 369.965 C 220.854 369.764,220.943 369.600,221.176 369.600 C 221.409 369.600,221.600 369.808,221.600 370.062 C 221.600 370.324,221.948 370.209,222.402 369.798 C 222.844 369.398,223.104 368.971,222.981 368.847 C 222.857 368.724,222.589 368.888,222.384 369.212 C 222.119 369.632,222.010 369.653,222.006 369.286 C 222.002 368.903,221.804 368.877,221.232 369.183 C 220.674 369.482,220.410 369.458,220.264 369.097 C 220.105 368.703,220.057 368.704,220.032 369.100 M216.160 371.041 C 216.291 371.381,216.125 371.487,215.680 371.349 C 215.147 371.185,215.163 371.244,215.756 371.621 C 216.379 372.018,216.579 371.980,216.902 371.403 C 217.185 370.897,217.376 370.837,217.591 371.186 C 217.810 371.540,217.950 371.507,218.121 371.061 C 218.299 370.599,218.069 370.463,217.158 370.489 C 216.352 370.512,216.026 370.692,216.160 371.041 M209.695 372.465 C 209.017 373.143,209.072 373.624,209.798 373.346 C 210.126 373.219,210.296 372.955,210.174 372.758 C 210.052 372.561,210.143 372.400,210.376 372.400 C 210.609 372.400,210.803 372.625,210.806 372.900 C 210.811 373.266,210.905 373.254,211.158 372.855 C 211.400 372.472,211.568 372.445,211.722 372.765 C 211.859 373.052,211.903 373.032,211.839 372.710 C 211.701 372.015,210.305 371.855,209.695 372.465 M212.655 372.600 C 212.782 372.930,213.027 373.200,213.200 373.200 C 213.373 373.200,213.618 372.930,213.745 372.600 C 213.900 372.194,213.724 372.000,213.200 372.000 C 212.676 372.000,212.500 372.194,212.655 372.600 " stroke="none" fill="#fbeb63" fill-rule="evenodd"></path></g></svg>